G04 #@! TF.GenerationSoftware,KiCad,Pcbnew,(5.1.4)-1*
G04 #@! TF.CreationDate,2019-09-15T10:33:09+02:00*
G04 #@! TF.ProjectId,virtual_clues,76697274-7561-46c5-9f63-6c7565732e6b,rev?*
G04 #@! TF.SameCoordinates,Original*
G04 #@! TF.FileFunction,Legend,Top*
G04 #@! TF.FilePolarity,Positive*
%FSLAX46Y46*%
G04 Gerber Fmt 4.6, Leading zero omitted, Abs format (unit mm)*
G04 Created by KiCad (PCBNEW (5.1.4)-1) date 2019-09-15 10:33:09*
%MOMM*%
%LPD*%
G04 APERTURE LIST*
%ADD10C,0.300000*%
%ADD11C,0.100000*%
%ADD12C,0.120000*%
%ADD13C,0.150000*%
G04 APERTURE END LIST*
D10*
X90321428Y-84403571D02*
X90321428Y-85475000D01*
X90250000Y-85689285D01*
X90107142Y-85832142D01*
X89892857Y-85903571D01*
X89750000Y-85903571D01*
X91250000Y-85903571D02*
X91107142Y-85832142D01*
X91035714Y-85760714D01*
X90964285Y-85617857D01*
X90964285Y-85189285D01*
X91035714Y-85046428D01*
X91107142Y-84975000D01*
X91250000Y-84903571D01*
X91464285Y-84903571D01*
X91607142Y-84975000D01*
X91678571Y-85046428D01*
X91750000Y-85189285D01*
X91750000Y-85617857D01*
X91678571Y-85760714D01*
X91607142Y-85832142D01*
X91464285Y-85903571D01*
X91250000Y-85903571D01*
X92392857Y-85903571D02*
X92392857Y-84403571D01*
X93035714Y-85903571D02*
X93035714Y-85117857D01*
X92964285Y-84975000D01*
X92821428Y-84903571D01*
X92607142Y-84903571D01*
X92464285Y-84975000D01*
X92392857Y-85046428D01*
X94392857Y-85903571D02*
X94392857Y-85117857D01*
X94321428Y-84975000D01*
X94178571Y-84903571D01*
X93892857Y-84903571D01*
X93750000Y-84975000D01*
X94392857Y-85832142D02*
X94250000Y-85903571D01*
X93892857Y-85903571D01*
X93750000Y-85832142D01*
X93678571Y-85689285D01*
X93678571Y-85546428D01*
X93750000Y-85403571D01*
X93892857Y-85332142D01*
X94250000Y-85332142D01*
X94392857Y-85260714D01*
X95107142Y-84903571D02*
X95107142Y-85903571D01*
X95107142Y-85046428D02*
X95178571Y-84975000D01*
X95321428Y-84903571D01*
X95535714Y-84903571D01*
X95678571Y-84975000D01*
X95750000Y-85117857D01*
X95750000Y-85903571D01*
X96464285Y-84903571D02*
X96464285Y-85903571D01*
X96464285Y-85046428D02*
X96535714Y-84975000D01*
X96678571Y-84903571D01*
X96892857Y-84903571D01*
X97035714Y-84975000D01*
X97107142Y-85117857D01*
X97107142Y-85903571D01*
X98392857Y-85832142D02*
X98250000Y-85903571D01*
X97964285Y-85903571D01*
X97821428Y-85832142D01*
X97750000Y-85689285D01*
X97750000Y-85117857D01*
X97821428Y-84975000D01*
X97964285Y-84903571D01*
X98250000Y-84903571D01*
X98392857Y-84975000D01*
X98464285Y-85117857D01*
X98464285Y-85260714D01*
X97750000Y-85403571D01*
X99035714Y-85832142D02*
X99178571Y-85903571D01*
X99464285Y-85903571D01*
X99607142Y-85832142D01*
X99678571Y-85689285D01*
X99678571Y-85617857D01*
X99607142Y-85475000D01*
X99464285Y-85403571D01*
X99250000Y-85403571D01*
X99107142Y-85332142D01*
X99035714Y-85189285D01*
X99035714Y-85117857D01*
X99107142Y-84975000D01*
X99250000Y-84903571D01*
X99464285Y-84903571D01*
X99607142Y-84975000D01*
X102321428Y-85903571D02*
X101821428Y-85189285D01*
X101464285Y-85903571D02*
X101464285Y-84403571D01*
X102035714Y-84403571D01*
X102178571Y-84475000D01*
X102250000Y-84546428D01*
X102321428Y-84689285D01*
X102321428Y-84903571D01*
X102250000Y-85046428D01*
X102178571Y-85117857D01*
X102035714Y-85189285D01*
X101464285Y-85189285D01*
X103535714Y-85832142D02*
X103392857Y-85903571D01*
X103107142Y-85903571D01*
X102964285Y-85832142D01*
X102892857Y-85689285D01*
X102892857Y-85117857D01*
X102964285Y-84975000D01*
X103107142Y-84903571D01*
X103392857Y-84903571D01*
X103535714Y-84975000D01*
X103607142Y-85117857D01*
X103607142Y-85260714D01*
X102892857Y-85403571D01*
X104250000Y-85903571D02*
X104250000Y-84403571D01*
X104250000Y-84975000D02*
X104392857Y-84903571D01*
X104678571Y-84903571D01*
X104821428Y-84975000D01*
X104892857Y-85046428D01*
X104964285Y-85189285D01*
X104964285Y-85617857D01*
X104892857Y-85760714D01*
X104821428Y-85832142D01*
X104678571Y-85903571D01*
X104392857Y-85903571D01*
X104250000Y-85832142D01*
X105821428Y-85903571D02*
X105678571Y-85832142D01*
X105607142Y-85689285D01*
X105607142Y-84403571D01*
X106392857Y-85903571D02*
X106392857Y-84903571D01*
X106392857Y-84403571D02*
X106321428Y-84475000D01*
X106392857Y-84546428D01*
X106464285Y-84475000D01*
X106392857Y-84403571D01*
X106392857Y-84546428D01*
X107107142Y-84903571D02*
X107107142Y-85903571D01*
X107107142Y-85046428D02*
X107178571Y-84975000D01*
X107321428Y-84903571D01*
X107535714Y-84903571D01*
X107678571Y-84975000D01*
X107750000Y-85117857D01*
X107750000Y-85903571D01*
X109107142Y-84903571D02*
X109107142Y-86117857D01*
X109035714Y-86260714D01*
X108964285Y-86332142D01*
X108821428Y-86403571D01*
X108607142Y-86403571D01*
X108464285Y-86332142D01*
X109107142Y-85832142D02*
X108964285Y-85903571D01*
X108678571Y-85903571D01*
X108535714Y-85832142D01*
X108464285Y-85760714D01*
X108392857Y-85617857D01*
X108392857Y-85189285D01*
X108464285Y-85046428D01*
X108535714Y-84975000D01*
X108678571Y-84903571D01*
X108964285Y-84903571D01*
X109107142Y-84975000D01*
X94142857Y-86953571D02*
X94142857Y-88167857D01*
X94214285Y-88310714D01*
X94285714Y-88382142D01*
X94428571Y-88453571D01*
X94714285Y-88453571D01*
X94857142Y-88382142D01*
X94928571Y-88310714D01*
X95000000Y-88167857D01*
X95000000Y-86953571D01*
X95571428Y-86953571D02*
X96571428Y-86953571D01*
X95571428Y-88453571D01*
X96571428Y-88453571D01*
X97142857Y-88453571D02*
X97142857Y-86953571D01*
X97142857Y-87667857D02*
X98000000Y-87667857D01*
X98000000Y-88453571D02*
X98000000Y-86953571D01*
X100642857Y-88453571D02*
X99785714Y-88453571D01*
X100214285Y-88453571D02*
X100214285Y-86953571D01*
X100071428Y-87167857D01*
X99928571Y-87310714D01*
X99785714Y-87382142D01*
X101571428Y-86953571D02*
X101714285Y-86953571D01*
X101857142Y-87025000D01*
X101928571Y-87096428D01*
X102000000Y-87239285D01*
X102071428Y-87525000D01*
X102071428Y-87882142D01*
X102000000Y-88167857D01*
X101928571Y-88310714D01*
X101857142Y-88382142D01*
X101714285Y-88453571D01*
X101571428Y-88453571D01*
X101428571Y-88382142D01*
X101357142Y-88310714D01*
X101285714Y-88167857D01*
X101214285Y-87882142D01*
X101214285Y-87525000D01*
X101285714Y-87239285D01*
X101357142Y-87096428D01*
X101428571Y-87025000D01*
X101571428Y-86953571D01*
X102642857Y-87096428D02*
X102714285Y-87025000D01*
X102857142Y-86953571D01*
X103214285Y-86953571D01*
X103357142Y-87025000D01*
X103428571Y-87096428D01*
X103500000Y-87239285D01*
X103500000Y-87382142D01*
X103428571Y-87596428D01*
X102571428Y-88453571D01*
X103500000Y-88453571D01*
X104214285Y-88453571D02*
X104500000Y-88453571D01*
X104642857Y-88382142D01*
X104714285Y-88310714D01*
X104857142Y-88096428D01*
X104928571Y-87810714D01*
X104928571Y-87239285D01*
X104857142Y-87096428D01*
X104785714Y-87025000D01*
X104642857Y-86953571D01*
X104357142Y-86953571D01*
X104214285Y-87025000D01*
X104142857Y-87096428D01*
X104071428Y-87239285D01*
X104071428Y-87596428D01*
X104142857Y-87739285D01*
X104214285Y-87810714D01*
X104357142Y-87882142D01*
X104642857Y-87882142D01*
X104785714Y-87810714D01*
X104857142Y-87739285D01*
X104928571Y-87596428D01*
D11*
X73361904Y-96995238D02*
X73361904Y-97452380D01*
X73361904Y-97223809D02*
X72561904Y-97223809D01*
X72676190Y-97300000D01*
X72752380Y-97376190D01*
X72790476Y-97452380D01*
X72638095Y-96690476D02*
X72600000Y-96652380D01*
X72561904Y-96576190D01*
X72561904Y-96385714D01*
X72600000Y-96309523D01*
X72638095Y-96271428D01*
X72714285Y-96233333D01*
X72790476Y-96233333D01*
X72904761Y-96271428D01*
X73361904Y-96728571D01*
X73361904Y-96233333D01*
X72561904Y-96004761D02*
X73361904Y-95738095D01*
X72561904Y-95471428D01*
X72600000Y-102109523D02*
X72561904Y-102185714D01*
X72561904Y-102300000D01*
X72600000Y-102414285D01*
X72676190Y-102490476D01*
X72752380Y-102528571D01*
X72904761Y-102566666D01*
X73019047Y-102566666D01*
X73171428Y-102528571D01*
X73247619Y-102490476D01*
X73323809Y-102414285D01*
X73361904Y-102300000D01*
X73361904Y-102223809D01*
X73323809Y-102109523D01*
X73285714Y-102071428D01*
X73019047Y-102071428D01*
X73019047Y-102223809D01*
X73361904Y-101728571D02*
X72561904Y-101728571D01*
X73361904Y-101271428D01*
X72561904Y-101271428D01*
X73361904Y-100890476D02*
X72561904Y-100890476D01*
X72561904Y-100700000D01*
X72600000Y-100585714D01*
X72676190Y-100509523D01*
X72752380Y-100471428D01*
X72904761Y-100433333D01*
X73019047Y-100433333D01*
X73171428Y-100471428D01*
X73247619Y-100509523D01*
X73323809Y-100585714D01*
X73361904Y-100700000D01*
X73361904Y-100890476D01*
X122561904Y-72533333D02*
X122561904Y-72380952D01*
X122600000Y-72304761D01*
X122676190Y-72228571D01*
X122828571Y-72190476D01*
X123095238Y-72190476D01*
X123247619Y-72228571D01*
X123323809Y-72304761D01*
X123361904Y-72380952D01*
X123361904Y-72533333D01*
X123323809Y-72609523D01*
X123247619Y-72685714D01*
X123095238Y-72723809D01*
X122828571Y-72723809D01*
X122676190Y-72685714D01*
X122600000Y-72609523D01*
X122561904Y-72533333D01*
X122561904Y-71923809D02*
X123361904Y-71733333D01*
X122790476Y-71580952D01*
X123361904Y-71428571D01*
X122561904Y-71238095D01*
X122561904Y-63033333D02*
X122561904Y-62880952D01*
X122600000Y-62804761D01*
X122676190Y-62728571D01*
X122828571Y-62690476D01*
X123095238Y-62690476D01*
X123247619Y-62728571D01*
X123323809Y-62804761D01*
X123361904Y-62880952D01*
X123361904Y-63033333D01*
X123323809Y-63109523D01*
X123247619Y-63185714D01*
X123095238Y-63223809D01*
X122828571Y-63223809D01*
X122676190Y-63185714D01*
X122600000Y-63109523D01*
X122561904Y-63033333D01*
X122561904Y-62423809D02*
X123361904Y-62233333D01*
X122790476Y-62080952D01*
X123361904Y-61928571D01*
X122561904Y-61738095D01*
X122561904Y-53533333D02*
X122561904Y-53380952D01*
X122600000Y-53304761D01*
X122676190Y-53228571D01*
X122828571Y-53190476D01*
X123095238Y-53190476D01*
X123247619Y-53228571D01*
X123323809Y-53304761D01*
X123361904Y-53380952D01*
X123361904Y-53533333D01*
X123323809Y-53609523D01*
X123247619Y-53685714D01*
X123095238Y-53723809D01*
X122828571Y-53723809D01*
X122676190Y-53685714D01*
X122600000Y-53609523D01*
X122561904Y-53533333D01*
X122561904Y-52923809D02*
X123361904Y-52733333D01*
X122790476Y-52580952D01*
X123361904Y-52428571D01*
X122561904Y-52238095D01*
X122561904Y-56566666D02*
X123361904Y-56300000D01*
X122561904Y-56033333D01*
X123285714Y-55309523D02*
X123323809Y-55347619D01*
X123361904Y-55461904D01*
X123361904Y-55538095D01*
X123323809Y-55652380D01*
X123247619Y-55728571D01*
X123171428Y-55766666D01*
X123019047Y-55804761D01*
X122904761Y-55804761D01*
X122752380Y-55766666D01*
X122676190Y-55728571D01*
X122600000Y-55652380D01*
X122561904Y-55538095D01*
X122561904Y-55461904D01*
X122600000Y-55347619D01*
X122638095Y-55309523D01*
X123285714Y-54509523D02*
X123323809Y-54547619D01*
X123361904Y-54661904D01*
X123361904Y-54738095D01*
X123323809Y-54852380D01*
X123247619Y-54928571D01*
X123171428Y-54966666D01*
X123019047Y-55004761D01*
X122904761Y-55004761D01*
X122752380Y-54966666D01*
X122676190Y-54928571D01*
X122600000Y-54852380D01*
X122561904Y-54738095D01*
X122561904Y-54661904D01*
X122600000Y-54547619D01*
X122638095Y-54509523D01*
X122561904Y-66066666D02*
X123361904Y-65800000D01*
X122561904Y-65533333D01*
X123285714Y-64809523D02*
X123323809Y-64847619D01*
X123361904Y-64961904D01*
X123361904Y-65038095D01*
X123323809Y-65152380D01*
X123247619Y-65228571D01*
X123171428Y-65266666D01*
X123019047Y-65304761D01*
X122904761Y-65304761D01*
X122752380Y-65266666D01*
X122676190Y-65228571D01*
X122600000Y-65152380D01*
X122561904Y-65038095D01*
X122561904Y-64961904D01*
X122600000Y-64847619D01*
X122638095Y-64809523D01*
X123285714Y-64009523D02*
X123323809Y-64047619D01*
X123361904Y-64161904D01*
X123361904Y-64238095D01*
X123323809Y-64352380D01*
X123247619Y-64428571D01*
X123171428Y-64466666D01*
X123019047Y-64504761D01*
X122904761Y-64504761D01*
X122752380Y-64466666D01*
X122676190Y-64428571D01*
X122600000Y-64352380D01*
X122561904Y-64238095D01*
X122561904Y-64161904D01*
X122600000Y-64047619D01*
X122638095Y-64009523D01*
X122561904Y-75566666D02*
X123361904Y-75300000D01*
X122561904Y-75033333D01*
X123285714Y-74309523D02*
X123323809Y-74347619D01*
X123361904Y-74461904D01*
X123361904Y-74538095D01*
X123323809Y-74652380D01*
X123247619Y-74728571D01*
X123171428Y-74766666D01*
X123019047Y-74804761D01*
X122904761Y-74804761D01*
X122752380Y-74766666D01*
X122676190Y-74728571D01*
X122600000Y-74652380D01*
X122561904Y-74538095D01*
X122561904Y-74461904D01*
X122600000Y-74347619D01*
X122638095Y-74309523D01*
X123285714Y-73509523D02*
X123323809Y-73547619D01*
X123361904Y-73661904D01*
X123361904Y-73738095D01*
X123323809Y-73852380D01*
X123247619Y-73928571D01*
X123171428Y-73966666D01*
X123019047Y-74004761D01*
X122904761Y-74004761D01*
X122752380Y-73966666D01*
X122676190Y-73928571D01*
X122600000Y-73852380D01*
X122561904Y-73738095D01*
X122561904Y-73661904D01*
X122600000Y-73547619D01*
X122638095Y-73509523D01*
X122600000Y-51109523D02*
X122561904Y-51185714D01*
X122561904Y-51300000D01*
X122600000Y-51414285D01*
X122676190Y-51490476D01*
X122752380Y-51528571D01*
X122904761Y-51566666D01*
X123019047Y-51566666D01*
X123171428Y-51528571D01*
X123247619Y-51490476D01*
X123323809Y-51414285D01*
X123361904Y-51300000D01*
X123361904Y-51223809D01*
X123323809Y-51109523D01*
X123285714Y-51071428D01*
X123019047Y-51071428D01*
X123019047Y-51223809D01*
X123361904Y-50728571D02*
X122561904Y-50728571D01*
X123361904Y-50271428D01*
X122561904Y-50271428D01*
X123361904Y-49890476D02*
X122561904Y-49890476D01*
X122561904Y-49700000D01*
X122600000Y-49585714D01*
X122676190Y-49509523D01*
X122752380Y-49471428D01*
X122904761Y-49433333D01*
X123019047Y-49433333D01*
X123171428Y-49471428D01*
X123247619Y-49509523D01*
X123323809Y-49585714D01*
X123361904Y-49700000D01*
X123361904Y-49890476D01*
X122600000Y-60609523D02*
X122561904Y-60685714D01*
X122561904Y-60800000D01*
X122600000Y-60914285D01*
X122676190Y-60990476D01*
X122752380Y-61028571D01*
X122904761Y-61066666D01*
X123019047Y-61066666D01*
X123171428Y-61028571D01*
X123247619Y-60990476D01*
X123323809Y-60914285D01*
X123361904Y-60800000D01*
X123361904Y-60723809D01*
X123323809Y-60609523D01*
X123285714Y-60571428D01*
X123019047Y-60571428D01*
X123019047Y-60723809D01*
X123361904Y-60228571D02*
X122561904Y-60228571D01*
X123361904Y-59771428D01*
X122561904Y-59771428D01*
X123361904Y-59390476D02*
X122561904Y-59390476D01*
X122561904Y-59200000D01*
X122600000Y-59085714D01*
X122676190Y-59009523D01*
X122752380Y-58971428D01*
X122904761Y-58933333D01*
X123019047Y-58933333D01*
X123171428Y-58971428D01*
X123247619Y-59009523D01*
X123323809Y-59085714D01*
X123361904Y-59200000D01*
X123361904Y-59390476D01*
X122600000Y-70109523D02*
X122561904Y-70185714D01*
X122561904Y-70300000D01*
X122600000Y-70414285D01*
X122676190Y-70490476D01*
X122752380Y-70528571D01*
X122904761Y-70566666D01*
X123019047Y-70566666D01*
X123171428Y-70528571D01*
X123247619Y-70490476D01*
X123323809Y-70414285D01*
X123361904Y-70300000D01*
X123361904Y-70223809D01*
X123323809Y-70109523D01*
X123285714Y-70071428D01*
X123019047Y-70071428D01*
X123019047Y-70223809D01*
X123361904Y-69728571D02*
X122561904Y-69728571D01*
X123361904Y-69271428D01*
X122561904Y-69271428D01*
X123361904Y-68890476D02*
X122561904Y-68890476D01*
X122561904Y-68700000D01*
X122600000Y-68585714D01*
X122676190Y-68509523D01*
X122752380Y-68471428D01*
X122904761Y-68433333D01*
X123019047Y-68433333D01*
X123171428Y-68471428D01*
X123247619Y-68509523D01*
X123323809Y-68585714D01*
X123361904Y-68700000D01*
X123361904Y-68890476D01*
X122561904Y-87566666D02*
X123361904Y-87300000D01*
X122561904Y-87033333D01*
X123285714Y-86309523D02*
X123323809Y-86347619D01*
X123361904Y-86461904D01*
X123361904Y-86538095D01*
X123323809Y-86652380D01*
X123247619Y-86728571D01*
X123171428Y-86766666D01*
X123019047Y-86804761D01*
X122904761Y-86804761D01*
X122752380Y-86766666D01*
X122676190Y-86728571D01*
X122600000Y-86652380D01*
X122561904Y-86538095D01*
X122561904Y-86461904D01*
X122600000Y-86347619D01*
X122638095Y-86309523D01*
X123285714Y-85509523D02*
X123323809Y-85547619D01*
X123361904Y-85661904D01*
X123361904Y-85738095D01*
X123323809Y-85852380D01*
X123247619Y-85928571D01*
X123171428Y-85966666D01*
X123019047Y-86004761D01*
X122904761Y-86004761D01*
X122752380Y-85966666D01*
X122676190Y-85928571D01*
X122600000Y-85852380D01*
X122561904Y-85738095D01*
X122561904Y-85661904D01*
X122600000Y-85547619D01*
X122638095Y-85509523D01*
X122600000Y-79609523D02*
X122561904Y-79685714D01*
X122561904Y-79800000D01*
X122600000Y-79914285D01*
X122676190Y-79990476D01*
X122752380Y-80028571D01*
X122904761Y-80066666D01*
X123019047Y-80066666D01*
X123171428Y-80028571D01*
X123247619Y-79990476D01*
X123323809Y-79914285D01*
X123361904Y-79800000D01*
X123361904Y-79723809D01*
X123323809Y-79609523D01*
X123285714Y-79571428D01*
X123019047Y-79571428D01*
X123019047Y-79723809D01*
X123361904Y-79228571D02*
X122561904Y-79228571D01*
X123361904Y-78771428D01*
X122561904Y-78771428D01*
X123361904Y-78390476D02*
X122561904Y-78390476D01*
X122561904Y-78200000D01*
X122600000Y-78085714D01*
X122676190Y-78009523D01*
X122752380Y-77971428D01*
X122904761Y-77933333D01*
X123019047Y-77933333D01*
X123171428Y-77971428D01*
X123247619Y-78009523D01*
X123323809Y-78085714D01*
X123361904Y-78200000D01*
X123361904Y-78390476D01*
X123323809Y-82471428D02*
X123361904Y-82357142D01*
X123361904Y-82166666D01*
X123323809Y-82090476D01*
X123285714Y-82052380D01*
X123209523Y-82014285D01*
X123133333Y-82014285D01*
X123057142Y-82052380D01*
X123019047Y-82090476D01*
X122980952Y-82166666D01*
X122942857Y-82319047D01*
X122904761Y-82395238D01*
X122866666Y-82433333D01*
X122790476Y-82471428D01*
X122714285Y-82471428D01*
X122638095Y-82433333D01*
X122600000Y-82395238D01*
X122561904Y-82319047D01*
X122561904Y-82128571D01*
X122600000Y-82014285D01*
X123361904Y-81671428D02*
X122561904Y-81671428D01*
X122561904Y-81480952D01*
X122600000Y-81366666D01*
X122676190Y-81290476D01*
X122752380Y-81252380D01*
X122904761Y-81214285D01*
X123019047Y-81214285D01*
X123171428Y-81252380D01*
X123247619Y-81290476D01*
X123323809Y-81366666D01*
X123361904Y-81480952D01*
X123361904Y-81671428D01*
X123133333Y-80909523D02*
X123133333Y-80528571D01*
X123361904Y-80985714D02*
X122561904Y-80719047D01*
X123361904Y-80452380D01*
X123323809Y-84952380D02*
X123361904Y-84838095D01*
X123361904Y-84647619D01*
X123323809Y-84571428D01*
X123285714Y-84533333D01*
X123209523Y-84495238D01*
X123133333Y-84495238D01*
X123057142Y-84533333D01*
X123019047Y-84571428D01*
X122980952Y-84647619D01*
X122942857Y-84800000D01*
X122904761Y-84876190D01*
X122866666Y-84914285D01*
X122790476Y-84952380D01*
X122714285Y-84952380D01*
X122638095Y-84914285D01*
X122600000Y-84876190D01*
X122561904Y-84800000D01*
X122561904Y-84609523D01*
X122600000Y-84495238D01*
X123285714Y-83695238D02*
X123323809Y-83733333D01*
X123361904Y-83847619D01*
X123361904Y-83923809D01*
X123323809Y-84038095D01*
X123247619Y-84114285D01*
X123171428Y-84152380D01*
X123019047Y-84190476D01*
X122904761Y-84190476D01*
X122752380Y-84152380D01*
X122676190Y-84114285D01*
X122600000Y-84038095D01*
X122561904Y-83923809D01*
X122561904Y-83847619D01*
X122600000Y-83733333D01*
X122638095Y-83695238D01*
X123361904Y-82971428D02*
X123361904Y-83352380D01*
X122561904Y-83352380D01*
D12*
X110460000Y-55380000D02*
X87140000Y-55380000D01*
X113000000Y-62280000D02*
X113000000Y-87710000D01*
X87140000Y-55380000D02*
X87140000Y-87710000D01*
X89260000Y-89840000D02*
X110870000Y-89840000D01*
D13*
G36*
X114040000Y-82135000D02*
G01*
X114040000Y-80865000D01*
X113405000Y-81500000D01*
X114040000Y-82135000D01*
G37*
X114040000Y-82135000D02*
X114040000Y-80865000D01*
X113405000Y-81500000D01*
X114040000Y-82135000D01*
D12*
X113000000Y-62280000D02*
X110460000Y-62280000D01*
X110460000Y-62280000D02*
X110460000Y-55380000D01*
X113000000Y-87710000D02*
G75*
G02X110870000Y-89840000I-2130000J0D01*
G01*
X89270000Y-89840000D02*
G75*
G02X87140000Y-87710000I0J2130000D01*
G01*
X90715000Y-90990302D02*
X89915000Y-90990302D01*
X90315000Y-90590302D02*
X90315000Y-91390302D01*
X88533000Y-99081000D02*
X87467000Y-99081000D01*
X88768000Y-99041000D02*
X87232000Y-99041000D01*
X88948000Y-99001000D02*
X87052000Y-99001000D01*
X89098000Y-98961000D02*
X86902000Y-98961000D01*
X89229000Y-98921000D02*
X86771000Y-98921000D01*
X89346000Y-98881000D02*
X86654000Y-98881000D01*
X89453000Y-98841000D02*
X86547000Y-98841000D01*
X89552000Y-98801000D02*
X86448000Y-98801000D01*
X89645000Y-98761000D02*
X86355000Y-98761000D01*
X89731000Y-98721000D02*
X86269000Y-98721000D01*
X89813000Y-98681000D02*
X86187000Y-98681000D01*
X89890000Y-98641000D02*
X86110000Y-98641000D01*
X89964000Y-98601000D02*
X86036000Y-98601000D01*
X90034000Y-98561000D02*
X85966000Y-98561000D01*
X86960000Y-98521000D02*
X85898000Y-98521000D01*
X90102000Y-98521000D02*
X89040000Y-98521000D01*
X86960000Y-98481000D02*
X85834000Y-98481000D01*
X90166000Y-98481000D02*
X89040000Y-98481000D01*
X86960000Y-98441000D02*
X85772000Y-98441000D01*
X90228000Y-98441000D02*
X89040000Y-98441000D01*
X86960000Y-98401000D02*
X85713000Y-98401000D01*
X90287000Y-98401000D02*
X89040000Y-98401000D01*
X86960000Y-98361000D02*
X85655000Y-98361000D01*
X90345000Y-98361000D02*
X89040000Y-98361000D01*
X86960000Y-98321000D02*
X85600000Y-98321000D01*
X90400000Y-98321000D02*
X89040000Y-98321000D01*
X86960000Y-98281000D02*
X85546000Y-98281000D01*
X90454000Y-98281000D02*
X89040000Y-98281000D01*
X86960000Y-98241000D02*
X85495000Y-98241000D01*
X90505000Y-98241000D02*
X89040000Y-98241000D01*
X86960000Y-98201000D02*
X85444000Y-98201000D01*
X90556000Y-98201000D02*
X89040000Y-98201000D01*
X86960000Y-98161000D02*
X85396000Y-98161000D01*
X90604000Y-98161000D02*
X89040000Y-98161000D01*
X86960000Y-98121000D02*
X85349000Y-98121000D01*
X90651000Y-98121000D02*
X89040000Y-98121000D01*
X86960000Y-98081000D02*
X85303000Y-98081000D01*
X90697000Y-98081000D02*
X89040000Y-98081000D01*
X86960000Y-98041000D02*
X85259000Y-98041000D01*
X90741000Y-98041000D02*
X89040000Y-98041000D01*
X86960000Y-98001000D02*
X85216000Y-98001000D01*
X90784000Y-98001000D02*
X89040000Y-98001000D01*
X86960000Y-97961000D02*
X85174000Y-97961000D01*
X90826000Y-97961000D02*
X89040000Y-97961000D01*
X86960000Y-97921000D02*
X85133000Y-97921000D01*
X90867000Y-97921000D02*
X89040000Y-97921000D01*
X86960000Y-97881000D02*
X85093000Y-97881000D01*
X90907000Y-97881000D02*
X89040000Y-97881000D01*
X86960000Y-97841000D02*
X85055000Y-97841000D01*
X90945000Y-97841000D02*
X89040000Y-97841000D01*
X86960000Y-97801000D02*
X85017000Y-97801000D01*
X90983000Y-97801000D02*
X89040000Y-97801000D01*
X86960000Y-97761000D02*
X84981000Y-97761000D01*
X91019000Y-97761000D02*
X89040000Y-97761000D01*
X86960000Y-97721000D02*
X84945000Y-97721000D01*
X91055000Y-97721000D02*
X89040000Y-97721000D01*
X86960000Y-97681000D02*
X84910000Y-97681000D01*
X91090000Y-97681000D02*
X89040000Y-97681000D01*
X86960000Y-97641000D02*
X84876000Y-97641000D01*
X91124000Y-97641000D02*
X89040000Y-97641000D01*
X86960000Y-97601000D02*
X84844000Y-97601000D01*
X91156000Y-97601000D02*
X89040000Y-97601000D01*
X86960000Y-97561000D02*
X84811000Y-97561000D01*
X91189000Y-97561000D02*
X89040000Y-97561000D01*
X86960000Y-97521000D02*
X84780000Y-97521000D01*
X91220000Y-97521000D02*
X89040000Y-97521000D01*
X86960000Y-97481000D02*
X84750000Y-97481000D01*
X91250000Y-97481000D02*
X89040000Y-97481000D01*
X86960000Y-97441000D02*
X84720000Y-97441000D01*
X91280000Y-97441000D02*
X89040000Y-97441000D01*
X86960000Y-97401000D02*
X84691000Y-97401000D01*
X91309000Y-97401000D02*
X89040000Y-97401000D01*
X86960000Y-97361000D02*
X84662000Y-97361000D01*
X91338000Y-97361000D02*
X89040000Y-97361000D01*
X86960000Y-97321000D02*
X84635000Y-97321000D01*
X91365000Y-97321000D02*
X89040000Y-97321000D01*
X86960000Y-97281000D02*
X84608000Y-97281000D01*
X91392000Y-97281000D02*
X89040000Y-97281000D01*
X86960000Y-97241000D02*
X84582000Y-97241000D01*
X91418000Y-97241000D02*
X89040000Y-97241000D01*
X86960000Y-97201000D02*
X84556000Y-97201000D01*
X91444000Y-97201000D02*
X89040000Y-97201000D01*
X86960000Y-97161000D02*
X84531000Y-97161000D01*
X91469000Y-97161000D02*
X89040000Y-97161000D01*
X86960000Y-97121000D02*
X84507000Y-97121000D01*
X91493000Y-97121000D02*
X89040000Y-97121000D01*
X86960000Y-97081000D02*
X84483000Y-97081000D01*
X91517000Y-97081000D02*
X89040000Y-97081000D01*
X86960000Y-97041000D02*
X84460000Y-97041000D01*
X91540000Y-97041000D02*
X89040000Y-97041000D01*
X86960000Y-97001000D02*
X84438000Y-97001000D01*
X91562000Y-97001000D02*
X89040000Y-97001000D01*
X86960000Y-96961000D02*
X84416000Y-96961000D01*
X91584000Y-96961000D02*
X89040000Y-96961000D01*
X86960000Y-96921000D02*
X84394000Y-96921000D01*
X91606000Y-96921000D02*
X89040000Y-96921000D01*
X86960000Y-96881000D02*
X84373000Y-96881000D01*
X91627000Y-96881000D02*
X89040000Y-96881000D01*
X86960000Y-96841000D02*
X84353000Y-96841000D01*
X91647000Y-96841000D02*
X89040000Y-96841000D01*
X86960000Y-96801000D02*
X84334000Y-96801000D01*
X91666000Y-96801000D02*
X89040000Y-96801000D01*
X86960000Y-96761000D02*
X84314000Y-96761000D01*
X91686000Y-96761000D02*
X89040000Y-96761000D01*
X86960000Y-96721000D02*
X84296000Y-96721000D01*
X91704000Y-96721000D02*
X89040000Y-96721000D01*
X86960000Y-96681000D02*
X84278000Y-96681000D01*
X91722000Y-96681000D02*
X89040000Y-96681000D01*
X86960000Y-96641000D02*
X84260000Y-96641000D01*
X91740000Y-96641000D02*
X89040000Y-96641000D01*
X86960000Y-96601000D02*
X84243000Y-96601000D01*
X91757000Y-96601000D02*
X89040000Y-96601000D01*
X86960000Y-96561000D02*
X84226000Y-96561000D01*
X91774000Y-96561000D02*
X89040000Y-96561000D01*
X86960000Y-96521000D02*
X84210000Y-96521000D01*
X91790000Y-96521000D02*
X89040000Y-96521000D01*
X86960000Y-96481000D02*
X84195000Y-96481000D01*
X91805000Y-96481000D02*
X89040000Y-96481000D01*
X91821000Y-96441000D02*
X84179000Y-96441000D01*
X91835000Y-96401000D02*
X84165000Y-96401000D01*
X91850000Y-96361000D02*
X84150000Y-96361000D01*
X91863000Y-96321000D02*
X84137000Y-96321000D01*
X91877000Y-96281000D02*
X84123000Y-96281000D01*
X91889000Y-96241000D02*
X84111000Y-96241000D01*
X91902000Y-96201000D02*
X84098000Y-96201000D01*
X91914000Y-96161000D02*
X84086000Y-96161000D01*
X91925000Y-96121000D02*
X84075000Y-96121000D01*
X91936000Y-96081000D02*
X84064000Y-96081000D01*
X91947000Y-96041000D02*
X84053000Y-96041000D01*
X91957000Y-96001000D02*
X84043000Y-96001000D01*
X91967000Y-95961000D02*
X84033000Y-95961000D01*
X91976000Y-95921000D02*
X84024000Y-95921000D01*
X91985000Y-95881000D02*
X84015000Y-95881000D01*
X91994000Y-95841000D02*
X84006000Y-95841000D01*
X92002000Y-95801000D02*
X83998000Y-95801000D01*
X92010000Y-95761000D02*
X83990000Y-95761000D01*
X92017000Y-95721000D02*
X83983000Y-95721000D01*
X92024000Y-95680000D02*
X83976000Y-95680000D01*
X92030000Y-95640000D02*
X83970000Y-95640000D01*
X92037000Y-95600000D02*
X83963000Y-95600000D01*
X92042000Y-95560000D02*
X83958000Y-95560000D01*
X92048000Y-95520000D02*
X83952000Y-95520000D01*
X92052000Y-95480000D02*
X83948000Y-95480000D01*
X92057000Y-95440000D02*
X83943000Y-95440000D01*
X92061000Y-95400000D02*
X83939000Y-95400000D01*
X92065000Y-95360000D02*
X83935000Y-95360000D01*
X92068000Y-95320000D02*
X83932000Y-95320000D01*
X92071000Y-95280000D02*
X83929000Y-95280000D01*
X92074000Y-95240000D02*
X83926000Y-95240000D01*
X92076000Y-95200000D02*
X83924000Y-95200000D01*
X92077000Y-95160000D02*
X83923000Y-95160000D01*
X92079000Y-95120000D02*
X83921000Y-95120000D01*
X92080000Y-95080000D02*
X83920000Y-95080000D01*
X92080000Y-95040000D02*
X83920000Y-95040000D01*
X92080000Y-95000000D02*
X83920000Y-95000000D01*
X92120000Y-95000000D02*
G75*
G03X92120000Y-95000000I-4120000J0D01*
G01*
X116725000Y-97195225D02*
X116225000Y-97195225D01*
X116475000Y-96945225D02*
X116475000Y-97445225D01*
X115284000Y-102351000D02*
X114716000Y-102351000D01*
X115518000Y-102311000D02*
X114482000Y-102311000D01*
X115677000Y-102271000D02*
X114323000Y-102271000D01*
X115805000Y-102231000D02*
X114195000Y-102231000D01*
X115915000Y-102191000D02*
X114085000Y-102191000D01*
X116011000Y-102151000D02*
X113989000Y-102151000D01*
X116098000Y-102111000D02*
X113902000Y-102111000D01*
X116178000Y-102071000D02*
X113822000Y-102071000D01*
X113960000Y-102031000D02*
X113749000Y-102031000D01*
X116251000Y-102031000D02*
X116040000Y-102031000D01*
X113960000Y-101991000D02*
X113681000Y-101991000D01*
X116319000Y-101991000D02*
X116040000Y-101991000D01*
X113960000Y-101951000D02*
X113617000Y-101951000D01*
X116383000Y-101951000D02*
X116040000Y-101951000D01*
X113960000Y-101911000D02*
X113557000Y-101911000D01*
X116443000Y-101911000D02*
X116040000Y-101911000D01*
X113960000Y-101871000D02*
X113500000Y-101871000D01*
X116500000Y-101871000D02*
X116040000Y-101871000D01*
X113960000Y-101831000D02*
X113446000Y-101831000D01*
X116554000Y-101831000D02*
X116040000Y-101831000D01*
X113960000Y-101791000D02*
X113395000Y-101791000D01*
X116605000Y-101791000D02*
X116040000Y-101791000D01*
X113960000Y-101751000D02*
X113347000Y-101751000D01*
X116653000Y-101751000D02*
X116040000Y-101751000D01*
X113960000Y-101711000D02*
X113301000Y-101711000D01*
X116699000Y-101711000D02*
X116040000Y-101711000D01*
X113960000Y-101671000D02*
X113257000Y-101671000D01*
X116743000Y-101671000D02*
X116040000Y-101671000D01*
X113960000Y-101631000D02*
X113215000Y-101631000D01*
X116785000Y-101631000D02*
X116040000Y-101631000D01*
X113960000Y-101591000D02*
X113174000Y-101591000D01*
X116826000Y-101591000D02*
X116040000Y-101591000D01*
X113960000Y-101551000D02*
X113136000Y-101551000D01*
X116864000Y-101551000D02*
X116040000Y-101551000D01*
X113960000Y-101511000D02*
X113099000Y-101511000D01*
X116901000Y-101511000D02*
X116040000Y-101511000D01*
X113960000Y-101471000D02*
X113063000Y-101471000D01*
X116937000Y-101471000D02*
X116040000Y-101471000D01*
X113960000Y-101431000D02*
X113029000Y-101431000D01*
X116971000Y-101431000D02*
X116040000Y-101431000D01*
X113960000Y-101391000D02*
X112996000Y-101391000D01*
X117004000Y-101391000D02*
X116040000Y-101391000D01*
X113960000Y-101351000D02*
X112965000Y-101351000D01*
X117035000Y-101351000D02*
X116040000Y-101351000D01*
X113960000Y-101311000D02*
X112935000Y-101311000D01*
X117065000Y-101311000D02*
X116040000Y-101311000D01*
X113960000Y-101271000D02*
X112905000Y-101271000D01*
X117095000Y-101271000D02*
X116040000Y-101271000D01*
X113960000Y-101231000D02*
X112878000Y-101231000D01*
X117122000Y-101231000D02*
X116040000Y-101231000D01*
X113960000Y-101191000D02*
X112851000Y-101191000D01*
X117149000Y-101191000D02*
X116040000Y-101191000D01*
X113960000Y-101151000D02*
X112825000Y-101151000D01*
X117175000Y-101151000D02*
X116040000Y-101151000D01*
X113960000Y-101111000D02*
X112800000Y-101111000D01*
X117200000Y-101111000D02*
X116040000Y-101111000D01*
X113960000Y-101071000D02*
X112776000Y-101071000D01*
X117224000Y-101071000D02*
X116040000Y-101071000D01*
X113960000Y-101031000D02*
X112753000Y-101031000D01*
X117247000Y-101031000D02*
X116040000Y-101031000D01*
X113960000Y-100991000D02*
X112732000Y-100991000D01*
X117268000Y-100991000D02*
X116040000Y-100991000D01*
X113960000Y-100951000D02*
X112710000Y-100951000D01*
X117290000Y-100951000D02*
X116040000Y-100951000D01*
X113960000Y-100911000D02*
X112690000Y-100911000D01*
X117310000Y-100911000D02*
X116040000Y-100911000D01*
X113960000Y-100871000D02*
X112671000Y-100871000D01*
X117329000Y-100871000D02*
X116040000Y-100871000D01*
X113960000Y-100831000D02*
X112652000Y-100831000D01*
X117348000Y-100831000D02*
X116040000Y-100831000D01*
X113960000Y-100791000D02*
X112635000Y-100791000D01*
X117365000Y-100791000D02*
X116040000Y-100791000D01*
X113960000Y-100751000D02*
X112618000Y-100751000D01*
X117382000Y-100751000D02*
X116040000Y-100751000D01*
X113960000Y-100711000D02*
X112602000Y-100711000D01*
X117398000Y-100711000D02*
X116040000Y-100711000D01*
X113960000Y-100671000D02*
X112586000Y-100671000D01*
X117414000Y-100671000D02*
X116040000Y-100671000D01*
X113960000Y-100631000D02*
X112572000Y-100631000D01*
X117428000Y-100631000D02*
X116040000Y-100631000D01*
X113960000Y-100591000D02*
X112558000Y-100591000D01*
X117442000Y-100591000D02*
X116040000Y-100591000D01*
X113960000Y-100551000D02*
X112545000Y-100551000D01*
X117455000Y-100551000D02*
X116040000Y-100551000D01*
X113960000Y-100511000D02*
X112532000Y-100511000D01*
X117468000Y-100511000D02*
X116040000Y-100511000D01*
X113960000Y-100471000D02*
X112520000Y-100471000D01*
X117480000Y-100471000D02*
X116040000Y-100471000D01*
X113960000Y-100430000D02*
X112509000Y-100430000D01*
X117491000Y-100430000D02*
X116040000Y-100430000D01*
X113960000Y-100390000D02*
X112499000Y-100390000D01*
X117501000Y-100390000D02*
X116040000Y-100390000D01*
X113960000Y-100350000D02*
X112489000Y-100350000D01*
X117511000Y-100350000D02*
X116040000Y-100350000D01*
X113960000Y-100310000D02*
X112480000Y-100310000D01*
X117520000Y-100310000D02*
X116040000Y-100310000D01*
X113960000Y-100270000D02*
X112472000Y-100270000D01*
X117528000Y-100270000D02*
X116040000Y-100270000D01*
X113960000Y-100230000D02*
X112464000Y-100230000D01*
X117536000Y-100230000D02*
X116040000Y-100230000D01*
X113960000Y-100190000D02*
X112457000Y-100190000D01*
X117543000Y-100190000D02*
X116040000Y-100190000D01*
X113960000Y-100150000D02*
X112450000Y-100150000D01*
X117550000Y-100150000D02*
X116040000Y-100150000D01*
X113960000Y-100110000D02*
X112444000Y-100110000D01*
X117556000Y-100110000D02*
X116040000Y-100110000D01*
X113960000Y-100070000D02*
X112439000Y-100070000D01*
X117561000Y-100070000D02*
X116040000Y-100070000D01*
X113960000Y-100030000D02*
X112435000Y-100030000D01*
X117565000Y-100030000D02*
X116040000Y-100030000D01*
X113960000Y-99990000D02*
X112431000Y-99990000D01*
X117569000Y-99990000D02*
X116040000Y-99990000D01*
X117573000Y-99950000D02*
X112427000Y-99950000D01*
X117576000Y-99910000D02*
X112424000Y-99910000D01*
X117578000Y-99870000D02*
X112422000Y-99870000D01*
X117579000Y-99830000D02*
X112421000Y-99830000D01*
X117580000Y-99790000D02*
X112420000Y-99790000D01*
X117580000Y-99750000D02*
X112420000Y-99750000D01*
X117620000Y-99750000D02*
G75*
G03X117620000Y-99750000I-2620000J0D01*
G01*
X108275000Y-105554775D02*
X108775000Y-105554775D01*
X108525000Y-105804775D02*
X108525000Y-105304775D01*
X109716000Y-100399000D02*
X110284000Y-100399000D01*
X109482000Y-100439000D02*
X110518000Y-100439000D01*
X109323000Y-100479000D02*
X110677000Y-100479000D01*
X109195000Y-100519000D02*
X110805000Y-100519000D01*
X109085000Y-100559000D02*
X110915000Y-100559000D01*
X108989000Y-100599000D02*
X111011000Y-100599000D01*
X108902000Y-100639000D02*
X111098000Y-100639000D01*
X108822000Y-100679000D02*
X111178000Y-100679000D01*
X108749000Y-100719000D02*
X111251000Y-100719000D01*
X108681000Y-100759000D02*
X111319000Y-100759000D01*
X108617000Y-100799000D02*
X111383000Y-100799000D01*
X108557000Y-100839000D02*
X111443000Y-100839000D01*
X108500000Y-100879000D02*
X111500000Y-100879000D01*
X108446000Y-100919000D02*
X111554000Y-100919000D01*
X108395000Y-100959000D02*
X111605000Y-100959000D01*
X111040000Y-100999000D02*
X111653000Y-100999000D01*
X108347000Y-100999000D02*
X108960000Y-100999000D01*
X111040000Y-101039000D02*
X111699000Y-101039000D01*
X108301000Y-101039000D02*
X108960000Y-101039000D01*
X111040000Y-101079000D02*
X111743000Y-101079000D01*
X108257000Y-101079000D02*
X108960000Y-101079000D01*
X111040000Y-101119000D02*
X111785000Y-101119000D01*
X108215000Y-101119000D02*
X108960000Y-101119000D01*
X111040000Y-101159000D02*
X111826000Y-101159000D01*
X108174000Y-101159000D02*
X108960000Y-101159000D01*
X111040000Y-101199000D02*
X111864000Y-101199000D01*
X108136000Y-101199000D02*
X108960000Y-101199000D01*
X111040000Y-101239000D02*
X111901000Y-101239000D01*
X108099000Y-101239000D02*
X108960000Y-101239000D01*
X111040000Y-101279000D02*
X111937000Y-101279000D01*
X108063000Y-101279000D02*
X108960000Y-101279000D01*
X111040000Y-101319000D02*
X111971000Y-101319000D01*
X108029000Y-101319000D02*
X108960000Y-101319000D01*
X111040000Y-101359000D02*
X112004000Y-101359000D01*
X107996000Y-101359000D02*
X108960000Y-101359000D01*
X111040000Y-101399000D02*
X112035000Y-101399000D01*
X107965000Y-101399000D02*
X108960000Y-101399000D01*
X111040000Y-101439000D02*
X112065000Y-101439000D01*
X107935000Y-101439000D02*
X108960000Y-101439000D01*
X111040000Y-101479000D02*
X112095000Y-101479000D01*
X107905000Y-101479000D02*
X108960000Y-101479000D01*
X111040000Y-101519000D02*
X112122000Y-101519000D01*
X107878000Y-101519000D02*
X108960000Y-101519000D01*
X111040000Y-101559000D02*
X112149000Y-101559000D01*
X107851000Y-101559000D02*
X108960000Y-101559000D01*
X111040000Y-101599000D02*
X112175000Y-101599000D01*
X107825000Y-101599000D02*
X108960000Y-101599000D01*
X111040000Y-101639000D02*
X112200000Y-101639000D01*
X107800000Y-101639000D02*
X108960000Y-101639000D01*
X111040000Y-101679000D02*
X112224000Y-101679000D01*
X107776000Y-101679000D02*
X108960000Y-101679000D01*
X111040000Y-101719000D02*
X112247000Y-101719000D01*
X107753000Y-101719000D02*
X108960000Y-101719000D01*
X111040000Y-101759000D02*
X112268000Y-101759000D01*
X107732000Y-101759000D02*
X108960000Y-101759000D01*
X111040000Y-101799000D02*
X112290000Y-101799000D01*
X107710000Y-101799000D02*
X108960000Y-101799000D01*
X111040000Y-101839000D02*
X112310000Y-101839000D01*
X107690000Y-101839000D02*
X108960000Y-101839000D01*
X111040000Y-101879000D02*
X112329000Y-101879000D01*
X107671000Y-101879000D02*
X108960000Y-101879000D01*
X111040000Y-101919000D02*
X112348000Y-101919000D01*
X107652000Y-101919000D02*
X108960000Y-101919000D01*
X111040000Y-101959000D02*
X112365000Y-101959000D01*
X107635000Y-101959000D02*
X108960000Y-101959000D01*
X111040000Y-101999000D02*
X112382000Y-101999000D01*
X107618000Y-101999000D02*
X108960000Y-101999000D01*
X111040000Y-102039000D02*
X112398000Y-102039000D01*
X107602000Y-102039000D02*
X108960000Y-102039000D01*
X111040000Y-102079000D02*
X112414000Y-102079000D01*
X107586000Y-102079000D02*
X108960000Y-102079000D01*
X111040000Y-102119000D02*
X112428000Y-102119000D01*
X107572000Y-102119000D02*
X108960000Y-102119000D01*
X111040000Y-102159000D02*
X112442000Y-102159000D01*
X107558000Y-102159000D02*
X108960000Y-102159000D01*
X111040000Y-102199000D02*
X112455000Y-102199000D01*
X107545000Y-102199000D02*
X108960000Y-102199000D01*
X111040000Y-102239000D02*
X112468000Y-102239000D01*
X107532000Y-102239000D02*
X108960000Y-102239000D01*
X111040000Y-102279000D02*
X112480000Y-102279000D01*
X107520000Y-102279000D02*
X108960000Y-102279000D01*
X111040000Y-102320000D02*
X112491000Y-102320000D01*
X107509000Y-102320000D02*
X108960000Y-102320000D01*
X111040000Y-102360000D02*
X112501000Y-102360000D01*
X107499000Y-102360000D02*
X108960000Y-102360000D01*
X111040000Y-102400000D02*
X112511000Y-102400000D01*
X107489000Y-102400000D02*
X108960000Y-102400000D01*
X111040000Y-102440000D02*
X112520000Y-102440000D01*
X107480000Y-102440000D02*
X108960000Y-102440000D01*
X111040000Y-102480000D02*
X112528000Y-102480000D01*
X107472000Y-102480000D02*
X108960000Y-102480000D01*
X111040000Y-102520000D02*
X112536000Y-102520000D01*
X107464000Y-102520000D02*
X108960000Y-102520000D01*
X111040000Y-102560000D02*
X112543000Y-102560000D01*
X107457000Y-102560000D02*
X108960000Y-102560000D01*
X111040000Y-102600000D02*
X112550000Y-102600000D01*
X107450000Y-102600000D02*
X108960000Y-102600000D01*
X111040000Y-102640000D02*
X112556000Y-102640000D01*
X107444000Y-102640000D02*
X108960000Y-102640000D01*
X111040000Y-102680000D02*
X112561000Y-102680000D01*
X107439000Y-102680000D02*
X108960000Y-102680000D01*
X111040000Y-102720000D02*
X112565000Y-102720000D01*
X107435000Y-102720000D02*
X108960000Y-102720000D01*
X111040000Y-102760000D02*
X112569000Y-102760000D01*
X107431000Y-102760000D02*
X108960000Y-102760000D01*
X111040000Y-102800000D02*
X112573000Y-102800000D01*
X107427000Y-102800000D02*
X108960000Y-102800000D01*
X111040000Y-102840000D02*
X112576000Y-102840000D01*
X107424000Y-102840000D02*
X108960000Y-102840000D01*
X111040000Y-102880000D02*
X112578000Y-102880000D01*
X107422000Y-102880000D02*
X108960000Y-102880000D01*
X111040000Y-102920000D02*
X112579000Y-102920000D01*
X107421000Y-102920000D02*
X108960000Y-102920000D01*
X107420000Y-102960000D02*
X108960000Y-102960000D01*
X111040000Y-102960000D02*
X112580000Y-102960000D01*
X107420000Y-103000000D02*
X108960000Y-103000000D01*
X111040000Y-103000000D02*
X112580000Y-103000000D01*
X112620000Y-103000000D02*
G75*
G03X112620000Y-103000000I-2620000J0D01*
G01*
X111725000Y-94195225D02*
X111225000Y-94195225D01*
X111475000Y-93945225D02*
X111475000Y-94445225D01*
X110284000Y-99351000D02*
X109716000Y-99351000D01*
X110518000Y-99311000D02*
X109482000Y-99311000D01*
X110677000Y-99271000D02*
X109323000Y-99271000D01*
X110805000Y-99231000D02*
X109195000Y-99231000D01*
X110915000Y-99191000D02*
X109085000Y-99191000D01*
X111011000Y-99151000D02*
X108989000Y-99151000D01*
X111098000Y-99111000D02*
X108902000Y-99111000D01*
X111178000Y-99071000D02*
X108822000Y-99071000D01*
X108960000Y-99031000D02*
X108749000Y-99031000D01*
X111251000Y-99031000D02*
X111040000Y-99031000D01*
X108960000Y-98991000D02*
X108681000Y-98991000D01*
X111319000Y-98991000D02*
X111040000Y-98991000D01*
X108960000Y-98951000D02*
X108617000Y-98951000D01*
X111383000Y-98951000D02*
X111040000Y-98951000D01*
X108960000Y-98911000D02*
X108557000Y-98911000D01*
X111443000Y-98911000D02*
X111040000Y-98911000D01*
X108960000Y-98871000D02*
X108500000Y-98871000D01*
X111500000Y-98871000D02*
X111040000Y-98871000D01*
X108960000Y-98831000D02*
X108446000Y-98831000D01*
X111554000Y-98831000D02*
X111040000Y-98831000D01*
X108960000Y-98791000D02*
X108395000Y-98791000D01*
X111605000Y-98791000D02*
X111040000Y-98791000D01*
X108960000Y-98751000D02*
X108347000Y-98751000D01*
X111653000Y-98751000D02*
X111040000Y-98751000D01*
X108960000Y-98711000D02*
X108301000Y-98711000D01*
X111699000Y-98711000D02*
X111040000Y-98711000D01*
X108960000Y-98671000D02*
X108257000Y-98671000D01*
X111743000Y-98671000D02*
X111040000Y-98671000D01*
X108960000Y-98631000D02*
X108215000Y-98631000D01*
X111785000Y-98631000D02*
X111040000Y-98631000D01*
X108960000Y-98591000D02*
X108174000Y-98591000D01*
X111826000Y-98591000D02*
X111040000Y-98591000D01*
X108960000Y-98551000D02*
X108136000Y-98551000D01*
X111864000Y-98551000D02*
X111040000Y-98551000D01*
X108960000Y-98511000D02*
X108099000Y-98511000D01*
X111901000Y-98511000D02*
X111040000Y-98511000D01*
X108960000Y-98471000D02*
X108063000Y-98471000D01*
X111937000Y-98471000D02*
X111040000Y-98471000D01*
X108960000Y-98431000D02*
X108029000Y-98431000D01*
X111971000Y-98431000D02*
X111040000Y-98431000D01*
X108960000Y-98391000D02*
X107996000Y-98391000D01*
X112004000Y-98391000D02*
X111040000Y-98391000D01*
X108960000Y-98351000D02*
X107965000Y-98351000D01*
X112035000Y-98351000D02*
X111040000Y-98351000D01*
X108960000Y-98311000D02*
X107935000Y-98311000D01*
X112065000Y-98311000D02*
X111040000Y-98311000D01*
X108960000Y-98271000D02*
X107905000Y-98271000D01*
X112095000Y-98271000D02*
X111040000Y-98271000D01*
X108960000Y-98231000D02*
X107878000Y-98231000D01*
X112122000Y-98231000D02*
X111040000Y-98231000D01*
X108960000Y-98191000D02*
X107851000Y-98191000D01*
X112149000Y-98191000D02*
X111040000Y-98191000D01*
X108960000Y-98151000D02*
X107825000Y-98151000D01*
X112175000Y-98151000D02*
X111040000Y-98151000D01*
X108960000Y-98111000D02*
X107800000Y-98111000D01*
X112200000Y-98111000D02*
X111040000Y-98111000D01*
X108960000Y-98071000D02*
X107776000Y-98071000D01*
X112224000Y-98071000D02*
X111040000Y-98071000D01*
X108960000Y-98031000D02*
X107753000Y-98031000D01*
X112247000Y-98031000D02*
X111040000Y-98031000D01*
X108960000Y-97991000D02*
X107732000Y-97991000D01*
X112268000Y-97991000D02*
X111040000Y-97991000D01*
X108960000Y-97951000D02*
X107710000Y-97951000D01*
X112290000Y-97951000D02*
X111040000Y-97951000D01*
X108960000Y-97911000D02*
X107690000Y-97911000D01*
X112310000Y-97911000D02*
X111040000Y-97911000D01*
X108960000Y-97871000D02*
X107671000Y-97871000D01*
X112329000Y-97871000D02*
X111040000Y-97871000D01*
X108960000Y-97831000D02*
X107652000Y-97831000D01*
X112348000Y-97831000D02*
X111040000Y-97831000D01*
X108960000Y-97791000D02*
X107635000Y-97791000D01*
X112365000Y-97791000D02*
X111040000Y-97791000D01*
X108960000Y-97751000D02*
X107618000Y-97751000D01*
X112382000Y-97751000D02*
X111040000Y-97751000D01*
X108960000Y-97711000D02*
X107602000Y-97711000D01*
X112398000Y-97711000D02*
X111040000Y-97711000D01*
X108960000Y-97671000D02*
X107586000Y-97671000D01*
X112414000Y-97671000D02*
X111040000Y-97671000D01*
X108960000Y-97631000D02*
X107572000Y-97631000D01*
X112428000Y-97631000D02*
X111040000Y-97631000D01*
X108960000Y-97591000D02*
X107558000Y-97591000D01*
X112442000Y-97591000D02*
X111040000Y-97591000D01*
X108960000Y-97551000D02*
X107545000Y-97551000D01*
X112455000Y-97551000D02*
X111040000Y-97551000D01*
X108960000Y-97511000D02*
X107532000Y-97511000D01*
X112468000Y-97511000D02*
X111040000Y-97511000D01*
X108960000Y-97471000D02*
X107520000Y-97471000D01*
X112480000Y-97471000D02*
X111040000Y-97471000D01*
X108960000Y-97430000D02*
X107509000Y-97430000D01*
X112491000Y-97430000D02*
X111040000Y-97430000D01*
X108960000Y-97390000D02*
X107499000Y-97390000D01*
X112501000Y-97390000D02*
X111040000Y-97390000D01*
X108960000Y-97350000D02*
X107489000Y-97350000D01*
X112511000Y-97350000D02*
X111040000Y-97350000D01*
X108960000Y-97310000D02*
X107480000Y-97310000D01*
X112520000Y-97310000D02*
X111040000Y-97310000D01*
X108960000Y-97270000D02*
X107472000Y-97270000D01*
X112528000Y-97270000D02*
X111040000Y-97270000D01*
X108960000Y-97230000D02*
X107464000Y-97230000D01*
X112536000Y-97230000D02*
X111040000Y-97230000D01*
X108960000Y-97190000D02*
X107457000Y-97190000D01*
X112543000Y-97190000D02*
X111040000Y-97190000D01*
X108960000Y-97150000D02*
X107450000Y-97150000D01*
X112550000Y-97150000D02*
X111040000Y-97150000D01*
X108960000Y-97110000D02*
X107444000Y-97110000D01*
X112556000Y-97110000D02*
X111040000Y-97110000D01*
X108960000Y-97070000D02*
X107439000Y-97070000D01*
X112561000Y-97070000D02*
X111040000Y-97070000D01*
X108960000Y-97030000D02*
X107435000Y-97030000D01*
X112565000Y-97030000D02*
X111040000Y-97030000D01*
X108960000Y-96990000D02*
X107431000Y-96990000D01*
X112569000Y-96990000D02*
X111040000Y-96990000D01*
X112573000Y-96950000D02*
X107427000Y-96950000D01*
X112576000Y-96910000D02*
X107424000Y-96910000D01*
X112578000Y-96870000D02*
X107422000Y-96870000D01*
X112579000Y-96830000D02*
X107421000Y-96830000D01*
X112580000Y-96790000D02*
X107420000Y-96790000D01*
X112580000Y-96750000D02*
X107420000Y-96750000D01*
X112620000Y-96750000D02*
G75*
G03X112620000Y-96750000I-2620000J0D01*
G01*
X80170000Y-30050000D02*
G75*
G02X85290000Y-30050000I2560000J0D01*
G01*
X85290000Y-36210000D02*
X85290000Y-30050000D01*
X80170000Y-36210000D02*
X80170000Y-30050000D01*
X85290000Y-36210000D02*
X80170000Y-36210000D01*
X79770000Y-36210000D02*
X79770000Y-35090000D01*
X79770000Y-35090000D02*
X80170000Y-35090000D01*
X80170000Y-35090000D02*
X80170000Y-36210000D01*
X80170000Y-36210000D02*
X79770000Y-36210000D01*
X84000000Y-41420000D02*
X84000000Y-36210000D01*
X84000000Y-36210000D02*
X84000000Y-36210000D01*
X84000000Y-36210000D02*
X84000000Y-41420000D01*
X84000000Y-41420000D02*
X84000000Y-41420000D01*
X81460000Y-41420000D02*
X81460000Y-36210000D01*
X81460000Y-36210000D02*
X81460000Y-36210000D01*
X81460000Y-36210000D02*
X81460000Y-41420000D01*
X81460000Y-41420000D02*
X81460000Y-41420000D01*
X82800000Y-104300000D02*
X82800000Y-103800000D01*
X82060000Y-104300000D02*
X82800000Y-104300000D01*
X74200000Y-95500000D02*
X75200000Y-95500000D01*
X74200000Y-97500000D02*
X75200000Y-97500000D01*
X75200000Y-97500000D02*
X75200000Y-95500000D01*
X74200000Y-97500000D02*
X74200000Y-95500000D01*
X79523000Y-97727000D02*
X79569000Y-97774000D01*
X77225000Y-95430000D02*
X77261000Y-95465000D01*
X79739000Y-97534000D02*
X79774000Y-97569000D01*
X77431000Y-95225000D02*
X77477000Y-95272000D01*
X74200000Y-100500000D02*
X75200000Y-100500000D01*
X74200000Y-102500000D02*
X75200000Y-102500000D01*
X75200000Y-102500000D02*
X75200000Y-100500000D01*
X74200000Y-102500000D02*
X74200000Y-100500000D01*
X74140000Y-93940000D02*
X82560000Y-93940000D01*
X74140000Y-104060000D02*
X82560000Y-104060000D01*
X82560000Y-104060000D02*
X82560000Y-93940000D01*
X74140000Y-104060000D02*
X74140000Y-93940000D01*
X76199000Y-104060000D02*
X76199000Y-93940000D01*
X80500000Y-104060000D02*
X80500000Y-93940000D01*
X82000000Y-104060000D02*
X82000000Y-93940000D01*
X80180000Y-96500000D02*
G75*
G03X80180000Y-96500000I-1680000J0D01*
G01*
X80180253Y-101471195D02*
G75*
G02X80035000Y-102184000I-1680253J-28805D01*
G01*
X79183042Y-103035426D02*
G75*
G02X77816000Y-103035000I-683042J1535426D01*
G01*
X76964574Y-102183042D02*
G75*
G02X76965000Y-100816000I1535426J683042D01*
G01*
X77816958Y-99964574D02*
G75*
G02X79184000Y-99965000I683042J-1535426D01*
G01*
X80034756Y-100816682D02*
G75*
G02X80180000Y-101500000I-1534756J-683318D01*
G01*
X87960000Y-41420000D02*
X87960000Y-41420000D01*
X87960000Y-36210000D02*
X87960000Y-41420000D01*
X87960000Y-36210000D02*
X87960000Y-36210000D01*
X87960000Y-41420000D02*
X87960000Y-36210000D01*
X90500000Y-41420000D02*
X90500000Y-41420000D01*
X90500000Y-36210000D02*
X90500000Y-41420000D01*
X90500000Y-36210000D02*
X90500000Y-36210000D01*
X90500000Y-41420000D02*
X90500000Y-36210000D01*
X86670000Y-36210000D02*
X86270000Y-36210000D01*
X86670000Y-35090000D02*
X86670000Y-36210000D01*
X86270000Y-35090000D02*
X86670000Y-35090000D01*
X86270000Y-36210000D02*
X86270000Y-35090000D01*
X91790000Y-36210000D02*
X86670000Y-36210000D01*
X86670000Y-36210000D02*
X86670000Y-30050000D01*
X91790000Y-36210000D02*
X91790000Y-30050000D01*
X86670000Y-30050000D02*
G75*
G02X91790000Y-30050000I2560000J0D01*
G01*
X80034756Y-89816682D02*
G75*
G02X80180000Y-90500000I-1534756J-683318D01*
G01*
X77816958Y-88964574D02*
G75*
G02X79184000Y-88965000I683042J-1535426D01*
G01*
X76964574Y-91183042D02*
G75*
G02X76965000Y-89816000I1535426J683042D01*
G01*
X79183042Y-92035426D02*
G75*
G02X77816000Y-92035000I-683042J1535426D01*
G01*
X80180253Y-90471195D02*
G75*
G02X80035000Y-91184000I-1680253J-28805D01*
G01*
X80180000Y-85500000D02*
G75*
G03X80180000Y-85500000I-1680000J0D01*
G01*
X82000000Y-93060000D02*
X82000000Y-82940000D01*
X80500000Y-93060000D02*
X80500000Y-82940000D01*
X76199000Y-93060000D02*
X76199000Y-82940000D01*
X74140000Y-93060000D02*
X74140000Y-82940000D01*
X82560000Y-93060000D02*
X82560000Y-82940000D01*
X74140000Y-93060000D02*
X82560000Y-93060000D01*
X74140000Y-82940000D02*
X82560000Y-82940000D01*
X74200000Y-91500000D02*
X74200000Y-89500000D01*
X75200000Y-91500000D02*
X75200000Y-89500000D01*
X74200000Y-91500000D02*
X75200000Y-91500000D01*
X74200000Y-89500000D02*
X75200000Y-89500000D01*
X77431000Y-84225000D02*
X77477000Y-84272000D01*
X79739000Y-86534000D02*
X79774000Y-86569000D01*
X77225000Y-84430000D02*
X77261000Y-84465000D01*
X79523000Y-86727000D02*
X79569000Y-86774000D01*
X74200000Y-86500000D02*
X74200000Y-84500000D01*
X75200000Y-86500000D02*
X75200000Y-84500000D01*
X74200000Y-86500000D02*
X75200000Y-86500000D01*
X74200000Y-84500000D02*
X75200000Y-84500000D01*
X82060000Y-93300000D02*
X82800000Y-93300000D01*
X82800000Y-93300000D02*
X82800000Y-92800000D01*
X115600000Y-67700000D02*
X115600000Y-68200000D01*
X116340000Y-67700000D02*
X115600000Y-67700000D01*
X122160000Y-76140000D02*
X115840000Y-76140000D01*
X122160000Y-67940000D02*
X115840000Y-67940000D01*
X115840000Y-75370000D02*
X115840000Y-76140000D01*
X115840000Y-72830000D02*
X115840000Y-73790000D01*
X115840000Y-70290000D02*
X115840000Y-71250000D01*
X115840000Y-67940000D02*
X115840000Y-68710000D01*
X122160000Y-67940000D02*
X122160000Y-76140000D01*
X121700000Y-67940000D02*
X121700000Y-76140000D01*
X116400000Y-75370000D02*
X116400000Y-76140000D01*
X116400000Y-72830000D02*
X116400000Y-73790000D01*
X116400000Y-70290000D02*
X116400000Y-71250000D01*
X116400000Y-67940000D02*
X116400000Y-68710000D01*
X116400000Y-77440000D02*
X116400000Y-88180000D01*
X121700000Y-77440000D02*
X121700000Y-88180000D01*
X122160000Y-77440000D02*
X122160000Y-88180000D01*
X115840000Y-77440000D02*
X115840000Y-88180000D01*
X122160000Y-77440000D02*
X115840000Y-77440000D01*
X122160000Y-88180000D02*
X115840000Y-88180000D01*
X116340000Y-77200000D02*
X115600000Y-77200000D01*
X115600000Y-77200000D02*
X115600000Y-77700000D01*
X116400000Y-58440000D02*
X116400000Y-59210000D01*
X116400000Y-60790000D02*
X116400000Y-61750000D01*
X116400000Y-63330000D02*
X116400000Y-64290000D01*
X116400000Y-65870000D02*
X116400000Y-66640000D01*
X121700000Y-58440000D02*
X121700000Y-66640000D01*
X122160000Y-58440000D02*
X122160000Y-66640000D01*
X115840000Y-58440000D02*
X115840000Y-59210000D01*
X115840000Y-60790000D02*
X115840000Y-61750000D01*
X115840000Y-63330000D02*
X115840000Y-64290000D01*
X115840000Y-65870000D02*
X115840000Y-66640000D01*
X122160000Y-58440000D02*
X115840000Y-58440000D01*
X122160000Y-66640000D02*
X115840000Y-66640000D01*
X116340000Y-58200000D02*
X115600000Y-58200000D01*
X115600000Y-58200000D02*
X115600000Y-58700000D01*
X88130000Y-55690000D02*
X90870000Y-55690000D01*
X90870000Y-55690000D02*
X90870000Y-49150000D01*
X90870000Y-49150000D02*
X88130000Y-49150000D01*
X88130000Y-49150000D02*
X88130000Y-55690000D01*
X89500000Y-56460000D02*
X89500000Y-55690000D01*
X89500000Y-48380000D02*
X89500000Y-49150000D01*
X104500000Y-48380000D02*
X104500000Y-49150000D01*
X104500000Y-56460000D02*
X104500000Y-55690000D01*
X103130000Y-49150000D02*
X103130000Y-55690000D01*
X105870000Y-49150000D02*
X103130000Y-49150000D01*
X105870000Y-55690000D02*
X105870000Y-49150000D01*
X103130000Y-55690000D02*
X105870000Y-55690000D01*
X96500000Y-48380000D02*
X96500000Y-49150000D01*
X96500000Y-56460000D02*
X96500000Y-55690000D01*
X95130000Y-49150000D02*
X95130000Y-55690000D01*
X97870000Y-49150000D02*
X95130000Y-49150000D01*
X97870000Y-55690000D02*
X97870000Y-49150000D01*
X95130000Y-55690000D02*
X97870000Y-55690000D01*
X116400000Y-89440000D02*
X116400000Y-90210000D01*
X116400000Y-91790000D02*
X116400000Y-92750000D01*
X116400000Y-94330000D02*
X116400000Y-95100000D01*
X121700000Y-89440000D02*
X121700000Y-95100000D01*
X122160000Y-89440000D02*
X122160000Y-95100000D01*
X115840000Y-89440000D02*
X115840000Y-90210000D01*
X115840000Y-91790000D02*
X115840000Y-92750000D01*
X115840000Y-94330000D02*
X115840000Y-95100000D01*
X122160000Y-89440000D02*
X115840000Y-89440000D01*
X122160000Y-95100000D02*
X115840000Y-95100000D01*
X116340000Y-89200000D02*
X115600000Y-89200000D01*
X115600000Y-89200000D02*
X115600000Y-89700000D01*
X75230000Y-57580000D02*
X75230000Y-47340000D01*
X79871000Y-57580000D02*
X79871000Y-47340000D01*
X75230000Y-57580000D02*
X79871000Y-57580000D01*
X75230000Y-47340000D02*
X79871000Y-47340000D01*
X76740000Y-57580000D02*
X76740000Y-47340000D01*
X75230000Y-54310000D02*
X76740000Y-54310000D01*
X75230000Y-50609000D02*
X76740000Y-50609000D01*
X96310000Y-65630000D02*
X96310000Y-68370000D01*
X96310000Y-68370000D02*
X102850000Y-68370000D01*
X102850000Y-68370000D02*
X102850000Y-65630000D01*
X102850000Y-65630000D02*
X96310000Y-65630000D01*
X95540000Y-67000000D02*
X96310000Y-67000000D01*
X103620000Y-67000000D02*
X102850000Y-67000000D01*
X95230000Y-98109000D02*
X96740000Y-98109000D01*
X95230000Y-101810000D02*
X96740000Y-101810000D01*
X96740000Y-105080000D02*
X96740000Y-94840000D01*
X95230000Y-94840000D02*
X99871000Y-94840000D01*
X95230000Y-105080000D02*
X99871000Y-105080000D01*
X99871000Y-105080000D02*
X99871000Y-94840000D01*
X95230000Y-105080000D02*
X95230000Y-94840000D01*
X104670000Y-30550000D02*
G75*
G02X109790000Y-30550000I2560000J0D01*
G01*
X109790000Y-36710000D02*
X109790000Y-30550000D01*
X104670000Y-36710000D02*
X104670000Y-30550000D01*
X109790000Y-36710000D02*
X104670000Y-36710000D01*
X104270000Y-36710000D02*
X104270000Y-35590000D01*
X104270000Y-35590000D02*
X104670000Y-35590000D01*
X104670000Y-35590000D02*
X104670000Y-36710000D01*
X104670000Y-36710000D02*
X104270000Y-36710000D01*
X108500000Y-41920000D02*
X108500000Y-36710000D01*
X108500000Y-36710000D02*
X108500000Y-36710000D01*
X108500000Y-36710000D02*
X108500000Y-41920000D01*
X108500000Y-41920000D02*
X108500000Y-41920000D01*
X105960000Y-41920000D02*
X105960000Y-36710000D01*
X105960000Y-36710000D02*
X105960000Y-36710000D01*
X105960000Y-36710000D02*
X105960000Y-41920000D01*
X105960000Y-41920000D02*
X105960000Y-41920000D01*
X82630000Y-55690000D02*
X85370000Y-55690000D01*
X85370000Y-55690000D02*
X85370000Y-49150000D01*
X85370000Y-49150000D02*
X82630000Y-49150000D01*
X82630000Y-49150000D02*
X82630000Y-55690000D01*
X84000000Y-56460000D02*
X84000000Y-55690000D01*
X84000000Y-48380000D02*
X84000000Y-49150000D01*
X96310000Y-69630000D02*
X96310000Y-72370000D01*
X96310000Y-72370000D02*
X102850000Y-72370000D01*
X102850000Y-72370000D02*
X102850000Y-69630000D01*
X102850000Y-69630000D02*
X96310000Y-69630000D01*
X95540000Y-71000000D02*
X96310000Y-71000000D01*
X103620000Y-71000000D02*
X102850000Y-71000000D01*
X116400000Y-48940000D02*
X116400000Y-49710000D01*
X116400000Y-51290000D02*
X116400000Y-52250000D01*
X116400000Y-53830000D02*
X116400000Y-54790000D01*
X116400000Y-56370000D02*
X116400000Y-57140000D01*
X121700000Y-48940000D02*
X121700000Y-57140000D01*
X122160000Y-48940000D02*
X122160000Y-57140000D01*
X115840000Y-48940000D02*
X115840000Y-49710000D01*
X115840000Y-51290000D02*
X115840000Y-52250000D01*
X115840000Y-53830000D02*
X115840000Y-54790000D01*
X115840000Y-56370000D02*
X115840000Y-57140000D01*
X122160000Y-48940000D02*
X115840000Y-48940000D01*
X122160000Y-57140000D02*
X115840000Y-57140000D01*
X116340000Y-48700000D02*
X115600000Y-48700000D01*
X115600000Y-48700000D02*
X115600000Y-49200000D01*
X82630000Y-68190000D02*
X85370000Y-68190000D01*
X85370000Y-68190000D02*
X85370000Y-61650000D01*
X85370000Y-61650000D02*
X82630000Y-61650000D01*
X82630000Y-61650000D02*
X82630000Y-68190000D01*
X84000000Y-68960000D02*
X84000000Y-68190000D01*
X84000000Y-60880000D02*
X84000000Y-61650000D01*
X80034756Y-78816682D02*
G75*
G02X80180000Y-79500000I-1534756J-683318D01*
G01*
X77816958Y-77964574D02*
G75*
G02X79184000Y-77965000I683042J-1535426D01*
G01*
X76964574Y-80183042D02*
G75*
G02X76965000Y-78816000I1535426J683042D01*
G01*
X79183042Y-81035426D02*
G75*
G02X77816000Y-81035000I-683042J1535426D01*
G01*
X80180253Y-79471195D02*
G75*
G02X80035000Y-80184000I-1680253J-28805D01*
G01*
X80180000Y-74500000D02*
G75*
G03X80180000Y-74500000I-1680000J0D01*
G01*
X82000000Y-82060000D02*
X82000000Y-71940000D01*
X80500000Y-82060000D02*
X80500000Y-71940000D01*
X76199000Y-82060000D02*
X76199000Y-71940000D01*
X74140000Y-82060000D02*
X74140000Y-71940000D01*
X82560000Y-82060000D02*
X82560000Y-71940000D01*
X74140000Y-82060000D02*
X82560000Y-82060000D01*
X74140000Y-71940000D02*
X82560000Y-71940000D01*
X74200000Y-80500000D02*
X74200000Y-78500000D01*
X75200000Y-80500000D02*
X75200000Y-78500000D01*
X74200000Y-80500000D02*
X75200000Y-80500000D01*
X74200000Y-78500000D02*
X75200000Y-78500000D01*
X77431000Y-73225000D02*
X77477000Y-73272000D01*
X79739000Y-75534000D02*
X79774000Y-75569000D01*
X77225000Y-73430000D02*
X77261000Y-73465000D01*
X79523000Y-75727000D02*
X79569000Y-75774000D01*
X74200000Y-75500000D02*
X74200000Y-73500000D01*
X75200000Y-75500000D02*
X75200000Y-73500000D01*
X74200000Y-75500000D02*
X75200000Y-75500000D01*
X74200000Y-73500000D02*
X75200000Y-73500000D01*
X82060000Y-82300000D02*
X82800000Y-82300000D01*
X82800000Y-82300000D02*
X82800000Y-81800000D01*
X110500000Y-48380000D02*
X110500000Y-49150000D01*
X110500000Y-56460000D02*
X110500000Y-55690000D01*
X109130000Y-49150000D02*
X109130000Y-55690000D01*
X111870000Y-49150000D02*
X109130000Y-49150000D01*
X111870000Y-55690000D02*
X111870000Y-49150000D01*
X109130000Y-55690000D02*
X111870000Y-55690000D01*
X75230000Y-70080000D02*
X75230000Y-59840000D01*
X79871000Y-70080000D02*
X79871000Y-59840000D01*
X75230000Y-70080000D02*
X79871000Y-70080000D01*
X75230000Y-59840000D02*
X79871000Y-59840000D01*
X76740000Y-70080000D02*
X76740000Y-59840000D01*
X75230000Y-66810000D02*
X76740000Y-66810000D01*
X75230000Y-63109000D02*
X76740000Y-63109000D01*
X111170000Y-30550000D02*
G75*
G02X116290000Y-30550000I2560000J0D01*
G01*
X116290000Y-36710000D02*
X116290000Y-30550000D01*
X111170000Y-36710000D02*
X111170000Y-30550000D01*
X116290000Y-36710000D02*
X111170000Y-36710000D01*
X110770000Y-36710000D02*
X110770000Y-35590000D01*
X110770000Y-35590000D02*
X111170000Y-35590000D01*
X111170000Y-35590000D02*
X111170000Y-36710000D01*
X111170000Y-36710000D02*
X110770000Y-36710000D01*
X115000000Y-41920000D02*
X115000000Y-36710000D01*
X115000000Y-36710000D02*
X115000000Y-36710000D01*
X115000000Y-36710000D02*
X115000000Y-41920000D01*
X115000000Y-41920000D02*
X115000000Y-41920000D01*
X112460000Y-41920000D02*
X112460000Y-36710000D01*
X112460000Y-36710000D02*
X112460000Y-36710000D01*
X112460000Y-36710000D02*
X112460000Y-41920000D01*
X112460000Y-41920000D02*
X112460000Y-41920000D01*
D13*
X86642857Y-53952380D02*
X86880952Y-54952380D01*
X87071428Y-54238095D01*
X87261904Y-54952380D01*
X87500000Y-53952380D01*
X88261904Y-54904761D02*
X88166666Y-54952380D01*
X87976190Y-54952380D01*
X87880952Y-54904761D01*
X87833333Y-54809523D01*
X87833333Y-54428571D01*
X87880952Y-54333333D01*
X87976190Y-54285714D01*
X88166666Y-54285714D01*
X88261904Y-54333333D01*
X88309523Y-54428571D01*
X88309523Y-54523809D01*
X87833333Y-54619047D01*
X88738095Y-54952380D02*
X88738095Y-54285714D01*
X88738095Y-54380952D02*
X88785714Y-54333333D01*
X88880952Y-54285714D01*
X89023809Y-54285714D01*
X89119047Y-54333333D01*
X89166666Y-54428571D01*
X89166666Y-54952380D01*
X89166666Y-54428571D02*
X89214285Y-54333333D01*
X89309523Y-54285714D01*
X89452380Y-54285714D01*
X89547619Y-54333333D01*
X89595238Y-54428571D01*
X89595238Y-54952380D01*
X90214285Y-54952380D02*
X90119047Y-54904761D01*
X90071428Y-54857142D01*
X90023809Y-54761904D01*
X90023809Y-54476190D01*
X90071428Y-54380952D01*
X90119047Y-54333333D01*
X90214285Y-54285714D01*
X90357142Y-54285714D01*
X90452380Y-54333333D01*
X90500000Y-54380952D01*
X90547619Y-54476190D01*
X90547619Y-54761904D01*
X90500000Y-54857142D01*
X90452380Y-54904761D01*
X90357142Y-54952380D01*
X90214285Y-54952380D01*
X90928571Y-54904761D02*
X91023809Y-54952380D01*
X91214285Y-54952380D01*
X91309523Y-54904761D01*
X91357142Y-54809523D01*
X91357142Y-54761904D01*
X91309523Y-54666666D01*
X91214285Y-54619047D01*
X91071428Y-54619047D01*
X90976190Y-54571428D01*
X90928571Y-54476190D01*
X90928571Y-54428571D01*
X90976190Y-54333333D01*
X91071428Y-54285714D01*
X91214285Y-54285714D01*
X91309523Y-54333333D01*
X92309523Y-54952380D02*
X91738095Y-54952380D01*
X92023809Y-54952380D02*
X92023809Y-53952380D01*
X91928571Y-54095238D01*
X91833333Y-54190476D01*
X91738095Y-54238095D01*
X90333333Y-93857142D02*
X90285714Y-93904761D01*
X90142857Y-93952380D01*
X90047619Y-93952380D01*
X89904761Y-93904761D01*
X89809523Y-93809523D01*
X89761904Y-93714285D01*
X89714285Y-93523809D01*
X89714285Y-93380952D01*
X89761904Y-93190476D01*
X89809523Y-93095238D01*
X89904761Y-93000000D01*
X90047619Y-92952380D01*
X90142857Y-92952380D01*
X90285714Y-93000000D01*
X90333333Y-93047619D01*
X91285714Y-93952380D02*
X90714285Y-93952380D01*
X91000000Y-93952380D02*
X91000000Y-92952380D01*
X90904761Y-93095238D01*
X90809523Y-93190476D01*
X90714285Y-93238095D01*
X91904761Y-91952380D02*
X91333333Y-91952380D01*
X91619047Y-91952380D02*
X91619047Y-90952380D01*
X91523809Y-91095238D01*
X91428571Y-91190476D01*
X91333333Y-91238095D01*
X92523809Y-90952380D02*
X92619047Y-90952380D01*
X92714285Y-91000000D01*
X92761904Y-91047619D01*
X92809523Y-91142857D01*
X92857142Y-91333333D01*
X92857142Y-91571428D01*
X92809523Y-91761904D01*
X92761904Y-91857142D01*
X92714285Y-91904761D01*
X92619047Y-91952380D01*
X92523809Y-91952380D01*
X92428571Y-91904761D01*
X92380952Y-91857142D01*
X92333333Y-91761904D01*
X92285714Y-91571428D01*
X92285714Y-91333333D01*
X92333333Y-91142857D01*
X92380952Y-91047619D01*
X92428571Y-91000000D01*
X92523809Y-90952380D01*
X93476190Y-90952380D02*
X93571428Y-90952380D01*
X93666666Y-91000000D01*
X93714285Y-91047619D01*
X93761904Y-91142857D01*
X93809523Y-91333333D01*
X93809523Y-91571428D01*
X93761904Y-91761904D01*
X93714285Y-91857142D01*
X93666666Y-91904761D01*
X93571428Y-91952380D01*
X93476190Y-91952380D01*
X93380952Y-91904761D01*
X93333333Y-91857142D01*
X93285714Y-91761904D01*
X93238095Y-91571428D01*
X93238095Y-91333333D01*
X93285714Y-91142857D01*
X93333333Y-91047619D01*
X93380952Y-91000000D01*
X93476190Y-90952380D01*
X94428571Y-90952380D02*
X94523809Y-90952380D01*
X94619047Y-91000000D01*
X94666666Y-91047619D01*
X94714285Y-91142857D01*
X94761904Y-91333333D01*
X94761904Y-91571428D01*
X94714285Y-91761904D01*
X94666666Y-91857142D01*
X94619047Y-91904761D01*
X94523809Y-91952380D01*
X94428571Y-91952380D01*
X94333333Y-91904761D01*
X94285714Y-91857142D01*
X94238095Y-91761904D01*
X94190476Y-91571428D01*
X94190476Y-91333333D01*
X94238095Y-91142857D01*
X94285714Y-91047619D01*
X94333333Y-91000000D01*
X94428571Y-90952380D01*
X95619047Y-91285714D02*
X95619047Y-91952380D01*
X95190476Y-91285714D02*
X95190476Y-91809523D01*
X95238095Y-91904761D01*
X95333333Y-91952380D01*
X95476190Y-91952380D01*
X95571428Y-91904761D01*
X95619047Y-91857142D01*
X118333333Y-98357142D02*
X118285714Y-98404761D01*
X118142857Y-98452380D01*
X118047619Y-98452380D01*
X117904761Y-98404761D01*
X117809523Y-98309523D01*
X117761904Y-98214285D01*
X117714285Y-98023809D01*
X117714285Y-97880952D01*
X117761904Y-97690476D01*
X117809523Y-97595238D01*
X117904761Y-97500000D01*
X118047619Y-97452380D01*
X118142857Y-97452380D01*
X118285714Y-97500000D01*
X118333333Y-97547619D01*
X119190476Y-97785714D02*
X119190476Y-98452380D01*
X118952380Y-97404761D02*
X118714285Y-98119047D01*
X119333333Y-98119047D01*
X120380952Y-98452380D02*
X119809523Y-98452380D01*
X120095238Y-98452380D02*
X120095238Y-97452380D01*
X120000000Y-97595238D01*
X119904761Y-97690476D01*
X119809523Y-97738095D01*
X121000000Y-97452380D02*
X121095238Y-97452380D01*
X121190476Y-97500000D01*
X121238095Y-97547619D01*
X121285714Y-97642857D01*
X121333333Y-97833333D01*
X121333333Y-98071428D01*
X121285714Y-98261904D01*
X121238095Y-98357142D01*
X121190476Y-98404761D01*
X121095238Y-98452380D01*
X121000000Y-98452380D01*
X120904761Y-98404761D01*
X120857142Y-98357142D01*
X120809523Y-98261904D01*
X120761904Y-98071428D01*
X120761904Y-97833333D01*
X120809523Y-97642857D01*
X120857142Y-97547619D01*
X120904761Y-97500000D01*
X121000000Y-97452380D01*
X121952380Y-97452380D02*
X122047619Y-97452380D01*
X122142857Y-97500000D01*
X122190476Y-97547619D01*
X122238095Y-97642857D01*
X122285714Y-97833333D01*
X122285714Y-98071428D01*
X122238095Y-98261904D01*
X122190476Y-98357142D01*
X122142857Y-98404761D01*
X122047619Y-98452380D01*
X121952380Y-98452380D01*
X121857142Y-98404761D01*
X121809523Y-98357142D01*
X121761904Y-98261904D01*
X121714285Y-98071428D01*
X121714285Y-97833333D01*
X121761904Y-97642857D01*
X121809523Y-97547619D01*
X121857142Y-97500000D01*
X121952380Y-97452380D01*
X123142857Y-97785714D02*
X123142857Y-98452380D01*
X122714285Y-97785714D02*
X122714285Y-98309523D01*
X122761904Y-98404761D01*
X122857142Y-98452380D01*
X123000000Y-98452380D01*
X123095238Y-98404761D01*
X123142857Y-98357142D01*
X105833333Y-102857142D02*
X105785714Y-102904761D01*
X105642857Y-102952380D01*
X105547619Y-102952380D01*
X105404761Y-102904761D01*
X105309523Y-102809523D01*
X105261904Y-102714285D01*
X105214285Y-102523809D01*
X105214285Y-102380952D01*
X105261904Y-102190476D01*
X105309523Y-102095238D01*
X105404761Y-102000000D01*
X105547619Y-101952380D01*
X105642857Y-101952380D01*
X105785714Y-102000000D01*
X105833333Y-102047619D01*
X106214285Y-102047619D02*
X106261904Y-102000000D01*
X106357142Y-101952380D01*
X106595238Y-101952380D01*
X106690476Y-102000000D01*
X106738095Y-102047619D01*
X106785714Y-102142857D01*
X106785714Y-102238095D01*
X106738095Y-102380952D01*
X106166666Y-102952380D01*
X106785714Y-102952380D01*
X103809523Y-100452380D02*
X103904761Y-100452380D01*
X104000000Y-100500000D01*
X104047619Y-100547619D01*
X104095238Y-100642857D01*
X104142857Y-100833333D01*
X104142857Y-101071428D01*
X104095238Y-101261904D01*
X104047619Y-101357142D01*
X104000000Y-101404761D01*
X103904761Y-101452380D01*
X103809523Y-101452380D01*
X103714285Y-101404761D01*
X103666666Y-101357142D01*
X103619047Y-101261904D01*
X103571428Y-101071428D01*
X103571428Y-100833333D01*
X103619047Y-100642857D01*
X103666666Y-100547619D01*
X103714285Y-100500000D01*
X103809523Y-100452380D01*
X104571428Y-101357142D02*
X104619047Y-101404761D01*
X104571428Y-101452380D01*
X104523809Y-101404761D01*
X104571428Y-101357142D01*
X104571428Y-101452380D01*
X104952380Y-100452380D02*
X105571428Y-100452380D01*
X105238095Y-100833333D01*
X105380952Y-100833333D01*
X105476190Y-100880952D01*
X105523809Y-100928571D01*
X105571428Y-101023809D01*
X105571428Y-101261904D01*
X105523809Y-101357142D01*
X105476190Y-101404761D01*
X105380952Y-101452380D01*
X105095238Y-101452380D01*
X105000000Y-101404761D01*
X104952380Y-101357142D01*
X105904761Y-100452380D02*
X106523809Y-100452380D01*
X106190476Y-100833333D01*
X106333333Y-100833333D01*
X106428571Y-100880952D01*
X106476190Y-100928571D01*
X106523809Y-101023809D01*
X106523809Y-101261904D01*
X106476190Y-101357142D01*
X106428571Y-101404761D01*
X106333333Y-101452380D01*
X106047619Y-101452380D01*
X105952380Y-101404761D01*
X105904761Y-101357142D01*
X107380952Y-100785714D02*
X107380952Y-101452380D01*
X106952380Y-100785714D02*
X106952380Y-101309523D01*
X107000000Y-101404761D01*
X107095238Y-101452380D01*
X107238095Y-101452380D01*
X107333333Y-101404761D01*
X107380952Y-101357142D01*
X105833333Y-96857142D02*
X105785714Y-96904761D01*
X105642857Y-96952380D01*
X105547619Y-96952380D01*
X105404761Y-96904761D01*
X105309523Y-96809523D01*
X105261904Y-96714285D01*
X105214285Y-96523809D01*
X105214285Y-96380952D01*
X105261904Y-96190476D01*
X105309523Y-96095238D01*
X105404761Y-96000000D01*
X105547619Y-95952380D01*
X105642857Y-95952380D01*
X105785714Y-96000000D01*
X105833333Y-96047619D01*
X106166666Y-95952380D02*
X106785714Y-95952380D01*
X106452380Y-96333333D01*
X106595238Y-96333333D01*
X106690476Y-96380952D01*
X106738095Y-96428571D01*
X106785714Y-96523809D01*
X106785714Y-96761904D01*
X106738095Y-96857142D01*
X106690476Y-96904761D01*
X106595238Y-96952380D01*
X106309523Y-96952380D01*
X106214285Y-96904761D01*
X106166666Y-96857142D01*
X104785714Y-94452380D02*
X104880952Y-94452380D01*
X104976190Y-94500000D01*
X105023809Y-94547619D01*
X105071428Y-94642857D01*
X105119047Y-94833333D01*
X105119047Y-95071428D01*
X105071428Y-95261904D01*
X105023809Y-95357142D01*
X104976190Y-95404761D01*
X104880952Y-95452380D01*
X104785714Y-95452380D01*
X104690476Y-95404761D01*
X104642857Y-95357142D01*
X104595238Y-95261904D01*
X104547619Y-95071428D01*
X104547619Y-94833333D01*
X104595238Y-94642857D01*
X104642857Y-94547619D01*
X104690476Y-94500000D01*
X104785714Y-94452380D01*
X105547619Y-95357142D02*
X105595238Y-95404761D01*
X105547619Y-95452380D01*
X105500000Y-95404761D01*
X105547619Y-95357142D01*
X105547619Y-95452380D01*
X106547619Y-95452380D02*
X105976190Y-95452380D01*
X106261904Y-95452380D02*
X106261904Y-94452380D01*
X106166666Y-94595238D01*
X106071428Y-94690476D01*
X105976190Y-94738095D01*
X107404761Y-94785714D02*
X107404761Y-95452380D01*
X106976190Y-94785714D02*
X106976190Y-95309523D01*
X107023809Y-95404761D01*
X107119047Y-95452380D01*
X107261904Y-95452380D01*
X107357142Y-95404761D01*
X107404761Y-95357142D01*
X82380952Y-40452380D02*
X81809523Y-40452380D01*
X82095238Y-40452380D02*
X82095238Y-39452380D01*
X82000000Y-39595238D01*
X81904761Y-39690476D01*
X81809523Y-39738095D01*
X82761904Y-39547619D02*
X82809523Y-39500000D01*
X82904761Y-39452380D01*
X83142857Y-39452380D01*
X83238095Y-39500000D01*
X83285714Y-39547619D01*
X83333333Y-39642857D01*
X83333333Y-39738095D01*
X83285714Y-39880952D01*
X82714285Y-40452380D01*
X83333333Y-40452380D01*
X83619047Y-39452380D02*
X83952380Y-40452380D01*
X84285714Y-39452380D01*
X81952380Y-101238095D02*
X81952380Y-101809523D01*
X81952380Y-101523809D02*
X80952380Y-101523809D01*
X81095238Y-101619047D01*
X81190476Y-101714285D01*
X81238095Y-101809523D01*
X81047619Y-100857142D02*
X81000000Y-100809523D01*
X80952380Y-100714285D01*
X80952380Y-100476190D01*
X81000000Y-100380952D01*
X81047619Y-100333333D01*
X81142857Y-100285714D01*
X81238095Y-100285714D01*
X81380952Y-100333333D01*
X81952380Y-100904761D01*
X81952380Y-100285714D01*
X80952380Y-100000000D02*
X81952380Y-99666666D01*
X80952380Y-99333333D01*
X82047619Y-99238095D02*
X82047619Y-98476190D01*
X81952380Y-98238095D02*
X80952380Y-98238095D01*
X81952380Y-97761904D02*
X80952380Y-97761904D01*
X81952380Y-97190476D01*
X80952380Y-97190476D01*
X81952380Y-96190476D02*
X81952380Y-96761904D01*
X81952380Y-96476190D02*
X80952380Y-96476190D01*
X81095238Y-96571428D01*
X81190476Y-96666666D01*
X81238095Y-96761904D01*
X88809523Y-39452380D02*
X88333333Y-39452380D01*
X88285714Y-39928571D01*
X88333333Y-39880952D01*
X88428571Y-39833333D01*
X88666666Y-39833333D01*
X88761904Y-39880952D01*
X88809523Y-39928571D01*
X88857142Y-40023809D01*
X88857142Y-40261904D01*
X88809523Y-40357142D01*
X88761904Y-40404761D01*
X88666666Y-40452380D01*
X88428571Y-40452380D01*
X88333333Y-40404761D01*
X88285714Y-40357142D01*
X89142857Y-39452380D02*
X89476190Y-40452380D01*
X89809523Y-39452380D01*
X73592380Y-90690476D02*
X72592380Y-90690476D01*
X73592380Y-90261904D02*
X73068571Y-90261904D01*
X72973333Y-90309523D01*
X72925714Y-90404761D01*
X72925714Y-90547619D01*
X72973333Y-90642857D01*
X73020952Y-90690476D01*
X73544761Y-89404761D02*
X73592380Y-89500000D01*
X73592380Y-89690476D01*
X73544761Y-89785714D01*
X73449523Y-89833333D01*
X73068571Y-89833333D01*
X72973333Y-89785714D01*
X72925714Y-89690476D01*
X72925714Y-89500000D01*
X72973333Y-89404761D01*
X73068571Y-89357142D01*
X73163809Y-89357142D01*
X73259047Y-89833333D01*
X73592380Y-88500000D02*
X73068571Y-88500000D01*
X72973333Y-88547619D01*
X72925714Y-88642857D01*
X72925714Y-88833333D01*
X72973333Y-88928571D01*
X73544761Y-88500000D02*
X73592380Y-88595238D01*
X73592380Y-88833333D01*
X73544761Y-88928571D01*
X73449523Y-88976190D01*
X73354285Y-88976190D01*
X73259047Y-88928571D01*
X73211428Y-88833333D01*
X73211428Y-88595238D01*
X73163809Y-88500000D01*
X72925714Y-88166666D02*
X72925714Y-87785714D01*
X72592380Y-88023809D02*
X73449523Y-88023809D01*
X73544761Y-87976190D01*
X73592380Y-87880952D01*
X73592380Y-87785714D01*
X73592380Y-87452380D02*
X72592380Y-87452380D01*
X73306666Y-87119047D01*
X72592380Y-86785714D01*
X73592380Y-86785714D01*
X73592380Y-85880952D02*
X73068571Y-85880952D01*
X72973333Y-85928571D01*
X72925714Y-86023809D01*
X72925714Y-86214285D01*
X72973333Y-86309523D01*
X73544761Y-85880952D02*
X73592380Y-85976190D01*
X73592380Y-86214285D01*
X73544761Y-86309523D01*
X73449523Y-86357142D01*
X73354285Y-86357142D01*
X73259047Y-86309523D01*
X73211428Y-86214285D01*
X73211428Y-85976190D01*
X73163809Y-85880952D01*
X72925714Y-85547619D02*
X72925714Y-85166666D01*
X72592380Y-85404761D02*
X73449523Y-85404761D01*
X73544761Y-85357142D01*
X73592380Y-85261904D01*
X73592380Y-85166666D01*
X124952380Y-74968571D02*
X123952380Y-74968571D01*
X123952380Y-74587619D01*
X124000000Y-74492380D01*
X124047619Y-74444761D01*
X124142857Y-74397142D01*
X124285714Y-74397142D01*
X124380952Y-74444761D01*
X124428571Y-74492380D01*
X124476190Y-74587619D01*
X124476190Y-74968571D01*
X124952380Y-73540000D02*
X124428571Y-73540000D01*
X124333333Y-73587619D01*
X124285714Y-73682857D01*
X124285714Y-73873333D01*
X124333333Y-73968571D01*
X124904761Y-73540000D02*
X124952380Y-73635238D01*
X124952380Y-73873333D01*
X124904761Y-73968571D01*
X124809523Y-74016190D01*
X124714285Y-74016190D01*
X124619047Y-73968571D01*
X124571428Y-73873333D01*
X124571428Y-73635238D01*
X124523809Y-73540000D01*
X124952380Y-72635238D02*
X123952380Y-72635238D01*
X124904761Y-72635238D02*
X124952380Y-72730476D01*
X124952380Y-72920952D01*
X124904761Y-73016190D01*
X124857142Y-73063809D01*
X124761904Y-73111428D01*
X124476190Y-73111428D01*
X124380952Y-73063809D01*
X124333333Y-73016190D01*
X124285714Y-72920952D01*
X124285714Y-72730476D01*
X124333333Y-72635238D01*
X124904761Y-72206666D02*
X124952380Y-72063809D01*
X124952380Y-71825714D01*
X124904761Y-71730476D01*
X124857142Y-71682857D01*
X124761904Y-71635238D01*
X124666666Y-71635238D01*
X124571428Y-71682857D01*
X124523809Y-71730476D01*
X124476190Y-71825714D01*
X124428571Y-72016190D01*
X124380952Y-72111428D01*
X124333333Y-72159047D01*
X124238095Y-72206666D01*
X124142857Y-72206666D01*
X124047619Y-72159047D01*
X124000000Y-72111428D01*
X123952380Y-72016190D01*
X123952380Y-71778095D01*
X124000000Y-71635238D01*
X124904761Y-70825714D02*
X124952380Y-70920952D01*
X124952380Y-71111428D01*
X124904761Y-71206666D01*
X124809523Y-71254285D01*
X124428571Y-71254285D01*
X124333333Y-71206666D01*
X124285714Y-71111428D01*
X124285714Y-70920952D01*
X124333333Y-70825714D01*
X124428571Y-70778095D01*
X124523809Y-70778095D01*
X124619047Y-71254285D01*
X124285714Y-70349523D02*
X124952380Y-70349523D01*
X124380952Y-70349523D02*
X124333333Y-70301904D01*
X124285714Y-70206666D01*
X124285714Y-70063809D01*
X124333333Y-69968571D01*
X124428571Y-69920952D01*
X124952380Y-69920952D01*
X124904761Y-69492380D02*
X124952380Y-69397142D01*
X124952380Y-69206666D01*
X124904761Y-69111428D01*
X124809523Y-69063809D01*
X124761904Y-69063809D01*
X124666666Y-69111428D01*
X124619047Y-69206666D01*
X124619047Y-69349523D01*
X124571428Y-69444761D01*
X124476190Y-69492380D01*
X124428571Y-69492380D01*
X124333333Y-69444761D01*
X124285714Y-69349523D01*
X124285714Y-69206666D01*
X124333333Y-69111428D01*
X124952380Y-85261904D02*
X124952380Y-85738095D01*
X123952380Y-85738095D01*
X124857142Y-84357142D02*
X124904761Y-84404761D01*
X124952380Y-84547619D01*
X124952380Y-84642857D01*
X124904761Y-84785714D01*
X124809523Y-84880952D01*
X124714285Y-84928571D01*
X124523809Y-84976190D01*
X124380952Y-84976190D01*
X124190476Y-84928571D01*
X124095238Y-84880952D01*
X124000000Y-84785714D01*
X123952380Y-84642857D01*
X123952380Y-84547619D01*
X124000000Y-84404761D01*
X124047619Y-84357142D01*
X124952380Y-83928571D02*
X123952380Y-83928571D01*
X123952380Y-83690476D01*
X124000000Y-83547619D01*
X124095238Y-83452380D01*
X124190476Y-83404761D01*
X124380952Y-83357142D01*
X124523809Y-83357142D01*
X124714285Y-83404761D01*
X124809523Y-83452380D01*
X124904761Y-83547619D01*
X124952380Y-83690476D01*
X124952380Y-83928571D01*
X125047619Y-83166666D02*
X125047619Y-82404761D01*
X124952380Y-82166666D02*
X123952380Y-82166666D01*
X124047619Y-81738095D02*
X124000000Y-81690476D01*
X123952380Y-81595238D01*
X123952380Y-81357142D01*
X124000000Y-81261904D01*
X124047619Y-81214285D01*
X124142857Y-81166666D01*
X124238095Y-81166666D01*
X124380952Y-81214285D01*
X124952380Y-81785714D01*
X124952380Y-81166666D01*
X124857142Y-80166666D02*
X124904761Y-80214285D01*
X124952380Y-80357142D01*
X124952380Y-80452380D01*
X124904761Y-80595238D01*
X124809523Y-80690476D01*
X124714285Y-80738095D01*
X124523809Y-80785714D01*
X124380952Y-80785714D01*
X124190476Y-80738095D01*
X124095238Y-80690476D01*
X124000000Y-80595238D01*
X123952380Y-80452380D01*
X123952380Y-80357142D01*
X124000000Y-80214285D01*
X124047619Y-80166666D01*
X124952380Y-79214285D02*
X124952380Y-79785714D01*
X124952380Y-79500000D02*
X123952380Y-79500000D01*
X124095238Y-79595238D01*
X124190476Y-79690476D01*
X124238095Y-79785714D01*
X124952380Y-65563809D02*
X124476190Y-65897142D01*
X124952380Y-66135238D02*
X123952380Y-66135238D01*
X123952380Y-65754285D01*
X124000000Y-65659047D01*
X124047619Y-65611428D01*
X124142857Y-65563809D01*
X124285714Y-65563809D01*
X124380952Y-65611428D01*
X124428571Y-65659047D01*
X124476190Y-65754285D01*
X124476190Y-66135238D01*
X124952380Y-64992380D02*
X124904761Y-65087619D01*
X124857142Y-65135238D01*
X124761904Y-65182857D01*
X124476190Y-65182857D01*
X124380952Y-65135238D01*
X124333333Y-65087619D01*
X124285714Y-64992380D01*
X124285714Y-64849523D01*
X124333333Y-64754285D01*
X124380952Y-64706666D01*
X124476190Y-64659047D01*
X124761904Y-64659047D01*
X124857142Y-64706666D01*
X124904761Y-64754285D01*
X124952380Y-64849523D01*
X124952380Y-64992380D01*
X124952380Y-64087619D02*
X124904761Y-64182857D01*
X124857142Y-64230476D01*
X124761904Y-64278095D01*
X124476190Y-64278095D01*
X124380952Y-64230476D01*
X124333333Y-64182857D01*
X124285714Y-64087619D01*
X124285714Y-63944761D01*
X124333333Y-63849523D01*
X124380952Y-63801904D01*
X124476190Y-63754285D01*
X124761904Y-63754285D01*
X124857142Y-63801904D01*
X124904761Y-63849523D01*
X124952380Y-63944761D01*
X124952380Y-64087619D01*
X124952380Y-63325714D02*
X124285714Y-63325714D01*
X124380952Y-63325714D02*
X124333333Y-63278095D01*
X124285714Y-63182857D01*
X124285714Y-63040000D01*
X124333333Y-62944761D01*
X124428571Y-62897142D01*
X124952380Y-62897142D01*
X124428571Y-62897142D02*
X124333333Y-62849523D01*
X124285714Y-62754285D01*
X124285714Y-62611428D01*
X124333333Y-62516190D01*
X124428571Y-62468571D01*
X124952380Y-62468571D01*
X124904761Y-62040000D02*
X124952380Y-61897142D01*
X124952380Y-61659047D01*
X124904761Y-61563809D01*
X124857142Y-61516190D01*
X124761904Y-61468571D01*
X124666666Y-61468571D01*
X124571428Y-61516190D01*
X124523809Y-61563809D01*
X124476190Y-61659047D01*
X124428571Y-61849523D01*
X124380952Y-61944761D01*
X124333333Y-61992380D01*
X124238095Y-62040000D01*
X124142857Y-62040000D01*
X124047619Y-61992380D01*
X124000000Y-61944761D01*
X123952380Y-61849523D01*
X123952380Y-61611428D01*
X124000000Y-61468571D01*
X124904761Y-60659047D02*
X124952380Y-60754285D01*
X124952380Y-60944761D01*
X124904761Y-61040000D01*
X124809523Y-61087619D01*
X124428571Y-61087619D01*
X124333333Y-61040000D01*
X124285714Y-60944761D01*
X124285714Y-60754285D01*
X124333333Y-60659047D01*
X124428571Y-60611428D01*
X124523809Y-60611428D01*
X124619047Y-61087619D01*
X124285714Y-60182857D02*
X124952380Y-60182857D01*
X124380952Y-60182857D02*
X124333333Y-60135238D01*
X124285714Y-60040000D01*
X124285714Y-59897142D01*
X124333333Y-59801904D01*
X124428571Y-59754285D01*
X124952380Y-59754285D01*
X124904761Y-59325714D02*
X124952380Y-59230476D01*
X124952380Y-59040000D01*
X124904761Y-58944761D01*
X124809523Y-58897142D01*
X124761904Y-58897142D01*
X124666666Y-58944761D01*
X124619047Y-59040000D01*
X124619047Y-59182857D01*
X124571428Y-59278095D01*
X124476190Y-59325714D01*
X124428571Y-59325714D01*
X124333333Y-59278095D01*
X124285714Y-59182857D01*
X124285714Y-59040000D01*
X124333333Y-58944761D01*
X89952380Y-55642857D02*
X89904761Y-55738095D01*
X89809523Y-55785714D01*
X88952380Y-55785714D01*
X89904761Y-54880952D02*
X89952380Y-54976190D01*
X89952380Y-55166666D01*
X89904761Y-55261904D01*
X89809523Y-55309523D01*
X89428571Y-55309523D01*
X89333333Y-55261904D01*
X89285714Y-55166666D01*
X89285714Y-54976190D01*
X89333333Y-54880952D01*
X89428571Y-54833333D01*
X89523809Y-54833333D01*
X89619047Y-55309523D01*
X89952380Y-53976190D02*
X88952380Y-53976190D01*
X89904761Y-53976190D02*
X89952380Y-54071428D01*
X89952380Y-54261904D01*
X89904761Y-54357142D01*
X89857142Y-54404761D01*
X89761904Y-54452380D01*
X89476190Y-54452380D01*
X89380952Y-54404761D01*
X89333333Y-54357142D01*
X89285714Y-54261904D01*
X89285714Y-54071428D01*
X89333333Y-53976190D01*
X90047619Y-53738095D02*
X90047619Y-52976190D01*
X89952380Y-52738095D02*
X89285714Y-52738095D01*
X89476190Y-52738095D02*
X89380952Y-52690476D01*
X89333333Y-52642857D01*
X89285714Y-52547619D01*
X89285714Y-52452380D01*
X89904761Y-51738095D02*
X89952380Y-51833333D01*
X89952380Y-52023809D01*
X89904761Y-52119047D01*
X89809523Y-52166666D01*
X89428571Y-52166666D01*
X89333333Y-52119047D01*
X89285714Y-52023809D01*
X89285714Y-51833333D01*
X89333333Y-51738095D01*
X89428571Y-51690476D01*
X89523809Y-51690476D01*
X89619047Y-52166666D01*
X89904761Y-51309523D02*
X89952380Y-51214285D01*
X89952380Y-51023809D01*
X89904761Y-50928571D01*
X89809523Y-50880952D01*
X89761904Y-50880952D01*
X89666666Y-50928571D01*
X89619047Y-51023809D01*
X89619047Y-51166666D01*
X89571428Y-51261904D01*
X89476190Y-51309523D01*
X89428571Y-51309523D01*
X89333333Y-51261904D01*
X89285714Y-51166666D01*
X89285714Y-51023809D01*
X89333333Y-50928571D01*
X90047619Y-50690476D02*
X90047619Y-49928571D01*
X89952380Y-49166666D02*
X89952380Y-49738095D01*
X89952380Y-49452380D02*
X88952380Y-49452380D01*
X89095238Y-49547619D01*
X89190476Y-49642857D01*
X89238095Y-49738095D01*
X104952380Y-55562857D02*
X104904761Y-55658095D01*
X104809523Y-55705714D01*
X103952380Y-55705714D01*
X104904761Y-54800952D02*
X104952380Y-54896190D01*
X104952380Y-55086666D01*
X104904761Y-55181904D01*
X104809523Y-55229523D01*
X104428571Y-55229523D01*
X104333333Y-55181904D01*
X104285714Y-55086666D01*
X104285714Y-54896190D01*
X104333333Y-54800952D01*
X104428571Y-54753333D01*
X104523809Y-54753333D01*
X104619047Y-55229523D01*
X104952380Y-53896190D02*
X103952380Y-53896190D01*
X104904761Y-53896190D02*
X104952380Y-53991428D01*
X104952380Y-54181904D01*
X104904761Y-54277142D01*
X104857142Y-54324761D01*
X104761904Y-54372380D01*
X104476190Y-54372380D01*
X104380952Y-54324761D01*
X104333333Y-54277142D01*
X104285714Y-54181904D01*
X104285714Y-53991428D01*
X104333333Y-53896190D01*
X105047619Y-53658095D02*
X105047619Y-52896190D01*
X104952380Y-52658095D02*
X104285714Y-52658095D01*
X104476190Y-52658095D02*
X104380952Y-52610476D01*
X104333333Y-52562857D01*
X104285714Y-52467619D01*
X104285714Y-52372380D01*
X104904761Y-51658095D02*
X104952380Y-51753333D01*
X104952380Y-51943809D01*
X104904761Y-52039047D01*
X104809523Y-52086666D01*
X104428571Y-52086666D01*
X104333333Y-52039047D01*
X104285714Y-51943809D01*
X104285714Y-51753333D01*
X104333333Y-51658095D01*
X104428571Y-51610476D01*
X104523809Y-51610476D01*
X104619047Y-52086666D01*
X104904761Y-51229523D02*
X104952380Y-51134285D01*
X104952380Y-50943809D01*
X104904761Y-50848571D01*
X104809523Y-50800952D01*
X104761904Y-50800952D01*
X104666666Y-50848571D01*
X104619047Y-50943809D01*
X104619047Y-51086666D01*
X104571428Y-51181904D01*
X104476190Y-51229523D01*
X104428571Y-51229523D01*
X104333333Y-51181904D01*
X104285714Y-51086666D01*
X104285714Y-50943809D01*
X104333333Y-50848571D01*
X105047619Y-50610476D02*
X105047619Y-49848571D01*
X104047619Y-49658095D02*
X104000000Y-49610476D01*
X103952380Y-49515238D01*
X103952380Y-49277142D01*
X104000000Y-49181904D01*
X104047619Y-49134285D01*
X104142857Y-49086666D01*
X104238095Y-49086666D01*
X104380952Y-49134285D01*
X104952380Y-49705714D01*
X104952380Y-49086666D01*
X96952380Y-55562857D02*
X96904761Y-55658095D01*
X96809523Y-55705714D01*
X95952380Y-55705714D01*
X96904761Y-54800952D02*
X96952380Y-54896190D01*
X96952380Y-55086666D01*
X96904761Y-55181904D01*
X96809523Y-55229523D01*
X96428571Y-55229523D01*
X96333333Y-55181904D01*
X96285714Y-55086666D01*
X96285714Y-54896190D01*
X96333333Y-54800952D01*
X96428571Y-54753333D01*
X96523809Y-54753333D01*
X96619047Y-55229523D01*
X96952380Y-53896190D02*
X95952380Y-53896190D01*
X96904761Y-53896190D02*
X96952380Y-53991428D01*
X96952380Y-54181904D01*
X96904761Y-54277142D01*
X96857142Y-54324761D01*
X96761904Y-54372380D01*
X96476190Y-54372380D01*
X96380952Y-54324761D01*
X96333333Y-54277142D01*
X96285714Y-54181904D01*
X96285714Y-53991428D01*
X96333333Y-53896190D01*
X97047619Y-53658095D02*
X97047619Y-52896190D01*
X96952380Y-52658095D02*
X96285714Y-52658095D01*
X96476190Y-52658095D02*
X96380952Y-52610476D01*
X96333333Y-52562857D01*
X96285714Y-52467619D01*
X96285714Y-52372380D01*
X96904761Y-51658095D02*
X96952380Y-51753333D01*
X96952380Y-51943809D01*
X96904761Y-52039047D01*
X96809523Y-52086666D01*
X96428571Y-52086666D01*
X96333333Y-52039047D01*
X96285714Y-51943809D01*
X96285714Y-51753333D01*
X96333333Y-51658095D01*
X96428571Y-51610476D01*
X96523809Y-51610476D01*
X96619047Y-52086666D01*
X96904761Y-51229523D02*
X96952380Y-51134285D01*
X96952380Y-50943809D01*
X96904761Y-50848571D01*
X96809523Y-50800952D01*
X96761904Y-50800952D01*
X96666666Y-50848571D01*
X96619047Y-50943809D01*
X96619047Y-51086666D01*
X96571428Y-51181904D01*
X96476190Y-51229523D01*
X96428571Y-51229523D01*
X96333333Y-51181904D01*
X96285714Y-51086666D01*
X96285714Y-50943809D01*
X96333333Y-50848571D01*
X97047619Y-50610476D02*
X97047619Y-49848571D01*
X95952380Y-49705714D02*
X95952380Y-49086666D01*
X96333333Y-49420000D01*
X96333333Y-49277142D01*
X96380952Y-49181904D01*
X96428571Y-49134285D01*
X96523809Y-49086666D01*
X96761904Y-49086666D01*
X96857142Y-49134285D01*
X96904761Y-49181904D01*
X96952380Y-49277142D01*
X96952380Y-49562857D01*
X96904761Y-49658095D01*
X96857142Y-49705714D01*
X124952380Y-96365238D02*
X124285714Y-96365238D01*
X124380952Y-96365238D02*
X124333333Y-96317619D01*
X124285714Y-96222380D01*
X124285714Y-96079523D01*
X124333333Y-95984285D01*
X124428571Y-95936666D01*
X124952380Y-95936666D01*
X124428571Y-95936666D02*
X124333333Y-95889047D01*
X124285714Y-95793809D01*
X124285714Y-95650952D01*
X124333333Y-95555714D01*
X124428571Y-95508095D01*
X124952380Y-95508095D01*
X124952380Y-94889047D02*
X124904761Y-94984285D01*
X124857142Y-95031904D01*
X124761904Y-95079523D01*
X124476190Y-95079523D01*
X124380952Y-95031904D01*
X124333333Y-94984285D01*
X124285714Y-94889047D01*
X124285714Y-94746190D01*
X124333333Y-94650952D01*
X124380952Y-94603333D01*
X124476190Y-94555714D01*
X124761904Y-94555714D01*
X124857142Y-94603333D01*
X124904761Y-94650952D01*
X124952380Y-94746190D01*
X124952380Y-94889047D01*
X124285714Y-93698571D02*
X124952380Y-93698571D01*
X124285714Y-94127142D02*
X124809523Y-94127142D01*
X124904761Y-94079523D01*
X124952380Y-93984285D01*
X124952380Y-93841428D01*
X124904761Y-93746190D01*
X124857142Y-93698571D01*
X124904761Y-93270000D02*
X124952380Y-93174761D01*
X124952380Y-92984285D01*
X124904761Y-92889047D01*
X124809523Y-92841428D01*
X124761904Y-92841428D01*
X124666666Y-92889047D01*
X124619047Y-92984285D01*
X124619047Y-93127142D01*
X124571428Y-93222380D01*
X124476190Y-93270000D01*
X124428571Y-93270000D01*
X124333333Y-93222380D01*
X124285714Y-93127142D01*
X124285714Y-92984285D01*
X124333333Y-92889047D01*
X124904761Y-92031904D02*
X124952380Y-92127142D01*
X124952380Y-92317619D01*
X124904761Y-92412857D01*
X124809523Y-92460476D01*
X124428571Y-92460476D01*
X124333333Y-92412857D01*
X124285714Y-92317619D01*
X124285714Y-92127142D01*
X124333333Y-92031904D01*
X124428571Y-91984285D01*
X124523809Y-91984285D01*
X124619047Y-92460476D01*
X123952380Y-91698571D02*
X123952380Y-91127142D01*
X124952380Y-91412857D02*
X123952380Y-91412857D01*
X124904761Y-90412857D02*
X124952380Y-90508095D01*
X124952380Y-90698571D01*
X124904761Y-90793809D01*
X124809523Y-90841428D01*
X124428571Y-90841428D01*
X124333333Y-90793809D01*
X124285714Y-90698571D01*
X124285714Y-90508095D01*
X124333333Y-90412857D01*
X124428571Y-90365238D01*
X124523809Y-90365238D01*
X124619047Y-90841428D01*
X124952380Y-89936666D02*
X124285714Y-89936666D01*
X124380952Y-89936666D02*
X124333333Y-89889047D01*
X124285714Y-89793809D01*
X124285714Y-89650952D01*
X124333333Y-89555714D01*
X124428571Y-89508095D01*
X124952380Y-89508095D01*
X124428571Y-89508095D02*
X124333333Y-89460476D01*
X124285714Y-89365238D01*
X124285714Y-89222380D01*
X124333333Y-89127142D01*
X124428571Y-89079523D01*
X124952380Y-89079523D01*
X124285714Y-88603333D02*
X125285714Y-88603333D01*
X124333333Y-88603333D02*
X124285714Y-88508095D01*
X124285714Y-88317619D01*
X124333333Y-88222380D01*
X124380952Y-88174761D01*
X124476190Y-88127142D01*
X124761904Y-88127142D01*
X124857142Y-88174761D01*
X124904761Y-88222380D01*
X124952380Y-88317619D01*
X124952380Y-88508095D01*
X124904761Y-88603333D01*
X74682380Y-57221904D02*
X73682380Y-57221904D01*
X74158571Y-57221904D02*
X74158571Y-56650476D01*
X74682380Y-56650476D02*
X73682380Y-56650476D01*
X74634761Y-55793333D02*
X74682380Y-55888571D01*
X74682380Y-56079047D01*
X74634761Y-56174285D01*
X74539523Y-56221904D01*
X74158571Y-56221904D01*
X74063333Y-56174285D01*
X74015714Y-56079047D01*
X74015714Y-55888571D01*
X74063333Y-55793333D01*
X74158571Y-55745714D01*
X74253809Y-55745714D01*
X74349047Y-56221904D01*
X74682380Y-54888571D02*
X74158571Y-54888571D01*
X74063333Y-54936190D01*
X74015714Y-55031428D01*
X74015714Y-55221904D01*
X74063333Y-55317142D01*
X74634761Y-54888571D02*
X74682380Y-54983809D01*
X74682380Y-55221904D01*
X74634761Y-55317142D01*
X74539523Y-55364761D01*
X74444285Y-55364761D01*
X74349047Y-55317142D01*
X74301428Y-55221904D01*
X74301428Y-54983809D01*
X74253809Y-54888571D01*
X74015714Y-54555238D02*
X74015714Y-54174285D01*
X73682380Y-54412380D02*
X74539523Y-54412380D01*
X74634761Y-54364761D01*
X74682380Y-54269523D01*
X74682380Y-54174285D01*
X74682380Y-53840952D02*
X73682380Y-53840952D01*
X74396666Y-53507619D01*
X73682380Y-53174285D01*
X74682380Y-53174285D01*
X74682380Y-52269523D02*
X74158571Y-52269523D01*
X74063333Y-52317142D01*
X74015714Y-52412380D01*
X74015714Y-52602857D01*
X74063333Y-52698095D01*
X74634761Y-52269523D02*
X74682380Y-52364761D01*
X74682380Y-52602857D01*
X74634761Y-52698095D01*
X74539523Y-52745714D01*
X74444285Y-52745714D01*
X74349047Y-52698095D01*
X74301428Y-52602857D01*
X74301428Y-52364761D01*
X74253809Y-52269523D01*
X74015714Y-51936190D02*
X74015714Y-51555238D01*
X73682380Y-51793333D02*
X74539523Y-51793333D01*
X74634761Y-51745714D01*
X74682380Y-51650476D01*
X74682380Y-51555238D01*
X73682380Y-51364761D02*
X73682380Y-50793333D01*
X74682380Y-51079047D02*
X73682380Y-51079047D01*
X74682380Y-50460000D02*
X74015714Y-50460000D01*
X74206190Y-50460000D02*
X74110952Y-50412380D01*
X74063333Y-50364761D01*
X74015714Y-50269523D01*
X74015714Y-50174285D01*
X74682380Y-49412380D02*
X74158571Y-49412380D01*
X74063333Y-49460000D01*
X74015714Y-49555238D01*
X74015714Y-49745714D01*
X74063333Y-49840952D01*
X74634761Y-49412380D02*
X74682380Y-49507619D01*
X74682380Y-49745714D01*
X74634761Y-49840952D01*
X74539523Y-49888571D01*
X74444285Y-49888571D01*
X74349047Y-49840952D01*
X74301428Y-49745714D01*
X74301428Y-49507619D01*
X74253809Y-49412380D01*
X74015714Y-48936190D02*
X74682380Y-48936190D01*
X74110952Y-48936190D02*
X74063333Y-48888571D01*
X74015714Y-48793333D01*
X74015714Y-48650476D01*
X74063333Y-48555238D01*
X74158571Y-48507619D01*
X74682380Y-48507619D01*
X74634761Y-48079047D02*
X74682380Y-47983809D01*
X74682380Y-47793333D01*
X74634761Y-47698095D01*
X74539523Y-47650476D01*
X74491904Y-47650476D01*
X74396666Y-47698095D01*
X74349047Y-47793333D01*
X74349047Y-47936190D01*
X74301428Y-48031428D01*
X74206190Y-48079047D01*
X74158571Y-48079047D01*
X74063333Y-48031428D01*
X74015714Y-47936190D01*
X74015714Y-47793333D01*
X74063333Y-47698095D01*
X95294285Y-65082380D02*
X95294285Y-64415714D01*
X95294285Y-64606190D02*
X95341904Y-64510952D01*
X95389523Y-64463333D01*
X95484761Y-64415714D01*
X95580000Y-64415714D01*
X96294285Y-65034761D02*
X96199047Y-65082380D01*
X96008571Y-65082380D01*
X95913333Y-65034761D01*
X95865714Y-64939523D01*
X95865714Y-64558571D01*
X95913333Y-64463333D01*
X96008571Y-64415714D01*
X96199047Y-64415714D01*
X96294285Y-64463333D01*
X96341904Y-64558571D01*
X96341904Y-64653809D01*
X95865714Y-64749047D01*
X96627619Y-64415714D02*
X97008571Y-64415714D01*
X96770476Y-65082380D02*
X96770476Y-64225238D01*
X96818095Y-64130000D01*
X96913333Y-64082380D01*
X97008571Y-64082380D01*
X97913333Y-65082380D02*
X97580000Y-64606190D01*
X97341904Y-65082380D02*
X97341904Y-64082380D01*
X97722857Y-64082380D01*
X97818095Y-64130000D01*
X97865714Y-64177619D01*
X97913333Y-64272857D01*
X97913333Y-64415714D01*
X97865714Y-64510952D01*
X97818095Y-64558571D01*
X97722857Y-64606190D01*
X97341904Y-64606190D01*
X98722857Y-65034761D02*
X98627619Y-65082380D01*
X98437142Y-65082380D01*
X98341904Y-65034761D01*
X98294285Y-64939523D01*
X98294285Y-64558571D01*
X98341904Y-64463333D01*
X98437142Y-64415714D01*
X98627619Y-64415714D01*
X98722857Y-64463333D01*
X98770476Y-64558571D01*
X98770476Y-64653809D01*
X98294285Y-64749047D01*
X99151428Y-65034761D02*
X99246666Y-65082380D01*
X99437142Y-65082380D01*
X99532380Y-65034761D01*
X99580000Y-64939523D01*
X99580000Y-64891904D01*
X99532380Y-64796666D01*
X99437142Y-64749047D01*
X99294285Y-64749047D01*
X99199047Y-64701428D01*
X99151428Y-64606190D01*
X99151428Y-64558571D01*
X99199047Y-64463333D01*
X99294285Y-64415714D01*
X99437142Y-64415714D01*
X99532380Y-64463333D01*
X100008571Y-65082380D02*
X100008571Y-64415714D01*
X100008571Y-64082380D02*
X99960952Y-64130000D01*
X100008571Y-64177619D01*
X100056190Y-64130000D01*
X100008571Y-64082380D01*
X100008571Y-64177619D01*
X100437142Y-65034761D02*
X100532380Y-65082380D01*
X100722857Y-65082380D01*
X100818095Y-65034761D01*
X100865714Y-64939523D01*
X100865714Y-64891904D01*
X100818095Y-64796666D01*
X100722857Y-64749047D01*
X100580000Y-64749047D01*
X100484761Y-64701428D01*
X100437142Y-64606190D01*
X100437142Y-64558571D01*
X100484761Y-64463333D01*
X100580000Y-64415714D01*
X100722857Y-64415714D01*
X100818095Y-64463333D01*
X101151428Y-64415714D02*
X101532380Y-64415714D01*
X101294285Y-64082380D02*
X101294285Y-64939523D01*
X101341904Y-65034761D01*
X101437142Y-65082380D01*
X101532380Y-65082380D01*
X102008571Y-65082380D02*
X101913333Y-65034761D01*
X101865714Y-64987142D01*
X101818095Y-64891904D01*
X101818095Y-64606190D01*
X101865714Y-64510952D01*
X101913333Y-64463333D01*
X102008571Y-64415714D01*
X102151428Y-64415714D01*
X102246666Y-64463333D01*
X102294285Y-64510952D01*
X102341904Y-64606190D01*
X102341904Y-64891904D01*
X102294285Y-64987142D01*
X102246666Y-65034761D01*
X102151428Y-65082380D01*
X102008571Y-65082380D01*
X102770476Y-65082380D02*
X102770476Y-64415714D01*
X102770476Y-64606190D02*
X102818095Y-64510952D01*
X102865714Y-64463333D01*
X102960952Y-64415714D01*
X103056190Y-64415714D01*
X103913333Y-65082380D02*
X103341904Y-65082380D01*
X103627619Y-65082380D02*
X103627619Y-64082380D01*
X103532380Y-64225238D01*
X103437142Y-64320476D01*
X103341904Y-64368095D01*
X93682380Y-100721904D02*
X94491904Y-100721904D01*
X94587142Y-100674285D01*
X94634761Y-100626666D01*
X94682380Y-100531428D01*
X94682380Y-100340952D01*
X94634761Y-100245714D01*
X94587142Y-100198095D01*
X94491904Y-100150476D01*
X93682380Y-100150476D01*
X94682380Y-99150476D02*
X94682380Y-99721904D01*
X94682380Y-99436190D02*
X93682380Y-99436190D01*
X93825238Y-99531428D01*
X93920476Y-99626666D01*
X93968095Y-99721904D01*
X103142857Y-40952380D02*
X103142857Y-40285714D01*
X103142857Y-40380952D02*
X103190476Y-40333333D01*
X103285714Y-40285714D01*
X103428571Y-40285714D01*
X103523809Y-40333333D01*
X103571428Y-40428571D01*
X103571428Y-40952380D01*
X103571428Y-40428571D02*
X103619047Y-40333333D01*
X103714285Y-40285714D01*
X103857142Y-40285714D01*
X103952380Y-40333333D01*
X104000000Y-40428571D01*
X104000000Y-40952380D01*
X104619047Y-40952380D02*
X104523809Y-40904761D01*
X104476190Y-40857142D01*
X104428571Y-40761904D01*
X104428571Y-40476190D01*
X104476190Y-40380952D01*
X104523809Y-40333333D01*
X104619047Y-40285714D01*
X104761904Y-40285714D01*
X104857142Y-40333333D01*
X104904761Y-40380952D01*
X104952380Y-40476190D01*
X104952380Y-40761904D01*
X104904761Y-40857142D01*
X104857142Y-40904761D01*
X104761904Y-40952380D01*
X104619047Y-40952380D01*
X105809523Y-40285714D02*
X105809523Y-40952380D01*
X105380952Y-40285714D02*
X105380952Y-40809523D01*
X105428571Y-40904761D01*
X105523809Y-40952380D01*
X105666666Y-40952380D01*
X105761904Y-40904761D01*
X105809523Y-40857142D01*
X106238095Y-40904761D02*
X106333333Y-40952380D01*
X106523809Y-40952380D01*
X106619047Y-40904761D01*
X106666666Y-40809523D01*
X106666666Y-40761904D01*
X106619047Y-40666666D01*
X106523809Y-40619047D01*
X106380952Y-40619047D01*
X106285714Y-40571428D01*
X106238095Y-40476190D01*
X106238095Y-40428571D01*
X106285714Y-40333333D01*
X106380952Y-40285714D01*
X106523809Y-40285714D01*
X106619047Y-40333333D01*
X107476190Y-40904761D02*
X107380952Y-40952380D01*
X107190476Y-40952380D01*
X107095238Y-40904761D01*
X107047619Y-40809523D01*
X107047619Y-40428571D01*
X107095238Y-40333333D01*
X107190476Y-40285714D01*
X107380952Y-40285714D01*
X107476190Y-40333333D01*
X107523809Y-40428571D01*
X107523809Y-40523809D01*
X107047619Y-40619047D01*
X107952380Y-40952380D02*
X107952380Y-39952380D01*
X107952380Y-40428571D02*
X108523809Y-40428571D01*
X108523809Y-40952380D02*
X108523809Y-39952380D01*
X109380952Y-40904761D02*
X109285714Y-40952380D01*
X109095238Y-40952380D01*
X109000000Y-40904761D01*
X108952380Y-40809523D01*
X108952380Y-40428571D01*
X109000000Y-40333333D01*
X109095238Y-40285714D01*
X109285714Y-40285714D01*
X109380952Y-40333333D01*
X109428571Y-40428571D01*
X109428571Y-40523809D01*
X108952380Y-40619047D01*
X110285714Y-40952380D02*
X110285714Y-40428571D01*
X110238095Y-40333333D01*
X110142857Y-40285714D01*
X109952380Y-40285714D01*
X109857142Y-40333333D01*
X110285714Y-40904761D02*
X110190476Y-40952380D01*
X109952380Y-40952380D01*
X109857142Y-40904761D01*
X109809523Y-40809523D01*
X109809523Y-40714285D01*
X109857142Y-40619047D01*
X109952380Y-40571428D01*
X110190476Y-40571428D01*
X110285714Y-40523809D01*
X110619047Y-40285714D02*
X111000000Y-40285714D01*
X110761904Y-39952380D02*
X110761904Y-40809523D01*
X110809523Y-40904761D01*
X110904761Y-40952380D01*
X111000000Y-40952380D01*
X83785714Y-54952380D02*
X84595238Y-54952380D01*
X84690476Y-55000000D01*
X84738095Y-55047619D01*
X84785714Y-55142857D01*
X84785714Y-55285714D01*
X84738095Y-55380952D01*
X84404761Y-54952380D02*
X84452380Y-55047619D01*
X84452380Y-55238095D01*
X84404761Y-55333333D01*
X84357142Y-55380952D01*
X84261904Y-55428571D01*
X83976190Y-55428571D01*
X83880952Y-55380952D01*
X83833333Y-55333333D01*
X83785714Y-55238095D01*
X83785714Y-55047619D01*
X83833333Y-54952380D01*
X84452380Y-54047619D02*
X83928571Y-54047619D01*
X83833333Y-54095238D01*
X83785714Y-54190476D01*
X83785714Y-54380952D01*
X83833333Y-54476190D01*
X84404761Y-54047619D02*
X84452380Y-54142857D01*
X84452380Y-54380952D01*
X84404761Y-54476190D01*
X84309523Y-54523809D01*
X84214285Y-54523809D01*
X84119047Y-54476190D01*
X84071428Y-54380952D01*
X84071428Y-54142857D01*
X84023809Y-54047619D01*
X83785714Y-53714285D02*
X83785714Y-53333333D01*
X83452380Y-53571428D02*
X84309523Y-53571428D01*
X84404761Y-53523809D01*
X84452380Y-53428571D01*
X84452380Y-53333333D01*
X84404761Y-52619047D02*
X84452380Y-52714285D01*
X84452380Y-52904761D01*
X84404761Y-53000000D01*
X84309523Y-53047619D01*
X83928571Y-53047619D01*
X83833333Y-53000000D01*
X83785714Y-52904761D01*
X83785714Y-52714285D01*
X83833333Y-52619047D01*
X83928571Y-52571428D01*
X84023809Y-52571428D01*
X84119047Y-53047619D01*
X84547619Y-52380952D02*
X84547619Y-51619047D01*
X84452380Y-51380952D02*
X83785714Y-51380952D01*
X83976190Y-51380952D02*
X83880952Y-51333333D01*
X83833333Y-51285714D01*
X83785714Y-51190476D01*
X83785714Y-51095238D01*
X84404761Y-50380952D02*
X84452380Y-50476190D01*
X84452380Y-50666666D01*
X84404761Y-50761904D01*
X84309523Y-50809523D01*
X83928571Y-50809523D01*
X83833333Y-50761904D01*
X83785714Y-50666666D01*
X83785714Y-50476190D01*
X83833333Y-50380952D01*
X83928571Y-50333333D01*
X84023809Y-50333333D01*
X84119047Y-50809523D01*
X84404761Y-49952380D02*
X84452380Y-49857142D01*
X84452380Y-49666666D01*
X84404761Y-49571428D01*
X84309523Y-49523809D01*
X84261904Y-49523809D01*
X84166666Y-49571428D01*
X84119047Y-49666666D01*
X84119047Y-49809523D01*
X84071428Y-49904761D01*
X83976190Y-49952380D01*
X83928571Y-49952380D01*
X83833333Y-49904761D01*
X83785714Y-49809523D01*
X83785714Y-49666666D01*
X83833333Y-49571428D01*
X84452380Y-48571428D02*
X84452380Y-49142857D01*
X84452380Y-48857142D02*
X83452380Y-48857142D01*
X83595238Y-48952380D01*
X83690476Y-49047619D01*
X83738095Y-49142857D01*
X95199047Y-73952380D02*
X95103809Y-73904761D01*
X95056190Y-73857142D01*
X95008571Y-73761904D01*
X95008571Y-73476190D01*
X95056190Y-73380952D01*
X95103809Y-73333333D01*
X95199047Y-73285714D01*
X95341904Y-73285714D01*
X95437142Y-73333333D01*
X95484761Y-73380952D01*
X95532380Y-73476190D01*
X95532380Y-73761904D01*
X95484761Y-73857142D01*
X95437142Y-73904761D01*
X95341904Y-73952380D01*
X95199047Y-73952380D01*
X95960952Y-73285714D02*
X95960952Y-73952380D01*
X95960952Y-73380952D02*
X96008571Y-73333333D01*
X96103809Y-73285714D01*
X96246666Y-73285714D01*
X96341904Y-73333333D01*
X96389523Y-73428571D01*
X96389523Y-73952380D01*
X97246666Y-73904761D02*
X97151428Y-73952380D01*
X96960952Y-73952380D01*
X96865714Y-73904761D01*
X96818095Y-73809523D01*
X96818095Y-73428571D01*
X96865714Y-73333333D01*
X96960952Y-73285714D01*
X97151428Y-73285714D01*
X97246666Y-73333333D01*
X97294285Y-73428571D01*
X97294285Y-73523809D01*
X96818095Y-73619047D01*
X97627619Y-72952380D02*
X97865714Y-73952380D01*
X98056190Y-73238095D01*
X98246666Y-73952380D01*
X98484761Y-72952380D01*
X98865714Y-73952380D02*
X98865714Y-73285714D01*
X98865714Y-72952380D02*
X98818095Y-73000000D01*
X98865714Y-73047619D01*
X98913333Y-73000000D01*
X98865714Y-72952380D01*
X98865714Y-73047619D01*
X99341904Y-73952380D02*
X99341904Y-73285714D01*
X99341904Y-73476190D02*
X99389523Y-73380952D01*
X99437142Y-73333333D01*
X99532380Y-73285714D01*
X99627619Y-73285714D01*
X100341904Y-73904761D02*
X100246666Y-73952380D01*
X100056190Y-73952380D01*
X99960952Y-73904761D01*
X99913333Y-73809523D01*
X99913333Y-73428571D01*
X99960952Y-73333333D01*
X100056190Y-73285714D01*
X100246666Y-73285714D01*
X100341904Y-73333333D01*
X100389523Y-73428571D01*
X100389523Y-73523809D01*
X99913333Y-73619047D01*
X100818095Y-73952380D02*
X100818095Y-72952380D01*
X101199047Y-72952380D01*
X101294285Y-73000000D01*
X101341904Y-73047619D01*
X101389523Y-73142857D01*
X101389523Y-73285714D01*
X101341904Y-73380952D01*
X101294285Y-73428571D01*
X101199047Y-73476190D01*
X100818095Y-73476190D01*
X102246666Y-73285714D02*
X102246666Y-73952380D01*
X101818095Y-73285714D02*
X101818095Y-73809523D01*
X101865714Y-73904761D01*
X101960952Y-73952380D01*
X102103809Y-73952380D01*
X102199047Y-73904761D01*
X102246666Y-73857142D01*
X102722857Y-73285714D02*
X102722857Y-74285714D01*
X102722857Y-73333333D02*
X102818095Y-73285714D01*
X103008571Y-73285714D01*
X103103809Y-73333333D01*
X103151428Y-73380952D01*
X103199047Y-73476190D01*
X103199047Y-73761904D01*
X103151428Y-73857142D01*
X103103809Y-73904761D01*
X103008571Y-73952380D01*
X102818095Y-73952380D01*
X102722857Y-73904761D01*
X104151428Y-73952380D02*
X103580000Y-73952380D01*
X103865714Y-73952380D02*
X103865714Y-72952380D01*
X103770476Y-73095238D01*
X103675238Y-73190476D01*
X103580000Y-73238095D01*
X123952380Y-56635238D02*
X123952380Y-56063809D01*
X124952380Y-56349523D02*
X123952380Y-56349523D01*
X124904761Y-55349523D02*
X124952380Y-55444761D01*
X124952380Y-55635238D01*
X124904761Y-55730476D01*
X124809523Y-55778095D01*
X124428571Y-55778095D01*
X124333333Y-55730476D01*
X124285714Y-55635238D01*
X124285714Y-55444761D01*
X124333333Y-55349523D01*
X124428571Y-55301904D01*
X124523809Y-55301904D01*
X124619047Y-55778095D01*
X124952380Y-54873333D02*
X124285714Y-54873333D01*
X124380952Y-54873333D02*
X124333333Y-54825714D01*
X124285714Y-54730476D01*
X124285714Y-54587619D01*
X124333333Y-54492380D01*
X124428571Y-54444761D01*
X124952380Y-54444761D01*
X124428571Y-54444761D02*
X124333333Y-54397142D01*
X124285714Y-54301904D01*
X124285714Y-54159047D01*
X124333333Y-54063809D01*
X124428571Y-54016190D01*
X124952380Y-54016190D01*
X124285714Y-53540000D02*
X125285714Y-53540000D01*
X124333333Y-53540000D02*
X124285714Y-53444761D01*
X124285714Y-53254285D01*
X124333333Y-53159047D01*
X124380952Y-53111428D01*
X124476190Y-53063809D01*
X124761904Y-53063809D01*
X124857142Y-53111428D01*
X124904761Y-53159047D01*
X124952380Y-53254285D01*
X124952380Y-53444761D01*
X124904761Y-53540000D01*
X124904761Y-52682857D02*
X124952380Y-52540000D01*
X124952380Y-52301904D01*
X124904761Y-52206666D01*
X124857142Y-52159047D01*
X124761904Y-52111428D01*
X124666666Y-52111428D01*
X124571428Y-52159047D01*
X124523809Y-52206666D01*
X124476190Y-52301904D01*
X124428571Y-52492380D01*
X124380952Y-52587619D01*
X124333333Y-52635238D01*
X124238095Y-52682857D01*
X124142857Y-52682857D01*
X124047619Y-52635238D01*
X124000000Y-52587619D01*
X123952380Y-52492380D01*
X123952380Y-52254285D01*
X124000000Y-52111428D01*
X124904761Y-51301904D02*
X124952380Y-51397142D01*
X124952380Y-51587619D01*
X124904761Y-51682857D01*
X124809523Y-51730476D01*
X124428571Y-51730476D01*
X124333333Y-51682857D01*
X124285714Y-51587619D01*
X124285714Y-51397142D01*
X124333333Y-51301904D01*
X124428571Y-51254285D01*
X124523809Y-51254285D01*
X124619047Y-51730476D01*
X124285714Y-50825714D02*
X124952380Y-50825714D01*
X124380952Y-50825714D02*
X124333333Y-50778095D01*
X124285714Y-50682857D01*
X124285714Y-50540000D01*
X124333333Y-50444761D01*
X124428571Y-50397142D01*
X124952380Y-50397142D01*
X124904761Y-49968571D02*
X124952380Y-49873333D01*
X124952380Y-49682857D01*
X124904761Y-49587619D01*
X124809523Y-49540000D01*
X124761904Y-49540000D01*
X124666666Y-49587619D01*
X124619047Y-49682857D01*
X124619047Y-49825714D01*
X124571428Y-49920952D01*
X124476190Y-49968571D01*
X124428571Y-49968571D01*
X124333333Y-49920952D01*
X124285714Y-49825714D01*
X124285714Y-49682857D01*
X124333333Y-49587619D01*
X83785714Y-67872380D02*
X84595238Y-67872380D01*
X84690476Y-67920000D01*
X84738095Y-67967619D01*
X84785714Y-68062857D01*
X84785714Y-68205714D01*
X84738095Y-68300952D01*
X84404761Y-67872380D02*
X84452380Y-67967619D01*
X84452380Y-68158095D01*
X84404761Y-68253333D01*
X84357142Y-68300952D01*
X84261904Y-68348571D01*
X83976190Y-68348571D01*
X83880952Y-68300952D01*
X83833333Y-68253333D01*
X83785714Y-68158095D01*
X83785714Y-67967619D01*
X83833333Y-67872380D01*
X84452380Y-66967619D02*
X83928571Y-66967619D01*
X83833333Y-67015238D01*
X83785714Y-67110476D01*
X83785714Y-67300952D01*
X83833333Y-67396190D01*
X84404761Y-66967619D02*
X84452380Y-67062857D01*
X84452380Y-67300952D01*
X84404761Y-67396190D01*
X84309523Y-67443809D01*
X84214285Y-67443809D01*
X84119047Y-67396190D01*
X84071428Y-67300952D01*
X84071428Y-67062857D01*
X84023809Y-66967619D01*
X83785714Y-66634285D02*
X83785714Y-66253333D01*
X83452380Y-66491428D02*
X84309523Y-66491428D01*
X84404761Y-66443809D01*
X84452380Y-66348571D01*
X84452380Y-66253333D01*
X84404761Y-65539047D02*
X84452380Y-65634285D01*
X84452380Y-65824761D01*
X84404761Y-65920000D01*
X84309523Y-65967619D01*
X83928571Y-65967619D01*
X83833333Y-65920000D01*
X83785714Y-65824761D01*
X83785714Y-65634285D01*
X83833333Y-65539047D01*
X83928571Y-65491428D01*
X84023809Y-65491428D01*
X84119047Y-65967619D01*
X84547619Y-65300952D02*
X84547619Y-64539047D01*
X84452380Y-64300952D02*
X83785714Y-64300952D01*
X83976190Y-64300952D02*
X83880952Y-64253333D01*
X83833333Y-64205714D01*
X83785714Y-64110476D01*
X83785714Y-64015238D01*
X84404761Y-63300952D02*
X84452380Y-63396190D01*
X84452380Y-63586666D01*
X84404761Y-63681904D01*
X84309523Y-63729523D01*
X83928571Y-63729523D01*
X83833333Y-63681904D01*
X83785714Y-63586666D01*
X83785714Y-63396190D01*
X83833333Y-63300952D01*
X83928571Y-63253333D01*
X84023809Y-63253333D01*
X84119047Y-63729523D01*
X84404761Y-62872380D02*
X84452380Y-62777142D01*
X84452380Y-62586666D01*
X84404761Y-62491428D01*
X84309523Y-62443809D01*
X84261904Y-62443809D01*
X84166666Y-62491428D01*
X84119047Y-62586666D01*
X84119047Y-62729523D01*
X84071428Y-62824761D01*
X83976190Y-62872380D01*
X83928571Y-62872380D01*
X83833333Y-62824761D01*
X83785714Y-62729523D01*
X83785714Y-62586666D01*
X83833333Y-62491428D01*
X83547619Y-62062857D02*
X83500000Y-62015238D01*
X83452380Y-61920000D01*
X83452380Y-61681904D01*
X83500000Y-61586666D01*
X83547619Y-61539047D01*
X83642857Y-61491428D01*
X83738095Y-61491428D01*
X83880952Y-61539047D01*
X84452380Y-62110476D01*
X84452380Y-61491428D01*
X73592380Y-80452380D02*
X72592380Y-80452380D01*
X73592380Y-80023809D02*
X73068571Y-80023809D01*
X72973333Y-80071428D01*
X72925714Y-80166666D01*
X72925714Y-80309523D01*
X72973333Y-80404761D01*
X73020952Y-80452380D01*
X73544761Y-79166666D02*
X73592380Y-79261904D01*
X73592380Y-79452380D01*
X73544761Y-79547619D01*
X73449523Y-79595238D01*
X73068571Y-79595238D01*
X72973333Y-79547619D01*
X72925714Y-79452380D01*
X72925714Y-79261904D01*
X72973333Y-79166666D01*
X73068571Y-79119047D01*
X73163809Y-79119047D01*
X73259047Y-79595238D01*
X73592380Y-78261904D02*
X73068571Y-78261904D01*
X72973333Y-78309523D01*
X72925714Y-78404761D01*
X72925714Y-78595238D01*
X72973333Y-78690476D01*
X73544761Y-78261904D02*
X73592380Y-78357142D01*
X73592380Y-78595238D01*
X73544761Y-78690476D01*
X73449523Y-78738095D01*
X73354285Y-78738095D01*
X73259047Y-78690476D01*
X73211428Y-78595238D01*
X73211428Y-78357142D01*
X73163809Y-78261904D01*
X72925714Y-77928571D02*
X72925714Y-77547619D01*
X72592380Y-77785714D02*
X73449523Y-77785714D01*
X73544761Y-77738095D01*
X73592380Y-77642857D01*
X73592380Y-77547619D01*
X73592380Y-76642857D02*
X73116190Y-76976190D01*
X73592380Y-77214285D02*
X72592380Y-77214285D01*
X72592380Y-76833333D01*
X72640000Y-76738095D01*
X72687619Y-76690476D01*
X72782857Y-76642857D01*
X72925714Y-76642857D01*
X73020952Y-76690476D01*
X73068571Y-76738095D01*
X73116190Y-76833333D01*
X73116190Y-77214285D01*
X73592380Y-76071428D02*
X73544761Y-76166666D01*
X73497142Y-76214285D01*
X73401904Y-76261904D01*
X73116190Y-76261904D01*
X73020952Y-76214285D01*
X72973333Y-76166666D01*
X72925714Y-76071428D01*
X72925714Y-75928571D01*
X72973333Y-75833333D01*
X73020952Y-75785714D01*
X73116190Y-75738095D01*
X73401904Y-75738095D01*
X73497142Y-75785714D01*
X73544761Y-75833333D01*
X73592380Y-75928571D01*
X73592380Y-76071428D01*
X73592380Y-75166666D02*
X73544761Y-75261904D01*
X73497142Y-75309523D01*
X73401904Y-75357142D01*
X73116190Y-75357142D01*
X73020952Y-75309523D01*
X72973333Y-75261904D01*
X72925714Y-75166666D01*
X72925714Y-75023809D01*
X72973333Y-74928571D01*
X73020952Y-74880952D01*
X73116190Y-74833333D01*
X73401904Y-74833333D01*
X73497142Y-74880952D01*
X73544761Y-74928571D01*
X73592380Y-75023809D01*
X73592380Y-75166666D01*
X73592380Y-74404761D02*
X72925714Y-74404761D01*
X73020952Y-74404761D02*
X72973333Y-74357142D01*
X72925714Y-74261904D01*
X72925714Y-74119047D01*
X72973333Y-74023809D01*
X73068571Y-73976190D01*
X73592380Y-73976190D01*
X73068571Y-73976190D02*
X72973333Y-73928571D01*
X72925714Y-73833333D01*
X72925714Y-73690476D01*
X72973333Y-73595238D01*
X73068571Y-73547619D01*
X73592380Y-73547619D01*
X110952380Y-55642857D02*
X110904761Y-55738095D01*
X110809523Y-55785714D01*
X109952380Y-55785714D01*
X110904761Y-54880952D02*
X110952380Y-54976190D01*
X110952380Y-55166666D01*
X110904761Y-55261904D01*
X110809523Y-55309523D01*
X110428571Y-55309523D01*
X110333333Y-55261904D01*
X110285714Y-55166666D01*
X110285714Y-54976190D01*
X110333333Y-54880952D01*
X110428571Y-54833333D01*
X110523809Y-54833333D01*
X110619047Y-55309523D01*
X110952380Y-53976190D02*
X109952380Y-53976190D01*
X110904761Y-53976190D02*
X110952380Y-54071428D01*
X110952380Y-54261904D01*
X110904761Y-54357142D01*
X110857142Y-54404761D01*
X110761904Y-54452380D01*
X110476190Y-54452380D01*
X110380952Y-54404761D01*
X110333333Y-54357142D01*
X110285714Y-54261904D01*
X110285714Y-54071428D01*
X110333333Y-53976190D01*
X111047619Y-53738095D02*
X111047619Y-52976190D01*
X110952380Y-52738095D02*
X110285714Y-52738095D01*
X110476190Y-52738095D02*
X110380952Y-52690476D01*
X110333333Y-52642857D01*
X110285714Y-52547619D01*
X110285714Y-52452380D01*
X110904761Y-51738095D02*
X110952380Y-51833333D01*
X110952380Y-52023809D01*
X110904761Y-52119047D01*
X110809523Y-52166666D01*
X110428571Y-52166666D01*
X110333333Y-52119047D01*
X110285714Y-52023809D01*
X110285714Y-51833333D01*
X110333333Y-51738095D01*
X110428571Y-51690476D01*
X110523809Y-51690476D01*
X110619047Y-52166666D01*
X110904761Y-51309523D02*
X110952380Y-51214285D01*
X110952380Y-51023809D01*
X110904761Y-50928571D01*
X110809523Y-50880952D01*
X110761904Y-50880952D01*
X110666666Y-50928571D01*
X110619047Y-51023809D01*
X110619047Y-51166666D01*
X110571428Y-51261904D01*
X110476190Y-51309523D01*
X110428571Y-51309523D01*
X110333333Y-51261904D01*
X110285714Y-51166666D01*
X110285714Y-51023809D01*
X110333333Y-50928571D01*
X111047619Y-50690476D02*
X111047619Y-49928571D01*
X110285714Y-49261904D02*
X110952380Y-49261904D01*
X109904761Y-49500000D02*
X110619047Y-49738095D01*
X110619047Y-49119047D01*
X74682380Y-70483809D02*
X73682380Y-70483809D01*
X74158571Y-70483809D02*
X74158571Y-69912380D01*
X74682380Y-69912380D02*
X73682380Y-69912380D01*
X74634761Y-69055238D02*
X74682380Y-69150476D01*
X74682380Y-69340952D01*
X74634761Y-69436190D01*
X74539523Y-69483809D01*
X74158571Y-69483809D01*
X74063333Y-69436190D01*
X74015714Y-69340952D01*
X74015714Y-69150476D01*
X74063333Y-69055238D01*
X74158571Y-69007619D01*
X74253809Y-69007619D01*
X74349047Y-69483809D01*
X74682380Y-68150476D02*
X74158571Y-68150476D01*
X74063333Y-68198095D01*
X74015714Y-68293333D01*
X74015714Y-68483809D01*
X74063333Y-68579047D01*
X74634761Y-68150476D02*
X74682380Y-68245714D01*
X74682380Y-68483809D01*
X74634761Y-68579047D01*
X74539523Y-68626666D01*
X74444285Y-68626666D01*
X74349047Y-68579047D01*
X74301428Y-68483809D01*
X74301428Y-68245714D01*
X74253809Y-68150476D01*
X74015714Y-67817142D02*
X74015714Y-67436190D01*
X73682380Y-67674285D02*
X74539523Y-67674285D01*
X74634761Y-67626666D01*
X74682380Y-67531428D01*
X74682380Y-67436190D01*
X74682380Y-66531428D02*
X74206190Y-66864761D01*
X74682380Y-67102857D02*
X73682380Y-67102857D01*
X73682380Y-66721904D01*
X73730000Y-66626666D01*
X73777619Y-66579047D01*
X73872857Y-66531428D01*
X74015714Y-66531428D01*
X74110952Y-66579047D01*
X74158571Y-66626666D01*
X74206190Y-66721904D01*
X74206190Y-67102857D01*
X74682380Y-65960000D02*
X74634761Y-66055238D01*
X74587142Y-66102857D01*
X74491904Y-66150476D01*
X74206190Y-66150476D01*
X74110952Y-66102857D01*
X74063333Y-66055238D01*
X74015714Y-65960000D01*
X74015714Y-65817142D01*
X74063333Y-65721904D01*
X74110952Y-65674285D01*
X74206190Y-65626666D01*
X74491904Y-65626666D01*
X74587142Y-65674285D01*
X74634761Y-65721904D01*
X74682380Y-65817142D01*
X74682380Y-65960000D01*
X74682380Y-65055238D02*
X74634761Y-65150476D01*
X74587142Y-65198095D01*
X74491904Y-65245714D01*
X74206190Y-65245714D01*
X74110952Y-65198095D01*
X74063333Y-65150476D01*
X74015714Y-65055238D01*
X74015714Y-64912380D01*
X74063333Y-64817142D01*
X74110952Y-64769523D01*
X74206190Y-64721904D01*
X74491904Y-64721904D01*
X74587142Y-64769523D01*
X74634761Y-64817142D01*
X74682380Y-64912380D01*
X74682380Y-65055238D01*
X74682380Y-64293333D02*
X74015714Y-64293333D01*
X74110952Y-64293333D02*
X74063333Y-64245714D01*
X74015714Y-64150476D01*
X74015714Y-64007619D01*
X74063333Y-63912380D01*
X74158571Y-63864761D01*
X74682380Y-63864761D01*
X74158571Y-63864761D02*
X74063333Y-63817142D01*
X74015714Y-63721904D01*
X74015714Y-63579047D01*
X74063333Y-63483809D01*
X74158571Y-63436190D01*
X74682380Y-63436190D01*
X73682380Y-63102857D02*
X73682380Y-62531428D01*
X74682380Y-62817142D02*
X73682380Y-62817142D01*
X74682380Y-62198095D02*
X74015714Y-62198095D01*
X74206190Y-62198095D02*
X74110952Y-62150476D01*
X74063333Y-62102857D01*
X74015714Y-62007619D01*
X74015714Y-61912380D01*
X74682380Y-61150476D02*
X74158571Y-61150476D01*
X74063333Y-61198095D01*
X74015714Y-61293333D01*
X74015714Y-61483809D01*
X74063333Y-61579047D01*
X74634761Y-61150476D02*
X74682380Y-61245714D01*
X74682380Y-61483809D01*
X74634761Y-61579047D01*
X74539523Y-61626666D01*
X74444285Y-61626666D01*
X74349047Y-61579047D01*
X74301428Y-61483809D01*
X74301428Y-61245714D01*
X74253809Y-61150476D01*
X74015714Y-60674285D02*
X74682380Y-60674285D01*
X74110952Y-60674285D02*
X74063333Y-60626666D01*
X74015714Y-60531428D01*
X74015714Y-60388571D01*
X74063333Y-60293333D01*
X74158571Y-60245714D01*
X74682380Y-60245714D01*
X74634761Y-59817142D02*
X74682380Y-59721904D01*
X74682380Y-59531428D01*
X74634761Y-59436190D01*
X74539523Y-59388571D01*
X74491904Y-59388571D01*
X74396666Y-59436190D01*
X74349047Y-59531428D01*
X74349047Y-59674285D01*
X74301428Y-59769523D01*
X74206190Y-59817142D01*
X74158571Y-59817142D01*
X74063333Y-59769523D01*
X74015714Y-59674285D01*
X74015714Y-59531428D01*
X74063333Y-59436190D01*
X110396666Y-40952380D02*
X110396666Y-40285714D01*
X110396666Y-40476190D02*
X110444285Y-40380952D01*
X110491904Y-40333333D01*
X110587142Y-40285714D01*
X110682380Y-40285714D01*
X111158571Y-40952380D02*
X111063333Y-40904761D01*
X111015714Y-40857142D01*
X110968095Y-40761904D01*
X110968095Y-40476190D01*
X111015714Y-40380952D01*
X111063333Y-40333333D01*
X111158571Y-40285714D01*
X111301428Y-40285714D01*
X111396666Y-40333333D01*
X111444285Y-40380952D01*
X111491904Y-40476190D01*
X111491904Y-40761904D01*
X111444285Y-40857142D01*
X111396666Y-40904761D01*
X111301428Y-40952380D01*
X111158571Y-40952380D01*
X112063333Y-40952380D02*
X111968095Y-40904761D01*
X111920476Y-40857142D01*
X111872857Y-40761904D01*
X111872857Y-40476190D01*
X111920476Y-40380952D01*
X111968095Y-40333333D01*
X112063333Y-40285714D01*
X112206190Y-40285714D01*
X112301428Y-40333333D01*
X112349047Y-40380952D01*
X112396666Y-40476190D01*
X112396666Y-40761904D01*
X112349047Y-40857142D01*
X112301428Y-40904761D01*
X112206190Y-40952380D01*
X112063333Y-40952380D01*
X112825238Y-40952380D02*
X112825238Y-40285714D01*
X112825238Y-40380952D02*
X112872857Y-40333333D01*
X112968095Y-40285714D01*
X113110952Y-40285714D01*
X113206190Y-40333333D01*
X113253809Y-40428571D01*
X113253809Y-40952380D01*
X113253809Y-40428571D02*
X113301428Y-40333333D01*
X113396666Y-40285714D01*
X113539523Y-40285714D01*
X113634761Y-40333333D01*
X113682380Y-40428571D01*
X113682380Y-40952380D01*
X114158571Y-40952380D02*
X114158571Y-39952380D01*
X114158571Y-40428571D02*
X114730000Y-40428571D01*
X114730000Y-40952380D02*
X114730000Y-39952380D01*
X115587142Y-40904761D02*
X115491904Y-40952380D01*
X115301428Y-40952380D01*
X115206190Y-40904761D01*
X115158571Y-40809523D01*
X115158571Y-40428571D01*
X115206190Y-40333333D01*
X115301428Y-40285714D01*
X115491904Y-40285714D01*
X115587142Y-40333333D01*
X115634761Y-40428571D01*
X115634761Y-40523809D01*
X115158571Y-40619047D01*
X116491904Y-40952380D02*
X116491904Y-40428571D01*
X116444285Y-40333333D01*
X116349047Y-40285714D01*
X116158571Y-40285714D01*
X116063333Y-40333333D01*
X116491904Y-40904761D02*
X116396666Y-40952380D01*
X116158571Y-40952380D01*
X116063333Y-40904761D01*
X116015714Y-40809523D01*
X116015714Y-40714285D01*
X116063333Y-40619047D01*
X116158571Y-40571428D01*
X116396666Y-40571428D01*
X116491904Y-40523809D01*
X116825238Y-40285714D02*
X117206190Y-40285714D01*
X116968095Y-39952380D02*
X116968095Y-40809523D01*
X117015714Y-40904761D01*
X117110952Y-40952380D01*
X117206190Y-40952380D01*
M02*
