G04 #@! TF.GenerationSoftware,KiCad,Pcbnew,(5.1.4)-1*
G04 #@! TF.CreationDate,2019-09-16T08:25:28+02:00*
G04 #@! TF.ProjectId,virtual_clues,76697274-7561-46c5-9f63-6c7565732e6b,rev?*
G04 #@! TF.SameCoordinates,Original*
G04 #@! TF.FileFunction,Copper,L2,Bot*
G04 #@! TF.FilePolarity,Positive*
%FSLAX46Y46*%
G04 Gerber Fmt 4.6, Leading zero omitted, Abs format (unit mm)*
G04 Created by KiCad (PCBNEW (5.1.4)-1) date 2019-09-16 08:25:28*
%MOMM*%
%LPD*%
G04 APERTURE LIST*
%ADD10O,2.000000X1.600000*%
%ADD11R,2.000000X2.000000*%
%ADD12C,5.600000*%
%ADD13C,1.600000*%
%ADD14R,1.600000X1.600000*%
%ADD15R,1.800000X1.800000*%
%ADD16C,1.800000*%
%ADD17C,2.600000*%
%ADD18R,2.600000X2.600000*%
%ADD19C,2.200000*%
%ADD20R,2.200000X2.200000*%
%ADD21O,1.600000X1.600000*%
%ADD22R,2.000000X1.905000*%
%ADD23O,2.000000X1.905000*%
%ADD24C,1.000000*%
%ADD25C,0.750000*%
%ADD26C,0.500000*%
%ADD27C,0.254000*%
G04 APERTURE END LIST*
D10*
X111500000Y-78960000D03*
D11*
X111500000Y-81500000D03*
D10*
X111500000Y-76420000D03*
X111500000Y-73880000D03*
X111500000Y-71340000D03*
X111500000Y-68800000D03*
X111500000Y-66260000D03*
X111500000Y-63720000D03*
X88640000Y-63720000D03*
X88640000Y-66260000D03*
X88640000Y-68800000D03*
X88640000Y-71340000D03*
X88640000Y-73880000D03*
X88640000Y-76420000D03*
X88640000Y-78960000D03*
X88640000Y-81500000D03*
D12*
X88000000Y-103000000D03*
X76500000Y-43000000D03*
X120500000Y-103000000D03*
X120500000Y-43000000D03*
D13*
X88000000Y-97500000D03*
D14*
X88000000Y-92500000D03*
D13*
X115000000Y-101000000D03*
D14*
X115000000Y-98500000D03*
D13*
X110000000Y-102000000D03*
D14*
X110000000Y-104000000D03*
D13*
X110000000Y-98000000D03*
D14*
X110000000Y-95500000D03*
D15*
X84000000Y-42500000D03*
D16*
X81460000Y-42500000D03*
D17*
X78500000Y-96500000D03*
D18*
X78500000Y-101500000D03*
D16*
X87960000Y-42500000D03*
D15*
X90500000Y-42500000D03*
D18*
X78500000Y-90500000D03*
D17*
X78500000Y-85500000D03*
D19*
X119000000Y-74580000D03*
X119000000Y-72040000D03*
D20*
X119000000Y-69500000D03*
X119000000Y-79000000D03*
D19*
X119000000Y-81540000D03*
X119000000Y-84080000D03*
X119000000Y-86620000D03*
D20*
X119000000Y-60000000D03*
D19*
X119000000Y-62540000D03*
X119000000Y-65080000D03*
D13*
X89500000Y-57500000D03*
D21*
X89500000Y-47340000D03*
X104500000Y-47340000D03*
D13*
X104500000Y-57500000D03*
D21*
X96500000Y-47340000D03*
D13*
X96500000Y-57500000D03*
D20*
X119000000Y-91000000D03*
D19*
X119000000Y-93540000D03*
D22*
X78500000Y-55000000D03*
D23*
X78500000Y-52460000D03*
X78500000Y-49920000D03*
D13*
X94500000Y-67000000D03*
D21*
X104660000Y-67000000D03*
D23*
X98500000Y-97420000D03*
X98500000Y-99960000D03*
D22*
X98500000Y-102500000D03*
D15*
X108500000Y-43000000D03*
D16*
X105960000Y-43000000D03*
D13*
X84000000Y-57500000D03*
D21*
X84000000Y-47340000D03*
D13*
X94500000Y-71000000D03*
D21*
X104660000Y-71000000D03*
D20*
X119000000Y-50500000D03*
D19*
X119000000Y-53040000D03*
X119000000Y-55580000D03*
D13*
X84000000Y-70000000D03*
D21*
X84000000Y-59840000D03*
D18*
X78500000Y-79500000D03*
D17*
X78500000Y-74500000D03*
D21*
X110500000Y-47340000D03*
D13*
X110500000Y-57500000D03*
D22*
X78500000Y-67500000D03*
D23*
X78500000Y-64960000D03*
X78500000Y-62420000D03*
D15*
X115000000Y-43000000D03*
D16*
X112460000Y-43000000D03*
D24*
X88000000Y-97500000D02*
X91000000Y-97500000D01*
X93460000Y-99960000D02*
X98500000Y-99960000D01*
X91000000Y-97500000D02*
X93460000Y-99960000D01*
X98547500Y-99960000D02*
X100507500Y-98000000D01*
X98500000Y-99960000D02*
X98547500Y-99960000D01*
X100507500Y-98000000D02*
X110000000Y-98000000D01*
X114000000Y-102000000D02*
X115000000Y-101000000D01*
X110000000Y-102000000D02*
X114000000Y-102000000D01*
X110000000Y-98000000D02*
X110000000Y-102000000D01*
X98500000Y-102500000D02*
X103500000Y-102500000D01*
X105000000Y-104000000D02*
X110000000Y-104000000D01*
X103500000Y-102500000D02*
X105000000Y-104000000D01*
D25*
X91220000Y-63720000D02*
X94500000Y-67000000D01*
X88640000Y-63720000D02*
X91220000Y-63720000D01*
D24*
X98500000Y-97420000D02*
X98580000Y-97420000D01*
X100500000Y-95500000D02*
X110000000Y-95500000D01*
X98580000Y-97420000D02*
X100500000Y-95500000D01*
X112000000Y-95500000D02*
X115000000Y-98500000D01*
X110000000Y-95500000D02*
X112000000Y-95500000D01*
D26*
X91220000Y-62780000D02*
X91220000Y-63720000D01*
X96500000Y-57500000D02*
X91220000Y-62780000D01*
X117900001Y-54480001D02*
X119000000Y-55580000D01*
X99519999Y-54480001D02*
X117900001Y-54480001D01*
X96500000Y-57500000D02*
X99519999Y-54480001D01*
X116300000Y-98500000D02*
X115000000Y-98500000D01*
X116334002Y-98500000D02*
X116300000Y-98500000D01*
X120550001Y-94284001D02*
X116334002Y-98500000D01*
X120550001Y-88170001D02*
X120550001Y-94284001D01*
X119000000Y-86620000D02*
X120550001Y-88170001D01*
X120099999Y-85520001D02*
X119000000Y-86620000D01*
X120550001Y-85069999D02*
X120099999Y-85520001D01*
X120550001Y-76130001D02*
X120550001Y-85069999D01*
X119000000Y-74580000D02*
X120550001Y-76130001D01*
X97000000Y-97420000D02*
X98500000Y-97420000D01*
X90829999Y-91249999D02*
X97000000Y-97420000D01*
X86549990Y-90186402D02*
X87613587Y-91249999D01*
X86549990Y-81622229D02*
X86549990Y-90186402D01*
X87922229Y-80249990D02*
X86549990Y-81622229D01*
X87613587Y-91249999D02*
X90829999Y-91249999D01*
X91857791Y-80249990D02*
X87922229Y-80249990D01*
X94500000Y-77607781D02*
X91857791Y-80249990D01*
X94500000Y-71000000D02*
X94500000Y-77607781D01*
D24*
X79172502Y-52460000D02*
X82500000Y-55787498D01*
X78500000Y-52460000D02*
X79172502Y-52460000D01*
X80800000Y-90500000D02*
X78500000Y-90500000D01*
X82500000Y-88800000D02*
X80800000Y-90500000D01*
X82500000Y-55787498D02*
X82500000Y-88800000D01*
D26*
X120555634Y-62540000D02*
X119000000Y-62540000D01*
X121500000Y-61595634D02*
X120555634Y-62540000D01*
X121500000Y-55540000D02*
X121500000Y-61595634D01*
X119000000Y-53040000D02*
X121500000Y-55540000D01*
X119470002Y-72040000D02*
X119000000Y-72040000D01*
X120550001Y-70960001D02*
X119470002Y-72040000D01*
X120550001Y-64090001D02*
X120550001Y-70960001D01*
X119000000Y-62540000D02*
X120550001Y-64090001D01*
X105459999Y-71799999D02*
X104660000Y-71000000D01*
X108829990Y-75169990D02*
X105459999Y-71799999D01*
X112217771Y-75169990D02*
X108829990Y-75169990D01*
X113807762Y-73579999D02*
X112217771Y-75169990D01*
X117460001Y-73579999D02*
X113807762Y-73579999D01*
X119000000Y-72040000D02*
X117460001Y-73579999D01*
X88440000Y-68800000D02*
X88640000Y-68800000D01*
X85250001Y-65610001D02*
X88440000Y-68800000D01*
X85250001Y-58750001D02*
X85250001Y-65610001D01*
X84000000Y-57500000D02*
X85250001Y-58750001D01*
X88840000Y-73880000D02*
X88640000Y-73880000D01*
X118529998Y-93540000D02*
X119000000Y-93540000D01*
X117529997Y-92539999D02*
X118529998Y-93540000D01*
X116539999Y-92539999D02*
X117529997Y-92539999D01*
X115459999Y-91459999D02*
X116539999Y-92539999D01*
X115459999Y-82719999D02*
X115459999Y-91459999D01*
X111700000Y-78960000D02*
X115459999Y-82719999D01*
X111500000Y-78960000D02*
X111700000Y-78960000D01*
X111300000Y-73880000D02*
X111500000Y-73880000D01*
X107169999Y-69749999D02*
X111300000Y-73880000D01*
X93899999Y-69749999D02*
X107169999Y-69749999D01*
X93560008Y-70089990D02*
X93899999Y-69749999D01*
X88089990Y-70089990D02*
X93560008Y-70089990D01*
X88000000Y-70000000D02*
X88089990Y-70089990D01*
X84000000Y-70000000D02*
X88000000Y-70000000D01*
D24*
X80500001Y-77499999D02*
X78500000Y-79500000D01*
X80500001Y-66287499D02*
X80500001Y-77499999D01*
X79172502Y-64960000D02*
X80500001Y-66287499D01*
X78500000Y-64960000D02*
X79172502Y-64960000D01*
D27*
G36*
X74310315Y-40331862D02*
G01*
X73831862Y-40810315D01*
X73455943Y-41372918D01*
X73197006Y-41998048D01*
X73065000Y-42661682D01*
X73065000Y-43338318D01*
X73197006Y-44001952D01*
X73455943Y-44627082D01*
X73831862Y-45189685D01*
X74310315Y-45668138D01*
X74872918Y-46044057D01*
X75498048Y-46302994D01*
X76161682Y-46435000D01*
X76838318Y-46435000D01*
X77501952Y-46302994D01*
X78127082Y-46044057D01*
X78689685Y-45668138D01*
X79168138Y-45189685D01*
X79544057Y-44627082D01*
X79802994Y-44001952D01*
X79935000Y-43338318D01*
X79935000Y-42678939D01*
X79961603Y-42865907D01*
X80061778Y-43151199D01*
X80141739Y-43300792D01*
X80395920Y-43384475D01*
X81280395Y-42500000D01*
X80395920Y-41615525D01*
X80141739Y-41699208D01*
X80010842Y-41971775D01*
X79935635Y-42264642D01*
X79919009Y-42566553D01*
X79926375Y-42618321D01*
X79802994Y-41998048D01*
X79570154Y-41435920D01*
X80575525Y-41435920D01*
X81460000Y-42320395D01*
X81474143Y-42306253D01*
X81653748Y-42485858D01*
X81639605Y-42500000D01*
X81653748Y-42514143D01*
X81474143Y-42693748D01*
X81460000Y-42679605D01*
X80575525Y-43564080D01*
X80659208Y-43818261D01*
X80931775Y-43949158D01*
X81224642Y-44024365D01*
X81526553Y-44040991D01*
X81825907Y-43998397D01*
X82111199Y-43898222D01*
X82260792Y-43818261D01*
X82344474Y-43564082D01*
X82460422Y-43680030D01*
X82507187Y-43633265D01*
X82510498Y-43644180D01*
X82569463Y-43754494D01*
X82648815Y-43851185D01*
X82745506Y-43930537D01*
X82855820Y-43989502D01*
X82975518Y-44025812D01*
X83100000Y-44038072D01*
X84900000Y-44038072D01*
X85024482Y-44025812D01*
X85144180Y-43989502D01*
X85254494Y-43930537D01*
X85351185Y-43851185D01*
X85430537Y-43754494D01*
X85489502Y-43644180D01*
X85525812Y-43524482D01*
X85538072Y-43400000D01*
X85538072Y-42566553D01*
X86419009Y-42566553D01*
X86461603Y-42865907D01*
X86561778Y-43151199D01*
X86641739Y-43300792D01*
X86895920Y-43384475D01*
X87780395Y-42500000D01*
X86895920Y-41615525D01*
X86641739Y-41699208D01*
X86510842Y-41971775D01*
X86435635Y-42264642D01*
X86419009Y-42566553D01*
X85538072Y-42566553D01*
X85538072Y-41600000D01*
X85525812Y-41475518D01*
X85513801Y-41435920D01*
X87075525Y-41435920D01*
X87960000Y-42320395D01*
X87974143Y-42306253D01*
X88153748Y-42485858D01*
X88139605Y-42500000D01*
X88153748Y-42514143D01*
X87974143Y-42693748D01*
X87960000Y-42679605D01*
X87075525Y-43564080D01*
X87159208Y-43818261D01*
X87431775Y-43949158D01*
X87724642Y-44024365D01*
X88026553Y-44040991D01*
X88325907Y-43998397D01*
X88611199Y-43898222D01*
X88760792Y-43818261D01*
X88844474Y-43564082D01*
X88960422Y-43680030D01*
X89007187Y-43633265D01*
X89010498Y-43644180D01*
X89069463Y-43754494D01*
X89148815Y-43851185D01*
X89245506Y-43930537D01*
X89355820Y-43989502D01*
X89475518Y-44025812D01*
X89600000Y-44038072D01*
X91400000Y-44038072D01*
X91524482Y-44025812D01*
X91644180Y-43989502D01*
X91754494Y-43930537D01*
X91851185Y-43851185D01*
X91930537Y-43754494D01*
X91989502Y-43644180D01*
X92025812Y-43524482D01*
X92038072Y-43400000D01*
X92038072Y-42848816D01*
X104425000Y-42848816D01*
X104425000Y-43151184D01*
X104483989Y-43447743D01*
X104599701Y-43727095D01*
X104767688Y-43978505D01*
X104981495Y-44192312D01*
X105232905Y-44360299D01*
X105512257Y-44476011D01*
X105808816Y-44535000D01*
X106111184Y-44535000D01*
X106407743Y-44476011D01*
X106687095Y-44360299D01*
X106938505Y-44192312D01*
X107004944Y-44125873D01*
X107010498Y-44144180D01*
X107069463Y-44254494D01*
X107148815Y-44351185D01*
X107245506Y-44430537D01*
X107355820Y-44489502D01*
X107475518Y-44525812D01*
X107600000Y-44538072D01*
X109400000Y-44538072D01*
X109524482Y-44525812D01*
X109644180Y-44489502D01*
X109754494Y-44430537D01*
X109851185Y-44351185D01*
X109930537Y-44254494D01*
X109989502Y-44144180D01*
X110025812Y-44024482D01*
X110038072Y-43900000D01*
X110038072Y-42848816D01*
X110925000Y-42848816D01*
X110925000Y-43151184D01*
X110983989Y-43447743D01*
X111099701Y-43727095D01*
X111267688Y-43978505D01*
X111481495Y-44192312D01*
X111732905Y-44360299D01*
X112012257Y-44476011D01*
X112308816Y-44535000D01*
X112611184Y-44535000D01*
X112907743Y-44476011D01*
X113187095Y-44360299D01*
X113438505Y-44192312D01*
X113504944Y-44125873D01*
X113510498Y-44144180D01*
X113569463Y-44254494D01*
X113648815Y-44351185D01*
X113745506Y-44430537D01*
X113855820Y-44489502D01*
X113975518Y-44525812D01*
X114100000Y-44538072D01*
X115900000Y-44538072D01*
X116024482Y-44525812D01*
X116144180Y-44489502D01*
X116254494Y-44430537D01*
X116351185Y-44351185D01*
X116430537Y-44254494D01*
X116489502Y-44144180D01*
X116525812Y-44024482D01*
X116538072Y-43900000D01*
X116538072Y-42100000D01*
X116525812Y-41975518D01*
X116489502Y-41855820D01*
X116430537Y-41745506D01*
X116351185Y-41648815D01*
X116254494Y-41569463D01*
X116144180Y-41510498D01*
X116024482Y-41474188D01*
X115900000Y-41461928D01*
X114100000Y-41461928D01*
X113975518Y-41474188D01*
X113855820Y-41510498D01*
X113745506Y-41569463D01*
X113648815Y-41648815D01*
X113569463Y-41745506D01*
X113510498Y-41855820D01*
X113504944Y-41874127D01*
X113438505Y-41807688D01*
X113187095Y-41639701D01*
X112907743Y-41523989D01*
X112611184Y-41465000D01*
X112308816Y-41465000D01*
X112012257Y-41523989D01*
X111732905Y-41639701D01*
X111481495Y-41807688D01*
X111267688Y-42021495D01*
X111099701Y-42272905D01*
X110983989Y-42552257D01*
X110925000Y-42848816D01*
X110038072Y-42848816D01*
X110038072Y-42100000D01*
X110025812Y-41975518D01*
X109989502Y-41855820D01*
X109930537Y-41745506D01*
X109851185Y-41648815D01*
X109754494Y-41569463D01*
X109644180Y-41510498D01*
X109524482Y-41474188D01*
X109400000Y-41461928D01*
X107600000Y-41461928D01*
X107475518Y-41474188D01*
X107355820Y-41510498D01*
X107245506Y-41569463D01*
X107148815Y-41648815D01*
X107069463Y-41745506D01*
X107010498Y-41855820D01*
X107004944Y-41874127D01*
X106938505Y-41807688D01*
X106687095Y-41639701D01*
X106407743Y-41523989D01*
X106111184Y-41465000D01*
X105808816Y-41465000D01*
X105512257Y-41523989D01*
X105232905Y-41639701D01*
X104981495Y-41807688D01*
X104767688Y-42021495D01*
X104599701Y-42272905D01*
X104483989Y-42552257D01*
X104425000Y-42848816D01*
X92038072Y-42848816D01*
X92038072Y-41600000D01*
X92025812Y-41475518D01*
X91989502Y-41355820D01*
X91930537Y-41245506D01*
X91851185Y-41148815D01*
X91754494Y-41069463D01*
X91644180Y-41010498D01*
X91524482Y-40974188D01*
X91400000Y-40961928D01*
X89600000Y-40961928D01*
X89475518Y-40974188D01*
X89355820Y-41010498D01*
X89245506Y-41069463D01*
X89148815Y-41148815D01*
X89069463Y-41245506D01*
X89010498Y-41355820D01*
X89007187Y-41366735D01*
X88960422Y-41319970D01*
X88844474Y-41435918D01*
X88760792Y-41181739D01*
X88488225Y-41050842D01*
X88195358Y-40975635D01*
X87893447Y-40959009D01*
X87594093Y-41001603D01*
X87308801Y-41101778D01*
X87159208Y-41181739D01*
X87075525Y-41435920D01*
X85513801Y-41435920D01*
X85489502Y-41355820D01*
X85430537Y-41245506D01*
X85351185Y-41148815D01*
X85254494Y-41069463D01*
X85144180Y-41010498D01*
X85024482Y-40974188D01*
X84900000Y-40961928D01*
X83100000Y-40961928D01*
X82975518Y-40974188D01*
X82855820Y-41010498D01*
X82745506Y-41069463D01*
X82648815Y-41148815D01*
X82569463Y-41245506D01*
X82510498Y-41355820D01*
X82507187Y-41366735D01*
X82460422Y-41319970D01*
X82344474Y-41435918D01*
X82260792Y-41181739D01*
X81988225Y-41050842D01*
X81695358Y-40975635D01*
X81393447Y-40959009D01*
X81094093Y-41001603D01*
X80808801Y-41101778D01*
X80659208Y-41181739D01*
X80575525Y-41435920D01*
X79570154Y-41435920D01*
X79544057Y-41372918D01*
X79168138Y-40810315D01*
X78689685Y-40331862D01*
X78469890Y-40185000D01*
X118530110Y-40185000D01*
X118310315Y-40331862D01*
X117831862Y-40810315D01*
X117455943Y-41372918D01*
X117197006Y-41998048D01*
X117065000Y-42661682D01*
X117065000Y-43338318D01*
X117197006Y-44001952D01*
X117455943Y-44627082D01*
X117831862Y-45189685D01*
X118310315Y-45668138D01*
X118872918Y-46044057D01*
X119498048Y-46302994D01*
X120161682Y-46435000D01*
X120838318Y-46435000D01*
X121501952Y-46302994D01*
X122127082Y-46044057D01*
X122689685Y-45668138D01*
X123168138Y-45189685D01*
X123544057Y-44627082D01*
X123802994Y-44001952D01*
X123935000Y-43338318D01*
X123935000Y-42661682D01*
X123802994Y-41998048D01*
X123544057Y-41372918D01*
X123168138Y-40810315D01*
X122689685Y-40331862D01*
X122469890Y-40185000D01*
X124815000Y-40185000D01*
X124815001Y-106315000D01*
X121441594Y-106315000D01*
X121501952Y-106302994D01*
X122127082Y-106044057D01*
X122689685Y-105668138D01*
X123168138Y-105189685D01*
X123544057Y-104627082D01*
X123802994Y-104001952D01*
X123935000Y-103338318D01*
X123935000Y-102661682D01*
X123802994Y-101998048D01*
X123544057Y-101372918D01*
X123168138Y-100810315D01*
X122689685Y-100331862D01*
X122127082Y-99955943D01*
X121501952Y-99697006D01*
X120838318Y-99565000D01*
X120161682Y-99565000D01*
X119498048Y-99697006D01*
X118872918Y-99955943D01*
X118310315Y-100331862D01*
X117831862Y-100810315D01*
X117455943Y-101372918D01*
X117197006Y-101998048D01*
X117065000Y-102661682D01*
X117065000Y-103338318D01*
X117197006Y-104001952D01*
X117455943Y-104627082D01*
X117831862Y-105189685D01*
X118310315Y-105668138D01*
X118872918Y-106044057D01*
X119498048Y-106302994D01*
X119558406Y-106315000D01*
X88941594Y-106315000D01*
X89001952Y-106302994D01*
X89627082Y-106044057D01*
X90189685Y-105668138D01*
X90668138Y-105189685D01*
X91044057Y-104627082D01*
X91302994Y-104001952D01*
X91435000Y-103338318D01*
X91435000Y-102661682D01*
X91302994Y-101998048D01*
X91116372Y-101547500D01*
X96861928Y-101547500D01*
X96861928Y-103452500D01*
X96874188Y-103576982D01*
X96910498Y-103696680D01*
X96969463Y-103806994D01*
X97048815Y-103903685D01*
X97145506Y-103983037D01*
X97255820Y-104042002D01*
X97375518Y-104078312D01*
X97500000Y-104090572D01*
X99500000Y-104090572D01*
X99624482Y-104078312D01*
X99744180Y-104042002D01*
X99854494Y-103983037D01*
X99951185Y-103903685D01*
X100030537Y-103806994D01*
X100089502Y-103696680D01*
X100108212Y-103635000D01*
X103029869Y-103635000D01*
X104158008Y-104763140D01*
X104193551Y-104806449D01*
X104366377Y-104948284D01*
X104563553Y-105053676D01*
X104777501Y-105118577D01*
X104944248Y-105135000D01*
X104944257Y-105135000D01*
X104999999Y-105140490D01*
X105055741Y-105135000D01*
X108659043Y-105135000D01*
X108669463Y-105154494D01*
X108748815Y-105251185D01*
X108845506Y-105330537D01*
X108955820Y-105389502D01*
X109075518Y-105425812D01*
X109200000Y-105438072D01*
X110800000Y-105438072D01*
X110924482Y-105425812D01*
X111044180Y-105389502D01*
X111154494Y-105330537D01*
X111251185Y-105251185D01*
X111330537Y-105154494D01*
X111389502Y-105044180D01*
X111425812Y-104924482D01*
X111438072Y-104800000D01*
X111438072Y-103200000D01*
X111425812Y-103075518D01*
X111389502Y-102955820D01*
X111330537Y-102845506D01*
X111251185Y-102748815D01*
X111238242Y-102738193D01*
X111357571Y-102486004D01*
X111426300Y-102211816D01*
X111437100Y-101992702D01*
X114186903Y-101992702D01*
X114258486Y-102236671D01*
X114513996Y-102357571D01*
X114788184Y-102426300D01*
X115070512Y-102440217D01*
X115350130Y-102398787D01*
X115616292Y-102303603D01*
X115741514Y-102236671D01*
X115813097Y-101992702D01*
X115000000Y-101179605D01*
X114186903Y-101992702D01*
X111437100Y-101992702D01*
X111440217Y-101929488D01*
X111398787Y-101649870D01*
X111303603Y-101383708D01*
X111236671Y-101258486D01*
X110992702Y-101186903D01*
X110179605Y-102000000D01*
X110193748Y-102014143D01*
X110014143Y-102193748D01*
X110000000Y-102179605D01*
X109985858Y-102193748D01*
X109806253Y-102014143D01*
X109820395Y-102000000D01*
X109007298Y-101186903D01*
X108763329Y-101258486D01*
X108642429Y-101513996D01*
X108573700Y-101788184D01*
X108559783Y-102070512D01*
X108601213Y-102350130D01*
X108696397Y-102616292D01*
X108761616Y-102738309D01*
X108748815Y-102748815D01*
X108669463Y-102845506D01*
X108659043Y-102865000D01*
X105470132Y-102865000D01*
X104341996Y-101736865D01*
X104306449Y-101693551D01*
X104133623Y-101551716D01*
X103936447Y-101446324D01*
X103722499Y-101381423D01*
X103555752Y-101365000D01*
X103555751Y-101365000D01*
X103500000Y-101359509D01*
X103444249Y-101365000D01*
X100108212Y-101365000D01*
X100089502Y-101303320D01*
X100030537Y-101193006D01*
X99951185Y-101096315D01*
X99854494Y-101016963D01*
X99836413Y-101007298D01*
X109186903Y-101007298D01*
X110000000Y-101820395D01*
X110749883Y-101070512D01*
X113559783Y-101070512D01*
X113601213Y-101350130D01*
X113696397Y-101616292D01*
X113763329Y-101741514D01*
X114007298Y-101813097D01*
X114820395Y-101000000D01*
X115179605Y-101000000D01*
X115992702Y-101813097D01*
X116236671Y-101741514D01*
X116357571Y-101486004D01*
X116426300Y-101211816D01*
X116440217Y-100929488D01*
X116398787Y-100649870D01*
X116303603Y-100383708D01*
X116236671Y-100258486D01*
X115992702Y-100186903D01*
X115179605Y-101000000D01*
X114820395Y-101000000D01*
X114007298Y-100186903D01*
X113763329Y-100258486D01*
X113642429Y-100513996D01*
X113573700Y-100788184D01*
X113559783Y-101070512D01*
X110749883Y-101070512D01*
X110813097Y-101007298D01*
X110741514Y-100763329D01*
X110486004Y-100642429D01*
X110211816Y-100573700D01*
X109929488Y-100559783D01*
X109649870Y-100601213D01*
X109383708Y-100696397D01*
X109258486Y-100763329D01*
X109186903Y-101007298D01*
X99836413Y-101007298D01*
X99762781Y-100967941D01*
X99875969Y-100826923D01*
X100019571Y-100551094D01*
X100090563Y-100332980D01*
X99970594Y-100087000D01*
X98627000Y-100087000D01*
X98627000Y-100107000D01*
X98373000Y-100107000D01*
X98373000Y-100087000D01*
X97029406Y-100087000D01*
X96909437Y-100332980D01*
X96980429Y-100551094D01*
X97124031Y-100826923D01*
X97237219Y-100967941D01*
X97145506Y-101016963D01*
X97048815Y-101096315D01*
X96969463Y-101193006D01*
X96910498Y-101303320D01*
X96874188Y-101423018D01*
X96861928Y-101547500D01*
X91116372Y-101547500D01*
X91044057Y-101372918D01*
X90668138Y-100810315D01*
X90189685Y-100331862D01*
X89627082Y-99955943D01*
X89001952Y-99697006D01*
X88338318Y-99565000D01*
X87661682Y-99565000D01*
X86998048Y-99697006D01*
X86372918Y-99955943D01*
X85810315Y-100331862D01*
X85331862Y-100810315D01*
X84955943Y-101372918D01*
X84697006Y-101998048D01*
X84565000Y-102661682D01*
X84565000Y-103338318D01*
X84697006Y-104001952D01*
X84955943Y-104627082D01*
X85331862Y-105189685D01*
X85810315Y-105668138D01*
X86372918Y-106044057D01*
X86998048Y-106302994D01*
X87058406Y-106315000D01*
X72685000Y-106315000D01*
X72685000Y-102800000D01*
X76561928Y-102800000D01*
X76574188Y-102924482D01*
X76610498Y-103044180D01*
X76669463Y-103154494D01*
X76748815Y-103251185D01*
X76845506Y-103330537D01*
X76955820Y-103389502D01*
X77075518Y-103425812D01*
X77200000Y-103438072D01*
X78214250Y-103435000D01*
X78373000Y-103276250D01*
X78373000Y-101627000D01*
X78627000Y-101627000D01*
X78627000Y-103276250D01*
X78785750Y-103435000D01*
X79800000Y-103438072D01*
X79924482Y-103425812D01*
X80044180Y-103389502D01*
X80154494Y-103330537D01*
X80251185Y-103251185D01*
X80330537Y-103154494D01*
X80389502Y-103044180D01*
X80425812Y-102924482D01*
X80438072Y-102800000D01*
X80435000Y-101785750D01*
X80276250Y-101627000D01*
X78627000Y-101627000D01*
X78373000Y-101627000D01*
X76723750Y-101627000D01*
X76565000Y-101785750D01*
X76561928Y-102800000D01*
X72685000Y-102800000D01*
X72685000Y-100200000D01*
X76561928Y-100200000D01*
X76565000Y-101214250D01*
X76723750Y-101373000D01*
X78373000Y-101373000D01*
X78373000Y-99723750D01*
X78627000Y-99723750D01*
X78627000Y-101373000D01*
X80276250Y-101373000D01*
X80435000Y-101214250D01*
X80438072Y-100200000D01*
X80425812Y-100075518D01*
X80389502Y-99955820D01*
X80330537Y-99845506D01*
X80251185Y-99748815D01*
X80154494Y-99669463D01*
X80044180Y-99610498D01*
X79924482Y-99574188D01*
X79800000Y-99561928D01*
X78785750Y-99565000D01*
X78627000Y-99723750D01*
X78373000Y-99723750D01*
X78214250Y-99565000D01*
X77200000Y-99561928D01*
X77075518Y-99574188D01*
X76955820Y-99610498D01*
X76845506Y-99669463D01*
X76748815Y-99748815D01*
X76669463Y-99845506D01*
X76610498Y-99955820D01*
X76574188Y-100075518D01*
X76561928Y-100200000D01*
X72685000Y-100200000D01*
X72685000Y-98492702D01*
X87186903Y-98492702D01*
X87258486Y-98736671D01*
X87513996Y-98857571D01*
X87788184Y-98926300D01*
X88070512Y-98940217D01*
X88350130Y-98898787D01*
X88616292Y-98803603D01*
X88741514Y-98736671D01*
X88813097Y-98492702D01*
X88000000Y-97679605D01*
X87186903Y-98492702D01*
X72685000Y-98492702D01*
X72685000Y-96309419D01*
X76565000Y-96309419D01*
X76565000Y-96690581D01*
X76639361Y-97064419D01*
X76785225Y-97416566D01*
X76996987Y-97733491D01*
X77266509Y-98003013D01*
X77583434Y-98214775D01*
X77935581Y-98360639D01*
X78309419Y-98435000D01*
X78690581Y-98435000D01*
X79064419Y-98360639D01*
X79416566Y-98214775D01*
X79733491Y-98003013D01*
X80003013Y-97733491D01*
X80111911Y-97570512D01*
X86559783Y-97570512D01*
X86601213Y-97850130D01*
X86696397Y-98116292D01*
X86763329Y-98241514D01*
X87007298Y-98313097D01*
X87820395Y-97500000D01*
X88179605Y-97500000D01*
X88992702Y-98313097D01*
X89236671Y-98241514D01*
X89357571Y-97986004D01*
X89426300Y-97711816D01*
X89440217Y-97429488D01*
X89398787Y-97149870D01*
X89303603Y-96883708D01*
X89236671Y-96758486D01*
X88992702Y-96686903D01*
X88179605Y-97500000D01*
X87820395Y-97500000D01*
X87007298Y-96686903D01*
X86763329Y-96758486D01*
X86642429Y-97013996D01*
X86573700Y-97288184D01*
X86559783Y-97570512D01*
X80111911Y-97570512D01*
X80214775Y-97416566D01*
X80360639Y-97064419D01*
X80435000Y-96690581D01*
X80435000Y-96507298D01*
X87186903Y-96507298D01*
X88000000Y-97320395D01*
X88813097Y-96507298D01*
X88741514Y-96263329D01*
X88486004Y-96142429D01*
X88211816Y-96073700D01*
X87929488Y-96059783D01*
X87649870Y-96101213D01*
X87383708Y-96196397D01*
X87258486Y-96263329D01*
X87186903Y-96507298D01*
X80435000Y-96507298D01*
X80435000Y-96309419D01*
X80360639Y-95935581D01*
X80214775Y-95583434D01*
X80003013Y-95266509D01*
X79733491Y-94996987D01*
X79416566Y-94785225D01*
X79064419Y-94639361D01*
X78690581Y-94565000D01*
X78309419Y-94565000D01*
X77935581Y-94639361D01*
X77583434Y-94785225D01*
X77266509Y-94996987D01*
X76996987Y-95266509D01*
X76785225Y-95583434D01*
X76639361Y-95935581D01*
X76565000Y-96309419D01*
X72685000Y-96309419D01*
X72685000Y-85309419D01*
X76565000Y-85309419D01*
X76565000Y-85690581D01*
X76639361Y-86064419D01*
X76785225Y-86416566D01*
X76996987Y-86733491D01*
X77266509Y-87003013D01*
X77583434Y-87214775D01*
X77935581Y-87360639D01*
X78309419Y-87435000D01*
X78690581Y-87435000D01*
X79064419Y-87360639D01*
X79416566Y-87214775D01*
X79733491Y-87003013D01*
X80003013Y-86733491D01*
X80214775Y-86416566D01*
X80360639Y-86064419D01*
X80435000Y-85690581D01*
X80435000Y-85309419D01*
X80360639Y-84935581D01*
X80214775Y-84583434D01*
X80003013Y-84266509D01*
X79733491Y-83996987D01*
X79416566Y-83785225D01*
X79064419Y-83639361D01*
X78690581Y-83565000D01*
X78309419Y-83565000D01*
X77935581Y-83639361D01*
X77583434Y-83785225D01*
X77266509Y-83996987D01*
X76996987Y-84266509D01*
X76785225Y-84583434D01*
X76639361Y-84935581D01*
X76565000Y-85309419D01*
X72685000Y-85309419D01*
X72685000Y-78200000D01*
X76561928Y-78200000D01*
X76561928Y-80800000D01*
X76574188Y-80924482D01*
X76610498Y-81044180D01*
X76669463Y-81154494D01*
X76748815Y-81251185D01*
X76845506Y-81330537D01*
X76955820Y-81389502D01*
X77075518Y-81425812D01*
X77200000Y-81438072D01*
X79800000Y-81438072D01*
X79924482Y-81425812D01*
X80044180Y-81389502D01*
X80154494Y-81330537D01*
X80251185Y-81251185D01*
X80330537Y-81154494D01*
X80389502Y-81044180D01*
X80425812Y-80924482D01*
X80438072Y-80800000D01*
X80438072Y-79167060D01*
X81263147Y-78341986D01*
X81306450Y-78306448D01*
X81365001Y-78235104D01*
X81365001Y-88329867D01*
X80438072Y-89256797D01*
X80438072Y-89200000D01*
X80425812Y-89075518D01*
X80389502Y-88955820D01*
X80330537Y-88845506D01*
X80251185Y-88748815D01*
X80154494Y-88669463D01*
X80044180Y-88610498D01*
X79924482Y-88574188D01*
X79800000Y-88561928D01*
X77200000Y-88561928D01*
X77075518Y-88574188D01*
X76955820Y-88610498D01*
X76845506Y-88669463D01*
X76748815Y-88748815D01*
X76669463Y-88845506D01*
X76610498Y-88955820D01*
X76574188Y-89075518D01*
X76561928Y-89200000D01*
X76561928Y-91800000D01*
X76574188Y-91924482D01*
X76610498Y-92044180D01*
X76669463Y-92154494D01*
X76748815Y-92251185D01*
X76845506Y-92330537D01*
X76955820Y-92389502D01*
X77075518Y-92425812D01*
X77200000Y-92438072D01*
X79800000Y-92438072D01*
X79924482Y-92425812D01*
X80044180Y-92389502D01*
X80154494Y-92330537D01*
X80251185Y-92251185D01*
X80330537Y-92154494D01*
X80389502Y-92044180D01*
X80425812Y-91924482D01*
X80438072Y-91800000D01*
X80438072Y-91635000D01*
X80744249Y-91635000D01*
X80800000Y-91640491D01*
X80855751Y-91635000D01*
X80855752Y-91635000D01*
X81022499Y-91618577D01*
X81236447Y-91553676D01*
X81433623Y-91448284D01*
X81606449Y-91306449D01*
X81641996Y-91263135D01*
X83263140Y-89641991D01*
X83306449Y-89606449D01*
X83448284Y-89433623D01*
X83553676Y-89236447D01*
X83618577Y-89022499D01*
X83635000Y-88855752D01*
X83640491Y-88800001D01*
X83635000Y-88744249D01*
X83635000Y-71390510D01*
X83858665Y-71435000D01*
X84141335Y-71435000D01*
X84418574Y-71379853D01*
X84679727Y-71271680D01*
X84914759Y-71114637D01*
X85114637Y-70914759D01*
X85134521Y-70885000D01*
X87078452Y-70885000D01*
X87025764Y-71058691D01*
X86998057Y-71340000D01*
X87025764Y-71621309D01*
X87107818Y-71891808D01*
X87241068Y-72141101D01*
X87420392Y-72359608D01*
X87638899Y-72538932D01*
X87771858Y-72610000D01*
X87638899Y-72681068D01*
X87420392Y-72860392D01*
X87241068Y-73078899D01*
X87107818Y-73328192D01*
X87025764Y-73598691D01*
X86998057Y-73880000D01*
X87025764Y-74161309D01*
X87107818Y-74431808D01*
X87241068Y-74681101D01*
X87420392Y-74899608D01*
X87638899Y-75078932D01*
X87771858Y-75150000D01*
X87638899Y-75221068D01*
X87420392Y-75400392D01*
X87241068Y-75618899D01*
X87107818Y-75868192D01*
X87025764Y-76138691D01*
X86998057Y-76420000D01*
X87025764Y-76701309D01*
X87107818Y-76971808D01*
X87241068Y-77221101D01*
X87420392Y-77439608D01*
X87638899Y-77618932D01*
X87771858Y-77690000D01*
X87638899Y-77761068D01*
X87420392Y-77940392D01*
X87241068Y-78158899D01*
X87107818Y-78408192D01*
X87025764Y-78678691D01*
X86998057Y-78960000D01*
X87025764Y-79241309D01*
X87107818Y-79511808D01*
X87212669Y-79707971D01*
X85954946Y-80965695D01*
X85921173Y-80993412D01*
X85810579Y-81128171D01*
X85728401Y-81281917D01*
X85677795Y-81448740D01*
X85664990Y-81578753D01*
X85664990Y-81578760D01*
X85660709Y-81622229D01*
X85664990Y-81665698D01*
X85664991Y-90142923D01*
X85660709Y-90186402D01*
X85677795Y-90359892D01*
X85728402Y-90526715D01*
X85810580Y-90680461D01*
X85893458Y-90781448D01*
X85893461Y-90781451D01*
X85921174Y-90815219D01*
X85954941Y-90842931D01*
X86600567Y-91488558D01*
X86574188Y-91575518D01*
X86561928Y-91700000D01*
X86561928Y-93300000D01*
X86574188Y-93424482D01*
X86610498Y-93544180D01*
X86669463Y-93654494D01*
X86748815Y-93751185D01*
X86845506Y-93830537D01*
X86955820Y-93889502D01*
X87075518Y-93925812D01*
X87200000Y-93938072D01*
X88800000Y-93938072D01*
X88924482Y-93925812D01*
X89044180Y-93889502D01*
X89154494Y-93830537D01*
X89251185Y-93751185D01*
X89330537Y-93654494D01*
X89389502Y-93544180D01*
X89425812Y-93424482D01*
X89438072Y-93300000D01*
X89438072Y-92134999D01*
X90463421Y-92134999D01*
X96343470Y-98015049D01*
X96371183Y-98048817D01*
X96404951Y-98076530D01*
X96404953Y-98076532D01*
X96453401Y-98116292D01*
X96505941Y-98159411D01*
X96659687Y-98241589D01*
X96826510Y-98292195D01*
X96956523Y-98305000D01*
X96956533Y-98305000D01*
X96999999Y-98309281D01*
X97043465Y-98305000D01*
X97125495Y-98305000D01*
X97126155Y-98306235D01*
X97324537Y-98547963D01*
X97503899Y-98695163D01*
X97318685Y-98850563D01*
X97124031Y-99093077D01*
X96980429Y-99368906D01*
X96909437Y-99587020D01*
X97029406Y-99833000D01*
X98373000Y-99833000D01*
X98373000Y-99813000D01*
X98627000Y-99813000D01*
X98627000Y-99833000D01*
X99970594Y-99833000D01*
X100090563Y-99587020D01*
X100019571Y-99368906D01*
X99875969Y-99093077D01*
X99795403Y-98992702D01*
X109186903Y-98992702D01*
X109258486Y-99236671D01*
X109513996Y-99357571D01*
X109788184Y-99426300D01*
X110070512Y-99440217D01*
X110350130Y-99398787D01*
X110616292Y-99303603D01*
X110741514Y-99236671D01*
X110813097Y-98992702D01*
X110000000Y-98179605D01*
X109186903Y-98992702D01*
X99795403Y-98992702D01*
X99681315Y-98850563D01*
X99496101Y-98695163D01*
X99675463Y-98547963D01*
X99873845Y-98306235D01*
X99999840Y-98070512D01*
X108559783Y-98070512D01*
X108601213Y-98350130D01*
X108696397Y-98616292D01*
X108763329Y-98741514D01*
X109007298Y-98813097D01*
X109820395Y-98000000D01*
X110179605Y-98000000D01*
X110992702Y-98813097D01*
X111236671Y-98741514D01*
X111357571Y-98486004D01*
X111426300Y-98211816D01*
X111440217Y-97929488D01*
X111398787Y-97649870D01*
X111303603Y-97383708D01*
X111236671Y-97258486D01*
X110992702Y-97186903D01*
X110179605Y-98000000D01*
X109820395Y-98000000D01*
X109007298Y-97186903D01*
X108763329Y-97258486D01*
X108642429Y-97513996D01*
X108573700Y-97788184D01*
X108559783Y-98070512D01*
X99999840Y-98070512D01*
X100021255Y-98030449D01*
X100112030Y-97731204D01*
X100138043Y-97467088D01*
X100970132Y-96635000D01*
X108659043Y-96635000D01*
X108669463Y-96654494D01*
X108748815Y-96751185D01*
X108845506Y-96830537D01*
X108955820Y-96889502D01*
X109075518Y-96925812D01*
X109200000Y-96938072D01*
X109207215Y-96938072D01*
X109186903Y-97007298D01*
X110000000Y-97820395D01*
X110813097Y-97007298D01*
X110792785Y-96938072D01*
X110800000Y-96938072D01*
X110924482Y-96925812D01*
X111044180Y-96889502D01*
X111154494Y-96830537D01*
X111251185Y-96751185D01*
X111330537Y-96654494D01*
X111340957Y-96635000D01*
X111529869Y-96635000D01*
X113561928Y-98667061D01*
X113561928Y-99300000D01*
X113574188Y-99424482D01*
X113610498Y-99544180D01*
X113669463Y-99654494D01*
X113748815Y-99751185D01*
X113845506Y-99830537D01*
X113955820Y-99889502D01*
X114075518Y-99925812D01*
X114200000Y-99938072D01*
X114207215Y-99938072D01*
X114186903Y-100007298D01*
X115000000Y-100820395D01*
X115813097Y-100007298D01*
X115792785Y-99938072D01*
X115800000Y-99938072D01*
X115924482Y-99925812D01*
X116044180Y-99889502D01*
X116154494Y-99830537D01*
X116251185Y-99751185D01*
X116330537Y-99654494D01*
X116389502Y-99544180D01*
X116425812Y-99424482D01*
X116430212Y-99379806D01*
X116507492Y-99372195D01*
X116674315Y-99321589D01*
X116828061Y-99239411D01*
X116962819Y-99128817D01*
X116990536Y-99095044D01*
X121145050Y-94940531D01*
X121178818Y-94912818D01*
X121216932Y-94866377D01*
X121289411Y-94778061D01*
X121289412Y-94778060D01*
X121371590Y-94624314D01*
X121406844Y-94508098D01*
X121422196Y-94457492D01*
X121431305Y-94365000D01*
X121435001Y-94327478D01*
X121435001Y-94327470D01*
X121439282Y-94284001D01*
X121435001Y-94240532D01*
X121435001Y-88213466D01*
X121439282Y-88170000D01*
X121435001Y-88126534D01*
X121435001Y-88126524D01*
X121422196Y-87996511D01*
X121371590Y-87829688D01*
X121289412Y-87675942D01*
X121178818Y-87541184D01*
X121145051Y-87513472D01*
X120683147Y-87051568D01*
X120735000Y-86790883D01*
X120735000Y-86449117D01*
X120683147Y-86188432D01*
X120756531Y-86115048D01*
X120756536Y-86115042D01*
X121145045Y-85726533D01*
X121178818Y-85698816D01*
X121289412Y-85564058D01*
X121371590Y-85410312D01*
X121422196Y-85243489D01*
X121435001Y-85113476D01*
X121435001Y-85113468D01*
X121439282Y-85069999D01*
X121435001Y-85026530D01*
X121435001Y-76173466D01*
X121439282Y-76130000D01*
X121435001Y-76086534D01*
X121435001Y-76086524D01*
X121422196Y-75956511D01*
X121371590Y-75789688D01*
X121289412Y-75635942D01*
X121178818Y-75501184D01*
X121145051Y-75473472D01*
X120683147Y-75011568D01*
X120735000Y-74750883D01*
X120735000Y-74409117D01*
X120668325Y-74073919D01*
X120537537Y-73758169D01*
X120347663Y-73474002D01*
X120183661Y-73310000D01*
X120347663Y-73145998D01*
X120537537Y-72861831D01*
X120668325Y-72546081D01*
X120735000Y-72210883D01*
X120735000Y-72026581D01*
X121145050Y-71616531D01*
X121178818Y-71588818D01*
X121289412Y-71454060D01*
X121371590Y-71300314D01*
X121422196Y-71133491D01*
X121435001Y-71003478D01*
X121435001Y-71003468D01*
X121439282Y-70960002D01*
X121435001Y-70916536D01*
X121435001Y-64133466D01*
X121439282Y-64090000D01*
X121435001Y-64046534D01*
X121435001Y-64046524D01*
X121422196Y-63916511D01*
X121371590Y-63749688D01*
X121289412Y-63595942D01*
X121245523Y-63542463D01*
X121206533Y-63494954D01*
X121206531Y-63494952D01*
X121178818Y-63461184D01*
X121145051Y-63433472D01*
X121011438Y-63299859D01*
X121049693Y-63279411D01*
X121184451Y-63168817D01*
X121212168Y-63135044D01*
X122095049Y-62252164D01*
X122128817Y-62224451D01*
X122239411Y-62089693D01*
X122321589Y-61935947D01*
X122372195Y-61769124D01*
X122385000Y-61639111D01*
X122385000Y-61639101D01*
X122389281Y-61595635D01*
X122385000Y-61552169D01*
X122385000Y-55583469D01*
X122389281Y-55540000D01*
X122385000Y-55496531D01*
X122385000Y-55496523D01*
X122372195Y-55366510D01*
X122321589Y-55199687D01*
X122239411Y-55045941D01*
X122186155Y-54981049D01*
X122156532Y-54944953D01*
X122156530Y-54944951D01*
X122128817Y-54911183D01*
X122095050Y-54883471D01*
X120683147Y-53471568D01*
X120735000Y-53210883D01*
X120735000Y-52869117D01*
X120668325Y-52533919D01*
X120537537Y-52218169D01*
X120470310Y-52117557D01*
X120551185Y-52051185D01*
X120630537Y-51954494D01*
X120689502Y-51844180D01*
X120725812Y-51724482D01*
X120738072Y-51600000D01*
X120735000Y-50785750D01*
X120576250Y-50627000D01*
X119127000Y-50627000D01*
X119127000Y-50647000D01*
X118873000Y-50647000D01*
X118873000Y-50627000D01*
X118853000Y-50627000D01*
X118853000Y-50373000D01*
X118873000Y-50373000D01*
X118873000Y-48923750D01*
X119127000Y-48923750D01*
X119127000Y-50373000D01*
X120576250Y-50373000D01*
X120735000Y-50214250D01*
X120738072Y-49400000D01*
X120725812Y-49275518D01*
X120689502Y-49155820D01*
X120630537Y-49045506D01*
X120551185Y-48948815D01*
X120454494Y-48869463D01*
X120344180Y-48810498D01*
X120224482Y-48774188D01*
X120100000Y-48761928D01*
X119285750Y-48765000D01*
X119127000Y-48923750D01*
X118873000Y-48923750D01*
X118714250Y-48765000D01*
X117900000Y-48761928D01*
X117775518Y-48774188D01*
X117655820Y-48810498D01*
X117545506Y-48869463D01*
X117448815Y-48948815D01*
X117369463Y-49045506D01*
X117310498Y-49155820D01*
X117274188Y-49275518D01*
X117261928Y-49400000D01*
X117262784Y-49626940D01*
X117215394Y-49579550D01*
X117021308Y-49449866D01*
X116805652Y-49360539D01*
X116576712Y-49315000D01*
X116343288Y-49315000D01*
X116114348Y-49360539D01*
X115898692Y-49449866D01*
X115704606Y-49579550D01*
X115539550Y-49744606D01*
X115409866Y-49938692D01*
X115320539Y-50154348D01*
X115275000Y-50383288D01*
X115275000Y-50616712D01*
X115320539Y-50845652D01*
X115409866Y-51061308D01*
X115539550Y-51255394D01*
X115704606Y-51420450D01*
X115898692Y-51550134D01*
X116114348Y-51639461D01*
X116343288Y-51685000D01*
X116576712Y-51685000D01*
X116805652Y-51639461D01*
X117021308Y-51550134D01*
X117215394Y-51420450D01*
X117262784Y-51373060D01*
X117261928Y-51600000D01*
X117274188Y-51724482D01*
X117310498Y-51844180D01*
X117369463Y-51954494D01*
X117448815Y-52051185D01*
X117529690Y-52117557D01*
X117462463Y-52218169D01*
X117414090Y-52334952D01*
X117380450Y-52284606D01*
X117215394Y-52119550D01*
X117021308Y-51989866D01*
X116805652Y-51900539D01*
X116576712Y-51855000D01*
X116343288Y-51855000D01*
X116114348Y-51900539D01*
X115898692Y-51989866D01*
X115704606Y-52119550D01*
X115539550Y-52284606D01*
X115409866Y-52478692D01*
X115320539Y-52694348D01*
X115275000Y-52923288D01*
X115275000Y-53156712D01*
X115320539Y-53385652D01*
X115407254Y-53595001D01*
X99563468Y-53595001D01*
X99519999Y-53590720D01*
X99476530Y-53595001D01*
X99476522Y-53595001D01*
X99346509Y-53607806D01*
X99179685Y-53658412D01*
X99025940Y-53740590D01*
X98924952Y-53823469D01*
X98924950Y-53823471D01*
X98891182Y-53851184D01*
X98863469Y-53884952D01*
X96676439Y-56071983D01*
X96641335Y-56065000D01*
X96358665Y-56065000D01*
X96081426Y-56120147D01*
X95820273Y-56228320D01*
X95585241Y-56385363D01*
X95385363Y-56585241D01*
X95228320Y-56820273D01*
X95120147Y-57081426D01*
X95065000Y-57358665D01*
X95065000Y-57641335D01*
X95071983Y-57676439D01*
X90624956Y-62123466D01*
X90591183Y-62151183D01*
X90480589Y-62285942D01*
X90398411Y-62439688D01*
X90347805Y-62606511D01*
X90337612Y-62710000D01*
X89867493Y-62710000D01*
X89859608Y-62700392D01*
X89641101Y-62521068D01*
X89391808Y-62387818D01*
X89121309Y-62305764D01*
X88910492Y-62285000D01*
X88369508Y-62285000D01*
X88158691Y-62305764D01*
X87888192Y-62387818D01*
X87638899Y-62521068D01*
X87420392Y-62700392D01*
X87241068Y-62918899D01*
X87107818Y-63168192D01*
X87025764Y-63438691D01*
X86998057Y-63720000D01*
X87025764Y-64001309D01*
X87107818Y-64271808D01*
X87241068Y-64521101D01*
X87420392Y-64739608D01*
X87638899Y-64918932D01*
X87768345Y-64988122D01*
X87750773Y-64995570D01*
X87517338Y-65154327D01*
X87319361Y-65355575D01*
X87164449Y-65591579D01*
X87058556Y-65853270D01*
X87048096Y-65910961D01*
X87170084Y-66132998D01*
X87024576Y-66132998D01*
X86135001Y-65243423D01*
X86135001Y-58793466D01*
X86139282Y-58750000D01*
X86135001Y-58706534D01*
X86135001Y-58706524D01*
X86122196Y-58576511D01*
X86071590Y-58409688D01*
X85989412Y-58255942D01*
X85965211Y-58226453D01*
X85906533Y-58154954D01*
X85906531Y-58154952D01*
X85878818Y-58121184D01*
X85845051Y-58093472D01*
X85428017Y-57676439D01*
X85435000Y-57641335D01*
X85435000Y-57358665D01*
X88065000Y-57358665D01*
X88065000Y-57641335D01*
X88120147Y-57918574D01*
X88228320Y-58179727D01*
X88385363Y-58414759D01*
X88585241Y-58614637D01*
X88820273Y-58771680D01*
X89081426Y-58879853D01*
X89358665Y-58935000D01*
X89641335Y-58935000D01*
X89918574Y-58879853D01*
X90179727Y-58771680D01*
X90414759Y-58614637D01*
X90614637Y-58414759D01*
X90771680Y-58179727D01*
X90879853Y-57918574D01*
X90935000Y-57641335D01*
X90935000Y-57358665D01*
X90879853Y-57081426D01*
X90771680Y-56820273D01*
X90614637Y-56585241D01*
X90414759Y-56385363D01*
X90179727Y-56228320D01*
X89918574Y-56120147D01*
X89641335Y-56065000D01*
X89358665Y-56065000D01*
X89081426Y-56120147D01*
X88820273Y-56228320D01*
X88585241Y-56385363D01*
X88385363Y-56585241D01*
X88228320Y-56820273D01*
X88120147Y-57081426D01*
X88065000Y-57358665D01*
X85435000Y-57358665D01*
X85379853Y-57081426D01*
X85271680Y-56820273D01*
X85114637Y-56585241D01*
X84914759Y-56385363D01*
X84679727Y-56228320D01*
X84418574Y-56120147D01*
X84141335Y-56065000D01*
X83858665Y-56065000D01*
X83635000Y-56109490D01*
X83635000Y-55843250D01*
X83640491Y-55787498D01*
X83618577Y-55564999D01*
X83553676Y-55351051D01*
X83448284Y-55153875D01*
X83306449Y-54981049D01*
X83263141Y-54945507D01*
X80014498Y-51696865D01*
X79978951Y-51653551D01*
X79857575Y-51553940D01*
X79675463Y-51332037D01*
X79496101Y-51184837D01*
X79681315Y-51029437D01*
X79875969Y-50786923D01*
X80019571Y-50511094D01*
X80090563Y-50292980D01*
X79970594Y-50047000D01*
X78627000Y-50047000D01*
X78627000Y-50067000D01*
X78373000Y-50067000D01*
X78373000Y-50047000D01*
X77029406Y-50047000D01*
X76909437Y-50292980D01*
X76980429Y-50511094D01*
X77124031Y-50786923D01*
X77318685Y-51029437D01*
X77503899Y-51184837D01*
X77324537Y-51332037D01*
X77126155Y-51573765D01*
X76978745Y-51849551D01*
X76887970Y-52148796D01*
X76857319Y-52460000D01*
X76887970Y-52771204D01*
X76978745Y-53070449D01*
X77126155Y-53346235D01*
X77229446Y-53472095D01*
X77145506Y-53516963D01*
X77048815Y-53596315D01*
X76969463Y-53693006D01*
X76910498Y-53803320D01*
X76874188Y-53923018D01*
X76861928Y-54047500D01*
X76861928Y-55952500D01*
X76874188Y-56076982D01*
X76910498Y-56196680D01*
X76969463Y-56306994D01*
X77048815Y-56403685D01*
X77145506Y-56483037D01*
X77255820Y-56542002D01*
X77375518Y-56578312D01*
X77500000Y-56590572D01*
X79500000Y-56590572D01*
X79624482Y-56578312D01*
X79744180Y-56542002D01*
X79854494Y-56483037D01*
X79951185Y-56403685D01*
X80030537Y-56306994D01*
X80089502Y-56196680D01*
X80125812Y-56076982D01*
X80138072Y-55952500D01*
X80138072Y-55030702D01*
X81365000Y-56257630D01*
X81365000Y-65552394D01*
X81306450Y-65481050D01*
X81263141Y-65445507D01*
X80014498Y-64196865D01*
X79978951Y-64153551D01*
X79857575Y-64053940D01*
X79675463Y-63832037D01*
X79496101Y-63684837D01*
X79681315Y-63529437D01*
X79875969Y-63286923D01*
X80019571Y-63011094D01*
X80090563Y-62792980D01*
X79970594Y-62547000D01*
X78627000Y-62547000D01*
X78627000Y-62567000D01*
X78373000Y-62567000D01*
X78373000Y-62547000D01*
X77029406Y-62547000D01*
X76909437Y-62792980D01*
X76980429Y-63011094D01*
X77124031Y-63286923D01*
X77318685Y-63529437D01*
X77503899Y-63684837D01*
X77324537Y-63832037D01*
X77126155Y-64073765D01*
X76978745Y-64349551D01*
X76887970Y-64648796D01*
X76857319Y-64960000D01*
X76887970Y-65271204D01*
X76978745Y-65570449D01*
X77126155Y-65846235D01*
X77229446Y-65972095D01*
X77145506Y-66016963D01*
X77048815Y-66096315D01*
X76969463Y-66193006D01*
X76910498Y-66303320D01*
X76874188Y-66423018D01*
X76861928Y-66547500D01*
X76861928Y-68452500D01*
X76874188Y-68576982D01*
X76910498Y-68696680D01*
X76969463Y-68806994D01*
X77048815Y-68903685D01*
X77145506Y-68983037D01*
X77255820Y-69042002D01*
X77375518Y-69078312D01*
X77500000Y-69090572D01*
X79365001Y-69090572D01*
X79365002Y-72763866D01*
X79064419Y-72639361D01*
X78690581Y-72565000D01*
X78309419Y-72565000D01*
X77935581Y-72639361D01*
X77583434Y-72785225D01*
X77266509Y-72996987D01*
X76996987Y-73266509D01*
X76785225Y-73583434D01*
X76639361Y-73935581D01*
X76565000Y-74309419D01*
X76565000Y-74690581D01*
X76639361Y-75064419D01*
X76785225Y-75416566D01*
X76996987Y-75733491D01*
X77266509Y-76003013D01*
X77583434Y-76214775D01*
X77935581Y-76360639D01*
X78309419Y-76435000D01*
X78690581Y-76435000D01*
X79064419Y-76360639D01*
X79365002Y-76236134D01*
X79365002Y-77029865D01*
X78832940Y-77561928D01*
X77200000Y-77561928D01*
X77075518Y-77574188D01*
X76955820Y-77610498D01*
X76845506Y-77669463D01*
X76748815Y-77748815D01*
X76669463Y-77845506D01*
X76610498Y-77955820D01*
X76574188Y-78075518D01*
X76561928Y-78200000D01*
X72685000Y-78200000D01*
X72685000Y-62047020D01*
X76909437Y-62047020D01*
X77029406Y-62293000D01*
X78373000Y-62293000D01*
X78373000Y-60994430D01*
X78627000Y-60994430D01*
X78627000Y-62293000D01*
X79970594Y-62293000D01*
X80090563Y-62047020D01*
X80019571Y-61828906D01*
X79875969Y-61553077D01*
X79681315Y-61310563D01*
X79443089Y-61110684D01*
X79170446Y-60961121D01*
X78873863Y-60867622D01*
X78627000Y-60994430D01*
X78373000Y-60994430D01*
X78126137Y-60867622D01*
X77829554Y-60961121D01*
X77556911Y-61110684D01*
X77318685Y-61310563D01*
X77124031Y-61553077D01*
X76980429Y-61828906D01*
X76909437Y-62047020D01*
X72685000Y-62047020D01*
X72685000Y-49547020D01*
X76909437Y-49547020D01*
X77029406Y-49793000D01*
X78373000Y-49793000D01*
X78373000Y-48494430D01*
X78627000Y-48494430D01*
X78627000Y-49793000D01*
X79970594Y-49793000D01*
X80090563Y-49547020D01*
X80019571Y-49328906D01*
X79875969Y-49053077D01*
X79681315Y-48810563D01*
X79443089Y-48610684D01*
X79170446Y-48461121D01*
X78873863Y-48367622D01*
X78627000Y-48494430D01*
X78373000Y-48494430D01*
X78126137Y-48367622D01*
X77829554Y-48461121D01*
X77556911Y-48610684D01*
X77318685Y-48810563D01*
X77124031Y-49053077D01*
X76980429Y-49328906D01*
X76909437Y-49547020D01*
X72685000Y-49547020D01*
X72685000Y-47689040D01*
X82608091Y-47689040D01*
X82702930Y-47953881D01*
X82847615Y-48195131D01*
X83036586Y-48403519D01*
X83262580Y-48571037D01*
X83516913Y-48691246D01*
X83650961Y-48731904D01*
X83873000Y-48609915D01*
X83873000Y-47467000D01*
X84127000Y-47467000D01*
X84127000Y-48609915D01*
X84349039Y-48731904D01*
X84483087Y-48691246D01*
X84737420Y-48571037D01*
X84963414Y-48403519D01*
X85152385Y-48195131D01*
X85297070Y-47953881D01*
X85391909Y-47689040D01*
X85270624Y-47467000D01*
X84127000Y-47467000D01*
X83873000Y-47467000D01*
X82729376Y-47467000D01*
X82608091Y-47689040D01*
X72685000Y-47689040D01*
X72685000Y-47340000D01*
X88058057Y-47340000D01*
X88085764Y-47621309D01*
X88167818Y-47891808D01*
X88301068Y-48141101D01*
X88480392Y-48359608D01*
X88698899Y-48538932D01*
X88948192Y-48672182D01*
X89218691Y-48754236D01*
X89429508Y-48775000D01*
X89570492Y-48775000D01*
X89781309Y-48754236D01*
X90051808Y-48672182D01*
X90301101Y-48538932D01*
X90519608Y-48359608D01*
X90698932Y-48141101D01*
X90832182Y-47891808D01*
X90914236Y-47621309D01*
X90941943Y-47340000D01*
X95058057Y-47340000D01*
X95085764Y-47621309D01*
X95167818Y-47891808D01*
X95301068Y-48141101D01*
X95480392Y-48359608D01*
X95698899Y-48538932D01*
X95948192Y-48672182D01*
X96218691Y-48754236D01*
X96429508Y-48775000D01*
X96570492Y-48775000D01*
X96781309Y-48754236D01*
X97051808Y-48672182D01*
X97301101Y-48538932D01*
X97519608Y-48359608D01*
X97698932Y-48141101D01*
X97832182Y-47891808D01*
X97893690Y-47689040D01*
X103108091Y-47689040D01*
X103202930Y-47953881D01*
X103347615Y-48195131D01*
X103536586Y-48403519D01*
X103762580Y-48571037D01*
X104016913Y-48691246D01*
X104150961Y-48731904D01*
X104373000Y-48609915D01*
X104373000Y-47467000D01*
X104627000Y-47467000D01*
X104627000Y-48609915D01*
X104849039Y-48731904D01*
X104983087Y-48691246D01*
X105237420Y-48571037D01*
X105463414Y-48403519D01*
X105652385Y-48195131D01*
X105797070Y-47953881D01*
X105891909Y-47689040D01*
X109108091Y-47689040D01*
X109202930Y-47953881D01*
X109347615Y-48195131D01*
X109536586Y-48403519D01*
X109762580Y-48571037D01*
X110016913Y-48691246D01*
X110150961Y-48731904D01*
X110373000Y-48609915D01*
X110373000Y-47467000D01*
X110627000Y-47467000D01*
X110627000Y-48609915D01*
X110849039Y-48731904D01*
X110983087Y-48691246D01*
X111237420Y-48571037D01*
X111463414Y-48403519D01*
X111652385Y-48195131D01*
X111797070Y-47953881D01*
X111891909Y-47689040D01*
X111770624Y-47467000D01*
X110627000Y-47467000D01*
X110373000Y-47467000D01*
X109229376Y-47467000D01*
X109108091Y-47689040D01*
X105891909Y-47689040D01*
X105770624Y-47467000D01*
X104627000Y-47467000D01*
X104373000Y-47467000D01*
X103229376Y-47467000D01*
X103108091Y-47689040D01*
X97893690Y-47689040D01*
X97914236Y-47621309D01*
X97941943Y-47340000D01*
X97914236Y-47058691D01*
X97893691Y-46990960D01*
X103108091Y-46990960D01*
X103229376Y-47213000D01*
X104373000Y-47213000D01*
X104373000Y-46070085D01*
X104627000Y-46070085D01*
X104627000Y-47213000D01*
X105770624Y-47213000D01*
X105891909Y-46990960D01*
X109108091Y-46990960D01*
X109229376Y-47213000D01*
X110373000Y-47213000D01*
X110373000Y-46070085D01*
X110627000Y-46070085D01*
X110627000Y-47213000D01*
X111770624Y-47213000D01*
X111891909Y-46990960D01*
X111797070Y-46726119D01*
X111652385Y-46484869D01*
X111463414Y-46276481D01*
X111237420Y-46108963D01*
X110983087Y-45988754D01*
X110849039Y-45948096D01*
X110627000Y-46070085D01*
X110373000Y-46070085D01*
X110150961Y-45948096D01*
X110016913Y-45988754D01*
X109762580Y-46108963D01*
X109536586Y-46276481D01*
X109347615Y-46484869D01*
X109202930Y-46726119D01*
X109108091Y-46990960D01*
X105891909Y-46990960D01*
X105797070Y-46726119D01*
X105652385Y-46484869D01*
X105463414Y-46276481D01*
X105237420Y-46108963D01*
X104983087Y-45988754D01*
X104849039Y-45948096D01*
X104627000Y-46070085D01*
X104373000Y-46070085D01*
X104150961Y-45948096D01*
X104016913Y-45988754D01*
X103762580Y-46108963D01*
X103536586Y-46276481D01*
X103347615Y-46484869D01*
X103202930Y-46726119D01*
X103108091Y-46990960D01*
X97893691Y-46990960D01*
X97832182Y-46788192D01*
X97698932Y-46538899D01*
X97519608Y-46320392D01*
X97301101Y-46141068D01*
X97051808Y-46007818D01*
X96781309Y-45925764D01*
X96570492Y-45905000D01*
X96429508Y-45905000D01*
X96218691Y-45925764D01*
X95948192Y-46007818D01*
X95698899Y-46141068D01*
X95480392Y-46320392D01*
X95301068Y-46538899D01*
X95167818Y-46788192D01*
X95085764Y-47058691D01*
X95058057Y-47340000D01*
X90941943Y-47340000D01*
X90914236Y-47058691D01*
X90832182Y-46788192D01*
X90698932Y-46538899D01*
X90519608Y-46320392D01*
X90301101Y-46141068D01*
X90051808Y-46007818D01*
X89781309Y-45925764D01*
X89570492Y-45905000D01*
X89429508Y-45905000D01*
X89218691Y-45925764D01*
X88948192Y-46007818D01*
X88698899Y-46141068D01*
X88480392Y-46320392D01*
X88301068Y-46538899D01*
X88167818Y-46788192D01*
X88085764Y-47058691D01*
X88058057Y-47340000D01*
X72685000Y-47340000D01*
X72685000Y-46990960D01*
X82608091Y-46990960D01*
X82729376Y-47213000D01*
X83873000Y-47213000D01*
X83873000Y-46070085D01*
X84127000Y-46070085D01*
X84127000Y-47213000D01*
X85270624Y-47213000D01*
X85391909Y-46990960D01*
X85297070Y-46726119D01*
X85152385Y-46484869D01*
X84963414Y-46276481D01*
X84737420Y-46108963D01*
X84483087Y-45988754D01*
X84349039Y-45948096D01*
X84127000Y-46070085D01*
X83873000Y-46070085D01*
X83650961Y-45948096D01*
X83516913Y-45988754D01*
X83262580Y-46108963D01*
X83036586Y-46276481D01*
X82847615Y-46484869D01*
X82702930Y-46726119D01*
X82608091Y-46990960D01*
X72685000Y-46990960D01*
X72685000Y-40185000D01*
X74530110Y-40185000D01*
X74310315Y-40331862D01*
X74310315Y-40331862D01*
G37*
X74310315Y-40331862D02*
X73831862Y-40810315D01*
X73455943Y-41372918D01*
X73197006Y-41998048D01*
X73065000Y-42661682D01*
X73065000Y-43338318D01*
X73197006Y-44001952D01*
X73455943Y-44627082D01*
X73831862Y-45189685D01*
X74310315Y-45668138D01*
X74872918Y-46044057D01*
X75498048Y-46302994D01*
X76161682Y-46435000D01*
X76838318Y-46435000D01*
X77501952Y-46302994D01*
X78127082Y-46044057D01*
X78689685Y-45668138D01*
X79168138Y-45189685D01*
X79544057Y-44627082D01*
X79802994Y-44001952D01*
X79935000Y-43338318D01*
X79935000Y-42678939D01*
X79961603Y-42865907D01*
X80061778Y-43151199D01*
X80141739Y-43300792D01*
X80395920Y-43384475D01*
X81280395Y-42500000D01*
X80395920Y-41615525D01*
X80141739Y-41699208D01*
X80010842Y-41971775D01*
X79935635Y-42264642D01*
X79919009Y-42566553D01*
X79926375Y-42618321D01*
X79802994Y-41998048D01*
X79570154Y-41435920D01*
X80575525Y-41435920D01*
X81460000Y-42320395D01*
X81474143Y-42306253D01*
X81653748Y-42485858D01*
X81639605Y-42500000D01*
X81653748Y-42514143D01*
X81474143Y-42693748D01*
X81460000Y-42679605D01*
X80575525Y-43564080D01*
X80659208Y-43818261D01*
X80931775Y-43949158D01*
X81224642Y-44024365D01*
X81526553Y-44040991D01*
X81825907Y-43998397D01*
X82111199Y-43898222D01*
X82260792Y-43818261D01*
X82344474Y-43564082D01*
X82460422Y-43680030D01*
X82507187Y-43633265D01*
X82510498Y-43644180D01*
X82569463Y-43754494D01*
X82648815Y-43851185D01*
X82745506Y-43930537D01*
X82855820Y-43989502D01*
X82975518Y-44025812D01*
X83100000Y-44038072D01*
X84900000Y-44038072D01*
X85024482Y-44025812D01*
X85144180Y-43989502D01*
X85254494Y-43930537D01*
X85351185Y-43851185D01*
X85430537Y-43754494D01*
X85489502Y-43644180D01*
X85525812Y-43524482D01*
X85538072Y-43400000D01*
X85538072Y-42566553D01*
X86419009Y-42566553D01*
X86461603Y-42865907D01*
X86561778Y-43151199D01*
X86641739Y-43300792D01*
X86895920Y-43384475D01*
X87780395Y-42500000D01*
X86895920Y-41615525D01*
X86641739Y-41699208D01*
X86510842Y-41971775D01*
X86435635Y-42264642D01*
X86419009Y-42566553D01*
X85538072Y-42566553D01*
X85538072Y-41600000D01*
X85525812Y-41475518D01*
X85513801Y-41435920D01*
X87075525Y-41435920D01*
X87960000Y-42320395D01*
X87974143Y-42306253D01*
X88153748Y-42485858D01*
X88139605Y-42500000D01*
X88153748Y-42514143D01*
X87974143Y-42693748D01*
X87960000Y-42679605D01*
X87075525Y-43564080D01*
X87159208Y-43818261D01*
X87431775Y-43949158D01*
X87724642Y-44024365D01*
X88026553Y-44040991D01*
X88325907Y-43998397D01*
X88611199Y-43898222D01*
X88760792Y-43818261D01*
X88844474Y-43564082D01*
X88960422Y-43680030D01*
X89007187Y-43633265D01*
X89010498Y-43644180D01*
X89069463Y-43754494D01*
X89148815Y-43851185D01*
X89245506Y-43930537D01*
X89355820Y-43989502D01*
X89475518Y-44025812D01*
X89600000Y-44038072D01*
X91400000Y-44038072D01*
X91524482Y-44025812D01*
X91644180Y-43989502D01*
X91754494Y-43930537D01*
X91851185Y-43851185D01*
X91930537Y-43754494D01*
X91989502Y-43644180D01*
X92025812Y-43524482D01*
X92038072Y-43400000D01*
X92038072Y-42848816D01*
X104425000Y-42848816D01*
X104425000Y-43151184D01*
X104483989Y-43447743D01*
X104599701Y-43727095D01*
X104767688Y-43978505D01*
X104981495Y-44192312D01*
X105232905Y-44360299D01*
X105512257Y-44476011D01*
X105808816Y-44535000D01*
X106111184Y-44535000D01*
X106407743Y-44476011D01*
X106687095Y-44360299D01*
X106938505Y-44192312D01*
X107004944Y-44125873D01*
X107010498Y-44144180D01*
X107069463Y-44254494D01*
X107148815Y-44351185D01*
X107245506Y-44430537D01*
X107355820Y-44489502D01*
X107475518Y-44525812D01*
X107600000Y-44538072D01*
X109400000Y-44538072D01*
X109524482Y-44525812D01*
X109644180Y-44489502D01*
X109754494Y-44430537D01*
X109851185Y-44351185D01*
X109930537Y-44254494D01*
X109989502Y-44144180D01*
X110025812Y-44024482D01*
X110038072Y-43900000D01*
X110038072Y-42848816D01*
X110925000Y-42848816D01*
X110925000Y-43151184D01*
X110983989Y-43447743D01*
X111099701Y-43727095D01*
X111267688Y-43978505D01*
X111481495Y-44192312D01*
X111732905Y-44360299D01*
X112012257Y-44476011D01*
X112308816Y-44535000D01*
X112611184Y-44535000D01*
X112907743Y-44476011D01*
X113187095Y-44360299D01*
X113438505Y-44192312D01*
X113504944Y-44125873D01*
X113510498Y-44144180D01*
X113569463Y-44254494D01*
X113648815Y-44351185D01*
X113745506Y-44430537D01*
X113855820Y-44489502D01*
X113975518Y-44525812D01*
X114100000Y-44538072D01*
X115900000Y-44538072D01*
X116024482Y-44525812D01*
X116144180Y-44489502D01*
X116254494Y-44430537D01*
X116351185Y-44351185D01*
X116430537Y-44254494D01*
X116489502Y-44144180D01*
X116525812Y-44024482D01*
X116538072Y-43900000D01*
X116538072Y-42100000D01*
X116525812Y-41975518D01*
X116489502Y-41855820D01*
X116430537Y-41745506D01*
X116351185Y-41648815D01*
X116254494Y-41569463D01*
X116144180Y-41510498D01*
X116024482Y-41474188D01*
X115900000Y-41461928D01*
X114100000Y-41461928D01*
X113975518Y-41474188D01*
X113855820Y-41510498D01*
X113745506Y-41569463D01*
X113648815Y-41648815D01*
X113569463Y-41745506D01*
X113510498Y-41855820D01*
X113504944Y-41874127D01*
X113438505Y-41807688D01*
X113187095Y-41639701D01*
X112907743Y-41523989D01*
X112611184Y-41465000D01*
X112308816Y-41465000D01*
X112012257Y-41523989D01*
X111732905Y-41639701D01*
X111481495Y-41807688D01*
X111267688Y-42021495D01*
X111099701Y-42272905D01*
X110983989Y-42552257D01*
X110925000Y-42848816D01*
X110038072Y-42848816D01*
X110038072Y-42100000D01*
X110025812Y-41975518D01*
X109989502Y-41855820D01*
X109930537Y-41745506D01*
X109851185Y-41648815D01*
X109754494Y-41569463D01*
X109644180Y-41510498D01*
X109524482Y-41474188D01*
X109400000Y-41461928D01*
X107600000Y-41461928D01*
X107475518Y-41474188D01*
X107355820Y-41510498D01*
X107245506Y-41569463D01*
X107148815Y-41648815D01*
X107069463Y-41745506D01*
X107010498Y-41855820D01*
X107004944Y-41874127D01*
X106938505Y-41807688D01*
X106687095Y-41639701D01*
X106407743Y-41523989D01*
X106111184Y-41465000D01*
X105808816Y-41465000D01*
X105512257Y-41523989D01*
X105232905Y-41639701D01*
X104981495Y-41807688D01*
X104767688Y-42021495D01*
X104599701Y-42272905D01*
X104483989Y-42552257D01*
X104425000Y-42848816D01*
X92038072Y-42848816D01*
X92038072Y-41600000D01*
X92025812Y-41475518D01*
X91989502Y-41355820D01*
X91930537Y-41245506D01*
X91851185Y-41148815D01*
X91754494Y-41069463D01*
X91644180Y-41010498D01*
X91524482Y-40974188D01*
X91400000Y-40961928D01*
X89600000Y-40961928D01*
X89475518Y-40974188D01*
X89355820Y-41010498D01*
X89245506Y-41069463D01*
X89148815Y-41148815D01*
X89069463Y-41245506D01*
X89010498Y-41355820D01*
X89007187Y-41366735D01*
X88960422Y-41319970D01*
X88844474Y-41435918D01*
X88760792Y-41181739D01*
X88488225Y-41050842D01*
X88195358Y-40975635D01*
X87893447Y-40959009D01*
X87594093Y-41001603D01*
X87308801Y-41101778D01*
X87159208Y-41181739D01*
X87075525Y-41435920D01*
X85513801Y-41435920D01*
X85489502Y-41355820D01*
X85430537Y-41245506D01*
X85351185Y-41148815D01*
X85254494Y-41069463D01*
X85144180Y-41010498D01*
X85024482Y-40974188D01*
X84900000Y-40961928D01*
X83100000Y-40961928D01*
X82975518Y-40974188D01*
X82855820Y-41010498D01*
X82745506Y-41069463D01*
X82648815Y-41148815D01*
X82569463Y-41245506D01*
X82510498Y-41355820D01*
X82507187Y-41366735D01*
X82460422Y-41319970D01*
X82344474Y-41435918D01*
X82260792Y-41181739D01*
X81988225Y-41050842D01*
X81695358Y-40975635D01*
X81393447Y-40959009D01*
X81094093Y-41001603D01*
X80808801Y-41101778D01*
X80659208Y-41181739D01*
X80575525Y-41435920D01*
X79570154Y-41435920D01*
X79544057Y-41372918D01*
X79168138Y-40810315D01*
X78689685Y-40331862D01*
X78469890Y-40185000D01*
X118530110Y-40185000D01*
X118310315Y-40331862D01*
X117831862Y-40810315D01*
X117455943Y-41372918D01*
X117197006Y-41998048D01*
X117065000Y-42661682D01*
X117065000Y-43338318D01*
X117197006Y-44001952D01*
X117455943Y-44627082D01*
X117831862Y-45189685D01*
X118310315Y-45668138D01*
X118872918Y-46044057D01*
X119498048Y-46302994D01*
X120161682Y-46435000D01*
X120838318Y-46435000D01*
X121501952Y-46302994D01*
X122127082Y-46044057D01*
X122689685Y-45668138D01*
X123168138Y-45189685D01*
X123544057Y-44627082D01*
X123802994Y-44001952D01*
X123935000Y-43338318D01*
X123935000Y-42661682D01*
X123802994Y-41998048D01*
X123544057Y-41372918D01*
X123168138Y-40810315D01*
X122689685Y-40331862D01*
X122469890Y-40185000D01*
X124815000Y-40185000D01*
X124815001Y-106315000D01*
X121441594Y-106315000D01*
X121501952Y-106302994D01*
X122127082Y-106044057D01*
X122689685Y-105668138D01*
X123168138Y-105189685D01*
X123544057Y-104627082D01*
X123802994Y-104001952D01*
X123935000Y-103338318D01*
X123935000Y-102661682D01*
X123802994Y-101998048D01*
X123544057Y-101372918D01*
X123168138Y-100810315D01*
X122689685Y-100331862D01*
X122127082Y-99955943D01*
X121501952Y-99697006D01*
X120838318Y-99565000D01*
X120161682Y-99565000D01*
X119498048Y-99697006D01*
X118872918Y-99955943D01*
X118310315Y-100331862D01*
X117831862Y-100810315D01*
X117455943Y-101372918D01*
X117197006Y-101998048D01*
X117065000Y-102661682D01*
X117065000Y-103338318D01*
X117197006Y-104001952D01*
X117455943Y-104627082D01*
X117831862Y-105189685D01*
X118310315Y-105668138D01*
X118872918Y-106044057D01*
X119498048Y-106302994D01*
X119558406Y-106315000D01*
X88941594Y-106315000D01*
X89001952Y-106302994D01*
X89627082Y-106044057D01*
X90189685Y-105668138D01*
X90668138Y-105189685D01*
X91044057Y-104627082D01*
X91302994Y-104001952D01*
X91435000Y-103338318D01*
X91435000Y-102661682D01*
X91302994Y-101998048D01*
X91116372Y-101547500D01*
X96861928Y-101547500D01*
X96861928Y-103452500D01*
X96874188Y-103576982D01*
X96910498Y-103696680D01*
X96969463Y-103806994D01*
X97048815Y-103903685D01*
X97145506Y-103983037D01*
X97255820Y-104042002D01*
X97375518Y-104078312D01*
X97500000Y-104090572D01*
X99500000Y-104090572D01*
X99624482Y-104078312D01*
X99744180Y-104042002D01*
X99854494Y-103983037D01*
X99951185Y-103903685D01*
X100030537Y-103806994D01*
X100089502Y-103696680D01*
X100108212Y-103635000D01*
X103029869Y-103635000D01*
X104158008Y-104763140D01*
X104193551Y-104806449D01*
X104366377Y-104948284D01*
X104563553Y-105053676D01*
X104777501Y-105118577D01*
X104944248Y-105135000D01*
X104944257Y-105135000D01*
X104999999Y-105140490D01*
X105055741Y-105135000D01*
X108659043Y-105135000D01*
X108669463Y-105154494D01*
X108748815Y-105251185D01*
X108845506Y-105330537D01*
X108955820Y-105389502D01*
X109075518Y-105425812D01*
X109200000Y-105438072D01*
X110800000Y-105438072D01*
X110924482Y-105425812D01*
X111044180Y-105389502D01*
X111154494Y-105330537D01*
X111251185Y-105251185D01*
X111330537Y-105154494D01*
X111389502Y-105044180D01*
X111425812Y-104924482D01*
X111438072Y-104800000D01*
X111438072Y-103200000D01*
X111425812Y-103075518D01*
X111389502Y-102955820D01*
X111330537Y-102845506D01*
X111251185Y-102748815D01*
X111238242Y-102738193D01*
X111357571Y-102486004D01*
X111426300Y-102211816D01*
X111437100Y-101992702D01*
X114186903Y-101992702D01*
X114258486Y-102236671D01*
X114513996Y-102357571D01*
X114788184Y-102426300D01*
X115070512Y-102440217D01*
X115350130Y-102398787D01*
X115616292Y-102303603D01*
X115741514Y-102236671D01*
X115813097Y-101992702D01*
X115000000Y-101179605D01*
X114186903Y-101992702D01*
X111437100Y-101992702D01*
X111440217Y-101929488D01*
X111398787Y-101649870D01*
X111303603Y-101383708D01*
X111236671Y-101258486D01*
X110992702Y-101186903D01*
X110179605Y-102000000D01*
X110193748Y-102014143D01*
X110014143Y-102193748D01*
X110000000Y-102179605D01*
X109985858Y-102193748D01*
X109806253Y-102014143D01*
X109820395Y-102000000D01*
X109007298Y-101186903D01*
X108763329Y-101258486D01*
X108642429Y-101513996D01*
X108573700Y-101788184D01*
X108559783Y-102070512D01*
X108601213Y-102350130D01*
X108696397Y-102616292D01*
X108761616Y-102738309D01*
X108748815Y-102748815D01*
X108669463Y-102845506D01*
X108659043Y-102865000D01*
X105470132Y-102865000D01*
X104341996Y-101736865D01*
X104306449Y-101693551D01*
X104133623Y-101551716D01*
X103936447Y-101446324D01*
X103722499Y-101381423D01*
X103555752Y-101365000D01*
X103555751Y-101365000D01*
X103500000Y-101359509D01*
X103444249Y-101365000D01*
X100108212Y-101365000D01*
X100089502Y-101303320D01*
X100030537Y-101193006D01*
X99951185Y-101096315D01*
X99854494Y-101016963D01*
X99836413Y-101007298D01*
X109186903Y-101007298D01*
X110000000Y-101820395D01*
X110749883Y-101070512D01*
X113559783Y-101070512D01*
X113601213Y-101350130D01*
X113696397Y-101616292D01*
X113763329Y-101741514D01*
X114007298Y-101813097D01*
X114820395Y-101000000D01*
X115179605Y-101000000D01*
X115992702Y-101813097D01*
X116236671Y-101741514D01*
X116357571Y-101486004D01*
X116426300Y-101211816D01*
X116440217Y-100929488D01*
X116398787Y-100649870D01*
X116303603Y-100383708D01*
X116236671Y-100258486D01*
X115992702Y-100186903D01*
X115179605Y-101000000D01*
X114820395Y-101000000D01*
X114007298Y-100186903D01*
X113763329Y-100258486D01*
X113642429Y-100513996D01*
X113573700Y-100788184D01*
X113559783Y-101070512D01*
X110749883Y-101070512D01*
X110813097Y-101007298D01*
X110741514Y-100763329D01*
X110486004Y-100642429D01*
X110211816Y-100573700D01*
X109929488Y-100559783D01*
X109649870Y-100601213D01*
X109383708Y-100696397D01*
X109258486Y-100763329D01*
X109186903Y-101007298D01*
X99836413Y-101007298D01*
X99762781Y-100967941D01*
X99875969Y-100826923D01*
X100019571Y-100551094D01*
X100090563Y-100332980D01*
X99970594Y-100087000D01*
X98627000Y-100087000D01*
X98627000Y-100107000D01*
X98373000Y-100107000D01*
X98373000Y-100087000D01*
X97029406Y-100087000D01*
X96909437Y-100332980D01*
X96980429Y-100551094D01*
X97124031Y-100826923D01*
X97237219Y-100967941D01*
X97145506Y-101016963D01*
X97048815Y-101096315D01*
X96969463Y-101193006D01*
X96910498Y-101303320D01*
X96874188Y-101423018D01*
X96861928Y-101547500D01*
X91116372Y-101547500D01*
X91044057Y-101372918D01*
X90668138Y-100810315D01*
X90189685Y-100331862D01*
X89627082Y-99955943D01*
X89001952Y-99697006D01*
X88338318Y-99565000D01*
X87661682Y-99565000D01*
X86998048Y-99697006D01*
X86372918Y-99955943D01*
X85810315Y-100331862D01*
X85331862Y-100810315D01*
X84955943Y-101372918D01*
X84697006Y-101998048D01*
X84565000Y-102661682D01*
X84565000Y-103338318D01*
X84697006Y-104001952D01*
X84955943Y-104627082D01*
X85331862Y-105189685D01*
X85810315Y-105668138D01*
X86372918Y-106044057D01*
X86998048Y-106302994D01*
X87058406Y-106315000D01*
X72685000Y-106315000D01*
X72685000Y-102800000D01*
X76561928Y-102800000D01*
X76574188Y-102924482D01*
X76610498Y-103044180D01*
X76669463Y-103154494D01*
X76748815Y-103251185D01*
X76845506Y-103330537D01*
X76955820Y-103389502D01*
X77075518Y-103425812D01*
X77200000Y-103438072D01*
X78214250Y-103435000D01*
X78373000Y-103276250D01*
X78373000Y-101627000D01*
X78627000Y-101627000D01*
X78627000Y-103276250D01*
X78785750Y-103435000D01*
X79800000Y-103438072D01*
X79924482Y-103425812D01*
X80044180Y-103389502D01*
X80154494Y-103330537D01*
X80251185Y-103251185D01*
X80330537Y-103154494D01*
X80389502Y-103044180D01*
X80425812Y-102924482D01*
X80438072Y-102800000D01*
X80435000Y-101785750D01*
X80276250Y-101627000D01*
X78627000Y-101627000D01*
X78373000Y-101627000D01*
X76723750Y-101627000D01*
X76565000Y-101785750D01*
X76561928Y-102800000D01*
X72685000Y-102800000D01*
X72685000Y-100200000D01*
X76561928Y-100200000D01*
X76565000Y-101214250D01*
X76723750Y-101373000D01*
X78373000Y-101373000D01*
X78373000Y-99723750D01*
X78627000Y-99723750D01*
X78627000Y-101373000D01*
X80276250Y-101373000D01*
X80435000Y-101214250D01*
X80438072Y-100200000D01*
X80425812Y-100075518D01*
X80389502Y-99955820D01*
X80330537Y-99845506D01*
X80251185Y-99748815D01*
X80154494Y-99669463D01*
X80044180Y-99610498D01*
X79924482Y-99574188D01*
X79800000Y-99561928D01*
X78785750Y-99565000D01*
X78627000Y-99723750D01*
X78373000Y-99723750D01*
X78214250Y-99565000D01*
X77200000Y-99561928D01*
X77075518Y-99574188D01*
X76955820Y-99610498D01*
X76845506Y-99669463D01*
X76748815Y-99748815D01*
X76669463Y-99845506D01*
X76610498Y-99955820D01*
X76574188Y-100075518D01*
X76561928Y-100200000D01*
X72685000Y-100200000D01*
X72685000Y-98492702D01*
X87186903Y-98492702D01*
X87258486Y-98736671D01*
X87513996Y-98857571D01*
X87788184Y-98926300D01*
X88070512Y-98940217D01*
X88350130Y-98898787D01*
X88616292Y-98803603D01*
X88741514Y-98736671D01*
X88813097Y-98492702D01*
X88000000Y-97679605D01*
X87186903Y-98492702D01*
X72685000Y-98492702D01*
X72685000Y-96309419D01*
X76565000Y-96309419D01*
X76565000Y-96690581D01*
X76639361Y-97064419D01*
X76785225Y-97416566D01*
X76996987Y-97733491D01*
X77266509Y-98003013D01*
X77583434Y-98214775D01*
X77935581Y-98360639D01*
X78309419Y-98435000D01*
X78690581Y-98435000D01*
X79064419Y-98360639D01*
X79416566Y-98214775D01*
X79733491Y-98003013D01*
X80003013Y-97733491D01*
X80111911Y-97570512D01*
X86559783Y-97570512D01*
X86601213Y-97850130D01*
X86696397Y-98116292D01*
X86763329Y-98241514D01*
X87007298Y-98313097D01*
X87820395Y-97500000D01*
X88179605Y-97500000D01*
X88992702Y-98313097D01*
X89236671Y-98241514D01*
X89357571Y-97986004D01*
X89426300Y-97711816D01*
X89440217Y-97429488D01*
X89398787Y-97149870D01*
X89303603Y-96883708D01*
X89236671Y-96758486D01*
X88992702Y-96686903D01*
X88179605Y-97500000D01*
X87820395Y-97500000D01*
X87007298Y-96686903D01*
X86763329Y-96758486D01*
X86642429Y-97013996D01*
X86573700Y-97288184D01*
X86559783Y-97570512D01*
X80111911Y-97570512D01*
X80214775Y-97416566D01*
X80360639Y-97064419D01*
X80435000Y-96690581D01*
X80435000Y-96507298D01*
X87186903Y-96507298D01*
X88000000Y-97320395D01*
X88813097Y-96507298D01*
X88741514Y-96263329D01*
X88486004Y-96142429D01*
X88211816Y-96073700D01*
X87929488Y-96059783D01*
X87649870Y-96101213D01*
X87383708Y-96196397D01*
X87258486Y-96263329D01*
X87186903Y-96507298D01*
X80435000Y-96507298D01*
X80435000Y-96309419D01*
X80360639Y-95935581D01*
X80214775Y-95583434D01*
X80003013Y-95266509D01*
X79733491Y-94996987D01*
X79416566Y-94785225D01*
X79064419Y-94639361D01*
X78690581Y-94565000D01*
X78309419Y-94565000D01*
X77935581Y-94639361D01*
X77583434Y-94785225D01*
X77266509Y-94996987D01*
X76996987Y-95266509D01*
X76785225Y-95583434D01*
X76639361Y-95935581D01*
X76565000Y-96309419D01*
X72685000Y-96309419D01*
X72685000Y-85309419D01*
X76565000Y-85309419D01*
X76565000Y-85690581D01*
X76639361Y-86064419D01*
X76785225Y-86416566D01*
X76996987Y-86733491D01*
X77266509Y-87003013D01*
X77583434Y-87214775D01*
X77935581Y-87360639D01*
X78309419Y-87435000D01*
X78690581Y-87435000D01*
X79064419Y-87360639D01*
X79416566Y-87214775D01*
X79733491Y-87003013D01*
X80003013Y-86733491D01*
X80214775Y-86416566D01*
X80360639Y-86064419D01*
X80435000Y-85690581D01*
X80435000Y-85309419D01*
X80360639Y-84935581D01*
X80214775Y-84583434D01*
X80003013Y-84266509D01*
X79733491Y-83996987D01*
X79416566Y-83785225D01*
X79064419Y-83639361D01*
X78690581Y-83565000D01*
X78309419Y-83565000D01*
X77935581Y-83639361D01*
X77583434Y-83785225D01*
X77266509Y-83996987D01*
X76996987Y-84266509D01*
X76785225Y-84583434D01*
X76639361Y-84935581D01*
X76565000Y-85309419D01*
X72685000Y-85309419D01*
X72685000Y-78200000D01*
X76561928Y-78200000D01*
X76561928Y-80800000D01*
X76574188Y-80924482D01*
X76610498Y-81044180D01*
X76669463Y-81154494D01*
X76748815Y-81251185D01*
X76845506Y-81330537D01*
X76955820Y-81389502D01*
X77075518Y-81425812D01*
X77200000Y-81438072D01*
X79800000Y-81438072D01*
X79924482Y-81425812D01*
X80044180Y-81389502D01*
X80154494Y-81330537D01*
X80251185Y-81251185D01*
X80330537Y-81154494D01*
X80389502Y-81044180D01*
X80425812Y-80924482D01*
X80438072Y-80800000D01*
X80438072Y-79167060D01*
X81263147Y-78341986D01*
X81306450Y-78306448D01*
X81365001Y-78235104D01*
X81365001Y-88329867D01*
X80438072Y-89256797D01*
X80438072Y-89200000D01*
X80425812Y-89075518D01*
X80389502Y-88955820D01*
X80330537Y-88845506D01*
X80251185Y-88748815D01*
X80154494Y-88669463D01*
X80044180Y-88610498D01*
X79924482Y-88574188D01*
X79800000Y-88561928D01*
X77200000Y-88561928D01*
X77075518Y-88574188D01*
X76955820Y-88610498D01*
X76845506Y-88669463D01*
X76748815Y-88748815D01*
X76669463Y-88845506D01*
X76610498Y-88955820D01*
X76574188Y-89075518D01*
X76561928Y-89200000D01*
X76561928Y-91800000D01*
X76574188Y-91924482D01*
X76610498Y-92044180D01*
X76669463Y-92154494D01*
X76748815Y-92251185D01*
X76845506Y-92330537D01*
X76955820Y-92389502D01*
X77075518Y-92425812D01*
X77200000Y-92438072D01*
X79800000Y-92438072D01*
X79924482Y-92425812D01*
X80044180Y-92389502D01*
X80154494Y-92330537D01*
X80251185Y-92251185D01*
X80330537Y-92154494D01*
X80389502Y-92044180D01*
X80425812Y-91924482D01*
X80438072Y-91800000D01*
X80438072Y-91635000D01*
X80744249Y-91635000D01*
X80800000Y-91640491D01*
X80855751Y-91635000D01*
X80855752Y-91635000D01*
X81022499Y-91618577D01*
X81236447Y-91553676D01*
X81433623Y-91448284D01*
X81606449Y-91306449D01*
X81641996Y-91263135D01*
X83263140Y-89641991D01*
X83306449Y-89606449D01*
X83448284Y-89433623D01*
X83553676Y-89236447D01*
X83618577Y-89022499D01*
X83635000Y-88855752D01*
X83640491Y-88800001D01*
X83635000Y-88744249D01*
X83635000Y-71390510D01*
X83858665Y-71435000D01*
X84141335Y-71435000D01*
X84418574Y-71379853D01*
X84679727Y-71271680D01*
X84914759Y-71114637D01*
X85114637Y-70914759D01*
X85134521Y-70885000D01*
X87078452Y-70885000D01*
X87025764Y-71058691D01*
X86998057Y-71340000D01*
X87025764Y-71621309D01*
X87107818Y-71891808D01*
X87241068Y-72141101D01*
X87420392Y-72359608D01*
X87638899Y-72538932D01*
X87771858Y-72610000D01*
X87638899Y-72681068D01*
X87420392Y-72860392D01*
X87241068Y-73078899D01*
X87107818Y-73328192D01*
X87025764Y-73598691D01*
X86998057Y-73880000D01*
X87025764Y-74161309D01*
X87107818Y-74431808D01*
X87241068Y-74681101D01*
X87420392Y-74899608D01*
X87638899Y-75078932D01*
X87771858Y-75150000D01*
X87638899Y-75221068D01*
X87420392Y-75400392D01*
X87241068Y-75618899D01*
X87107818Y-75868192D01*
X87025764Y-76138691D01*
X86998057Y-76420000D01*
X87025764Y-76701309D01*
X87107818Y-76971808D01*
X87241068Y-77221101D01*
X87420392Y-77439608D01*
X87638899Y-77618932D01*
X87771858Y-77690000D01*
X87638899Y-77761068D01*
X87420392Y-77940392D01*
X87241068Y-78158899D01*
X87107818Y-78408192D01*
X87025764Y-78678691D01*
X86998057Y-78960000D01*
X87025764Y-79241309D01*
X87107818Y-79511808D01*
X87212669Y-79707971D01*
X85954946Y-80965695D01*
X85921173Y-80993412D01*
X85810579Y-81128171D01*
X85728401Y-81281917D01*
X85677795Y-81448740D01*
X85664990Y-81578753D01*
X85664990Y-81578760D01*
X85660709Y-81622229D01*
X85664990Y-81665698D01*
X85664991Y-90142923D01*
X85660709Y-90186402D01*
X85677795Y-90359892D01*
X85728402Y-90526715D01*
X85810580Y-90680461D01*
X85893458Y-90781448D01*
X85893461Y-90781451D01*
X85921174Y-90815219D01*
X85954941Y-90842931D01*
X86600567Y-91488558D01*
X86574188Y-91575518D01*
X86561928Y-91700000D01*
X86561928Y-93300000D01*
X86574188Y-93424482D01*
X86610498Y-93544180D01*
X86669463Y-93654494D01*
X86748815Y-93751185D01*
X86845506Y-93830537D01*
X86955820Y-93889502D01*
X87075518Y-93925812D01*
X87200000Y-93938072D01*
X88800000Y-93938072D01*
X88924482Y-93925812D01*
X89044180Y-93889502D01*
X89154494Y-93830537D01*
X89251185Y-93751185D01*
X89330537Y-93654494D01*
X89389502Y-93544180D01*
X89425812Y-93424482D01*
X89438072Y-93300000D01*
X89438072Y-92134999D01*
X90463421Y-92134999D01*
X96343470Y-98015049D01*
X96371183Y-98048817D01*
X96404951Y-98076530D01*
X96404953Y-98076532D01*
X96453401Y-98116292D01*
X96505941Y-98159411D01*
X96659687Y-98241589D01*
X96826510Y-98292195D01*
X96956523Y-98305000D01*
X96956533Y-98305000D01*
X96999999Y-98309281D01*
X97043465Y-98305000D01*
X97125495Y-98305000D01*
X97126155Y-98306235D01*
X97324537Y-98547963D01*
X97503899Y-98695163D01*
X97318685Y-98850563D01*
X97124031Y-99093077D01*
X96980429Y-99368906D01*
X96909437Y-99587020D01*
X97029406Y-99833000D01*
X98373000Y-99833000D01*
X98373000Y-99813000D01*
X98627000Y-99813000D01*
X98627000Y-99833000D01*
X99970594Y-99833000D01*
X100090563Y-99587020D01*
X100019571Y-99368906D01*
X99875969Y-99093077D01*
X99795403Y-98992702D01*
X109186903Y-98992702D01*
X109258486Y-99236671D01*
X109513996Y-99357571D01*
X109788184Y-99426300D01*
X110070512Y-99440217D01*
X110350130Y-99398787D01*
X110616292Y-99303603D01*
X110741514Y-99236671D01*
X110813097Y-98992702D01*
X110000000Y-98179605D01*
X109186903Y-98992702D01*
X99795403Y-98992702D01*
X99681315Y-98850563D01*
X99496101Y-98695163D01*
X99675463Y-98547963D01*
X99873845Y-98306235D01*
X99999840Y-98070512D01*
X108559783Y-98070512D01*
X108601213Y-98350130D01*
X108696397Y-98616292D01*
X108763329Y-98741514D01*
X109007298Y-98813097D01*
X109820395Y-98000000D01*
X110179605Y-98000000D01*
X110992702Y-98813097D01*
X111236671Y-98741514D01*
X111357571Y-98486004D01*
X111426300Y-98211816D01*
X111440217Y-97929488D01*
X111398787Y-97649870D01*
X111303603Y-97383708D01*
X111236671Y-97258486D01*
X110992702Y-97186903D01*
X110179605Y-98000000D01*
X109820395Y-98000000D01*
X109007298Y-97186903D01*
X108763329Y-97258486D01*
X108642429Y-97513996D01*
X108573700Y-97788184D01*
X108559783Y-98070512D01*
X99999840Y-98070512D01*
X100021255Y-98030449D01*
X100112030Y-97731204D01*
X100138043Y-97467088D01*
X100970132Y-96635000D01*
X108659043Y-96635000D01*
X108669463Y-96654494D01*
X108748815Y-96751185D01*
X108845506Y-96830537D01*
X108955820Y-96889502D01*
X109075518Y-96925812D01*
X109200000Y-96938072D01*
X109207215Y-96938072D01*
X109186903Y-97007298D01*
X110000000Y-97820395D01*
X110813097Y-97007298D01*
X110792785Y-96938072D01*
X110800000Y-96938072D01*
X110924482Y-96925812D01*
X111044180Y-96889502D01*
X111154494Y-96830537D01*
X111251185Y-96751185D01*
X111330537Y-96654494D01*
X111340957Y-96635000D01*
X111529869Y-96635000D01*
X113561928Y-98667061D01*
X113561928Y-99300000D01*
X113574188Y-99424482D01*
X113610498Y-99544180D01*
X113669463Y-99654494D01*
X113748815Y-99751185D01*
X113845506Y-99830537D01*
X113955820Y-99889502D01*
X114075518Y-99925812D01*
X114200000Y-99938072D01*
X114207215Y-99938072D01*
X114186903Y-100007298D01*
X115000000Y-100820395D01*
X115813097Y-100007298D01*
X115792785Y-99938072D01*
X115800000Y-99938072D01*
X115924482Y-99925812D01*
X116044180Y-99889502D01*
X116154494Y-99830537D01*
X116251185Y-99751185D01*
X116330537Y-99654494D01*
X116389502Y-99544180D01*
X116425812Y-99424482D01*
X116430212Y-99379806D01*
X116507492Y-99372195D01*
X116674315Y-99321589D01*
X116828061Y-99239411D01*
X116962819Y-99128817D01*
X116990536Y-99095044D01*
X121145050Y-94940531D01*
X121178818Y-94912818D01*
X121216932Y-94866377D01*
X121289411Y-94778061D01*
X121289412Y-94778060D01*
X121371590Y-94624314D01*
X121406844Y-94508098D01*
X121422196Y-94457492D01*
X121431305Y-94365000D01*
X121435001Y-94327478D01*
X121435001Y-94327470D01*
X121439282Y-94284001D01*
X121435001Y-94240532D01*
X121435001Y-88213466D01*
X121439282Y-88170000D01*
X121435001Y-88126534D01*
X121435001Y-88126524D01*
X121422196Y-87996511D01*
X121371590Y-87829688D01*
X121289412Y-87675942D01*
X121178818Y-87541184D01*
X121145051Y-87513472D01*
X120683147Y-87051568D01*
X120735000Y-86790883D01*
X120735000Y-86449117D01*
X120683147Y-86188432D01*
X120756531Y-86115048D01*
X120756536Y-86115042D01*
X121145045Y-85726533D01*
X121178818Y-85698816D01*
X121289412Y-85564058D01*
X121371590Y-85410312D01*
X121422196Y-85243489D01*
X121435001Y-85113476D01*
X121435001Y-85113468D01*
X121439282Y-85069999D01*
X121435001Y-85026530D01*
X121435001Y-76173466D01*
X121439282Y-76130000D01*
X121435001Y-76086534D01*
X121435001Y-76086524D01*
X121422196Y-75956511D01*
X121371590Y-75789688D01*
X121289412Y-75635942D01*
X121178818Y-75501184D01*
X121145051Y-75473472D01*
X120683147Y-75011568D01*
X120735000Y-74750883D01*
X120735000Y-74409117D01*
X120668325Y-74073919D01*
X120537537Y-73758169D01*
X120347663Y-73474002D01*
X120183661Y-73310000D01*
X120347663Y-73145998D01*
X120537537Y-72861831D01*
X120668325Y-72546081D01*
X120735000Y-72210883D01*
X120735000Y-72026581D01*
X121145050Y-71616531D01*
X121178818Y-71588818D01*
X121289412Y-71454060D01*
X121371590Y-71300314D01*
X121422196Y-71133491D01*
X121435001Y-71003478D01*
X121435001Y-71003468D01*
X121439282Y-70960002D01*
X121435001Y-70916536D01*
X121435001Y-64133466D01*
X121439282Y-64090000D01*
X121435001Y-64046534D01*
X121435001Y-64046524D01*
X121422196Y-63916511D01*
X121371590Y-63749688D01*
X121289412Y-63595942D01*
X121245523Y-63542463D01*
X121206533Y-63494954D01*
X121206531Y-63494952D01*
X121178818Y-63461184D01*
X121145051Y-63433472D01*
X121011438Y-63299859D01*
X121049693Y-63279411D01*
X121184451Y-63168817D01*
X121212168Y-63135044D01*
X122095049Y-62252164D01*
X122128817Y-62224451D01*
X122239411Y-62089693D01*
X122321589Y-61935947D01*
X122372195Y-61769124D01*
X122385000Y-61639111D01*
X122385000Y-61639101D01*
X122389281Y-61595635D01*
X122385000Y-61552169D01*
X122385000Y-55583469D01*
X122389281Y-55540000D01*
X122385000Y-55496531D01*
X122385000Y-55496523D01*
X122372195Y-55366510D01*
X122321589Y-55199687D01*
X122239411Y-55045941D01*
X122186155Y-54981049D01*
X122156532Y-54944953D01*
X122156530Y-54944951D01*
X122128817Y-54911183D01*
X122095050Y-54883471D01*
X120683147Y-53471568D01*
X120735000Y-53210883D01*
X120735000Y-52869117D01*
X120668325Y-52533919D01*
X120537537Y-52218169D01*
X120470310Y-52117557D01*
X120551185Y-52051185D01*
X120630537Y-51954494D01*
X120689502Y-51844180D01*
X120725812Y-51724482D01*
X120738072Y-51600000D01*
X120735000Y-50785750D01*
X120576250Y-50627000D01*
X119127000Y-50627000D01*
X119127000Y-50647000D01*
X118873000Y-50647000D01*
X118873000Y-50627000D01*
X118853000Y-50627000D01*
X118853000Y-50373000D01*
X118873000Y-50373000D01*
X118873000Y-48923750D01*
X119127000Y-48923750D01*
X119127000Y-50373000D01*
X120576250Y-50373000D01*
X120735000Y-50214250D01*
X120738072Y-49400000D01*
X120725812Y-49275518D01*
X120689502Y-49155820D01*
X120630537Y-49045506D01*
X120551185Y-48948815D01*
X120454494Y-48869463D01*
X120344180Y-48810498D01*
X120224482Y-48774188D01*
X120100000Y-48761928D01*
X119285750Y-48765000D01*
X119127000Y-48923750D01*
X118873000Y-48923750D01*
X118714250Y-48765000D01*
X117900000Y-48761928D01*
X117775518Y-48774188D01*
X117655820Y-48810498D01*
X117545506Y-48869463D01*
X117448815Y-48948815D01*
X117369463Y-49045506D01*
X117310498Y-49155820D01*
X117274188Y-49275518D01*
X117261928Y-49400000D01*
X117262784Y-49626940D01*
X117215394Y-49579550D01*
X117021308Y-49449866D01*
X116805652Y-49360539D01*
X116576712Y-49315000D01*
X116343288Y-49315000D01*
X116114348Y-49360539D01*
X115898692Y-49449866D01*
X115704606Y-49579550D01*
X115539550Y-49744606D01*
X115409866Y-49938692D01*
X115320539Y-50154348D01*
X115275000Y-50383288D01*
X115275000Y-50616712D01*
X115320539Y-50845652D01*
X115409866Y-51061308D01*
X115539550Y-51255394D01*
X115704606Y-51420450D01*
X115898692Y-51550134D01*
X116114348Y-51639461D01*
X116343288Y-51685000D01*
X116576712Y-51685000D01*
X116805652Y-51639461D01*
X117021308Y-51550134D01*
X117215394Y-51420450D01*
X117262784Y-51373060D01*
X117261928Y-51600000D01*
X117274188Y-51724482D01*
X117310498Y-51844180D01*
X117369463Y-51954494D01*
X117448815Y-52051185D01*
X117529690Y-52117557D01*
X117462463Y-52218169D01*
X117414090Y-52334952D01*
X117380450Y-52284606D01*
X117215394Y-52119550D01*
X117021308Y-51989866D01*
X116805652Y-51900539D01*
X116576712Y-51855000D01*
X116343288Y-51855000D01*
X116114348Y-51900539D01*
X115898692Y-51989866D01*
X115704606Y-52119550D01*
X115539550Y-52284606D01*
X115409866Y-52478692D01*
X115320539Y-52694348D01*
X115275000Y-52923288D01*
X115275000Y-53156712D01*
X115320539Y-53385652D01*
X115407254Y-53595001D01*
X99563468Y-53595001D01*
X99519999Y-53590720D01*
X99476530Y-53595001D01*
X99476522Y-53595001D01*
X99346509Y-53607806D01*
X99179685Y-53658412D01*
X99025940Y-53740590D01*
X98924952Y-53823469D01*
X98924950Y-53823471D01*
X98891182Y-53851184D01*
X98863469Y-53884952D01*
X96676439Y-56071983D01*
X96641335Y-56065000D01*
X96358665Y-56065000D01*
X96081426Y-56120147D01*
X95820273Y-56228320D01*
X95585241Y-56385363D01*
X95385363Y-56585241D01*
X95228320Y-56820273D01*
X95120147Y-57081426D01*
X95065000Y-57358665D01*
X95065000Y-57641335D01*
X95071983Y-57676439D01*
X90624956Y-62123466D01*
X90591183Y-62151183D01*
X90480589Y-62285942D01*
X90398411Y-62439688D01*
X90347805Y-62606511D01*
X90337612Y-62710000D01*
X89867493Y-62710000D01*
X89859608Y-62700392D01*
X89641101Y-62521068D01*
X89391808Y-62387818D01*
X89121309Y-62305764D01*
X88910492Y-62285000D01*
X88369508Y-62285000D01*
X88158691Y-62305764D01*
X87888192Y-62387818D01*
X87638899Y-62521068D01*
X87420392Y-62700392D01*
X87241068Y-62918899D01*
X87107818Y-63168192D01*
X87025764Y-63438691D01*
X86998057Y-63720000D01*
X87025764Y-64001309D01*
X87107818Y-64271808D01*
X87241068Y-64521101D01*
X87420392Y-64739608D01*
X87638899Y-64918932D01*
X87768345Y-64988122D01*
X87750773Y-64995570D01*
X87517338Y-65154327D01*
X87319361Y-65355575D01*
X87164449Y-65591579D01*
X87058556Y-65853270D01*
X87048096Y-65910961D01*
X87170084Y-66132998D01*
X87024576Y-66132998D01*
X86135001Y-65243423D01*
X86135001Y-58793466D01*
X86139282Y-58750000D01*
X86135001Y-58706534D01*
X86135001Y-58706524D01*
X86122196Y-58576511D01*
X86071590Y-58409688D01*
X85989412Y-58255942D01*
X85965211Y-58226453D01*
X85906533Y-58154954D01*
X85906531Y-58154952D01*
X85878818Y-58121184D01*
X85845051Y-58093472D01*
X85428017Y-57676439D01*
X85435000Y-57641335D01*
X85435000Y-57358665D01*
X88065000Y-57358665D01*
X88065000Y-57641335D01*
X88120147Y-57918574D01*
X88228320Y-58179727D01*
X88385363Y-58414759D01*
X88585241Y-58614637D01*
X88820273Y-58771680D01*
X89081426Y-58879853D01*
X89358665Y-58935000D01*
X89641335Y-58935000D01*
X89918574Y-58879853D01*
X90179727Y-58771680D01*
X90414759Y-58614637D01*
X90614637Y-58414759D01*
X90771680Y-58179727D01*
X90879853Y-57918574D01*
X90935000Y-57641335D01*
X90935000Y-57358665D01*
X90879853Y-57081426D01*
X90771680Y-56820273D01*
X90614637Y-56585241D01*
X90414759Y-56385363D01*
X90179727Y-56228320D01*
X89918574Y-56120147D01*
X89641335Y-56065000D01*
X89358665Y-56065000D01*
X89081426Y-56120147D01*
X88820273Y-56228320D01*
X88585241Y-56385363D01*
X88385363Y-56585241D01*
X88228320Y-56820273D01*
X88120147Y-57081426D01*
X88065000Y-57358665D01*
X85435000Y-57358665D01*
X85379853Y-57081426D01*
X85271680Y-56820273D01*
X85114637Y-56585241D01*
X84914759Y-56385363D01*
X84679727Y-56228320D01*
X84418574Y-56120147D01*
X84141335Y-56065000D01*
X83858665Y-56065000D01*
X83635000Y-56109490D01*
X83635000Y-55843250D01*
X83640491Y-55787498D01*
X83618577Y-55564999D01*
X83553676Y-55351051D01*
X83448284Y-55153875D01*
X83306449Y-54981049D01*
X83263141Y-54945507D01*
X80014498Y-51696865D01*
X79978951Y-51653551D01*
X79857575Y-51553940D01*
X79675463Y-51332037D01*
X79496101Y-51184837D01*
X79681315Y-51029437D01*
X79875969Y-50786923D01*
X80019571Y-50511094D01*
X80090563Y-50292980D01*
X79970594Y-50047000D01*
X78627000Y-50047000D01*
X78627000Y-50067000D01*
X78373000Y-50067000D01*
X78373000Y-50047000D01*
X77029406Y-50047000D01*
X76909437Y-50292980D01*
X76980429Y-50511094D01*
X77124031Y-50786923D01*
X77318685Y-51029437D01*
X77503899Y-51184837D01*
X77324537Y-51332037D01*
X77126155Y-51573765D01*
X76978745Y-51849551D01*
X76887970Y-52148796D01*
X76857319Y-52460000D01*
X76887970Y-52771204D01*
X76978745Y-53070449D01*
X77126155Y-53346235D01*
X77229446Y-53472095D01*
X77145506Y-53516963D01*
X77048815Y-53596315D01*
X76969463Y-53693006D01*
X76910498Y-53803320D01*
X76874188Y-53923018D01*
X76861928Y-54047500D01*
X76861928Y-55952500D01*
X76874188Y-56076982D01*
X76910498Y-56196680D01*
X76969463Y-56306994D01*
X77048815Y-56403685D01*
X77145506Y-56483037D01*
X77255820Y-56542002D01*
X77375518Y-56578312D01*
X77500000Y-56590572D01*
X79500000Y-56590572D01*
X79624482Y-56578312D01*
X79744180Y-56542002D01*
X79854494Y-56483037D01*
X79951185Y-56403685D01*
X80030537Y-56306994D01*
X80089502Y-56196680D01*
X80125812Y-56076982D01*
X80138072Y-55952500D01*
X80138072Y-55030702D01*
X81365000Y-56257630D01*
X81365000Y-65552394D01*
X81306450Y-65481050D01*
X81263141Y-65445507D01*
X80014498Y-64196865D01*
X79978951Y-64153551D01*
X79857575Y-64053940D01*
X79675463Y-63832037D01*
X79496101Y-63684837D01*
X79681315Y-63529437D01*
X79875969Y-63286923D01*
X80019571Y-63011094D01*
X80090563Y-62792980D01*
X79970594Y-62547000D01*
X78627000Y-62547000D01*
X78627000Y-62567000D01*
X78373000Y-62567000D01*
X78373000Y-62547000D01*
X77029406Y-62547000D01*
X76909437Y-62792980D01*
X76980429Y-63011094D01*
X77124031Y-63286923D01*
X77318685Y-63529437D01*
X77503899Y-63684837D01*
X77324537Y-63832037D01*
X77126155Y-64073765D01*
X76978745Y-64349551D01*
X76887970Y-64648796D01*
X76857319Y-64960000D01*
X76887970Y-65271204D01*
X76978745Y-65570449D01*
X77126155Y-65846235D01*
X77229446Y-65972095D01*
X77145506Y-66016963D01*
X77048815Y-66096315D01*
X76969463Y-66193006D01*
X76910498Y-66303320D01*
X76874188Y-66423018D01*
X76861928Y-66547500D01*
X76861928Y-68452500D01*
X76874188Y-68576982D01*
X76910498Y-68696680D01*
X76969463Y-68806994D01*
X77048815Y-68903685D01*
X77145506Y-68983037D01*
X77255820Y-69042002D01*
X77375518Y-69078312D01*
X77500000Y-69090572D01*
X79365001Y-69090572D01*
X79365002Y-72763866D01*
X79064419Y-72639361D01*
X78690581Y-72565000D01*
X78309419Y-72565000D01*
X77935581Y-72639361D01*
X77583434Y-72785225D01*
X77266509Y-72996987D01*
X76996987Y-73266509D01*
X76785225Y-73583434D01*
X76639361Y-73935581D01*
X76565000Y-74309419D01*
X76565000Y-74690581D01*
X76639361Y-75064419D01*
X76785225Y-75416566D01*
X76996987Y-75733491D01*
X77266509Y-76003013D01*
X77583434Y-76214775D01*
X77935581Y-76360639D01*
X78309419Y-76435000D01*
X78690581Y-76435000D01*
X79064419Y-76360639D01*
X79365002Y-76236134D01*
X79365002Y-77029865D01*
X78832940Y-77561928D01*
X77200000Y-77561928D01*
X77075518Y-77574188D01*
X76955820Y-77610498D01*
X76845506Y-77669463D01*
X76748815Y-77748815D01*
X76669463Y-77845506D01*
X76610498Y-77955820D01*
X76574188Y-78075518D01*
X76561928Y-78200000D01*
X72685000Y-78200000D01*
X72685000Y-62047020D01*
X76909437Y-62047020D01*
X77029406Y-62293000D01*
X78373000Y-62293000D01*
X78373000Y-60994430D01*
X78627000Y-60994430D01*
X78627000Y-62293000D01*
X79970594Y-62293000D01*
X80090563Y-62047020D01*
X80019571Y-61828906D01*
X79875969Y-61553077D01*
X79681315Y-61310563D01*
X79443089Y-61110684D01*
X79170446Y-60961121D01*
X78873863Y-60867622D01*
X78627000Y-60994430D01*
X78373000Y-60994430D01*
X78126137Y-60867622D01*
X77829554Y-60961121D01*
X77556911Y-61110684D01*
X77318685Y-61310563D01*
X77124031Y-61553077D01*
X76980429Y-61828906D01*
X76909437Y-62047020D01*
X72685000Y-62047020D01*
X72685000Y-49547020D01*
X76909437Y-49547020D01*
X77029406Y-49793000D01*
X78373000Y-49793000D01*
X78373000Y-48494430D01*
X78627000Y-48494430D01*
X78627000Y-49793000D01*
X79970594Y-49793000D01*
X80090563Y-49547020D01*
X80019571Y-49328906D01*
X79875969Y-49053077D01*
X79681315Y-48810563D01*
X79443089Y-48610684D01*
X79170446Y-48461121D01*
X78873863Y-48367622D01*
X78627000Y-48494430D01*
X78373000Y-48494430D01*
X78126137Y-48367622D01*
X77829554Y-48461121D01*
X77556911Y-48610684D01*
X77318685Y-48810563D01*
X77124031Y-49053077D01*
X76980429Y-49328906D01*
X76909437Y-49547020D01*
X72685000Y-49547020D01*
X72685000Y-47689040D01*
X82608091Y-47689040D01*
X82702930Y-47953881D01*
X82847615Y-48195131D01*
X83036586Y-48403519D01*
X83262580Y-48571037D01*
X83516913Y-48691246D01*
X83650961Y-48731904D01*
X83873000Y-48609915D01*
X83873000Y-47467000D01*
X84127000Y-47467000D01*
X84127000Y-48609915D01*
X84349039Y-48731904D01*
X84483087Y-48691246D01*
X84737420Y-48571037D01*
X84963414Y-48403519D01*
X85152385Y-48195131D01*
X85297070Y-47953881D01*
X85391909Y-47689040D01*
X85270624Y-47467000D01*
X84127000Y-47467000D01*
X83873000Y-47467000D01*
X82729376Y-47467000D01*
X82608091Y-47689040D01*
X72685000Y-47689040D01*
X72685000Y-47340000D01*
X88058057Y-47340000D01*
X88085764Y-47621309D01*
X88167818Y-47891808D01*
X88301068Y-48141101D01*
X88480392Y-48359608D01*
X88698899Y-48538932D01*
X88948192Y-48672182D01*
X89218691Y-48754236D01*
X89429508Y-48775000D01*
X89570492Y-48775000D01*
X89781309Y-48754236D01*
X90051808Y-48672182D01*
X90301101Y-48538932D01*
X90519608Y-48359608D01*
X90698932Y-48141101D01*
X90832182Y-47891808D01*
X90914236Y-47621309D01*
X90941943Y-47340000D01*
X95058057Y-47340000D01*
X95085764Y-47621309D01*
X95167818Y-47891808D01*
X95301068Y-48141101D01*
X95480392Y-48359608D01*
X95698899Y-48538932D01*
X95948192Y-48672182D01*
X96218691Y-48754236D01*
X96429508Y-48775000D01*
X96570492Y-48775000D01*
X96781309Y-48754236D01*
X97051808Y-48672182D01*
X97301101Y-48538932D01*
X97519608Y-48359608D01*
X97698932Y-48141101D01*
X97832182Y-47891808D01*
X97893690Y-47689040D01*
X103108091Y-47689040D01*
X103202930Y-47953881D01*
X103347615Y-48195131D01*
X103536586Y-48403519D01*
X103762580Y-48571037D01*
X104016913Y-48691246D01*
X104150961Y-48731904D01*
X104373000Y-48609915D01*
X104373000Y-47467000D01*
X104627000Y-47467000D01*
X104627000Y-48609915D01*
X104849039Y-48731904D01*
X104983087Y-48691246D01*
X105237420Y-48571037D01*
X105463414Y-48403519D01*
X105652385Y-48195131D01*
X105797070Y-47953881D01*
X105891909Y-47689040D01*
X109108091Y-47689040D01*
X109202930Y-47953881D01*
X109347615Y-48195131D01*
X109536586Y-48403519D01*
X109762580Y-48571037D01*
X110016913Y-48691246D01*
X110150961Y-48731904D01*
X110373000Y-48609915D01*
X110373000Y-47467000D01*
X110627000Y-47467000D01*
X110627000Y-48609915D01*
X110849039Y-48731904D01*
X110983087Y-48691246D01*
X111237420Y-48571037D01*
X111463414Y-48403519D01*
X111652385Y-48195131D01*
X111797070Y-47953881D01*
X111891909Y-47689040D01*
X111770624Y-47467000D01*
X110627000Y-47467000D01*
X110373000Y-47467000D01*
X109229376Y-47467000D01*
X109108091Y-47689040D01*
X105891909Y-47689040D01*
X105770624Y-47467000D01*
X104627000Y-47467000D01*
X104373000Y-47467000D01*
X103229376Y-47467000D01*
X103108091Y-47689040D01*
X97893690Y-47689040D01*
X97914236Y-47621309D01*
X97941943Y-47340000D01*
X97914236Y-47058691D01*
X97893691Y-46990960D01*
X103108091Y-46990960D01*
X103229376Y-47213000D01*
X104373000Y-47213000D01*
X104373000Y-46070085D01*
X104627000Y-46070085D01*
X104627000Y-47213000D01*
X105770624Y-47213000D01*
X105891909Y-46990960D01*
X109108091Y-46990960D01*
X109229376Y-47213000D01*
X110373000Y-47213000D01*
X110373000Y-46070085D01*
X110627000Y-46070085D01*
X110627000Y-47213000D01*
X111770624Y-47213000D01*
X111891909Y-46990960D01*
X111797070Y-46726119D01*
X111652385Y-46484869D01*
X111463414Y-46276481D01*
X111237420Y-46108963D01*
X110983087Y-45988754D01*
X110849039Y-45948096D01*
X110627000Y-46070085D01*
X110373000Y-46070085D01*
X110150961Y-45948096D01*
X110016913Y-45988754D01*
X109762580Y-46108963D01*
X109536586Y-46276481D01*
X109347615Y-46484869D01*
X109202930Y-46726119D01*
X109108091Y-46990960D01*
X105891909Y-46990960D01*
X105797070Y-46726119D01*
X105652385Y-46484869D01*
X105463414Y-46276481D01*
X105237420Y-46108963D01*
X104983087Y-45988754D01*
X104849039Y-45948096D01*
X104627000Y-46070085D01*
X104373000Y-46070085D01*
X104150961Y-45948096D01*
X104016913Y-45988754D01*
X103762580Y-46108963D01*
X103536586Y-46276481D01*
X103347615Y-46484869D01*
X103202930Y-46726119D01*
X103108091Y-46990960D01*
X97893691Y-46990960D01*
X97832182Y-46788192D01*
X97698932Y-46538899D01*
X97519608Y-46320392D01*
X97301101Y-46141068D01*
X97051808Y-46007818D01*
X96781309Y-45925764D01*
X96570492Y-45905000D01*
X96429508Y-45905000D01*
X96218691Y-45925764D01*
X95948192Y-46007818D01*
X95698899Y-46141068D01*
X95480392Y-46320392D01*
X95301068Y-46538899D01*
X95167818Y-46788192D01*
X95085764Y-47058691D01*
X95058057Y-47340000D01*
X90941943Y-47340000D01*
X90914236Y-47058691D01*
X90832182Y-46788192D01*
X90698932Y-46538899D01*
X90519608Y-46320392D01*
X90301101Y-46141068D01*
X90051808Y-46007818D01*
X89781309Y-45925764D01*
X89570492Y-45905000D01*
X89429508Y-45905000D01*
X89218691Y-45925764D01*
X88948192Y-46007818D01*
X88698899Y-46141068D01*
X88480392Y-46320392D01*
X88301068Y-46538899D01*
X88167818Y-46788192D01*
X88085764Y-47058691D01*
X88058057Y-47340000D01*
X72685000Y-47340000D01*
X72685000Y-46990960D01*
X82608091Y-46990960D01*
X82729376Y-47213000D01*
X83873000Y-47213000D01*
X83873000Y-46070085D01*
X84127000Y-46070085D01*
X84127000Y-47213000D01*
X85270624Y-47213000D01*
X85391909Y-46990960D01*
X85297070Y-46726119D01*
X85152385Y-46484869D01*
X84963414Y-46276481D01*
X84737420Y-46108963D01*
X84483087Y-45988754D01*
X84349039Y-45948096D01*
X84127000Y-46070085D01*
X83873000Y-46070085D01*
X83650961Y-45948096D01*
X83516913Y-45988754D01*
X83262580Y-46108963D01*
X83036586Y-46276481D01*
X82847615Y-46484869D01*
X82702930Y-46726119D01*
X82608091Y-46990960D01*
X72685000Y-46990960D01*
X72685000Y-40185000D01*
X74530110Y-40185000D01*
X74310315Y-40331862D01*
G36*
X115275000Y-74696712D02*
G01*
X115320539Y-74925652D01*
X115409866Y-75141308D01*
X115539550Y-75335394D01*
X115704606Y-75500450D01*
X115898692Y-75630134D01*
X116114348Y-75719461D01*
X116343288Y-75765000D01*
X116576712Y-75765000D01*
X116805652Y-75719461D01*
X117021308Y-75630134D01*
X117215394Y-75500450D01*
X117380450Y-75335394D01*
X117414090Y-75285048D01*
X117462463Y-75401831D01*
X117652337Y-75685998D01*
X117894002Y-75927663D01*
X118178169Y-76117537D01*
X118493919Y-76248325D01*
X118829117Y-76315000D01*
X119170883Y-76315000D01*
X119431568Y-76263147D01*
X119665001Y-76496580D01*
X119665001Y-77263569D01*
X119285750Y-77265000D01*
X119127000Y-77423750D01*
X119127000Y-78873000D01*
X119147000Y-78873000D01*
X119147000Y-79127000D01*
X119127000Y-79127000D01*
X119127000Y-79147000D01*
X118873000Y-79147000D01*
X118873000Y-79127000D01*
X117423750Y-79127000D01*
X117265000Y-79285750D01*
X117261928Y-80100000D01*
X117274188Y-80224482D01*
X117310498Y-80344180D01*
X117369463Y-80454494D01*
X117448815Y-80551185D01*
X117529690Y-80617557D01*
X117462463Y-80718169D01*
X117331675Y-81033919D01*
X117265000Y-81369117D01*
X117265000Y-81710883D01*
X117331675Y-82046081D01*
X117462463Y-82361831D01*
X117652337Y-82645998D01*
X117816339Y-82810000D01*
X117652337Y-82974002D01*
X117462463Y-83258169D01*
X117331675Y-83573919D01*
X117265000Y-83909117D01*
X117265000Y-84250883D01*
X117331675Y-84586081D01*
X117462463Y-84901831D01*
X117652337Y-85185998D01*
X117816339Y-85350000D01*
X117652337Y-85514002D01*
X117462463Y-85798169D01*
X117331675Y-86113919D01*
X117265000Y-86449117D01*
X117265000Y-86790883D01*
X117331675Y-87126081D01*
X117462463Y-87441831D01*
X117652337Y-87725998D01*
X117894002Y-87967663D01*
X118178169Y-88157537D01*
X118493919Y-88288325D01*
X118829117Y-88355000D01*
X119170883Y-88355000D01*
X119431568Y-88303147D01*
X119665001Y-88536580D01*
X119665001Y-89263569D01*
X119285750Y-89265000D01*
X119127000Y-89423750D01*
X119127000Y-90873000D01*
X119147000Y-90873000D01*
X119147000Y-91127000D01*
X119127000Y-91127000D01*
X119127000Y-91147000D01*
X118873000Y-91147000D01*
X118873000Y-91127000D01*
X118853000Y-91127000D01*
X118853000Y-90873000D01*
X118873000Y-90873000D01*
X118873000Y-89423750D01*
X118714250Y-89265000D01*
X117900000Y-89261928D01*
X117775518Y-89274188D01*
X117655820Y-89310498D01*
X117545506Y-89369463D01*
X117448815Y-89448815D01*
X117369463Y-89545506D01*
X117310498Y-89655820D01*
X117274188Y-89775518D01*
X117261928Y-89900000D01*
X117262784Y-90126940D01*
X117215394Y-90079550D01*
X117021308Y-89949866D01*
X116805652Y-89860539D01*
X116576712Y-89815000D01*
X116344999Y-89815000D01*
X116344999Y-82763468D01*
X116349280Y-82719999D01*
X116344999Y-82676530D01*
X116344999Y-82676522D01*
X116332194Y-82546509D01*
X116321577Y-82511510D01*
X116281588Y-82379685D01*
X116199410Y-82225940D01*
X116116531Y-82124952D01*
X116116529Y-82124950D01*
X116088816Y-82091182D01*
X116055049Y-82063470D01*
X113124875Y-79133296D01*
X113141943Y-78960000D01*
X113114236Y-78678691D01*
X113032182Y-78408192D01*
X112898932Y-78158899D01*
X112719608Y-77940392D01*
X112670391Y-77900000D01*
X117261928Y-77900000D01*
X117265000Y-78714250D01*
X117423750Y-78873000D01*
X118873000Y-78873000D01*
X118873000Y-77423750D01*
X118714250Y-77265000D01*
X117900000Y-77261928D01*
X117775518Y-77274188D01*
X117655820Y-77310498D01*
X117545506Y-77369463D01*
X117448815Y-77448815D01*
X117369463Y-77545506D01*
X117310498Y-77655820D01*
X117274188Y-77775518D01*
X117261928Y-77900000D01*
X112670391Y-77900000D01*
X112501101Y-77761068D01*
X112368142Y-77690000D01*
X112501101Y-77618932D01*
X112719608Y-77439608D01*
X112898932Y-77221101D01*
X113032182Y-76971808D01*
X113114236Y-76701309D01*
X113141943Y-76420000D01*
X113114236Y-76138691D01*
X113032182Y-75868192D01*
X112941257Y-75698083D01*
X114174341Y-74464999D01*
X115275000Y-74464999D01*
X115275000Y-74696712D01*
X115275000Y-74696712D01*
G37*
X115275000Y-74696712D02*
X115320539Y-74925652D01*
X115409866Y-75141308D01*
X115539550Y-75335394D01*
X115704606Y-75500450D01*
X115898692Y-75630134D01*
X116114348Y-75719461D01*
X116343288Y-75765000D01*
X116576712Y-75765000D01*
X116805652Y-75719461D01*
X117021308Y-75630134D01*
X117215394Y-75500450D01*
X117380450Y-75335394D01*
X117414090Y-75285048D01*
X117462463Y-75401831D01*
X117652337Y-75685998D01*
X117894002Y-75927663D01*
X118178169Y-76117537D01*
X118493919Y-76248325D01*
X118829117Y-76315000D01*
X119170883Y-76315000D01*
X119431568Y-76263147D01*
X119665001Y-76496580D01*
X119665001Y-77263569D01*
X119285750Y-77265000D01*
X119127000Y-77423750D01*
X119127000Y-78873000D01*
X119147000Y-78873000D01*
X119147000Y-79127000D01*
X119127000Y-79127000D01*
X119127000Y-79147000D01*
X118873000Y-79147000D01*
X118873000Y-79127000D01*
X117423750Y-79127000D01*
X117265000Y-79285750D01*
X117261928Y-80100000D01*
X117274188Y-80224482D01*
X117310498Y-80344180D01*
X117369463Y-80454494D01*
X117448815Y-80551185D01*
X117529690Y-80617557D01*
X117462463Y-80718169D01*
X117331675Y-81033919D01*
X117265000Y-81369117D01*
X117265000Y-81710883D01*
X117331675Y-82046081D01*
X117462463Y-82361831D01*
X117652337Y-82645998D01*
X117816339Y-82810000D01*
X117652337Y-82974002D01*
X117462463Y-83258169D01*
X117331675Y-83573919D01*
X117265000Y-83909117D01*
X117265000Y-84250883D01*
X117331675Y-84586081D01*
X117462463Y-84901831D01*
X117652337Y-85185998D01*
X117816339Y-85350000D01*
X117652337Y-85514002D01*
X117462463Y-85798169D01*
X117331675Y-86113919D01*
X117265000Y-86449117D01*
X117265000Y-86790883D01*
X117331675Y-87126081D01*
X117462463Y-87441831D01*
X117652337Y-87725998D01*
X117894002Y-87967663D01*
X118178169Y-88157537D01*
X118493919Y-88288325D01*
X118829117Y-88355000D01*
X119170883Y-88355000D01*
X119431568Y-88303147D01*
X119665001Y-88536580D01*
X119665001Y-89263569D01*
X119285750Y-89265000D01*
X119127000Y-89423750D01*
X119127000Y-90873000D01*
X119147000Y-90873000D01*
X119147000Y-91127000D01*
X119127000Y-91127000D01*
X119127000Y-91147000D01*
X118873000Y-91147000D01*
X118873000Y-91127000D01*
X118853000Y-91127000D01*
X118853000Y-90873000D01*
X118873000Y-90873000D01*
X118873000Y-89423750D01*
X118714250Y-89265000D01*
X117900000Y-89261928D01*
X117775518Y-89274188D01*
X117655820Y-89310498D01*
X117545506Y-89369463D01*
X117448815Y-89448815D01*
X117369463Y-89545506D01*
X117310498Y-89655820D01*
X117274188Y-89775518D01*
X117261928Y-89900000D01*
X117262784Y-90126940D01*
X117215394Y-90079550D01*
X117021308Y-89949866D01*
X116805652Y-89860539D01*
X116576712Y-89815000D01*
X116344999Y-89815000D01*
X116344999Y-82763468D01*
X116349280Y-82719999D01*
X116344999Y-82676530D01*
X116344999Y-82676522D01*
X116332194Y-82546509D01*
X116321577Y-82511510D01*
X116281588Y-82379685D01*
X116199410Y-82225940D01*
X116116531Y-82124952D01*
X116116529Y-82124950D01*
X116088816Y-82091182D01*
X116055049Y-82063470D01*
X113124875Y-79133296D01*
X113141943Y-78960000D01*
X113114236Y-78678691D01*
X113032182Y-78408192D01*
X112898932Y-78158899D01*
X112719608Y-77940392D01*
X112670391Y-77900000D01*
X117261928Y-77900000D01*
X117265000Y-78714250D01*
X117423750Y-78873000D01*
X118873000Y-78873000D01*
X118873000Y-77423750D01*
X118714250Y-77265000D01*
X117900000Y-77261928D01*
X117775518Y-77274188D01*
X117655820Y-77310498D01*
X117545506Y-77369463D01*
X117448815Y-77448815D01*
X117369463Y-77545506D01*
X117310498Y-77655820D01*
X117274188Y-77775518D01*
X117261928Y-77900000D01*
X112670391Y-77900000D01*
X112501101Y-77761068D01*
X112368142Y-77690000D01*
X112501101Y-77618932D01*
X112719608Y-77439608D01*
X112898932Y-77221101D01*
X113032182Y-76971808D01*
X113114236Y-76701309D01*
X113141943Y-76420000D01*
X113114236Y-76138691D01*
X113032182Y-75868192D01*
X112941257Y-75698083D01*
X114174341Y-74464999D01*
X115275000Y-74464999D01*
X115275000Y-74696712D01*
G36*
X103245764Y-70718691D02*
G01*
X103218057Y-71000000D01*
X103245764Y-71281309D01*
X103327818Y-71551808D01*
X103461068Y-71801101D01*
X103640392Y-72019608D01*
X103858899Y-72198932D01*
X104108192Y-72332182D01*
X104378691Y-72414236D01*
X104589508Y-72435000D01*
X104730492Y-72435000D01*
X104833296Y-72424875D01*
X104864952Y-72456531D01*
X104864957Y-72456535D01*
X108173460Y-75765039D01*
X108201173Y-75798807D01*
X108234941Y-75826520D01*
X108234943Y-75826522D01*
X108285718Y-75868192D01*
X108335931Y-75909401D01*
X108489677Y-75991579D01*
X108605893Y-76026833D01*
X108656499Y-76042185D01*
X108671296Y-76043642D01*
X108786513Y-76054990D01*
X108786521Y-76054990D01*
X108829990Y-76059271D01*
X108873459Y-76054990D01*
X109911154Y-76054990D01*
X109885764Y-76138691D01*
X109858057Y-76420000D01*
X109885764Y-76701309D01*
X109967818Y-76971808D01*
X110101068Y-77221101D01*
X110280392Y-77439608D01*
X110498899Y-77618932D01*
X110631858Y-77690000D01*
X110498899Y-77761068D01*
X110280392Y-77940392D01*
X110101068Y-78158899D01*
X109967818Y-78408192D01*
X109885764Y-78678691D01*
X109858057Y-78960000D01*
X109885764Y-79241309D01*
X109967818Y-79511808D01*
X110101068Y-79761101D01*
X110233476Y-79922441D01*
X110145506Y-79969463D01*
X110048815Y-80048815D01*
X109969463Y-80145506D01*
X109910498Y-80255820D01*
X109874188Y-80375518D01*
X109861928Y-80500000D01*
X109865000Y-81214250D01*
X110023750Y-81373000D01*
X111373000Y-81373000D01*
X111373000Y-81353000D01*
X111627000Y-81353000D01*
X111627000Y-81373000D01*
X111647000Y-81373000D01*
X111647000Y-81627000D01*
X111627000Y-81627000D01*
X111627000Y-81647000D01*
X111373000Y-81647000D01*
X111373000Y-81627000D01*
X110023750Y-81627000D01*
X109865000Y-81785750D01*
X109861928Y-82500000D01*
X109874188Y-82624482D01*
X109910498Y-82744180D01*
X109969463Y-82854494D01*
X109984650Y-82873000D01*
X89257247Y-82873000D01*
X89391808Y-82832182D01*
X89641101Y-82698932D01*
X89859608Y-82519608D01*
X90038932Y-82301101D01*
X90172182Y-82051808D01*
X90254236Y-81781309D01*
X90281943Y-81500000D01*
X90254236Y-81218691D01*
X90228846Y-81134990D01*
X91814322Y-81134990D01*
X91857791Y-81139271D01*
X91901260Y-81134990D01*
X91901268Y-81134990D01*
X92031281Y-81122185D01*
X92198104Y-81071579D01*
X92351850Y-80989401D01*
X92486608Y-80878807D01*
X92514325Y-80845034D01*
X95095049Y-78264311D01*
X95128817Y-78236598D01*
X95158853Y-78200000D01*
X95239411Y-78101840D01*
X95321588Y-77948095D01*
X95321589Y-77948094D01*
X95372195Y-77781271D01*
X95385000Y-77651258D01*
X95385000Y-77651250D01*
X95389281Y-77607781D01*
X95385000Y-77564312D01*
X95385000Y-72134521D01*
X95414759Y-72114637D01*
X95614637Y-71914759D01*
X95771680Y-71679727D01*
X95879853Y-71418574D01*
X95935000Y-71141335D01*
X95935000Y-70858665D01*
X95890509Y-70634999D01*
X103271151Y-70634999D01*
X103245764Y-70718691D01*
X103245764Y-70718691D01*
G37*
X103245764Y-70718691D02*
X103218057Y-71000000D01*
X103245764Y-71281309D01*
X103327818Y-71551808D01*
X103461068Y-71801101D01*
X103640392Y-72019608D01*
X103858899Y-72198932D01*
X104108192Y-72332182D01*
X104378691Y-72414236D01*
X104589508Y-72435000D01*
X104730492Y-72435000D01*
X104833296Y-72424875D01*
X104864952Y-72456531D01*
X104864957Y-72456535D01*
X108173460Y-75765039D01*
X108201173Y-75798807D01*
X108234941Y-75826520D01*
X108234943Y-75826522D01*
X108285718Y-75868192D01*
X108335931Y-75909401D01*
X108489677Y-75991579D01*
X108605893Y-76026833D01*
X108656499Y-76042185D01*
X108671296Y-76043642D01*
X108786513Y-76054990D01*
X108786521Y-76054990D01*
X108829990Y-76059271D01*
X108873459Y-76054990D01*
X109911154Y-76054990D01*
X109885764Y-76138691D01*
X109858057Y-76420000D01*
X109885764Y-76701309D01*
X109967818Y-76971808D01*
X110101068Y-77221101D01*
X110280392Y-77439608D01*
X110498899Y-77618932D01*
X110631858Y-77690000D01*
X110498899Y-77761068D01*
X110280392Y-77940392D01*
X110101068Y-78158899D01*
X109967818Y-78408192D01*
X109885764Y-78678691D01*
X109858057Y-78960000D01*
X109885764Y-79241309D01*
X109967818Y-79511808D01*
X110101068Y-79761101D01*
X110233476Y-79922441D01*
X110145506Y-79969463D01*
X110048815Y-80048815D01*
X109969463Y-80145506D01*
X109910498Y-80255820D01*
X109874188Y-80375518D01*
X109861928Y-80500000D01*
X109865000Y-81214250D01*
X110023750Y-81373000D01*
X111373000Y-81373000D01*
X111373000Y-81353000D01*
X111627000Y-81353000D01*
X111627000Y-81373000D01*
X111647000Y-81373000D01*
X111647000Y-81627000D01*
X111627000Y-81627000D01*
X111627000Y-81647000D01*
X111373000Y-81647000D01*
X111373000Y-81627000D01*
X110023750Y-81627000D01*
X109865000Y-81785750D01*
X109861928Y-82500000D01*
X109874188Y-82624482D01*
X109910498Y-82744180D01*
X109969463Y-82854494D01*
X109984650Y-82873000D01*
X89257247Y-82873000D01*
X89391808Y-82832182D01*
X89641101Y-82698932D01*
X89859608Y-82519608D01*
X90038932Y-82301101D01*
X90172182Y-82051808D01*
X90254236Y-81781309D01*
X90281943Y-81500000D01*
X90254236Y-81218691D01*
X90228846Y-81134990D01*
X91814322Y-81134990D01*
X91857791Y-81139271D01*
X91901260Y-81134990D01*
X91901268Y-81134990D01*
X92031281Y-81122185D01*
X92198104Y-81071579D01*
X92351850Y-80989401D01*
X92486608Y-80878807D01*
X92514325Y-80845034D01*
X95095049Y-78264311D01*
X95128817Y-78236598D01*
X95158853Y-78200000D01*
X95239411Y-78101840D01*
X95321588Y-77948095D01*
X95321589Y-77948094D01*
X95372195Y-77781271D01*
X95385000Y-77651258D01*
X95385000Y-77651250D01*
X95389281Y-77607781D01*
X95385000Y-77564312D01*
X95385000Y-72134521D01*
X95414759Y-72114637D01*
X95614637Y-71914759D01*
X95771680Y-71679727D01*
X95879853Y-71418574D01*
X95935000Y-71141335D01*
X95935000Y-70858665D01*
X95890509Y-70634999D01*
X103271151Y-70634999D01*
X103245764Y-70718691D01*
G36*
X115275000Y-55463288D02*
G01*
X115275000Y-55696712D01*
X115320539Y-55925652D01*
X115409866Y-56141308D01*
X115539550Y-56335394D01*
X115704606Y-56500450D01*
X115898692Y-56630134D01*
X116114348Y-56719461D01*
X116343288Y-56765000D01*
X116576712Y-56765000D01*
X116805652Y-56719461D01*
X117021308Y-56630134D01*
X117215394Y-56500450D01*
X117380450Y-56335394D01*
X117414090Y-56285048D01*
X117462463Y-56401831D01*
X117652337Y-56685998D01*
X117894002Y-56927663D01*
X118178169Y-57117537D01*
X118493919Y-57248325D01*
X118829117Y-57315000D01*
X119170883Y-57315000D01*
X119506081Y-57248325D01*
X119821831Y-57117537D01*
X120105998Y-56927663D01*
X120347663Y-56685998D01*
X120537537Y-56401831D01*
X120615000Y-56214819D01*
X120615000Y-58526575D01*
X120551185Y-58448815D01*
X120454494Y-58369463D01*
X120344180Y-58310498D01*
X120224482Y-58274188D01*
X120100000Y-58261928D01*
X119285750Y-58265000D01*
X119127000Y-58423750D01*
X119127000Y-59873000D01*
X119147000Y-59873000D01*
X119147000Y-60127000D01*
X119127000Y-60127000D01*
X119127000Y-60147000D01*
X118873000Y-60147000D01*
X118873000Y-60127000D01*
X118853000Y-60127000D01*
X118853000Y-59873000D01*
X118873000Y-59873000D01*
X118873000Y-58423750D01*
X118714250Y-58265000D01*
X117900000Y-58261928D01*
X117775518Y-58274188D01*
X117655820Y-58310498D01*
X117545506Y-58369463D01*
X117448815Y-58448815D01*
X117369463Y-58545506D01*
X117310498Y-58655820D01*
X117274188Y-58775518D01*
X117261928Y-58900000D01*
X117262784Y-59126940D01*
X117215394Y-59079550D01*
X117021308Y-58949866D01*
X116805652Y-58860539D01*
X116576712Y-58815000D01*
X116343288Y-58815000D01*
X116114348Y-58860539D01*
X115898692Y-58949866D01*
X115704606Y-59079550D01*
X115539550Y-59244606D01*
X115409866Y-59438692D01*
X115320539Y-59654348D01*
X115275000Y-59883288D01*
X115275000Y-60116712D01*
X115320539Y-60345652D01*
X115409866Y-60561308D01*
X115539550Y-60755394D01*
X115704606Y-60920450D01*
X115898692Y-61050134D01*
X116114348Y-61139461D01*
X116343288Y-61185000D01*
X116576712Y-61185000D01*
X116805652Y-61139461D01*
X117021308Y-61050134D01*
X117215394Y-60920450D01*
X117262784Y-60873060D01*
X117261928Y-61100000D01*
X117274188Y-61224482D01*
X117310498Y-61344180D01*
X117369463Y-61454494D01*
X117448815Y-61551185D01*
X117529690Y-61617557D01*
X117462463Y-61718169D01*
X117414090Y-61834952D01*
X117380450Y-61784606D01*
X117215394Y-61619550D01*
X117021308Y-61489866D01*
X116805652Y-61400539D01*
X116576712Y-61355000D01*
X116343288Y-61355000D01*
X116114348Y-61400539D01*
X115898692Y-61489866D01*
X115704606Y-61619550D01*
X115539550Y-61784606D01*
X115409866Y-61978692D01*
X115320539Y-62194348D01*
X115275000Y-62423288D01*
X115275000Y-62656712D01*
X115320539Y-62885652D01*
X115409866Y-63101308D01*
X115539550Y-63295394D01*
X115704606Y-63460450D01*
X115898692Y-63590134D01*
X116114348Y-63679461D01*
X116343288Y-63725000D01*
X116576712Y-63725000D01*
X116805652Y-63679461D01*
X117021308Y-63590134D01*
X117215394Y-63460450D01*
X117380450Y-63295394D01*
X117414090Y-63245048D01*
X117462463Y-63361831D01*
X117652337Y-63645998D01*
X117816339Y-63810000D01*
X117652337Y-63974002D01*
X117462463Y-64258169D01*
X117414090Y-64374952D01*
X117380450Y-64324606D01*
X117215394Y-64159550D01*
X117021308Y-64029866D01*
X116805652Y-63940539D01*
X116576712Y-63895000D01*
X116343288Y-63895000D01*
X116114348Y-63940539D01*
X115898692Y-64029866D01*
X115704606Y-64159550D01*
X115539550Y-64324606D01*
X115409866Y-64518692D01*
X115320539Y-64734348D01*
X115275000Y-64963288D01*
X115275000Y-65196712D01*
X115320539Y-65425652D01*
X115409866Y-65641308D01*
X115539550Y-65835394D01*
X115704606Y-66000450D01*
X115898692Y-66130134D01*
X116114348Y-66219461D01*
X116343288Y-66265000D01*
X116576712Y-66265000D01*
X116805652Y-66219461D01*
X117021308Y-66130134D01*
X117215394Y-66000450D01*
X117380450Y-65835394D01*
X117414090Y-65785048D01*
X117462463Y-65901831D01*
X117652337Y-66185998D01*
X117894002Y-66427663D01*
X118178169Y-66617537D01*
X118493919Y-66748325D01*
X118829117Y-66815000D01*
X119170883Y-66815000D01*
X119506081Y-66748325D01*
X119665001Y-66682498D01*
X119665002Y-67763569D01*
X119285750Y-67765000D01*
X119127000Y-67923750D01*
X119127000Y-69373000D01*
X119147000Y-69373000D01*
X119147000Y-69627000D01*
X119127000Y-69627000D01*
X119127000Y-69647000D01*
X118873000Y-69647000D01*
X118873000Y-69627000D01*
X118853000Y-69627000D01*
X118853000Y-69373000D01*
X118873000Y-69373000D01*
X118873000Y-67923750D01*
X118714250Y-67765000D01*
X117900000Y-67761928D01*
X117775518Y-67774188D01*
X117655820Y-67810498D01*
X117545506Y-67869463D01*
X117448815Y-67948815D01*
X117369463Y-68045506D01*
X117310498Y-68155820D01*
X117274188Y-68275518D01*
X117261928Y-68400000D01*
X117262784Y-68626940D01*
X117215394Y-68579550D01*
X117021308Y-68449866D01*
X116805652Y-68360539D01*
X116576712Y-68315000D01*
X116343288Y-68315000D01*
X116114348Y-68360539D01*
X115898692Y-68449866D01*
X115704606Y-68579550D01*
X115539550Y-68744606D01*
X115409866Y-68938692D01*
X115320539Y-69154348D01*
X115275000Y-69383288D01*
X115275000Y-69616712D01*
X115320539Y-69845652D01*
X115409866Y-70061308D01*
X115539550Y-70255394D01*
X115704606Y-70420450D01*
X115898692Y-70550134D01*
X116114348Y-70639461D01*
X116343288Y-70685000D01*
X116576712Y-70685000D01*
X116805652Y-70639461D01*
X117021308Y-70550134D01*
X117215394Y-70420450D01*
X117262784Y-70373060D01*
X117261928Y-70600000D01*
X117274188Y-70724482D01*
X117310498Y-70844180D01*
X117369463Y-70954494D01*
X117448815Y-71051185D01*
X117529690Y-71117557D01*
X117462463Y-71218169D01*
X117414090Y-71334952D01*
X117380450Y-71284606D01*
X117215394Y-71119550D01*
X117021308Y-70989866D01*
X116805652Y-70900539D01*
X116576712Y-70855000D01*
X116343288Y-70855000D01*
X116114348Y-70900539D01*
X115898692Y-70989866D01*
X115704606Y-71119550D01*
X115539550Y-71284606D01*
X115409866Y-71478692D01*
X115320539Y-71694348D01*
X115275000Y-71923288D01*
X115275000Y-72156712D01*
X115320539Y-72385652D01*
X115409866Y-72601308D01*
X115472468Y-72694999D01*
X113851231Y-72694999D01*
X113807762Y-72690718D01*
X113764293Y-72694999D01*
X113764285Y-72694999D01*
X113634272Y-72707804D01*
X113467449Y-72758410D01*
X113398256Y-72795394D01*
X113313703Y-72840588D01*
X113212715Y-72923467D01*
X113212713Y-72923469D01*
X113178945Y-72951182D01*
X113151232Y-72984950D01*
X112954090Y-73182092D01*
X112898932Y-73078899D01*
X112719608Y-72860392D01*
X112501101Y-72681068D01*
X112368142Y-72610000D01*
X112501101Y-72538932D01*
X112719608Y-72359608D01*
X112898932Y-72141101D01*
X113032182Y-71891808D01*
X113114236Y-71621309D01*
X113141943Y-71340000D01*
X113114236Y-71058691D01*
X113032182Y-70788192D01*
X112898932Y-70538899D01*
X112719608Y-70320392D01*
X112501101Y-70141068D01*
X112368142Y-70070000D01*
X112501101Y-69998932D01*
X112719608Y-69819608D01*
X112898932Y-69601101D01*
X113032182Y-69351808D01*
X113114236Y-69081309D01*
X113141943Y-68800000D01*
X113114236Y-68518691D01*
X113032182Y-68248192D01*
X112898932Y-67998899D01*
X112719608Y-67780392D01*
X112501101Y-67601068D01*
X112368142Y-67530000D01*
X112501101Y-67458932D01*
X112719608Y-67279608D01*
X112898932Y-67061101D01*
X113032182Y-66811808D01*
X113114236Y-66541309D01*
X113141943Y-66260000D01*
X113114236Y-65978691D01*
X113032182Y-65708192D01*
X112898932Y-65458899D01*
X112719608Y-65240392D01*
X112501101Y-65061068D01*
X112368142Y-64990000D01*
X112501101Y-64918932D01*
X112719608Y-64739608D01*
X112898932Y-64521101D01*
X113032182Y-64271808D01*
X113114236Y-64001309D01*
X113141943Y-63720000D01*
X113114236Y-63438691D01*
X113032182Y-63168192D01*
X112898932Y-62918899D01*
X112719608Y-62700392D01*
X112501101Y-62521068D01*
X112251808Y-62387818D01*
X111981309Y-62305764D01*
X111770492Y-62285000D01*
X111229508Y-62285000D01*
X111018691Y-62305764D01*
X110748192Y-62387818D01*
X110498899Y-62521068D01*
X110280392Y-62700392D01*
X110101068Y-62918899D01*
X109967818Y-63168192D01*
X109885764Y-63438691D01*
X109858057Y-63720000D01*
X109885764Y-64001309D01*
X109967818Y-64271808D01*
X110101068Y-64521101D01*
X110280392Y-64739608D01*
X110498899Y-64918932D01*
X110631858Y-64990000D01*
X110498899Y-65061068D01*
X110280392Y-65240392D01*
X110101068Y-65458899D01*
X109967818Y-65708192D01*
X109885764Y-65978691D01*
X109858057Y-66260000D01*
X109885764Y-66541309D01*
X109967818Y-66811808D01*
X110101068Y-67061101D01*
X110280392Y-67279608D01*
X110498899Y-67458932D01*
X110631858Y-67530000D01*
X110498899Y-67601068D01*
X110280392Y-67780392D01*
X110101068Y-67998899D01*
X109967818Y-68248192D01*
X109885764Y-68518691D01*
X109858057Y-68800000D01*
X109885764Y-69081309D01*
X109967818Y-69351808D01*
X110101068Y-69601101D01*
X110280392Y-69819608D01*
X110498899Y-69998932D01*
X110631858Y-70070000D01*
X110498899Y-70141068D01*
X110280392Y-70320392D01*
X110101068Y-70538899D01*
X109967818Y-70788192D01*
X109885764Y-71058691D01*
X109871822Y-71200244D01*
X107826533Y-69154955D01*
X107798816Y-69121182D01*
X107664058Y-69010588D01*
X107510312Y-68928410D01*
X107343489Y-68877804D01*
X107213476Y-68864999D01*
X107213468Y-68864999D01*
X107169999Y-68860718D01*
X107126530Y-68864999D01*
X93943468Y-68864999D01*
X93899999Y-68860718D01*
X93856530Y-68864999D01*
X93856522Y-68864999D01*
X93726509Y-68877804D01*
X93559686Y-68928410D01*
X93405940Y-69010588D01*
X93271182Y-69121182D01*
X93243465Y-69154955D01*
X93193430Y-69204990D01*
X90216718Y-69204990D01*
X90254236Y-69081309D01*
X90281943Y-68800000D01*
X90254236Y-68518691D01*
X90172182Y-68248192D01*
X90038932Y-67998899D01*
X89859608Y-67780392D01*
X89641101Y-67601068D01*
X89511655Y-67531878D01*
X89529227Y-67524430D01*
X89762662Y-67365673D01*
X89960639Y-67164425D01*
X90115551Y-66928421D01*
X90221444Y-66666730D01*
X90231904Y-66609039D01*
X90109915Y-66387000D01*
X88767000Y-66387000D01*
X88767000Y-66407000D01*
X88513000Y-66407000D01*
X88513000Y-66387000D01*
X88493000Y-66387000D01*
X88493000Y-66133000D01*
X88513000Y-66133000D01*
X88513000Y-66113000D01*
X88767000Y-66113000D01*
X88767000Y-66133000D01*
X90109915Y-66133000D01*
X90231904Y-65910961D01*
X90221444Y-65853270D01*
X90115551Y-65591579D01*
X89960639Y-65355575D01*
X89762662Y-65154327D01*
X89529227Y-64995570D01*
X89511655Y-64988122D01*
X89641101Y-64918932D01*
X89859608Y-64739608D01*
X89867493Y-64730000D01*
X90801645Y-64730000D01*
X93065000Y-66993356D01*
X93065000Y-67141335D01*
X93120147Y-67418574D01*
X93228320Y-67679727D01*
X93385363Y-67914759D01*
X93585241Y-68114637D01*
X93820273Y-68271680D01*
X94081426Y-68379853D01*
X94358665Y-68435000D01*
X94641335Y-68435000D01*
X94918574Y-68379853D01*
X95179727Y-68271680D01*
X95414759Y-68114637D01*
X95614637Y-67914759D01*
X95771680Y-67679727D01*
X95879853Y-67418574D01*
X95935000Y-67141335D01*
X95935000Y-67000000D01*
X103218057Y-67000000D01*
X103245764Y-67281309D01*
X103327818Y-67551808D01*
X103461068Y-67801101D01*
X103640392Y-68019608D01*
X103858899Y-68198932D01*
X104108192Y-68332182D01*
X104378691Y-68414236D01*
X104589508Y-68435000D01*
X104730492Y-68435000D01*
X104941309Y-68414236D01*
X105211808Y-68332182D01*
X105461101Y-68198932D01*
X105679608Y-68019608D01*
X105858932Y-67801101D01*
X105992182Y-67551808D01*
X106074236Y-67281309D01*
X106101943Y-67000000D01*
X106074236Y-66718691D01*
X105992182Y-66448192D01*
X105858932Y-66198899D01*
X105679608Y-65980392D01*
X105461101Y-65801068D01*
X105211808Y-65667818D01*
X104941309Y-65585764D01*
X104730492Y-65565000D01*
X104589508Y-65565000D01*
X104378691Y-65585764D01*
X104108192Y-65667818D01*
X103858899Y-65801068D01*
X103640392Y-65980392D01*
X103461068Y-66198899D01*
X103327818Y-66448192D01*
X103245764Y-66718691D01*
X103218057Y-67000000D01*
X95935000Y-67000000D01*
X95935000Y-66858665D01*
X95879853Y-66581426D01*
X95771680Y-66320273D01*
X95614637Y-66085241D01*
X95414759Y-65885363D01*
X95179727Y-65728320D01*
X94918574Y-65620147D01*
X94641335Y-65565000D01*
X94493356Y-65565000D01*
X92105000Y-63176645D01*
X92105000Y-63146578D01*
X96323561Y-58928017D01*
X96358665Y-58935000D01*
X96641335Y-58935000D01*
X96918574Y-58879853D01*
X97179727Y-58771680D01*
X97414759Y-58614637D01*
X97614637Y-58414759D01*
X97771680Y-58179727D01*
X97879853Y-57918574D01*
X97935000Y-57641335D01*
X97935000Y-57358665D01*
X103065000Y-57358665D01*
X103065000Y-57641335D01*
X103120147Y-57918574D01*
X103228320Y-58179727D01*
X103385363Y-58414759D01*
X103585241Y-58614637D01*
X103820273Y-58771680D01*
X104081426Y-58879853D01*
X104358665Y-58935000D01*
X104641335Y-58935000D01*
X104918574Y-58879853D01*
X105179727Y-58771680D01*
X105414759Y-58614637D01*
X105614637Y-58414759D01*
X105771680Y-58179727D01*
X105879853Y-57918574D01*
X105935000Y-57641335D01*
X105935000Y-57358665D01*
X109065000Y-57358665D01*
X109065000Y-57641335D01*
X109120147Y-57918574D01*
X109228320Y-58179727D01*
X109385363Y-58414759D01*
X109585241Y-58614637D01*
X109820273Y-58771680D01*
X110081426Y-58879853D01*
X110358665Y-58935000D01*
X110641335Y-58935000D01*
X110918574Y-58879853D01*
X111179727Y-58771680D01*
X111414759Y-58614637D01*
X111614637Y-58414759D01*
X111771680Y-58179727D01*
X111879853Y-57918574D01*
X111935000Y-57641335D01*
X111935000Y-57358665D01*
X111879853Y-57081426D01*
X111771680Y-56820273D01*
X111614637Y-56585241D01*
X111414759Y-56385363D01*
X111179727Y-56228320D01*
X110918574Y-56120147D01*
X110641335Y-56065000D01*
X110358665Y-56065000D01*
X110081426Y-56120147D01*
X109820273Y-56228320D01*
X109585241Y-56385363D01*
X109385363Y-56585241D01*
X109228320Y-56820273D01*
X109120147Y-57081426D01*
X109065000Y-57358665D01*
X105935000Y-57358665D01*
X105879853Y-57081426D01*
X105771680Y-56820273D01*
X105614637Y-56585241D01*
X105414759Y-56385363D01*
X105179727Y-56228320D01*
X104918574Y-56120147D01*
X104641335Y-56065000D01*
X104358665Y-56065000D01*
X104081426Y-56120147D01*
X103820273Y-56228320D01*
X103585241Y-56385363D01*
X103385363Y-56585241D01*
X103228320Y-56820273D01*
X103120147Y-57081426D01*
X103065000Y-57358665D01*
X97935000Y-57358665D01*
X97928017Y-57323561D01*
X99886578Y-55365001D01*
X115294551Y-55365001D01*
X115275000Y-55463288D01*
X115275000Y-55463288D01*
G37*
X115275000Y-55463288D02*
X115275000Y-55696712D01*
X115320539Y-55925652D01*
X115409866Y-56141308D01*
X115539550Y-56335394D01*
X115704606Y-56500450D01*
X115898692Y-56630134D01*
X116114348Y-56719461D01*
X116343288Y-56765000D01*
X116576712Y-56765000D01*
X116805652Y-56719461D01*
X117021308Y-56630134D01*
X117215394Y-56500450D01*
X117380450Y-56335394D01*
X117414090Y-56285048D01*
X117462463Y-56401831D01*
X117652337Y-56685998D01*
X117894002Y-56927663D01*
X118178169Y-57117537D01*
X118493919Y-57248325D01*
X118829117Y-57315000D01*
X119170883Y-57315000D01*
X119506081Y-57248325D01*
X119821831Y-57117537D01*
X120105998Y-56927663D01*
X120347663Y-56685998D01*
X120537537Y-56401831D01*
X120615000Y-56214819D01*
X120615000Y-58526575D01*
X120551185Y-58448815D01*
X120454494Y-58369463D01*
X120344180Y-58310498D01*
X120224482Y-58274188D01*
X120100000Y-58261928D01*
X119285750Y-58265000D01*
X119127000Y-58423750D01*
X119127000Y-59873000D01*
X119147000Y-59873000D01*
X119147000Y-60127000D01*
X119127000Y-60127000D01*
X119127000Y-60147000D01*
X118873000Y-60147000D01*
X118873000Y-60127000D01*
X118853000Y-60127000D01*
X118853000Y-59873000D01*
X118873000Y-59873000D01*
X118873000Y-58423750D01*
X118714250Y-58265000D01*
X117900000Y-58261928D01*
X117775518Y-58274188D01*
X117655820Y-58310498D01*
X117545506Y-58369463D01*
X117448815Y-58448815D01*
X117369463Y-58545506D01*
X117310498Y-58655820D01*
X117274188Y-58775518D01*
X117261928Y-58900000D01*
X117262784Y-59126940D01*
X117215394Y-59079550D01*
X117021308Y-58949866D01*
X116805652Y-58860539D01*
X116576712Y-58815000D01*
X116343288Y-58815000D01*
X116114348Y-58860539D01*
X115898692Y-58949866D01*
X115704606Y-59079550D01*
X115539550Y-59244606D01*
X115409866Y-59438692D01*
X115320539Y-59654348D01*
X115275000Y-59883288D01*
X115275000Y-60116712D01*
X115320539Y-60345652D01*
X115409866Y-60561308D01*
X115539550Y-60755394D01*
X115704606Y-60920450D01*
X115898692Y-61050134D01*
X116114348Y-61139461D01*
X116343288Y-61185000D01*
X116576712Y-61185000D01*
X116805652Y-61139461D01*
X117021308Y-61050134D01*
X117215394Y-60920450D01*
X117262784Y-60873060D01*
X117261928Y-61100000D01*
X117274188Y-61224482D01*
X117310498Y-61344180D01*
X117369463Y-61454494D01*
X117448815Y-61551185D01*
X117529690Y-61617557D01*
X117462463Y-61718169D01*
X117414090Y-61834952D01*
X117380450Y-61784606D01*
X117215394Y-61619550D01*
X117021308Y-61489866D01*
X116805652Y-61400539D01*
X116576712Y-61355000D01*
X116343288Y-61355000D01*
X116114348Y-61400539D01*
X115898692Y-61489866D01*
X115704606Y-61619550D01*
X115539550Y-61784606D01*
X115409866Y-61978692D01*
X115320539Y-62194348D01*
X115275000Y-62423288D01*
X115275000Y-62656712D01*
X115320539Y-62885652D01*
X115409866Y-63101308D01*
X115539550Y-63295394D01*
X115704606Y-63460450D01*
X115898692Y-63590134D01*
X116114348Y-63679461D01*
X116343288Y-63725000D01*
X116576712Y-63725000D01*
X116805652Y-63679461D01*
X117021308Y-63590134D01*
X117215394Y-63460450D01*
X117380450Y-63295394D01*
X117414090Y-63245048D01*
X117462463Y-63361831D01*
X117652337Y-63645998D01*
X117816339Y-63810000D01*
X117652337Y-63974002D01*
X117462463Y-64258169D01*
X117414090Y-64374952D01*
X117380450Y-64324606D01*
X117215394Y-64159550D01*
X117021308Y-64029866D01*
X116805652Y-63940539D01*
X116576712Y-63895000D01*
X116343288Y-63895000D01*
X116114348Y-63940539D01*
X115898692Y-64029866D01*
X115704606Y-64159550D01*
X115539550Y-64324606D01*
X115409866Y-64518692D01*
X115320539Y-64734348D01*
X115275000Y-64963288D01*
X115275000Y-65196712D01*
X115320539Y-65425652D01*
X115409866Y-65641308D01*
X115539550Y-65835394D01*
X115704606Y-66000450D01*
X115898692Y-66130134D01*
X116114348Y-66219461D01*
X116343288Y-66265000D01*
X116576712Y-66265000D01*
X116805652Y-66219461D01*
X117021308Y-66130134D01*
X117215394Y-66000450D01*
X117380450Y-65835394D01*
X117414090Y-65785048D01*
X117462463Y-65901831D01*
X117652337Y-66185998D01*
X117894002Y-66427663D01*
X118178169Y-66617537D01*
X118493919Y-66748325D01*
X118829117Y-66815000D01*
X119170883Y-66815000D01*
X119506081Y-66748325D01*
X119665001Y-66682498D01*
X119665002Y-67763569D01*
X119285750Y-67765000D01*
X119127000Y-67923750D01*
X119127000Y-69373000D01*
X119147000Y-69373000D01*
X119147000Y-69627000D01*
X119127000Y-69627000D01*
X119127000Y-69647000D01*
X118873000Y-69647000D01*
X118873000Y-69627000D01*
X118853000Y-69627000D01*
X118853000Y-69373000D01*
X118873000Y-69373000D01*
X118873000Y-67923750D01*
X118714250Y-67765000D01*
X117900000Y-67761928D01*
X117775518Y-67774188D01*
X117655820Y-67810498D01*
X117545506Y-67869463D01*
X117448815Y-67948815D01*
X117369463Y-68045506D01*
X117310498Y-68155820D01*
X117274188Y-68275518D01*
X117261928Y-68400000D01*
X117262784Y-68626940D01*
X117215394Y-68579550D01*
X117021308Y-68449866D01*
X116805652Y-68360539D01*
X116576712Y-68315000D01*
X116343288Y-68315000D01*
X116114348Y-68360539D01*
X115898692Y-68449866D01*
X115704606Y-68579550D01*
X115539550Y-68744606D01*
X115409866Y-68938692D01*
X115320539Y-69154348D01*
X115275000Y-69383288D01*
X115275000Y-69616712D01*
X115320539Y-69845652D01*
X115409866Y-70061308D01*
X115539550Y-70255394D01*
X115704606Y-70420450D01*
X115898692Y-70550134D01*
X116114348Y-70639461D01*
X116343288Y-70685000D01*
X116576712Y-70685000D01*
X116805652Y-70639461D01*
X117021308Y-70550134D01*
X117215394Y-70420450D01*
X117262784Y-70373060D01*
X117261928Y-70600000D01*
X117274188Y-70724482D01*
X117310498Y-70844180D01*
X117369463Y-70954494D01*
X117448815Y-71051185D01*
X117529690Y-71117557D01*
X117462463Y-71218169D01*
X117414090Y-71334952D01*
X117380450Y-71284606D01*
X117215394Y-71119550D01*
X117021308Y-70989866D01*
X116805652Y-70900539D01*
X116576712Y-70855000D01*
X116343288Y-70855000D01*
X116114348Y-70900539D01*
X115898692Y-70989866D01*
X115704606Y-71119550D01*
X115539550Y-71284606D01*
X115409866Y-71478692D01*
X115320539Y-71694348D01*
X115275000Y-71923288D01*
X115275000Y-72156712D01*
X115320539Y-72385652D01*
X115409866Y-72601308D01*
X115472468Y-72694999D01*
X113851231Y-72694999D01*
X113807762Y-72690718D01*
X113764293Y-72694999D01*
X113764285Y-72694999D01*
X113634272Y-72707804D01*
X113467449Y-72758410D01*
X113398256Y-72795394D01*
X113313703Y-72840588D01*
X113212715Y-72923467D01*
X113212713Y-72923469D01*
X113178945Y-72951182D01*
X113151232Y-72984950D01*
X112954090Y-73182092D01*
X112898932Y-73078899D01*
X112719608Y-72860392D01*
X112501101Y-72681068D01*
X112368142Y-72610000D01*
X112501101Y-72538932D01*
X112719608Y-72359608D01*
X112898932Y-72141101D01*
X113032182Y-71891808D01*
X113114236Y-71621309D01*
X113141943Y-71340000D01*
X113114236Y-71058691D01*
X113032182Y-70788192D01*
X112898932Y-70538899D01*
X112719608Y-70320392D01*
X112501101Y-70141068D01*
X112368142Y-70070000D01*
X112501101Y-69998932D01*
X112719608Y-69819608D01*
X112898932Y-69601101D01*
X113032182Y-69351808D01*
X113114236Y-69081309D01*
X113141943Y-68800000D01*
X113114236Y-68518691D01*
X113032182Y-68248192D01*
X112898932Y-67998899D01*
X112719608Y-67780392D01*
X112501101Y-67601068D01*
X112368142Y-67530000D01*
X112501101Y-67458932D01*
X112719608Y-67279608D01*
X112898932Y-67061101D01*
X113032182Y-66811808D01*
X113114236Y-66541309D01*
X113141943Y-66260000D01*
X113114236Y-65978691D01*
X113032182Y-65708192D01*
X112898932Y-65458899D01*
X112719608Y-65240392D01*
X112501101Y-65061068D01*
X112368142Y-64990000D01*
X112501101Y-64918932D01*
X112719608Y-64739608D01*
X112898932Y-64521101D01*
X113032182Y-64271808D01*
X113114236Y-64001309D01*
X113141943Y-63720000D01*
X113114236Y-63438691D01*
X113032182Y-63168192D01*
X112898932Y-62918899D01*
X112719608Y-62700392D01*
X112501101Y-62521068D01*
X112251808Y-62387818D01*
X111981309Y-62305764D01*
X111770492Y-62285000D01*
X111229508Y-62285000D01*
X111018691Y-62305764D01*
X110748192Y-62387818D01*
X110498899Y-62521068D01*
X110280392Y-62700392D01*
X110101068Y-62918899D01*
X109967818Y-63168192D01*
X109885764Y-63438691D01*
X109858057Y-63720000D01*
X109885764Y-64001309D01*
X109967818Y-64271808D01*
X110101068Y-64521101D01*
X110280392Y-64739608D01*
X110498899Y-64918932D01*
X110631858Y-64990000D01*
X110498899Y-65061068D01*
X110280392Y-65240392D01*
X110101068Y-65458899D01*
X109967818Y-65708192D01*
X109885764Y-65978691D01*
X109858057Y-66260000D01*
X109885764Y-66541309D01*
X109967818Y-66811808D01*
X110101068Y-67061101D01*
X110280392Y-67279608D01*
X110498899Y-67458932D01*
X110631858Y-67530000D01*
X110498899Y-67601068D01*
X110280392Y-67780392D01*
X110101068Y-67998899D01*
X109967818Y-68248192D01*
X109885764Y-68518691D01*
X109858057Y-68800000D01*
X109885764Y-69081309D01*
X109967818Y-69351808D01*
X110101068Y-69601101D01*
X110280392Y-69819608D01*
X110498899Y-69998932D01*
X110631858Y-70070000D01*
X110498899Y-70141068D01*
X110280392Y-70320392D01*
X110101068Y-70538899D01*
X109967818Y-70788192D01*
X109885764Y-71058691D01*
X109871822Y-71200244D01*
X107826533Y-69154955D01*
X107798816Y-69121182D01*
X107664058Y-69010588D01*
X107510312Y-68928410D01*
X107343489Y-68877804D01*
X107213476Y-68864999D01*
X107213468Y-68864999D01*
X107169999Y-68860718D01*
X107126530Y-68864999D01*
X93943468Y-68864999D01*
X93899999Y-68860718D01*
X93856530Y-68864999D01*
X93856522Y-68864999D01*
X93726509Y-68877804D01*
X93559686Y-68928410D01*
X93405940Y-69010588D01*
X93271182Y-69121182D01*
X93243465Y-69154955D01*
X93193430Y-69204990D01*
X90216718Y-69204990D01*
X90254236Y-69081309D01*
X90281943Y-68800000D01*
X90254236Y-68518691D01*
X90172182Y-68248192D01*
X90038932Y-67998899D01*
X89859608Y-67780392D01*
X89641101Y-67601068D01*
X89511655Y-67531878D01*
X89529227Y-67524430D01*
X89762662Y-67365673D01*
X89960639Y-67164425D01*
X90115551Y-66928421D01*
X90221444Y-66666730D01*
X90231904Y-66609039D01*
X90109915Y-66387000D01*
X88767000Y-66387000D01*
X88767000Y-66407000D01*
X88513000Y-66407000D01*
X88513000Y-66387000D01*
X88493000Y-66387000D01*
X88493000Y-66133000D01*
X88513000Y-66133000D01*
X88513000Y-66113000D01*
X88767000Y-66113000D01*
X88767000Y-66133000D01*
X90109915Y-66133000D01*
X90231904Y-65910961D01*
X90221444Y-65853270D01*
X90115551Y-65591579D01*
X89960639Y-65355575D01*
X89762662Y-65154327D01*
X89529227Y-64995570D01*
X89511655Y-64988122D01*
X89641101Y-64918932D01*
X89859608Y-64739608D01*
X89867493Y-64730000D01*
X90801645Y-64730000D01*
X93065000Y-66993356D01*
X93065000Y-67141335D01*
X93120147Y-67418574D01*
X93228320Y-67679727D01*
X93385363Y-67914759D01*
X93585241Y-68114637D01*
X93820273Y-68271680D01*
X94081426Y-68379853D01*
X94358665Y-68435000D01*
X94641335Y-68435000D01*
X94918574Y-68379853D01*
X95179727Y-68271680D01*
X95414759Y-68114637D01*
X95614637Y-67914759D01*
X95771680Y-67679727D01*
X95879853Y-67418574D01*
X95935000Y-67141335D01*
X95935000Y-67000000D01*
X103218057Y-67000000D01*
X103245764Y-67281309D01*
X103327818Y-67551808D01*
X103461068Y-67801101D01*
X103640392Y-68019608D01*
X103858899Y-68198932D01*
X104108192Y-68332182D01*
X104378691Y-68414236D01*
X104589508Y-68435000D01*
X104730492Y-68435000D01*
X104941309Y-68414236D01*
X105211808Y-68332182D01*
X105461101Y-68198932D01*
X105679608Y-68019608D01*
X105858932Y-67801101D01*
X105992182Y-67551808D01*
X106074236Y-67281309D01*
X106101943Y-67000000D01*
X106074236Y-66718691D01*
X105992182Y-66448192D01*
X105858932Y-66198899D01*
X105679608Y-65980392D01*
X105461101Y-65801068D01*
X105211808Y-65667818D01*
X104941309Y-65585764D01*
X104730492Y-65565000D01*
X104589508Y-65565000D01*
X104378691Y-65585764D01*
X104108192Y-65667818D01*
X103858899Y-65801068D01*
X103640392Y-65980392D01*
X103461068Y-66198899D01*
X103327818Y-66448192D01*
X103245764Y-66718691D01*
X103218057Y-67000000D01*
X95935000Y-67000000D01*
X95935000Y-66858665D01*
X95879853Y-66581426D01*
X95771680Y-66320273D01*
X95614637Y-66085241D01*
X95414759Y-65885363D01*
X95179727Y-65728320D01*
X94918574Y-65620147D01*
X94641335Y-65565000D01*
X94493356Y-65565000D01*
X92105000Y-63176645D01*
X92105000Y-63146578D01*
X96323561Y-58928017D01*
X96358665Y-58935000D01*
X96641335Y-58935000D01*
X96918574Y-58879853D01*
X97179727Y-58771680D01*
X97414759Y-58614637D01*
X97614637Y-58414759D01*
X97771680Y-58179727D01*
X97879853Y-57918574D01*
X97935000Y-57641335D01*
X97935000Y-57358665D01*
X103065000Y-57358665D01*
X103065000Y-57641335D01*
X103120147Y-57918574D01*
X103228320Y-58179727D01*
X103385363Y-58414759D01*
X103585241Y-58614637D01*
X103820273Y-58771680D01*
X104081426Y-58879853D01*
X104358665Y-58935000D01*
X104641335Y-58935000D01*
X104918574Y-58879853D01*
X105179727Y-58771680D01*
X105414759Y-58614637D01*
X105614637Y-58414759D01*
X105771680Y-58179727D01*
X105879853Y-57918574D01*
X105935000Y-57641335D01*
X105935000Y-57358665D01*
X109065000Y-57358665D01*
X109065000Y-57641335D01*
X109120147Y-57918574D01*
X109228320Y-58179727D01*
X109385363Y-58414759D01*
X109585241Y-58614637D01*
X109820273Y-58771680D01*
X110081426Y-58879853D01*
X110358665Y-58935000D01*
X110641335Y-58935000D01*
X110918574Y-58879853D01*
X111179727Y-58771680D01*
X111414759Y-58614637D01*
X111614637Y-58414759D01*
X111771680Y-58179727D01*
X111879853Y-57918574D01*
X111935000Y-57641335D01*
X111935000Y-57358665D01*
X111879853Y-57081426D01*
X111771680Y-56820273D01*
X111614637Y-56585241D01*
X111414759Y-56385363D01*
X111179727Y-56228320D01*
X110918574Y-56120147D01*
X110641335Y-56065000D01*
X110358665Y-56065000D01*
X110081426Y-56120147D01*
X109820273Y-56228320D01*
X109585241Y-56385363D01*
X109385363Y-56585241D01*
X109228320Y-56820273D01*
X109120147Y-57081426D01*
X109065000Y-57358665D01*
X105935000Y-57358665D01*
X105879853Y-57081426D01*
X105771680Y-56820273D01*
X105614637Y-56585241D01*
X105414759Y-56385363D01*
X105179727Y-56228320D01*
X104918574Y-56120147D01*
X104641335Y-56065000D01*
X104358665Y-56065000D01*
X104081426Y-56120147D01*
X103820273Y-56228320D01*
X103585241Y-56385363D01*
X103385363Y-56585241D01*
X103228320Y-56820273D01*
X103120147Y-57081426D01*
X103065000Y-57358665D01*
X97935000Y-57358665D01*
X97928017Y-57323561D01*
X99886578Y-55365001D01*
X115294551Y-55365001D01*
X115275000Y-55463288D01*
G36*
X84127000Y-59713000D02*
G01*
X84147000Y-59713000D01*
X84147000Y-59967000D01*
X84127000Y-59967000D01*
X84127000Y-61109915D01*
X84349039Y-61231904D01*
X84365001Y-61227062D01*
X84365002Y-65566522D01*
X84360720Y-65610001D01*
X84377806Y-65783491D01*
X84428413Y-65950314D01*
X84510591Y-66104060D01*
X84593469Y-66205047D01*
X84593472Y-66205050D01*
X84621185Y-66238818D01*
X84654952Y-66266530D01*
X87015125Y-68626704D01*
X86998057Y-68800000D01*
X87025764Y-69081309D01*
X87035984Y-69115000D01*
X85134521Y-69115000D01*
X85114637Y-69085241D01*
X84914759Y-68885363D01*
X84679727Y-68728320D01*
X84418574Y-68620147D01*
X84141335Y-68565000D01*
X83858665Y-68565000D01*
X83635000Y-68609490D01*
X83635000Y-61227063D01*
X83650961Y-61231904D01*
X83873000Y-61109915D01*
X83873000Y-59967000D01*
X83853000Y-59967000D01*
X83853000Y-59713000D01*
X83873000Y-59713000D01*
X83873000Y-59693000D01*
X84127000Y-59693000D01*
X84127000Y-59713000D01*
X84127000Y-59713000D01*
G37*
X84127000Y-59713000D02*
X84147000Y-59713000D01*
X84147000Y-59967000D01*
X84127000Y-59967000D01*
X84127000Y-61109915D01*
X84349039Y-61231904D01*
X84365001Y-61227062D01*
X84365002Y-65566522D01*
X84360720Y-65610001D01*
X84377806Y-65783491D01*
X84428413Y-65950314D01*
X84510591Y-66104060D01*
X84593469Y-66205047D01*
X84593472Y-66205050D01*
X84621185Y-66238818D01*
X84654952Y-66266530D01*
X87015125Y-68626704D01*
X86998057Y-68800000D01*
X87025764Y-69081309D01*
X87035984Y-69115000D01*
X85134521Y-69115000D01*
X85114637Y-69085241D01*
X84914759Y-68885363D01*
X84679727Y-68728320D01*
X84418574Y-68620147D01*
X84141335Y-68565000D01*
X83858665Y-68565000D01*
X83635000Y-68609490D01*
X83635000Y-61227063D01*
X83650961Y-61231904D01*
X83873000Y-61109915D01*
X83873000Y-59967000D01*
X83853000Y-59967000D01*
X83853000Y-59713000D01*
X83873000Y-59713000D01*
X83873000Y-59693000D01*
X84127000Y-59693000D01*
X84127000Y-59713000D01*
M02*
