G04 #@! TF.GenerationSoftware,KiCad,Pcbnew,(5.1.4)-1*
G04 #@! TF.CreationDate,2019-09-14T16:31:11+02:00*
G04 #@! TF.ProjectId,virtual_clues,76697274-7561-46c5-9f63-6c7565732e6b,rev?*
G04 #@! TF.SameCoordinates,Original*
G04 #@! TF.FileFunction,Copper,L1,Top*
G04 #@! TF.FilePolarity,Positive*
%FSLAX46Y46*%
G04 Gerber Fmt 4.6, Leading zero omitted, Abs format (unit mm)*
G04 Created by KiCad (PCBNEW (5.1.4)-1) date 2019-09-14 16:31:11*
%MOMM*%
%LPD*%
G04 APERTURE LIST*
%ADD10C,4.000000*%
%ADD11C,1.600000*%
%ADD12R,1.600000X1.600000*%
%ADD13R,1.800000X1.800000*%
%ADD14C,1.800000*%
%ADD15C,2.600000*%
%ADD16R,2.600000X2.600000*%
%ADD17C,2.200000*%
%ADD18R,2.200000X2.200000*%
%ADD19O,1.600000X1.600000*%
%ADD20R,2.000000X1.905000*%
%ADD21O,2.000000X1.905000*%
%ADD22O,2.000000X1.600000*%
%ADD23R,2.000000X2.000000*%
%ADD24C,0.800000*%
%ADD25C,0.750000*%
%ADD26C,0.500000*%
%ADD27C,0.250000*%
%ADD28C,0.254000*%
G04 APERTURE END LIST*
D10*
X71000000Y-105500000D03*
X125000000Y-105500000D03*
X125000000Y-42000000D03*
X71000000Y-42000000D03*
D11*
X119000000Y-100000000D03*
D12*
X119000000Y-97500000D03*
D11*
X110500000Y-104000000D03*
D12*
X110500000Y-106000000D03*
D11*
X110500000Y-100000000D03*
D12*
X110500000Y-97500000D03*
D13*
X82500000Y-42500000D03*
D14*
X79960000Y-42500000D03*
D15*
X78500000Y-99000000D03*
D16*
X78500000Y-104000000D03*
D14*
X89460000Y-42500000D03*
D13*
X92000000Y-42500000D03*
D11*
X88000000Y-104000000D03*
D12*
X88000000Y-99000000D03*
D16*
X78500000Y-90000000D03*
D15*
X78500000Y-85000000D03*
D17*
X119000000Y-65580000D03*
X119000000Y-63040000D03*
D18*
X119000000Y-60500000D03*
X119000000Y-73500000D03*
D17*
X119000000Y-76040000D03*
X119000000Y-78580000D03*
X119000000Y-81120000D03*
D18*
X119000000Y-48000000D03*
D17*
X119000000Y-50540000D03*
X119000000Y-53080000D03*
D11*
X76500000Y-49500000D03*
D19*
X86660000Y-49500000D03*
X113160000Y-49500000D03*
D11*
X103000000Y-49500000D03*
D19*
X89840000Y-49500000D03*
D11*
X100000000Y-49500000D03*
D18*
X119000000Y-89000000D03*
D17*
X119000000Y-91540000D03*
D20*
X78500000Y-71000000D03*
D21*
X78500000Y-68460000D03*
X78500000Y-65920000D03*
D11*
X94500000Y-67000000D03*
D19*
X104660000Y-67000000D03*
D21*
X99000000Y-99420000D03*
X99000000Y-101960000D03*
D20*
X99000000Y-104500000D03*
D22*
X111500000Y-78960000D03*
D23*
X111500000Y-81500000D03*
D22*
X111500000Y-76420000D03*
X111500000Y-73880000D03*
X111500000Y-71340000D03*
X111500000Y-68800000D03*
X111500000Y-66260000D03*
X111500000Y-63720000D03*
X88640000Y-63720000D03*
X88640000Y-66260000D03*
X88640000Y-68800000D03*
X88640000Y-71340000D03*
X88640000Y-73880000D03*
X88640000Y-76420000D03*
X88640000Y-78960000D03*
X88640000Y-81500000D03*
D13*
X112000000Y-43000000D03*
D14*
X109460000Y-43000000D03*
D11*
X84000000Y-71500000D03*
D19*
X84000000Y-61340000D03*
D11*
X94500000Y-71000000D03*
D19*
X104660000Y-71000000D03*
D24*
X114500000Y-55000000D03*
X77000000Y-79000000D03*
D25*
X80550000Y-104000000D02*
X88000000Y-104000000D01*
X78500000Y-104000000D02*
X80550000Y-104000000D01*
X80500000Y-85000000D02*
X78500000Y-85000000D01*
X82500000Y-87000000D02*
X80500000Y-85000000D01*
X82500000Y-96838477D02*
X82500000Y-87000000D01*
X80338477Y-99000000D02*
X82500000Y-96838477D01*
X76661523Y-85000000D02*
X75500000Y-83838477D01*
X78500000Y-85000000D02*
X76661523Y-85000000D01*
X75500000Y-50500000D02*
X76500000Y-49500000D01*
X75500000Y-83838477D02*
X75500000Y-50500000D01*
X80338477Y-99000000D02*
X88000000Y-99000000D01*
X78500000Y-99000000D02*
X80338477Y-99000000D01*
D26*
X117080000Y-55000000D02*
X119000000Y-53080000D01*
X114500000Y-55000000D02*
X117080000Y-55000000D01*
D27*
X119000000Y-65580000D02*
X120420000Y-65580000D01*
X120420000Y-65580000D02*
X121000000Y-65000000D01*
X121000000Y-55080000D02*
X119000000Y-53080000D01*
X121000000Y-65000000D02*
X121000000Y-55080000D01*
X95299999Y-67799999D02*
X94500000Y-67000000D01*
X95299999Y-70200001D02*
X95299999Y-67799999D01*
X94500000Y-71000000D02*
X95299999Y-70200001D01*
D25*
X76924999Y-78924999D02*
X77000000Y-79000000D01*
X76924999Y-69587499D02*
X76924999Y-78924999D01*
X78500000Y-68460000D02*
X78052498Y-68460000D01*
X78052498Y-68460000D02*
X76924999Y-69587499D01*
X103860001Y-71799999D02*
X104660000Y-71000000D01*
X103284999Y-72375001D02*
X103860001Y-71799999D01*
X91425001Y-72375001D02*
X103284999Y-72375001D01*
X90390000Y-71340000D02*
X91425001Y-72375001D01*
X88640000Y-71340000D02*
X90390000Y-71340000D01*
D26*
X88840000Y-68800000D02*
X88640000Y-68800000D01*
X109460000Y-48180000D02*
X88840000Y-68800000D01*
X109460000Y-43000000D02*
X109460000Y-48180000D01*
X117900001Y-92639999D02*
X119000000Y-91540000D01*
X116079997Y-92639999D02*
X117900001Y-92639999D01*
X115459999Y-92020001D02*
X116079997Y-92639999D01*
X115459999Y-82719999D02*
X115459999Y-92020001D01*
X111700000Y-78960000D02*
X115459999Y-82719999D01*
X111500000Y-78960000D02*
X111700000Y-78960000D01*
D25*
X111300000Y-78960000D02*
X111500000Y-78960000D01*
X107500000Y-75160000D02*
X111300000Y-78960000D01*
X107500000Y-69840000D02*
X107500000Y-75160000D01*
X104660000Y-67000000D02*
X107500000Y-69840000D01*
D28*
G36*
X127345154Y-104276114D02*
G01*
X127335107Y-104251859D01*
X127046738Y-103820285D01*
X126679715Y-103453262D01*
X126248141Y-103164893D01*
X125768601Y-102966261D01*
X125259525Y-102865000D01*
X124740475Y-102865000D01*
X124231399Y-102966261D01*
X123751859Y-103164893D01*
X123320285Y-103453262D01*
X122953262Y-103820285D01*
X122664893Y-104251859D01*
X122466261Y-104731399D01*
X122365000Y-105240475D01*
X122365000Y-105759525D01*
X122466261Y-106268601D01*
X122664893Y-106748141D01*
X122953262Y-107179715D01*
X123320285Y-107546738D01*
X123721767Y-107815000D01*
X72278233Y-107815000D01*
X72679715Y-107546738D01*
X73046738Y-107179715D01*
X73335107Y-106748141D01*
X73533739Y-106268601D01*
X73635000Y-105759525D01*
X73635000Y-105300000D01*
X76561928Y-105300000D01*
X76574188Y-105424482D01*
X76610498Y-105544180D01*
X76669463Y-105654494D01*
X76748815Y-105751185D01*
X76845506Y-105830537D01*
X76955820Y-105889502D01*
X77075518Y-105925812D01*
X77200000Y-105938072D01*
X78214250Y-105935000D01*
X78373000Y-105776250D01*
X78373000Y-104127000D01*
X78627000Y-104127000D01*
X78627000Y-105776250D01*
X78785750Y-105935000D01*
X79800000Y-105938072D01*
X79924482Y-105925812D01*
X80044180Y-105889502D01*
X80154494Y-105830537D01*
X80251185Y-105751185D01*
X80330537Y-105654494D01*
X80389502Y-105544180D01*
X80425812Y-105424482D01*
X80438072Y-105300000D01*
X80437142Y-104992702D01*
X87186903Y-104992702D01*
X87258486Y-105236671D01*
X87513996Y-105357571D01*
X87788184Y-105426300D01*
X88070512Y-105440217D01*
X88350130Y-105398787D01*
X88616292Y-105303603D01*
X88741514Y-105236671D01*
X88813097Y-104992702D01*
X88000000Y-104179605D01*
X87186903Y-104992702D01*
X80437142Y-104992702D01*
X80435000Y-104285750D01*
X80276250Y-104127000D01*
X78627000Y-104127000D01*
X78373000Y-104127000D01*
X76723750Y-104127000D01*
X76565000Y-104285750D01*
X76561928Y-105300000D01*
X73635000Y-105300000D01*
X73635000Y-105240475D01*
X73533739Y-104731399D01*
X73335107Y-104251859D01*
X73213935Y-104070512D01*
X86559783Y-104070512D01*
X86601213Y-104350130D01*
X86696397Y-104616292D01*
X86763329Y-104741514D01*
X87007298Y-104813097D01*
X87820395Y-104000000D01*
X88179605Y-104000000D01*
X88992702Y-104813097D01*
X89236671Y-104741514D01*
X89357571Y-104486004D01*
X89426300Y-104211816D01*
X89440217Y-103929488D01*
X89398787Y-103649870D01*
X89362178Y-103547500D01*
X97361928Y-103547500D01*
X97361928Y-105452500D01*
X97374188Y-105576982D01*
X97410498Y-105696680D01*
X97469463Y-105806994D01*
X97548815Y-105903685D01*
X97645506Y-105983037D01*
X97755820Y-106042002D01*
X97875518Y-106078312D01*
X98000000Y-106090572D01*
X100000000Y-106090572D01*
X100124482Y-106078312D01*
X100244180Y-106042002D01*
X100354494Y-105983037D01*
X100451185Y-105903685D01*
X100530537Y-105806994D01*
X100589502Y-105696680D01*
X100625812Y-105576982D01*
X100638072Y-105452500D01*
X100638072Y-104070512D01*
X109059783Y-104070512D01*
X109101213Y-104350130D01*
X109196397Y-104616292D01*
X109261616Y-104738309D01*
X109248815Y-104748815D01*
X109169463Y-104845506D01*
X109110498Y-104955820D01*
X109074188Y-105075518D01*
X109061928Y-105200000D01*
X109061928Y-106800000D01*
X109074188Y-106924482D01*
X109110498Y-107044180D01*
X109169463Y-107154494D01*
X109248815Y-107251185D01*
X109345506Y-107330537D01*
X109455820Y-107389502D01*
X109575518Y-107425812D01*
X109700000Y-107438072D01*
X111300000Y-107438072D01*
X111424482Y-107425812D01*
X111544180Y-107389502D01*
X111654494Y-107330537D01*
X111751185Y-107251185D01*
X111830537Y-107154494D01*
X111889502Y-107044180D01*
X111925812Y-106924482D01*
X111938072Y-106800000D01*
X111938072Y-105200000D01*
X111925812Y-105075518D01*
X111889502Y-104955820D01*
X111830537Y-104845506D01*
X111751185Y-104748815D01*
X111738242Y-104738193D01*
X111857571Y-104486004D01*
X111926300Y-104211816D01*
X111940217Y-103929488D01*
X111898787Y-103649870D01*
X111803603Y-103383708D01*
X111736671Y-103258486D01*
X111492702Y-103186903D01*
X110679605Y-104000000D01*
X110693748Y-104014143D01*
X110514143Y-104193748D01*
X110500000Y-104179605D01*
X110485858Y-104193748D01*
X110306253Y-104014143D01*
X110320395Y-104000000D01*
X109507298Y-103186903D01*
X109263329Y-103258486D01*
X109142429Y-103513996D01*
X109073700Y-103788184D01*
X109059783Y-104070512D01*
X100638072Y-104070512D01*
X100638072Y-103547500D01*
X100625812Y-103423018D01*
X100589502Y-103303320D01*
X100530537Y-103193006D01*
X100451185Y-103096315D01*
X100354494Y-103016963D01*
X100336413Y-103007298D01*
X109686903Y-103007298D01*
X110500000Y-103820395D01*
X111313097Y-103007298D01*
X111241514Y-102763329D01*
X110986004Y-102642429D01*
X110711816Y-102573700D01*
X110429488Y-102559783D01*
X110149870Y-102601213D01*
X109883708Y-102696397D01*
X109758486Y-102763329D01*
X109686903Y-103007298D01*
X100336413Y-103007298D01*
X100262781Y-102967941D01*
X100375969Y-102826923D01*
X100519571Y-102551094D01*
X100590563Y-102332980D01*
X100470594Y-102087000D01*
X99127000Y-102087000D01*
X99127000Y-102107000D01*
X98873000Y-102107000D01*
X98873000Y-102087000D01*
X97529406Y-102087000D01*
X97409437Y-102332980D01*
X97480429Y-102551094D01*
X97624031Y-102826923D01*
X97737219Y-102967941D01*
X97645506Y-103016963D01*
X97548815Y-103096315D01*
X97469463Y-103193006D01*
X97410498Y-103303320D01*
X97374188Y-103423018D01*
X97361928Y-103547500D01*
X89362178Y-103547500D01*
X89303603Y-103383708D01*
X89236671Y-103258486D01*
X88992702Y-103186903D01*
X88179605Y-104000000D01*
X87820395Y-104000000D01*
X87007298Y-103186903D01*
X86763329Y-103258486D01*
X86642429Y-103513996D01*
X86573700Y-103788184D01*
X86559783Y-104070512D01*
X73213935Y-104070512D01*
X73046738Y-103820285D01*
X72679715Y-103453262D01*
X72248141Y-103164893D01*
X71768601Y-102966261D01*
X71259525Y-102865000D01*
X70740475Y-102865000D01*
X70231399Y-102966261D01*
X69751859Y-103164893D01*
X69320285Y-103453262D01*
X68953262Y-103820285D01*
X68664893Y-104251859D01*
X68466261Y-104731399D01*
X68365000Y-105240475D01*
X68365000Y-105759525D01*
X68466261Y-106268601D01*
X68664893Y-106748141D01*
X68953262Y-107179715D01*
X69320285Y-107546738D01*
X69721767Y-107815000D01*
X68185000Y-107815000D01*
X68185000Y-102700000D01*
X76561928Y-102700000D01*
X76565000Y-103714250D01*
X76723750Y-103873000D01*
X78373000Y-103873000D01*
X78373000Y-102223750D01*
X78627000Y-102223750D01*
X78627000Y-103873000D01*
X80276250Y-103873000D01*
X80435000Y-103714250D01*
X80437141Y-103007298D01*
X87186903Y-103007298D01*
X88000000Y-103820395D01*
X88813097Y-103007298D01*
X88741514Y-102763329D01*
X88486004Y-102642429D01*
X88211816Y-102573700D01*
X87929488Y-102559783D01*
X87649870Y-102601213D01*
X87383708Y-102696397D01*
X87258486Y-102763329D01*
X87186903Y-103007298D01*
X80437141Y-103007298D01*
X80438072Y-102700000D01*
X80425812Y-102575518D01*
X80389502Y-102455820D01*
X80330537Y-102345506D01*
X80251185Y-102248815D01*
X80154494Y-102169463D01*
X80044180Y-102110498D01*
X79924482Y-102074188D01*
X79800000Y-102061928D01*
X78785750Y-102065000D01*
X78627000Y-102223750D01*
X78373000Y-102223750D01*
X78214250Y-102065000D01*
X77200000Y-102061928D01*
X77075518Y-102074188D01*
X76955820Y-102110498D01*
X76845506Y-102169463D01*
X76748815Y-102248815D01*
X76669463Y-102345506D01*
X76610498Y-102455820D01*
X76574188Y-102575518D01*
X76561928Y-102700000D01*
X68185000Y-102700000D01*
X68185000Y-88700000D01*
X76561928Y-88700000D01*
X76561928Y-91300000D01*
X76574188Y-91424482D01*
X76610498Y-91544180D01*
X76669463Y-91654494D01*
X76748815Y-91751185D01*
X76845506Y-91830537D01*
X76955820Y-91889502D01*
X77075518Y-91925812D01*
X77200000Y-91938072D01*
X79800000Y-91938072D01*
X79924482Y-91925812D01*
X80044180Y-91889502D01*
X80154494Y-91830537D01*
X80251185Y-91751185D01*
X80330537Y-91654494D01*
X80389502Y-91544180D01*
X80425812Y-91424482D01*
X80438072Y-91300000D01*
X80438072Y-88700000D01*
X80425812Y-88575518D01*
X80389502Y-88455820D01*
X80330537Y-88345506D01*
X80251185Y-88248815D01*
X80154494Y-88169463D01*
X80044180Y-88110498D01*
X79924482Y-88074188D01*
X79800000Y-88061928D01*
X77200000Y-88061928D01*
X77075518Y-88074188D01*
X76955820Y-88110498D01*
X76845506Y-88169463D01*
X76748815Y-88248815D01*
X76669463Y-88345506D01*
X76610498Y-88455820D01*
X76574188Y-88575518D01*
X76561928Y-88700000D01*
X68185000Y-88700000D01*
X68185000Y-50500000D01*
X74485114Y-50500000D01*
X74490001Y-50549618D01*
X74490000Y-83788869D01*
X74485114Y-83838477D01*
X74501478Y-84004615D01*
X74504615Y-84036470D01*
X74562368Y-84226856D01*
X74656153Y-84402317D01*
X74782367Y-84556110D01*
X74820906Y-84587738D01*
X75912266Y-85679099D01*
X75943890Y-85717633D01*
X76097683Y-85843847D01*
X76233731Y-85916566D01*
X76273143Y-85937632D01*
X76463528Y-85995385D01*
X76661523Y-86014886D01*
X76711131Y-86010000D01*
X76847655Y-86010000D01*
X76996987Y-86233491D01*
X77266509Y-86503013D01*
X77583434Y-86714775D01*
X77935581Y-86860639D01*
X78309419Y-86935000D01*
X78690581Y-86935000D01*
X79064419Y-86860639D01*
X79416566Y-86714775D01*
X79733491Y-86503013D01*
X80003013Y-86233491D01*
X80124026Y-86052381D01*
X81490001Y-87418356D01*
X81490000Y-96420122D01*
X80059329Y-97850793D01*
X80003013Y-97766509D01*
X79733491Y-97496987D01*
X79416566Y-97285225D01*
X79064419Y-97139361D01*
X78690581Y-97065000D01*
X78309419Y-97065000D01*
X77935581Y-97139361D01*
X77583434Y-97285225D01*
X77266509Y-97496987D01*
X76996987Y-97766509D01*
X76785225Y-98083434D01*
X76639361Y-98435581D01*
X76565000Y-98809419D01*
X76565000Y-99190581D01*
X76639361Y-99564419D01*
X76785225Y-99916566D01*
X76996987Y-100233491D01*
X77266509Y-100503013D01*
X77583434Y-100714775D01*
X77935581Y-100860639D01*
X78309419Y-100935000D01*
X78690581Y-100935000D01*
X79064419Y-100860639D01*
X79416566Y-100714775D01*
X79733491Y-100503013D01*
X80003013Y-100233491D01*
X80152345Y-100010000D01*
X80288869Y-100010000D01*
X80338477Y-100014886D01*
X80388085Y-100010000D01*
X86600130Y-100010000D01*
X86610498Y-100044180D01*
X86669463Y-100154494D01*
X86748815Y-100251185D01*
X86845506Y-100330537D01*
X86955820Y-100389502D01*
X87075518Y-100425812D01*
X87200000Y-100438072D01*
X88800000Y-100438072D01*
X88924482Y-100425812D01*
X89044180Y-100389502D01*
X89154494Y-100330537D01*
X89251185Y-100251185D01*
X89330537Y-100154494D01*
X89389502Y-100044180D01*
X89425812Y-99924482D01*
X89438072Y-99800000D01*
X89438072Y-99420000D01*
X97357319Y-99420000D01*
X97387970Y-99731204D01*
X97478745Y-100030449D01*
X97626155Y-100306235D01*
X97824537Y-100547963D01*
X98003899Y-100695163D01*
X97818685Y-100850563D01*
X97624031Y-101093077D01*
X97480429Y-101368906D01*
X97409437Y-101587020D01*
X97529406Y-101833000D01*
X98873000Y-101833000D01*
X98873000Y-101813000D01*
X99127000Y-101813000D01*
X99127000Y-101833000D01*
X100470594Y-101833000D01*
X100590563Y-101587020D01*
X100519571Y-101368906D01*
X100375969Y-101093077D01*
X100295403Y-100992702D01*
X109686903Y-100992702D01*
X109758486Y-101236671D01*
X110013996Y-101357571D01*
X110288184Y-101426300D01*
X110570512Y-101440217D01*
X110850130Y-101398787D01*
X111116292Y-101303603D01*
X111241514Y-101236671D01*
X111313097Y-100992702D01*
X118186903Y-100992702D01*
X118258486Y-101236671D01*
X118513996Y-101357571D01*
X118788184Y-101426300D01*
X119070512Y-101440217D01*
X119350130Y-101398787D01*
X119616292Y-101303603D01*
X119741514Y-101236671D01*
X119813097Y-100992702D01*
X119000000Y-100179605D01*
X118186903Y-100992702D01*
X111313097Y-100992702D01*
X110500000Y-100179605D01*
X109686903Y-100992702D01*
X100295403Y-100992702D01*
X100181315Y-100850563D01*
X99996101Y-100695163D01*
X100175463Y-100547963D01*
X100373845Y-100306235D01*
X100499840Y-100070512D01*
X109059783Y-100070512D01*
X109101213Y-100350130D01*
X109196397Y-100616292D01*
X109263329Y-100741514D01*
X109507298Y-100813097D01*
X110320395Y-100000000D01*
X110679605Y-100000000D01*
X111492702Y-100813097D01*
X111736671Y-100741514D01*
X111857571Y-100486004D01*
X111926300Y-100211816D01*
X111933265Y-100070512D01*
X117559783Y-100070512D01*
X117601213Y-100350130D01*
X117696397Y-100616292D01*
X117763329Y-100741514D01*
X118007298Y-100813097D01*
X118820395Y-100000000D01*
X119179605Y-100000000D01*
X119992702Y-100813097D01*
X120236671Y-100741514D01*
X120357571Y-100486004D01*
X120426300Y-100211816D01*
X120440217Y-99929488D01*
X120398787Y-99649870D01*
X120303603Y-99383708D01*
X120236671Y-99258486D01*
X119992702Y-99186903D01*
X119179605Y-100000000D01*
X118820395Y-100000000D01*
X118007298Y-99186903D01*
X117763329Y-99258486D01*
X117642429Y-99513996D01*
X117573700Y-99788184D01*
X117559783Y-100070512D01*
X111933265Y-100070512D01*
X111940217Y-99929488D01*
X111898787Y-99649870D01*
X111803603Y-99383708D01*
X111736671Y-99258486D01*
X111492702Y-99186903D01*
X110679605Y-100000000D01*
X110320395Y-100000000D01*
X109507298Y-99186903D01*
X109263329Y-99258486D01*
X109142429Y-99513996D01*
X109073700Y-99788184D01*
X109059783Y-100070512D01*
X100499840Y-100070512D01*
X100521255Y-100030449D01*
X100612030Y-99731204D01*
X100642681Y-99420000D01*
X100612030Y-99108796D01*
X100521255Y-98809551D01*
X100373845Y-98533765D01*
X100175463Y-98292037D01*
X99933735Y-98093655D01*
X99657949Y-97946245D01*
X99358704Y-97855470D01*
X99125486Y-97832500D01*
X98874514Y-97832500D01*
X98641296Y-97855470D01*
X98342051Y-97946245D01*
X98066265Y-98093655D01*
X97824537Y-98292037D01*
X97626155Y-98533765D01*
X97478745Y-98809551D01*
X97387970Y-99108796D01*
X97357319Y-99420000D01*
X89438072Y-99420000D01*
X89438072Y-98200000D01*
X89425812Y-98075518D01*
X89389502Y-97955820D01*
X89330537Y-97845506D01*
X89251185Y-97748815D01*
X89154494Y-97669463D01*
X89044180Y-97610498D01*
X88924482Y-97574188D01*
X88800000Y-97561928D01*
X87200000Y-97561928D01*
X87075518Y-97574188D01*
X86955820Y-97610498D01*
X86845506Y-97669463D01*
X86748815Y-97748815D01*
X86669463Y-97845506D01*
X86610498Y-97955820D01*
X86600130Y-97990000D01*
X82776832Y-97990000D01*
X83179094Y-97587738D01*
X83217633Y-97556110D01*
X83343847Y-97402317D01*
X83437632Y-97226857D01*
X83495385Y-97036471D01*
X83510000Y-96888085D01*
X83510000Y-96888083D01*
X83514886Y-96838478D01*
X83510000Y-96788873D01*
X83510000Y-96700000D01*
X109061928Y-96700000D01*
X109061928Y-98300000D01*
X109074188Y-98424482D01*
X109110498Y-98544180D01*
X109169463Y-98654494D01*
X109248815Y-98751185D01*
X109345506Y-98830537D01*
X109455820Y-98889502D01*
X109575518Y-98925812D01*
X109700000Y-98938072D01*
X109707215Y-98938072D01*
X109686903Y-99007298D01*
X110500000Y-99820395D01*
X111313097Y-99007298D01*
X111292785Y-98938072D01*
X111300000Y-98938072D01*
X111424482Y-98925812D01*
X111544180Y-98889502D01*
X111654494Y-98830537D01*
X111751185Y-98751185D01*
X111830537Y-98654494D01*
X111889502Y-98544180D01*
X111925812Y-98424482D01*
X111938072Y-98300000D01*
X111938072Y-96700000D01*
X117561928Y-96700000D01*
X117561928Y-98300000D01*
X117574188Y-98424482D01*
X117610498Y-98544180D01*
X117669463Y-98654494D01*
X117748815Y-98751185D01*
X117845506Y-98830537D01*
X117955820Y-98889502D01*
X118075518Y-98925812D01*
X118200000Y-98938072D01*
X118207215Y-98938072D01*
X118186903Y-99007298D01*
X119000000Y-99820395D01*
X119813097Y-99007298D01*
X119792785Y-98938072D01*
X119800000Y-98938072D01*
X119924482Y-98925812D01*
X120044180Y-98889502D01*
X120154494Y-98830537D01*
X120251185Y-98751185D01*
X120330537Y-98654494D01*
X120389502Y-98544180D01*
X120425812Y-98424482D01*
X120438072Y-98300000D01*
X120438072Y-96700000D01*
X120425812Y-96575518D01*
X120389502Y-96455820D01*
X120330537Y-96345506D01*
X120251185Y-96248815D01*
X120154494Y-96169463D01*
X120044180Y-96110498D01*
X119924482Y-96074188D01*
X119800000Y-96061928D01*
X118200000Y-96061928D01*
X118075518Y-96074188D01*
X117955820Y-96110498D01*
X117845506Y-96169463D01*
X117748815Y-96248815D01*
X117669463Y-96345506D01*
X117610498Y-96455820D01*
X117574188Y-96575518D01*
X117561928Y-96700000D01*
X111938072Y-96700000D01*
X111925812Y-96575518D01*
X111889502Y-96455820D01*
X111830537Y-96345506D01*
X111751185Y-96248815D01*
X111654494Y-96169463D01*
X111544180Y-96110498D01*
X111424482Y-96074188D01*
X111300000Y-96061928D01*
X109700000Y-96061928D01*
X109575518Y-96074188D01*
X109455820Y-96110498D01*
X109345506Y-96169463D01*
X109248815Y-96248815D01*
X109169463Y-96345506D01*
X109110498Y-96455820D01*
X109074188Y-96575518D01*
X109061928Y-96700000D01*
X83510000Y-96700000D01*
X83510000Y-87049604D01*
X83514886Y-86999999D01*
X83508484Y-86935000D01*
X83495385Y-86802006D01*
X83437632Y-86611620D01*
X83343847Y-86436160D01*
X83217633Y-86282367D01*
X83179094Y-86250739D01*
X81249261Y-84320906D01*
X81217633Y-84282367D01*
X81063840Y-84156153D01*
X80888380Y-84062368D01*
X80697994Y-84004615D01*
X80549608Y-83990000D01*
X80500000Y-83985114D01*
X80450392Y-83990000D01*
X80152345Y-83990000D01*
X80003013Y-83766509D01*
X79733491Y-83496987D01*
X79416566Y-83285225D01*
X79064419Y-83139361D01*
X78690581Y-83065000D01*
X78309419Y-83065000D01*
X77935581Y-83139361D01*
X77583434Y-83285225D01*
X77266509Y-83496987D01*
X76996987Y-83766509D01*
X76940671Y-83850792D01*
X76510000Y-83420122D01*
X76510000Y-83000000D01*
X86873000Y-83000000D01*
X86873000Y-90000000D01*
X86875440Y-90024776D01*
X86882667Y-90048601D01*
X86894403Y-90070557D01*
X86910197Y-90089803D01*
X86929443Y-90105597D01*
X86951399Y-90117333D01*
X86975224Y-90124560D01*
X87000000Y-90127000D01*
X113000000Y-90127000D01*
X113024776Y-90124560D01*
X113048601Y-90117333D01*
X113070557Y-90105597D01*
X113089803Y-90089803D01*
X113105597Y-90070557D01*
X113117333Y-90048601D01*
X113124560Y-90024776D01*
X113127000Y-90000000D01*
X113127000Y-83000000D01*
X113124560Y-82975224D01*
X113117333Y-82951399D01*
X113105597Y-82929443D01*
X113089803Y-82910197D01*
X113070557Y-82894403D01*
X113048601Y-82882667D01*
X113024776Y-82875440D01*
X113014202Y-82874399D01*
X113030537Y-82854494D01*
X113089502Y-82744180D01*
X113125812Y-82624482D01*
X113138072Y-82500000D01*
X113135000Y-81785750D01*
X112976252Y-81627002D01*
X113115424Y-81627002D01*
X114574999Y-83086578D01*
X114575000Y-91976522D01*
X114570718Y-92020001D01*
X114587804Y-92193491D01*
X114638411Y-92360314D01*
X114720589Y-92514060D01*
X114803467Y-92615047D01*
X114803470Y-92615050D01*
X114831183Y-92648818D01*
X114864950Y-92676530D01*
X115423467Y-93235048D01*
X115451180Y-93268816D01*
X115484948Y-93296529D01*
X115484950Y-93296531D01*
X115585938Y-93379410D01*
X115739683Y-93461588D01*
X115906507Y-93512194D01*
X116036520Y-93524999D01*
X116036528Y-93524999D01*
X116079997Y-93529280D01*
X116123466Y-93524999D01*
X117856532Y-93524999D01*
X117900001Y-93529280D01*
X117943470Y-93524999D01*
X117943478Y-93524999D01*
X118073491Y-93512194D01*
X118240314Y-93461588D01*
X118394060Y-93379410D01*
X118528818Y-93268816D01*
X118556535Y-93235043D01*
X118568432Y-93223146D01*
X118829117Y-93275000D01*
X119170883Y-93275000D01*
X119506081Y-93208325D01*
X119821831Y-93077537D01*
X120105998Y-92887663D01*
X120347663Y-92645998D01*
X120537537Y-92361831D01*
X120668325Y-92046081D01*
X120735000Y-91710883D01*
X120735000Y-91369117D01*
X120668325Y-91033919D01*
X120537537Y-90718169D01*
X120470310Y-90617557D01*
X120551185Y-90551185D01*
X120630537Y-90454494D01*
X120689502Y-90344180D01*
X120725812Y-90224482D01*
X120738072Y-90100000D01*
X120735000Y-89285750D01*
X120576250Y-89127000D01*
X119127000Y-89127000D01*
X119127000Y-89147000D01*
X118873000Y-89147000D01*
X118873000Y-89127000D01*
X118853000Y-89127000D01*
X118853000Y-88873000D01*
X118873000Y-88873000D01*
X118873000Y-87423750D01*
X119127000Y-87423750D01*
X119127000Y-88873000D01*
X120576250Y-88873000D01*
X120735000Y-88714250D01*
X120738072Y-87900000D01*
X120725812Y-87775518D01*
X120689502Y-87655820D01*
X120630537Y-87545506D01*
X120551185Y-87448815D01*
X120454494Y-87369463D01*
X120344180Y-87310498D01*
X120224482Y-87274188D01*
X120100000Y-87261928D01*
X119285750Y-87265000D01*
X119127000Y-87423750D01*
X118873000Y-87423750D01*
X118714250Y-87265000D01*
X117900000Y-87261928D01*
X117775518Y-87274188D01*
X117655820Y-87310498D01*
X117545506Y-87369463D01*
X117448815Y-87448815D01*
X117369463Y-87545506D01*
X117310498Y-87655820D01*
X117274188Y-87775518D01*
X117261928Y-87900000D01*
X117262784Y-88126940D01*
X117215394Y-88079550D01*
X117021308Y-87949866D01*
X116805652Y-87860539D01*
X116576712Y-87815000D01*
X116344999Y-87815000D01*
X116344999Y-82763468D01*
X116349280Y-82719999D01*
X116344999Y-82676530D01*
X116344999Y-82676522D01*
X116332194Y-82546509D01*
X116324034Y-82519608D01*
X116281588Y-82379685D01*
X116199410Y-82225940D01*
X116116531Y-82124952D01*
X116116529Y-82124950D01*
X116088816Y-82091182D01*
X116055049Y-82063470D01*
X113124875Y-79133296D01*
X113141943Y-78960000D01*
X113114236Y-78678691D01*
X113032182Y-78408192D01*
X112898932Y-78158899D01*
X112719608Y-77940392D01*
X112501101Y-77761068D01*
X112368142Y-77690000D01*
X112501101Y-77618932D01*
X112719608Y-77439608D01*
X112898932Y-77221101D01*
X113032182Y-76971808D01*
X113114236Y-76701309D01*
X113141943Y-76420000D01*
X113114236Y-76138691D01*
X113032182Y-75868192D01*
X112898932Y-75618899D01*
X112719608Y-75400392D01*
X112501101Y-75221068D01*
X112368142Y-75150000D01*
X112501101Y-75078932D01*
X112719608Y-74899608D01*
X112898932Y-74681101D01*
X112942281Y-74600000D01*
X117261928Y-74600000D01*
X117274188Y-74724482D01*
X117310498Y-74844180D01*
X117369463Y-74954494D01*
X117448815Y-75051185D01*
X117529690Y-75117557D01*
X117462463Y-75218169D01*
X117331675Y-75533919D01*
X117265000Y-75869117D01*
X117265000Y-76210883D01*
X117331675Y-76546081D01*
X117462463Y-76861831D01*
X117652337Y-77145998D01*
X117816339Y-77310000D01*
X117652337Y-77474002D01*
X117462463Y-77758169D01*
X117331675Y-78073919D01*
X117265000Y-78409117D01*
X117265000Y-78750883D01*
X117331675Y-79086081D01*
X117462463Y-79401831D01*
X117652337Y-79685998D01*
X117816339Y-79850000D01*
X117652337Y-80014002D01*
X117462463Y-80298169D01*
X117331675Y-80613919D01*
X117265000Y-80949117D01*
X117265000Y-81290883D01*
X117331675Y-81626081D01*
X117462463Y-81941831D01*
X117652337Y-82225998D01*
X117894002Y-82467663D01*
X118178169Y-82657537D01*
X118493919Y-82788325D01*
X118829117Y-82855000D01*
X119170883Y-82855000D01*
X119506081Y-82788325D01*
X119821831Y-82657537D01*
X120105998Y-82467663D01*
X120347663Y-82225998D01*
X120537537Y-81941831D01*
X120668325Y-81626081D01*
X120735000Y-81290883D01*
X120735000Y-80949117D01*
X120668325Y-80613919D01*
X120537537Y-80298169D01*
X120347663Y-80014002D01*
X120183661Y-79850000D01*
X120347663Y-79685998D01*
X120537537Y-79401831D01*
X120668325Y-79086081D01*
X120735000Y-78750883D01*
X120735000Y-78409117D01*
X120668325Y-78073919D01*
X120537537Y-77758169D01*
X120347663Y-77474002D01*
X120183661Y-77310000D01*
X120347663Y-77145998D01*
X120537537Y-76861831D01*
X120668325Y-76546081D01*
X120735000Y-76210883D01*
X120735000Y-75869117D01*
X120668325Y-75533919D01*
X120537537Y-75218169D01*
X120470310Y-75117557D01*
X120551185Y-75051185D01*
X120630537Y-74954494D01*
X120689502Y-74844180D01*
X120725812Y-74724482D01*
X120738072Y-74600000D01*
X120735000Y-73785750D01*
X120576250Y-73627000D01*
X119127000Y-73627000D01*
X119127000Y-73647000D01*
X118873000Y-73647000D01*
X118873000Y-73627000D01*
X117423750Y-73627000D01*
X117265000Y-73785750D01*
X117261928Y-74600000D01*
X112942281Y-74600000D01*
X113032182Y-74431808D01*
X113114236Y-74161309D01*
X113141943Y-73880000D01*
X113114236Y-73598691D01*
X113032182Y-73328192D01*
X112898932Y-73078899D01*
X112719608Y-72860392D01*
X112501101Y-72681068D01*
X112368142Y-72610000D01*
X112501101Y-72538932D01*
X112670390Y-72400000D01*
X117261928Y-72400000D01*
X117265000Y-73214250D01*
X117423750Y-73373000D01*
X118873000Y-73373000D01*
X118873000Y-71923750D01*
X119127000Y-71923750D01*
X119127000Y-73373000D01*
X120576250Y-73373000D01*
X120735000Y-73214250D01*
X120738072Y-72400000D01*
X120725812Y-72275518D01*
X120689502Y-72155820D01*
X120630537Y-72045506D01*
X120551185Y-71948815D01*
X120454494Y-71869463D01*
X120344180Y-71810498D01*
X120224482Y-71774188D01*
X120100000Y-71761928D01*
X119285750Y-71765000D01*
X119127000Y-71923750D01*
X118873000Y-71923750D01*
X118714250Y-71765000D01*
X117900000Y-71761928D01*
X117775518Y-71774188D01*
X117655820Y-71810498D01*
X117545506Y-71869463D01*
X117448815Y-71948815D01*
X117369463Y-72045506D01*
X117310498Y-72155820D01*
X117274188Y-72275518D01*
X117261928Y-72400000D01*
X112670390Y-72400000D01*
X112719608Y-72359608D01*
X112898932Y-72141101D01*
X113032182Y-71891808D01*
X113114236Y-71621309D01*
X113141943Y-71340000D01*
X113114236Y-71058691D01*
X113032182Y-70788192D01*
X112898932Y-70538899D01*
X112719608Y-70320392D01*
X112501101Y-70141068D01*
X112368142Y-70070000D01*
X112501101Y-69998932D01*
X112719608Y-69819608D01*
X112898932Y-69601101D01*
X113032182Y-69351808D01*
X113114236Y-69081309D01*
X113141943Y-68800000D01*
X113114236Y-68518691D01*
X113032182Y-68248192D01*
X112898932Y-67998899D01*
X112719608Y-67780392D01*
X112501101Y-67601068D01*
X112368142Y-67530000D01*
X112501101Y-67458932D01*
X112719608Y-67279608D01*
X112898932Y-67061101D01*
X113032182Y-66811808D01*
X113114236Y-66541309D01*
X113141943Y-66260000D01*
X113114236Y-65978691D01*
X113032182Y-65708192D01*
X112898932Y-65458899D01*
X112719608Y-65240392D01*
X112501101Y-65061068D01*
X112368142Y-64990000D01*
X112501101Y-64918932D01*
X112719608Y-64739608D01*
X112898932Y-64521101D01*
X113032182Y-64271808D01*
X113114236Y-64001309D01*
X113141943Y-63720000D01*
X113114236Y-63438691D01*
X113032182Y-63168192D01*
X112898932Y-62918899D01*
X112719608Y-62700392D01*
X112501101Y-62521068D01*
X112251808Y-62387818D01*
X111981309Y-62305764D01*
X111770492Y-62285000D01*
X111229508Y-62285000D01*
X111018691Y-62305764D01*
X110748192Y-62387818D01*
X110498899Y-62521068D01*
X110280392Y-62700392D01*
X110101068Y-62918899D01*
X109967818Y-63168192D01*
X109885764Y-63438691D01*
X109858057Y-63720000D01*
X109885764Y-64001309D01*
X109967818Y-64271808D01*
X110101068Y-64521101D01*
X110280392Y-64739608D01*
X110498899Y-64918932D01*
X110631858Y-64990000D01*
X110498899Y-65061068D01*
X110280392Y-65240392D01*
X110101068Y-65458899D01*
X109967818Y-65708192D01*
X109885764Y-65978691D01*
X109858057Y-66260000D01*
X109885764Y-66541309D01*
X109967818Y-66811808D01*
X110101068Y-67061101D01*
X110280392Y-67279608D01*
X110498899Y-67458932D01*
X110631858Y-67530000D01*
X110498899Y-67601068D01*
X110280392Y-67780392D01*
X110101068Y-67998899D01*
X109967818Y-68248192D01*
X109885764Y-68518691D01*
X109858057Y-68800000D01*
X109885764Y-69081309D01*
X109967818Y-69351808D01*
X110101068Y-69601101D01*
X110280392Y-69819608D01*
X110498899Y-69998932D01*
X110631858Y-70070000D01*
X110498899Y-70141068D01*
X110280392Y-70320392D01*
X110101068Y-70538899D01*
X109967818Y-70788192D01*
X109885764Y-71058691D01*
X109858057Y-71340000D01*
X109885764Y-71621309D01*
X109967818Y-71891808D01*
X110101068Y-72141101D01*
X110280392Y-72359608D01*
X110498899Y-72538932D01*
X110631858Y-72610000D01*
X110498899Y-72681068D01*
X110280392Y-72860392D01*
X110101068Y-73078899D01*
X109967818Y-73328192D01*
X109885764Y-73598691D01*
X109858057Y-73880000D01*
X109885764Y-74161309D01*
X109967818Y-74431808D01*
X110101068Y-74681101D01*
X110280392Y-74899608D01*
X110498899Y-75078932D01*
X110631858Y-75150000D01*
X110498899Y-75221068D01*
X110280392Y-75400392D01*
X110101068Y-75618899D01*
X109967818Y-75868192D01*
X109890717Y-76122362D01*
X108510000Y-74741645D01*
X108510000Y-69889608D01*
X108514886Y-69840000D01*
X108495385Y-69642005D01*
X108437632Y-69451620D01*
X108404431Y-69389505D01*
X108343847Y-69276160D01*
X108217633Y-69122367D01*
X108179100Y-69090744D01*
X106100725Y-67012369D01*
X106101943Y-67000000D01*
X106074236Y-66718691D01*
X105992182Y-66448192D01*
X105858932Y-66198899D01*
X105679608Y-65980392D01*
X105461101Y-65801068D01*
X105211808Y-65667818D01*
X104941309Y-65585764D01*
X104730492Y-65565000D01*
X104589508Y-65565000D01*
X104378691Y-65585764D01*
X104108192Y-65667818D01*
X103858899Y-65801068D01*
X103640392Y-65980392D01*
X103461068Y-66198899D01*
X103327818Y-66448192D01*
X103245764Y-66718691D01*
X103218057Y-67000000D01*
X103245764Y-67281309D01*
X103327818Y-67551808D01*
X103461068Y-67801101D01*
X103640392Y-68019608D01*
X103858899Y-68198932D01*
X104108192Y-68332182D01*
X104378691Y-68414236D01*
X104589508Y-68435000D01*
X104666645Y-68435000D01*
X106490000Y-70258356D01*
X106490001Y-75110382D01*
X106485114Y-75160000D01*
X106504615Y-75357994D01*
X106562368Y-75548379D01*
X106562369Y-75548380D01*
X106656154Y-75723840D01*
X106782368Y-75877633D01*
X106820901Y-75909256D01*
X109859275Y-78947631D01*
X109858057Y-78960000D01*
X109885764Y-79241309D01*
X109967818Y-79511808D01*
X110101068Y-79761101D01*
X110233476Y-79922441D01*
X110145506Y-79969463D01*
X110048815Y-80048815D01*
X109969463Y-80145506D01*
X109910498Y-80255820D01*
X109874188Y-80375518D01*
X109861928Y-80500000D01*
X109865000Y-81214250D01*
X110023750Y-81373000D01*
X111373000Y-81373000D01*
X111373000Y-81353000D01*
X111627000Y-81353000D01*
X111627000Y-81373000D01*
X111647000Y-81373000D01*
X111647000Y-81627000D01*
X111627000Y-81627000D01*
X111627000Y-81647000D01*
X111373000Y-81647000D01*
X111373000Y-81627000D01*
X110023750Y-81627000D01*
X109865000Y-81785750D01*
X109861928Y-82500000D01*
X109874188Y-82624482D01*
X109910498Y-82744180D01*
X109969463Y-82854494D01*
X109984650Y-82873000D01*
X89257247Y-82873000D01*
X89391808Y-82832182D01*
X89641101Y-82698932D01*
X89859608Y-82519608D01*
X90038932Y-82301101D01*
X90172182Y-82051808D01*
X90254236Y-81781309D01*
X90281943Y-81500000D01*
X90254236Y-81218691D01*
X90172182Y-80948192D01*
X90038932Y-80698899D01*
X89859608Y-80480392D01*
X89641101Y-80301068D01*
X89508142Y-80230000D01*
X89641101Y-80158932D01*
X89859608Y-79979608D01*
X90038932Y-79761101D01*
X90172182Y-79511808D01*
X90254236Y-79241309D01*
X90281943Y-78960000D01*
X90254236Y-78678691D01*
X90172182Y-78408192D01*
X90038932Y-78158899D01*
X89859608Y-77940392D01*
X89641101Y-77761068D01*
X89508142Y-77690000D01*
X89641101Y-77618932D01*
X89859608Y-77439608D01*
X90038932Y-77221101D01*
X90172182Y-76971808D01*
X90254236Y-76701309D01*
X90281943Y-76420000D01*
X90254236Y-76138691D01*
X90172182Y-75868192D01*
X90038932Y-75618899D01*
X89859608Y-75400392D01*
X89641101Y-75221068D01*
X89508142Y-75150000D01*
X89641101Y-75078932D01*
X89859608Y-74899608D01*
X90038932Y-74681101D01*
X90172182Y-74431808D01*
X90254236Y-74161309D01*
X90281943Y-73880000D01*
X90254236Y-73598691D01*
X90172182Y-73328192D01*
X90038932Y-73078899D01*
X89859608Y-72860392D01*
X89641101Y-72681068D01*
X89508142Y-72610000D01*
X89641101Y-72538932D01*
X89859608Y-72359608D01*
X89867493Y-72350000D01*
X89971645Y-72350000D01*
X90675744Y-73054100D01*
X90707368Y-73092634D01*
X90861161Y-73218848D01*
X91036621Y-73312633D01*
X91227007Y-73370386D01*
X91375393Y-73385001D01*
X91375395Y-73385001D01*
X91425000Y-73389887D01*
X91474605Y-73385001D01*
X103235391Y-73385001D01*
X103284999Y-73389887D01*
X103482993Y-73370386D01*
X103482996Y-73370385D01*
X103673379Y-73312633D01*
X103848839Y-73218848D01*
X104002632Y-73092634D01*
X104034260Y-73054095D01*
X104653355Y-72435000D01*
X104730492Y-72435000D01*
X104941309Y-72414236D01*
X105211808Y-72332182D01*
X105461101Y-72198932D01*
X105679608Y-72019608D01*
X105858932Y-71801101D01*
X105992182Y-71551808D01*
X106074236Y-71281309D01*
X106101943Y-71000000D01*
X106074236Y-70718691D01*
X105992182Y-70448192D01*
X105858932Y-70198899D01*
X105679608Y-69980392D01*
X105461101Y-69801068D01*
X105211808Y-69667818D01*
X104941309Y-69585764D01*
X104730492Y-69565000D01*
X104589508Y-69565000D01*
X104378691Y-69585764D01*
X104108192Y-69667818D01*
X103858899Y-69801068D01*
X103640392Y-69980392D01*
X103461068Y-70198899D01*
X103327818Y-70448192D01*
X103245764Y-70718691D01*
X103218057Y-71000000D01*
X103219275Y-71012370D01*
X102866644Y-71365001D01*
X95890509Y-71365001D01*
X95935000Y-71141335D01*
X95935000Y-70858665D01*
X95897467Y-70669978D01*
X95934972Y-70624278D01*
X95934973Y-70624277D01*
X96005545Y-70492248D01*
X96049002Y-70348987D01*
X96059999Y-70237334D01*
X96059999Y-70237325D01*
X96063675Y-70200002D01*
X96059999Y-70162679D01*
X96059999Y-67837321D01*
X96063675Y-67799998D01*
X96059999Y-67762675D01*
X96059999Y-67762666D01*
X96049002Y-67651013D01*
X96005545Y-67507752D01*
X95934973Y-67375723D01*
X95897467Y-67330022D01*
X95935000Y-67141335D01*
X95935000Y-66858665D01*
X95879853Y-66581426D01*
X95771680Y-66320273D01*
X95614637Y-66085241D01*
X95414759Y-65885363D01*
X95179727Y-65728320D01*
X94918574Y-65620147D01*
X94641335Y-65565000D01*
X94358665Y-65565000D01*
X94081426Y-65620147D01*
X93820273Y-65728320D01*
X93585241Y-65885363D01*
X93385363Y-66085241D01*
X93228320Y-66320273D01*
X93120147Y-66581426D01*
X93065000Y-66858665D01*
X93065000Y-67141335D01*
X93120147Y-67418574D01*
X93228320Y-67679727D01*
X93385363Y-67914759D01*
X93585241Y-68114637D01*
X93820273Y-68271680D01*
X94081426Y-68379853D01*
X94358665Y-68435000D01*
X94540000Y-68435000D01*
X94539999Y-69565000D01*
X94358665Y-69565000D01*
X94081426Y-69620147D01*
X93820273Y-69728320D01*
X93585241Y-69885363D01*
X93385363Y-70085241D01*
X93228320Y-70320273D01*
X93120147Y-70581426D01*
X93065000Y-70858665D01*
X93065000Y-71141335D01*
X93109491Y-71365001D01*
X91843357Y-71365001D01*
X91139261Y-70660906D01*
X91107633Y-70622367D01*
X90953840Y-70496153D01*
X90778380Y-70402368D01*
X90587994Y-70344615D01*
X90439608Y-70330000D01*
X90390000Y-70325114D01*
X90340392Y-70330000D01*
X89867493Y-70330000D01*
X89859608Y-70320392D01*
X89641101Y-70141068D01*
X89508142Y-70070000D01*
X89641101Y-69998932D01*
X89859608Y-69819608D01*
X90038932Y-69601101D01*
X90172182Y-69351808D01*
X90254236Y-69081309D01*
X90281943Y-68800000D01*
X90264874Y-68626704D01*
X103993517Y-54898061D01*
X113465000Y-54898061D01*
X113465000Y-55101939D01*
X113504774Y-55301898D01*
X113582795Y-55490256D01*
X113696063Y-55659774D01*
X113840226Y-55803937D01*
X114009744Y-55917205D01*
X114198102Y-55995226D01*
X114398061Y-56035000D01*
X114601939Y-56035000D01*
X114801898Y-55995226D01*
X114990256Y-55917205D01*
X115038454Y-55885000D01*
X117036531Y-55885000D01*
X117080000Y-55889281D01*
X117123469Y-55885000D01*
X117123477Y-55885000D01*
X117253490Y-55872195D01*
X117420313Y-55821589D01*
X117574059Y-55739411D01*
X117708817Y-55628817D01*
X117736534Y-55595044D01*
X118568432Y-54763147D01*
X118829117Y-54815000D01*
X119170883Y-54815000D01*
X119506081Y-54748325D01*
X119567912Y-54722714D01*
X120240001Y-55394803D01*
X120240001Y-58778896D01*
X120224482Y-58774188D01*
X120100000Y-58761928D01*
X119285750Y-58765000D01*
X119127000Y-58923750D01*
X119127000Y-60373000D01*
X119147000Y-60373000D01*
X119147000Y-60627000D01*
X119127000Y-60627000D01*
X119127000Y-60647000D01*
X118873000Y-60647000D01*
X118873000Y-60627000D01*
X118853000Y-60627000D01*
X118853000Y-60373000D01*
X118873000Y-60373000D01*
X118873000Y-58923750D01*
X118714250Y-58765000D01*
X117900000Y-58761928D01*
X117775518Y-58774188D01*
X117655820Y-58810498D01*
X117545506Y-58869463D01*
X117448815Y-58948815D01*
X117369463Y-59045506D01*
X117310498Y-59155820D01*
X117274188Y-59275518D01*
X117261928Y-59400000D01*
X117262784Y-59626940D01*
X117215394Y-59579550D01*
X117021308Y-59449866D01*
X116805652Y-59360539D01*
X116576712Y-59315000D01*
X116343288Y-59315000D01*
X116114348Y-59360539D01*
X115898692Y-59449866D01*
X115704606Y-59579550D01*
X115539550Y-59744606D01*
X115409866Y-59938692D01*
X115320539Y-60154348D01*
X115275000Y-60383288D01*
X115275000Y-60616712D01*
X115320539Y-60845652D01*
X115409866Y-61061308D01*
X115539550Y-61255394D01*
X115704606Y-61420450D01*
X115898692Y-61550134D01*
X116114348Y-61639461D01*
X116343288Y-61685000D01*
X116576712Y-61685000D01*
X116805652Y-61639461D01*
X117021308Y-61550134D01*
X117215394Y-61420450D01*
X117262784Y-61373060D01*
X117261928Y-61600000D01*
X117274188Y-61724482D01*
X117310498Y-61844180D01*
X117369463Y-61954494D01*
X117448815Y-62051185D01*
X117529690Y-62117557D01*
X117462463Y-62218169D01*
X117414090Y-62334952D01*
X117380450Y-62284606D01*
X117215394Y-62119550D01*
X117021308Y-61989866D01*
X116805652Y-61900539D01*
X116576712Y-61855000D01*
X116343288Y-61855000D01*
X116114348Y-61900539D01*
X115898692Y-61989866D01*
X115704606Y-62119550D01*
X115539550Y-62284606D01*
X115409866Y-62478692D01*
X115320539Y-62694348D01*
X115275000Y-62923288D01*
X115275000Y-63156712D01*
X115320539Y-63385652D01*
X115409866Y-63601308D01*
X115539550Y-63795394D01*
X115704606Y-63960450D01*
X115898692Y-64090134D01*
X116114348Y-64179461D01*
X116343288Y-64225000D01*
X116576712Y-64225000D01*
X116805652Y-64179461D01*
X117021308Y-64090134D01*
X117215394Y-63960450D01*
X117380450Y-63795394D01*
X117414090Y-63745048D01*
X117462463Y-63861831D01*
X117652337Y-64145998D01*
X117816339Y-64310000D01*
X117652337Y-64474002D01*
X117462463Y-64758169D01*
X117414090Y-64874952D01*
X117380450Y-64824606D01*
X117215394Y-64659550D01*
X117021308Y-64529866D01*
X116805652Y-64440539D01*
X116576712Y-64395000D01*
X116343288Y-64395000D01*
X116114348Y-64440539D01*
X115898692Y-64529866D01*
X115704606Y-64659550D01*
X115539550Y-64824606D01*
X115409866Y-65018692D01*
X115320539Y-65234348D01*
X115275000Y-65463288D01*
X115275000Y-65696712D01*
X115320539Y-65925652D01*
X115409866Y-66141308D01*
X115539550Y-66335394D01*
X115704606Y-66500450D01*
X115898692Y-66630134D01*
X116114348Y-66719461D01*
X116343288Y-66765000D01*
X116576712Y-66765000D01*
X116805652Y-66719461D01*
X117021308Y-66630134D01*
X117215394Y-66500450D01*
X117380450Y-66335394D01*
X117414090Y-66285048D01*
X117462463Y-66401831D01*
X117652337Y-66685998D01*
X117894002Y-66927663D01*
X118178169Y-67117537D01*
X118493919Y-67248325D01*
X118829117Y-67315000D01*
X119170883Y-67315000D01*
X119506081Y-67248325D01*
X119821831Y-67117537D01*
X120105998Y-66927663D01*
X120347663Y-66685998D01*
X120537537Y-66401831D01*
X120567649Y-66329135D01*
X120568986Y-66329003D01*
X120712247Y-66285546D01*
X120844276Y-66214974D01*
X120960001Y-66120001D01*
X120983803Y-66090998D01*
X121511004Y-65563798D01*
X121540001Y-65540001D01*
X121634974Y-65424276D01*
X121705546Y-65292247D01*
X121749003Y-65148986D01*
X121760000Y-65037333D01*
X121760000Y-65037323D01*
X121763676Y-65000000D01*
X121760000Y-64962677D01*
X121760000Y-55117322D01*
X121763676Y-55079999D01*
X121760000Y-55042676D01*
X121760000Y-55042667D01*
X121749003Y-54931014D01*
X121705546Y-54787753D01*
X121657626Y-54698102D01*
X121634974Y-54655723D01*
X121563799Y-54568997D01*
X121540001Y-54539999D01*
X121511003Y-54516201D01*
X120642714Y-53647912D01*
X120668325Y-53586081D01*
X120735000Y-53250883D01*
X120735000Y-52909117D01*
X120668325Y-52573919D01*
X120537537Y-52258169D01*
X120347663Y-51974002D01*
X120183661Y-51810000D01*
X120347663Y-51645998D01*
X120537537Y-51361831D01*
X120668325Y-51046081D01*
X120735000Y-50710883D01*
X120735000Y-50369117D01*
X120668325Y-50033919D01*
X120537537Y-49718169D01*
X120470310Y-49617557D01*
X120551185Y-49551185D01*
X120630537Y-49454494D01*
X120689502Y-49344180D01*
X120725812Y-49224482D01*
X120738072Y-49100000D01*
X120735000Y-48285750D01*
X120576250Y-48127000D01*
X119127000Y-48127000D01*
X119127000Y-48147000D01*
X118873000Y-48147000D01*
X118873000Y-48127000D01*
X118853000Y-48127000D01*
X118853000Y-47873000D01*
X118873000Y-47873000D01*
X118873000Y-46423750D01*
X119127000Y-46423750D01*
X119127000Y-47873000D01*
X120576250Y-47873000D01*
X120735000Y-47714250D01*
X120738072Y-46900000D01*
X120725812Y-46775518D01*
X120689502Y-46655820D01*
X120630537Y-46545506D01*
X120551185Y-46448815D01*
X120454494Y-46369463D01*
X120344180Y-46310498D01*
X120224482Y-46274188D01*
X120100000Y-46261928D01*
X119285750Y-46265000D01*
X119127000Y-46423750D01*
X118873000Y-46423750D01*
X118714250Y-46265000D01*
X117900000Y-46261928D01*
X117775518Y-46274188D01*
X117655820Y-46310498D01*
X117545506Y-46369463D01*
X117448815Y-46448815D01*
X117369463Y-46545506D01*
X117310498Y-46655820D01*
X117274188Y-46775518D01*
X117261928Y-46900000D01*
X117262784Y-47126940D01*
X117215394Y-47079550D01*
X117021308Y-46949866D01*
X116805652Y-46860539D01*
X116576712Y-46815000D01*
X116343288Y-46815000D01*
X116114348Y-46860539D01*
X115898692Y-46949866D01*
X115704606Y-47079550D01*
X115539550Y-47244606D01*
X115409866Y-47438692D01*
X115320539Y-47654348D01*
X115275000Y-47883288D01*
X115275000Y-48116712D01*
X115320539Y-48345652D01*
X115409866Y-48561308D01*
X115539550Y-48755394D01*
X115704606Y-48920450D01*
X115898692Y-49050134D01*
X116114348Y-49139461D01*
X116343288Y-49185000D01*
X116576712Y-49185000D01*
X116805652Y-49139461D01*
X117021308Y-49050134D01*
X117215394Y-48920450D01*
X117262784Y-48873060D01*
X117261928Y-49100000D01*
X117274188Y-49224482D01*
X117310498Y-49344180D01*
X117369463Y-49454494D01*
X117448815Y-49551185D01*
X117529690Y-49617557D01*
X117462463Y-49718169D01*
X117414090Y-49834952D01*
X117380450Y-49784606D01*
X117215394Y-49619550D01*
X117021308Y-49489866D01*
X116805652Y-49400539D01*
X116576712Y-49355000D01*
X116343288Y-49355000D01*
X116114348Y-49400539D01*
X115898692Y-49489866D01*
X115704606Y-49619550D01*
X115539550Y-49784606D01*
X115409866Y-49978692D01*
X115320539Y-50194348D01*
X115275000Y-50423288D01*
X115275000Y-50656712D01*
X115320539Y-50885652D01*
X115409866Y-51101308D01*
X115539550Y-51295394D01*
X115704606Y-51460450D01*
X115898692Y-51590134D01*
X116114348Y-51679461D01*
X116343288Y-51725000D01*
X116576712Y-51725000D01*
X116805652Y-51679461D01*
X117021308Y-51590134D01*
X117215394Y-51460450D01*
X117380450Y-51295394D01*
X117414090Y-51245048D01*
X117462463Y-51361831D01*
X117652337Y-51645998D01*
X117816339Y-51810000D01*
X117652337Y-51974002D01*
X117462463Y-52258169D01*
X117414090Y-52374952D01*
X117380450Y-52324606D01*
X117215394Y-52159550D01*
X117021308Y-52029866D01*
X116805652Y-51940539D01*
X116576712Y-51895000D01*
X116343288Y-51895000D01*
X116114348Y-51940539D01*
X115898692Y-52029866D01*
X115704606Y-52159550D01*
X115539550Y-52324606D01*
X115409866Y-52518692D01*
X115320539Y-52734348D01*
X115275000Y-52963288D01*
X115275000Y-53196712D01*
X115320539Y-53425652D01*
X115409866Y-53641308D01*
X115539550Y-53835394D01*
X115704606Y-54000450D01*
X115876042Y-54115000D01*
X115038454Y-54115000D01*
X114990256Y-54082795D01*
X114801898Y-54004774D01*
X114601939Y-53965000D01*
X114398061Y-53965000D01*
X114198102Y-54004774D01*
X114009744Y-54082795D01*
X113840226Y-54196063D01*
X113696063Y-54340226D01*
X113582795Y-54509744D01*
X113504774Y-54698102D01*
X113465000Y-54898061D01*
X103993517Y-54898061D01*
X109042539Y-49849039D01*
X111768096Y-49849039D01*
X111808754Y-49983087D01*
X111928963Y-50237420D01*
X112096481Y-50463414D01*
X112304869Y-50652385D01*
X112546119Y-50797070D01*
X112810960Y-50891909D01*
X113033000Y-50770624D01*
X113033000Y-49627000D01*
X113287000Y-49627000D01*
X113287000Y-50770624D01*
X113509040Y-50891909D01*
X113773881Y-50797070D01*
X114015131Y-50652385D01*
X114223519Y-50463414D01*
X114391037Y-50237420D01*
X114511246Y-49983087D01*
X114551904Y-49849039D01*
X114429915Y-49627000D01*
X113287000Y-49627000D01*
X113033000Y-49627000D01*
X111890085Y-49627000D01*
X111768096Y-49849039D01*
X109042539Y-49849039D01*
X109740617Y-49150961D01*
X111768096Y-49150961D01*
X111890085Y-49373000D01*
X113033000Y-49373000D01*
X113033000Y-48229376D01*
X113287000Y-48229376D01*
X113287000Y-49373000D01*
X114429915Y-49373000D01*
X114551904Y-49150961D01*
X114511246Y-49016913D01*
X114391037Y-48762580D01*
X114223519Y-48536586D01*
X114015131Y-48347615D01*
X113773881Y-48202930D01*
X113509040Y-48108091D01*
X113287000Y-48229376D01*
X113033000Y-48229376D01*
X112810960Y-48108091D01*
X112546119Y-48202930D01*
X112304869Y-48347615D01*
X112096481Y-48536586D01*
X111928963Y-48762580D01*
X111808754Y-49016913D01*
X111768096Y-49150961D01*
X109740617Y-49150961D01*
X110055049Y-48836530D01*
X110088817Y-48808817D01*
X110199411Y-48674059D01*
X110246885Y-48585241D01*
X110281589Y-48520314D01*
X110332195Y-48353490D01*
X110337358Y-48301068D01*
X110345000Y-48223477D01*
X110345000Y-48223469D01*
X110349281Y-48180000D01*
X110345000Y-48136531D01*
X110345000Y-44254790D01*
X110438505Y-44192312D01*
X110504944Y-44125873D01*
X110510498Y-44144180D01*
X110569463Y-44254494D01*
X110648815Y-44351185D01*
X110745506Y-44430537D01*
X110855820Y-44489502D01*
X110975518Y-44525812D01*
X111100000Y-44538072D01*
X112900000Y-44538072D01*
X113024482Y-44525812D01*
X113144180Y-44489502D01*
X113254494Y-44430537D01*
X113351185Y-44351185D01*
X113430537Y-44254494D01*
X113489502Y-44144180D01*
X113525812Y-44024482D01*
X113538072Y-43900000D01*
X113538072Y-42100000D01*
X113525812Y-41975518D01*
X113489502Y-41855820D01*
X113430537Y-41745506D01*
X113426409Y-41740475D01*
X122365000Y-41740475D01*
X122365000Y-42259525D01*
X122466261Y-42768601D01*
X122664893Y-43248141D01*
X122953262Y-43679715D01*
X123320285Y-44046738D01*
X123751859Y-44335107D01*
X124231399Y-44533739D01*
X124740475Y-44635000D01*
X125259525Y-44635000D01*
X125768601Y-44533739D01*
X126248141Y-44335107D01*
X126679715Y-44046738D01*
X127046738Y-43679715D01*
X127335107Y-43248141D01*
X127533739Y-42768601D01*
X127635000Y-42259525D01*
X127635000Y-41740475D01*
X127533739Y-41231399D01*
X127335107Y-40751859D01*
X127046738Y-40320285D01*
X126679715Y-39953262D01*
X126248141Y-39664893D01*
X125768601Y-39466261D01*
X125259525Y-39365000D01*
X124740475Y-39365000D01*
X124231399Y-39466261D01*
X123751859Y-39664893D01*
X123320285Y-39953262D01*
X122953262Y-40320285D01*
X122664893Y-40751859D01*
X122466261Y-41231399D01*
X122365000Y-41740475D01*
X113426409Y-41740475D01*
X113351185Y-41648815D01*
X113254494Y-41569463D01*
X113144180Y-41510498D01*
X113024482Y-41474188D01*
X112900000Y-41461928D01*
X111100000Y-41461928D01*
X110975518Y-41474188D01*
X110855820Y-41510498D01*
X110745506Y-41569463D01*
X110648815Y-41648815D01*
X110569463Y-41745506D01*
X110510498Y-41855820D01*
X110504944Y-41874127D01*
X110438505Y-41807688D01*
X110187095Y-41639701D01*
X109907743Y-41523989D01*
X109611184Y-41465000D01*
X109308816Y-41465000D01*
X109012257Y-41523989D01*
X108732905Y-41639701D01*
X108481495Y-41807688D01*
X108267688Y-42021495D01*
X108099701Y-42272905D01*
X107983989Y-42552257D01*
X107925000Y-42848816D01*
X107925000Y-43151184D01*
X107983989Y-43447743D01*
X108099701Y-43727095D01*
X108267688Y-43978505D01*
X108481495Y-44192312D01*
X108575000Y-44254790D01*
X108575001Y-47813420D01*
X90255424Y-66132998D01*
X90109916Y-66132998D01*
X90231904Y-65910961D01*
X90221444Y-65853270D01*
X90115551Y-65591579D01*
X89960639Y-65355575D01*
X89762662Y-65154327D01*
X89529227Y-64995570D01*
X89511655Y-64988122D01*
X89641101Y-64918932D01*
X89859608Y-64739608D01*
X90038932Y-64521101D01*
X90172182Y-64271808D01*
X90254236Y-64001309D01*
X90281943Y-63720000D01*
X90254236Y-63438691D01*
X90172182Y-63168192D01*
X90038932Y-62918899D01*
X89859608Y-62700392D01*
X89641101Y-62521068D01*
X89391808Y-62387818D01*
X89121309Y-62305764D01*
X88910492Y-62285000D01*
X88369508Y-62285000D01*
X88158691Y-62305764D01*
X87888192Y-62387818D01*
X87638899Y-62521068D01*
X87420392Y-62700392D01*
X87241068Y-62918899D01*
X87107818Y-63168192D01*
X87025764Y-63438691D01*
X86998057Y-63720000D01*
X87025764Y-64001309D01*
X87107818Y-64271808D01*
X87241068Y-64521101D01*
X87420392Y-64739608D01*
X87638899Y-64918932D01*
X87768345Y-64988122D01*
X87750773Y-64995570D01*
X87517338Y-65154327D01*
X87319361Y-65355575D01*
X87164449Y-65591579D01*
X87058556Y-65853270D01*
X87048096Y-65910961D01*
X87170085Y-66133000D01*
X88513000Y-66133000D01*
X88513000Y-66113000D01*
X88767000Y-66113000D01*
X88767000Y-66133000D01*
X88787000Y-66133000D01*
X88787000Y-66387000D01*
X88767000Y-66387000D01*
X88767000Y-66407000D01*
X88513000Y-66407000D01*
X88513000Y-66387000D01*
X87170085Y-66387000D01*
X87048096Y-66609039D01*
X87058556Y-66666730D01*
X87164449Y-66928421D01*
X87319361Y-67164425D01*
X87517338Y-67365673D01*
X87750773Y-67524430D01*
X87768345Y-67531878D01*
X87638899Y-67601068D01*
X87420392Y-67780392D01*
X87241068Y-67998899D01*
X87107818Y-68248192D01*
X87025764Y-68518691D01*
X86998057Y-68800000D01*
X87025764Y-69081309D01*
X87107818Y-69351808D01*
X87241068Y-69601101D01*
X87420392Y-69819608D01*
X87638899Y-69998932D01*
X87771858Y-70070000D01*
X87638899Y-70141068D01*
X87420392Y-70320392D01*
X87241068Y-70538899D01*
X87107818Y-70788192D01*
X87025764Y-71058691D01*
X86998057Y-71340000D01*
X87025764Y-71621309D01*
X87107818Y-71891808D01*
X87241068Y-72141101D01*
X87420392Y-72359608D01*
X87638899Y-72538932D01*
X87771858Y-72610000D01*
X87638899Y-72681068D01*
X87420392Y-72860392D01*
X87241068Y-73078899D01*
X87107818Y-73328192D01*
X87025764Y-73598691D01*
X86998057Y-73880000D01*
X87025764Y-74161309D01*
X87107818Y-74431808D01*
X87241068Y-74681101D01*
X87420392Y-74899608D01*
X87638899Y-75078932D01*
X87771858Y-75150000D01*
X87638899Y-75221068D01*
X87420392Y-75400392D01*
X87241068Y-75618899D01*
X87107818Y-75868192D01*
X87025764Y-76138691D01*
X86998057Y-76420000D01*
X87025764Y-76701309D01*
X87107818Y-76971808D01*
X87241068Y-77221101D01*
X87420392Y-77439608D01*
X87638899Y-77618932D01*
X87771858Y-77690000D01*
X87638899Y-77761068D01*
X87420392Y-77940392D01*
X87241068Y-78158899D01*
X87107818Y-78408192D01*
X87025764Y-78678691D01*
X86998057Y-78960000D01*
X87025764Y-79241309D01*
X87107818Y-79511808D01*
X87241068Y-79761101D01*
X87420392Y-79979608D01*
X87638899Y-80158932D01*
X87771858Y-80230000D01*
X87638899Y-80301068D01*
X87420392Y-80480392D01*
X87241068Y-80698899D01*
X87107818Y-80948192D01*
X87025764Y-81218691D01*
X86998057Y-81500000D01*
X87025764Y-81781309D01*
X87107818Y-82051808D01*
X87241068Y-82301101D01*
X87420392Y-82519608D01*
X87638899Y-82698932D01*
X87888192Y-82832182D01*
X88022753Y-82873000D01*
X87000000Y-82873000D01*
X86975224Y-82875440D01*
X86951399Y-82882667D01*
X86929443Y-82894403D01*
X86910197Y-82910197D01*
X86894403Y-82929443D01*
X86882667Y-82951399D01*
X86875440Y-82975224D01*
X86873000Y-83000000D01*
X76510000Y-83000000D01*
X76510000Y-79917311D01*
X76698102Y-79995226D01*
X76898061Y-80035000D01*
X77101939Y-80035000D01*
X77301898Y-79995226D01*
X77490256Y-79917205D01*
X77659774Y-79803937D01*
X77803937Y-79659774D01*
X77917205Y-79490256D01*
X77995226Y-79301898D01*
X78035000Y-79101939D01*
X78035000Y-78898061D01*
X77995226Y-78698102D01*
X77934999Y-78552702D01*
X77934999Y-72590572D01*
X79500000Y-72590572D01*
X79624482Y-72578312D01*
X79744180Y-72542002D01*
X79854494Y-72483037D01*
X79951185Y-72403685D01*
X80030537Y-72306994D01*
X80089502Y-72196680D01*
X80125812Y-72076982D01*
X80138072Y-71952500D01*
X80138072Y-71358665D01*
X82565000Y-71358665D01*
X82565000Y-71641335D01*
X82620147Y-71918574D01*
X82728320Y-72179727D01*
X82885363Y-72414759D01*
X83085241Y-72614637D01*
X83320273Y-72771680D01*
X83581426Y-72879853D01*
X83858665Y-72935000D01*
X84141335Y-72935000D01*
X84418574Y-72879853D01*
X84679727Y-72771680D01*
X84914759Y-72614637D01*
X85114637Y-72414759D01*
X85271680Y-72179727D01*
X85379853Y-71918574D01*
X85435000Y-71641335D01*
X85435000Y-71358665D01*
X85379853Y-71081426D01*
X85271680Y-70820273D01*
X85114637Y-70585241D01*
X84914759Y-70385363D01*
X84679727Y-70228320D01*
X84418574Y-70120147D01*
X84141335Y-70065000D01*
X83858665Y-70065000D01*
X83581426Y-70120147D01*
X83320273Y-70228320D01*
X83085241Y-70385363D01*
X82885363Y-70585241D01*
X82728320Y-70820273D01*
X82620147Y-71081426D01*
X82565000Y-71358665D01*
X80138072Y-71358665D01*
X80138072Y-70047500D01*
X80125812Y-69923018D01*
X80089502Y-69803320D01*
X80030537Y-69693006D01*
X79951185Y-69596315D01*
X79854494Y-69516963D01*
X79770554Y-69472095D01*
X79873845Y-69346235D01*
X80021255Y-69070449D01*
X80112030Y-68771204D01*
X80142681Y-68460000D01*
X80112030Y-68148796D01*
X80021255Y-67849551D01*
X79873845Y-67573765D01*
X79675463Y-67332037D01*
X79496101Y-67184837D01*
X79681315Y-67029437D01*
X79875969Y-66786923D01*
X80019571Y-66511094D01*
X80090563Y-66292980D01*
X79970594Y-66047000D01*
X78627000Y-66047000D01*
X78627000Y-66067000D01*
X78373000Y-66067000D01*
X78373000Y-66047000D01*
X77029406Y-66047000D01*
X76909437Y-66292980D01*
X76980429Y-66511094D01*
X77124031Y-66786923D01*
X77318685Y-67029437D01*
X77503899Y-67184837D01*
X77324537Y-67332037D01*
X77126155Y-67573765D01*
X76978745Y-67849551D01*
X76887970Y-68148796D01*
X76882794Y-68201349D01*
X76510000Y-68574143D01*
X76510000Y-65547020D01*
X76909437Y-65547020D01*
X77029406Y-65793000D01*
X78373000Y-65793000D01*
X78373000Y-64494430D01*
X78627000Y-64494430D01*
X78627000Y-65793000D01*
X79970594Y-65793000D01*
X80090563Y-65547020D01*
X80019571Y-65328906D01*
X79875969Y-65053077D01*
X79681315Y-64810563D01*
X79443089Y-64610684D01*
X79170446Y-64461121D01*
X78873863Y-64367622D01*
X78627000Y-64494430D01*
X78373000Y-64494430D01*
X78126137Y-64367622D01*
X77829554Y-64461121D01*
X77556911Y-64610684D01*
X77318685Y-64810563D01*
X77124031Y-65053077D01*
X76980429Y-65328906D01*
X76909437Y-65547020D01*
X76510000Y-65547020D01*
X76510000Y-61689040D01*
X82608091Y-61689040D01*
X82702930Y-61953881D01*
X82847615Y-62195131D01*
X83036586Y-62403519D01*
X83262580Y-62571037D01*
X83516913Y-62691246D01*
X83650961Y-62731904D01*
X83873000Y-62609915D01*
X83873000Y-61467000D01*
X84127000Y-61467000D01*
X84127000Y-62609915D01*
X84349039Y-62731904D01*
X84483087Y-62691246D01*
X84737420Y-62571037D01*
X84963414Y-62403519D01*
X85152385Y-62195131D01*
X85297070Y-61953881D01*
X85391909Y-61689040D01*
X85270624Y-61467000D01*
X84127000Y-61467000D01*
X83873000Y-61467000D01*
X82729376Y-61467000D01*
X82608091Y-61689040D01*
X76510000Y-61689040D01*
X76510000Y-60990960D01*
X82608091Y-60990960D01*
X82729376Y-61213000D01*
X83873000Y-61213000D01*
X83873000Y-60070085D01*
X84127000Y-60070085D01*
X84127000Y-61213000D01*
X85270624Y-61213000D01*
X85391909Y-60990960D01*
X85297070Y-60726119D01*
X85152385Y-60484869D01*
X84963414Y-60276481D01*
X84737420Y-60108963D01*
X84483087Y-59988754D01*
X84349039Y-59948096D01*
X84127000Y-60070085D01*
X83873000Y-60070085D01*
X83650961Y-59948096D01*
X83516913Y-59988754D01*
X83262580Y-60108963D01*
X83036586Y-60276481D01*
X82847615Y-60484869D01*
X82702930Y-60726119D01*
X82608091Y-60990960D01*
X76510000Y-60990960D01*
X76510000Y-50935000D01*
X76641335Y-50935000D01*
X76918574Y-50879853D01*
X77179727Y-50771680D01*
X77414759Y-50614637D01*
X77614637Y-50414759D01*
X77771680Y-50179727D01*
X77879853Y-49918574D01*
X77935000Y-49641335D01*
X77935000Y-49500000D01*
X85218057Y-49500000D01*
X85245764Y-49781309D01*
X85327818Y-50051808D01*
X85461068Y-50301101D01*
X85640392Y-50519608D01*
X85858899Y-50698932D01*
X86108192Y-50832182D01*
X86378691Y-50914236D01*
X86589508Y-50935000D01*
X86730492Y-50935000D01*
X86941309Y-50914236D01*
X87211808Y-50832182D01*
X87461101Y-50698932D01*
X87679608Y-50519608D01*
X87858932Y-50301101D01*
X87992182Y-50051808D01*
X88074236Y-49781309D01*
X88101943Y-49500000D01*
X88398057Y-49500000D01*
X88425764Y-49781309D01*
X88507818Y-50051808D01*
X88641068Y-50301101D01*
X88820392Y-50519608D01*
X89038899Y-50698932D01*
X89288192Y-50832182D01*
X89558691Y-50914236D01*
X89769508Y-50935000D01*
X89910492Y-50935000D01*
X90121309Y-50914236D01*
X90391808Y-50832182D01*
X90641101Y-50698932D01*
X90859608Y-50519608D01*
X91038932Y-50301101D01*
X91172182Y-50051808D01*
X91254236Y-49781309D01*
X91281943Y-49500000D01*
X91268023Y-49358665D01*
X98565000Y-49358665D01*
X98565000Y-49641335D01*
X98620147Y-49918574D01*
X98728320Y-50179727D01*
X98885363Y-50414759D01*
X99085241Y-50614637D01*
X99320273Y-50771680D01*
X99581426Y-50879853D01*
X99858665Y-50935000D01*
X100141335Y-50935000D01*
X100418574Y-50879853D01*
X100679727Y-50771680D01*
X100914759Y-50614637D01*
X101114637Y-50414759D01*
X101271680Y-50179727D01*
X101379853Y-49918574D01*
X101435000Y-49641335D01*
X101435000Y-49358665D01*
X101565000Y-49358665D01*
X101565000Y-49641335D01*
X101620147Y-49918574D01*
X101728320Y-50179727D01*
X101885363Y-50414759D01*
X102085241Y-50614637D01*
X102320273Y-50771680D01*
X102581426Y-50879853D01*
X102858665Y-50935000D01*
X103141335Y-50935000D01*
X103418574Y-50879853D01*
X103679727Y-50771680D01*
X103914759Y-50614637D01*
X104114637Y-50414759D01*
X104271680Y-50179727D01*
X104379853Y-49918574D01*
X104435000Y-49641335D01*
X104435000Y-49358665D01*
X104379853Y-49081426D01*
X104271680Y-48820273D01*
X104114637Y-48585241D01*
X103914759Y-48385363D01*
X103679727Y-48228320D01*
X103418574Y-48120147D01*
X103141335Y-48065000D01*
X102858665Y-48065000D01*
X102581426Y-48120147D01*
X102320273Y-48228320D01*
X102085241Y-48385363D01*
X101885363Y-48585241D01*
X101728320Y-48820273D01*
X101620147Y-49081426D01*
X101565000Y-49358665D01*
X101435000Y-49358665D01*
X101379853Y-49081426D01*
X101271680Y-48820273D01*
X101114637Y-48585241D01*
X100914759Y-48385363D01*
X100679727Y-48228320D01*
X100418574Y-48120147D01*
X100141335Y-48065000D01*
X99858665Y-48065000D01*
X99581426Y-48120147D01*
X99320273Y-48228320D01*
X99085241Y-48385363D01*
X98885363Y-48585241D01*
X98728320Y-48820273D01*
X98620147Y-49081426D01*
X98565000Y-49358665D01*
X91268023Y-49358665D01*
X91254236Y-49218691D01*
X91172182Y-48948192D01*
X91038932Y-48698899D01*
X90859608Y-48480392D01*
X90641101Y-48301068D01*
X90391808Y-48167818D01*
X90121309Y-48085764D01*
X89910492Y-48065000D01*
X89769508Y-48065000D01*
X89558691Y-48085764D01*
X89288192Y-48167818D01*
X89038899Y-48301068D01*
X88820392Y-48480392D01*
X88641068Y-48698899D01*
X88507818Y-48948192D01*
X88425764Y-49218691D01*
X88398057Y-49500000D01*
X88101943Y-49500000D01*
X88074236Y-49218691D01*
X87992182Y-48948192D01*
X87858932Y-48698899D01*
X87679608Y-48480392D01*
X87461101Y-48301068D01*
X87211808Y-48167818D01*
X86941309Y-48085764D01*
X86730492Y-48065000D01*
X86589508Y-48065000D01*
X86378691Y-48085764D01*
X86108192Y-48167818D01*
X85858899Y-48301068D01*
X85640392Y-48480392D01*
X85461068Y-48698899D01*
X85327818Y-48948192D01*
X85245764Y-49218691D01*
X85218057Y-49500000D01*
X77935000Y-49500000D01*
X77935000Y-49358665D01*
X77879853Y-49081426D01*
X77771680Y-48820273D01*
X77614637Y-48585241D01*
X77414759Y-48385363D01*
X77179727Y-48228320D01*
X76918574Y-48120147D01*
X76641335Y-48065000D01*
X76358665Y-48065000D01*
X76081426Y-48120147D01*
X75820273Y-48228320D01*
X75585241Y-48385363D01*
X75385363Y-48585241D01*
X75228320Y-48820273D01*
X75120147Y-49081426D01*
X75065000Y-49358665D01*
X75065000Y-49506645D01*
X74820901Y-49750744D01*
X74782368Y-49782367D01*
X74750745Y-49820900D01*
X74750744Y-49820901D01*
X74656154Y-49936160D01*
X74562368Y-50111621D01*
X74504615Y-50302006D01*
X74485114Y-50500000D01*
X68185000Y-50500000D01*
X68185000Y-41740475D01*
X68365000Y-41740475D01*
X68365000Y-42259525D01*
X68466261Y-42768601D01*
X68664893Y-43248141D01*
X68953262Y-43679715D01*
X69320285Y-44046738D01*
X69751859Y-44335107D01*
X70231399Y-44533739D01*
X70740475Y-44635000D01*
X71259525Y-44635000D01*
X71768601Y-44533739D01*
X72248141Y-44335107D01*
X72679715Y-44046738D01*
X73046738Y-43679715D01*
X73335107Y-43248141D01*
X73533739Y-42768601D01*
X73573928Y-42566553D01*
X78419009Y-42566553D01*
X78461603Y-42865907D01*
X78561778Y-43151199D01*
X78641739Y-43300792D01*
X78895920Y-43384475D01*
X79780395Y-42500000D01*
X78895920Y-41615525D01*
X78641739Y-41699208D01*
X78510842Y-41971775D01*
X78435635Y-42264642D01*
X78419009Y-42566553D01*
X73573928Y-42566553D01*
X73635000Y-42259525D01*
X73635000Y-41740475D01*
X73574421Y-41435920D01*
X79075525Y-41435920D01*
X79960000Y-42320395D01*
X79974143Y-42306253D01*
X80153748Y-42485858D01*
X80139605Y-42500000D01*
X80153748Y-42514143D01*
X79974143Y-42693748D01*
X79960000Y-42679605D01*
X79075525Y-43564080D01*
X79159208Y-43818261D01*
X79431775Y-43949158D01*
X79724642Y-44024365D01*
X80026553Y-44040991D01*
X80325907Y-43998397D01*
X80611199Y-43898222D01*
X80760792Y-43818261D01*
X80844474Y-43564082D01*
X80960422Y-43680030D01*
X81007187Y-43633265D01*
X81010498Y-43644180D01*
X81069463Y-43754494D01*
X81148815Y-43851185D01*
X81245506Y-43930537D01*
X81355820Y-43989502D01*
X81475518Y-44025812D01*
X81600000Y-44038072D01*
X83400000Y-44038072D01*
X83524482Y-44025812D01*
X83644180Y-43989502D01*
X83754494Y-43930537D01*
X83851185Y-43851185D01*
X83930537Y-43754494D01*
X83989502Y-43644180D01*
X84025812Y-43524482D01*
X84038072Y-43400000D01*
X84038072Y-42566553D01*
X87919009Y-42566553D01*
X87961603Y-42865907D01*
X88061778Y-43151199D01*
X88141739Y-43300792D01*
X88395920Y-43384475D01*
X89280395Y-42500000D01*
X88395920Y-41615525D01*
X88141739Y-41699208D01*
X88010842Y-41971775D01*
X87935635Y-42264642D01*
X87919009Y-42566553D01*
X84038072Y-42566553D01*
X84038072Y-41600000D01*
X84025812Y-41475518D01*
X84013801Y-41435920D01*
X88575525Y-41435920D01*
X89460000Y-42320395D01*
X89474143Y-42306253D01*
X89653748Y-42485858D01*
X89639605Y-42500000D01*
X89653748Y-42514143D01*
X89474143Y-42693748D01*
X89460000Y-42679605D01*
X88575525Y-43564080D01*
X88659208Y-43818261D01*
X88931775Y-43949158D01*
X89224642Y-44024365D01*
X89526553Y-44040991D01*
X89825907Y-43998397D01*
X90111199Y-43898222D01*
X90260792Y-43818261D01*
X90344474Y-43564082D01*
X90460422Y-43680030D01*
X90507187Y-43633265D01*
X90510498Y-43644180D01*
X90569463Y-43754494D01*
X90648815Y-43851185D01*
X90745506Y-43930537D01*
X90855820Y-43989502D01*
X90975518Y-44025812D01*
X91100000Y-44038072D01*
X92900000Y-44038072D01*
X93024482Y-44025812D01*
X93144180Y-43989502D01*
X93254494Y-43930537D01*
X93351185Y-43851185D01*
X93430537Y-43754494D01*
X93489502Y-43644180D01*
X93525812Y-43524482D01*
X93538072Y-43400000D01*
X93538072Y-41600000D01*
X93525812Y-41475518D01*
X93489502Y-41355820D01*
X93430537Y-41245506D01*
X93351185Y-41148815D01*
X93254494Y-41069463D01*
X93144180Y-41010498D01*
X93024482Y-40974188D01*
X92900000Y-40961928D01*
X91100000Y-40961928D01*
X90975518Y-40974188D01*
X90855820Y-41010498D01*
X90745506Y-41069463D01*
X90648815Y-41148815D01*
X90569463Y-41245506D01*
X90510498Y-41355820D01*
X90507187Y-41366735D01*
X90460422Y-41319970D01*
X90344474Y-41435918D01*
X90260792Y-41181739D01*
X89988225Y-41050842D01*
X89695358Y-40975635D01*
X89393447Y-40959009D01*
X89094093Y-41001603D01*
X88808801Y-41101778D01*
X88659208Y-41181739D01*
X88575525Y-41435920D01*
X84013801Y-41435920D01*
X83989502Y-41355820D01*
X83930537Y-41245506D01*
X83851185Y-41148815D01*
X83754494Y-41069463D01*
X83644180Y-41010498D01*
X83524482Y-40974188D01*
X83400000Y-40961928D01*
X81600000Y-40961928D01*
X81475518Y-40974188D01*
X81355820Y-41010498D01*
X81245506Y-41069463D01*
X81148815Y-41148815D01*
X81069463Y-41245506D01*
X81010498Y-41355820D01*
X81007187Y-41366735D01*
X80960422Y-41319970D01*
X80844474Y-41435918D01*
X80760792Y-41181739D01*
X80488225Y-41050842D01*
X80195358Y-40975635D01*
X79893447Y-40959009D01*
X79594093Y-41001603D01*
X79308801Y-41101778D01*
X79159208Y-41181739D01*
X79075525Y-41435920D01*
X73574421Y-41435920D01*
X73533739Y-41231399D01*
X73335107Y-40751859D01*
X73046738Y-40320285D01*
X72679715Y-39953262D01*
X72248141Y-39664893D01*
X71768601Y-39466261D01*
X71259525Y-39365000D01*
X70740475Y-39365000D01*
X70231399Y-39466261D01*
X69751859Y-39664893D01*
X69320285Y-39953262D01*
X68953262Y-40320285D01*
X68664893Y-40751859D01*
X68466261Y-41231399D01*
X68365000Y-41740475D01*
X68185000Y-41740475D01*
X68185000Y-39185000D01*
X127810090Y-39185000D01*
X127345154Y-104276114D01*
X127345154Y-104276114D01*
G37*
X127345154Y-104276114D02*
X127335107Y-104251859D01*
X127046738Y-103820285D01*
X126679715Y-103453262D01*
X126248141Y-103164893D01*
X125768601Y-102966261D01*
X125259525Y-102865000D01*
X124740475Y-102865000D01*
X124231399Y-102966261D01*
X123751859Y-103164893D01*
X123320285Y-103453262D01*
X122953262Y-103820285D01*
X122664893Y-104251859D01*
X122466261Y-104731399D01*
X122365000Y-105240475D01*
X122365000Y-105759525D01*
X122466261Y-106268601D01*
X122664893Y-106748141D01*
X122953262Y-107179715D01*
X123320285Y-107546738D01*
X123721767Y-107815000D01*
X72278233Y-107815000D01*
X72679715Y-107546738D01*
X73046738Y-107179715D01*
X73335107Y-106748141D01*
X73533739Y-106268601D01*
X73635000Y-105759525D01*
X73635000Y-105300000D01*
X76561928Y-105300000D01*
X76574188Y-105424482D01*
X76610498Y-105544180D01*
X76669463Y-105654494D01*
X76748815Y-105751185D01*
X76845506Y-105830537D01*
X76955820Y-105889502D01*
X77075518Y-105925812D01*
X77200000Y-105938072D01*
X78214250Y-105935000D01*
X78373000Y-105776250D01*
X78373000Y-104127000D01*
X78627000Y-104127000D01*
X78627000Y-105776250D01*
X78785750Y-105935000D01*
X79800000Y-105938072D01*
X79924482Y-105925812D01*
X80044180Y-105889502D01*
X80154494Y-105830537D01*
X80251185Y-105751185D01*
X80330537Y-105654494D01*
X80389502Y-105544180D01*
X80425812Y-105424482D01*
X80438072Y-105300000D01*
X80437142Y-104992702D01*
X87186903Y-104992702D01*
X87258486Y-105236671D01*
X87513996Y-105357571D01*
X87788184Y-105426300D01*
X88070512Y-105440217D01*
X88350130Y-105398787D01*
X88616292Y-105303603D01*
X88741514Y-105236671D01*
X88813097Y-104992702D01*
X88000000Y-104179605D01*
X87186903Y-104992702D01*
X80437142Y-104992702D01*
X80435000Y-104285750D01*
X80276250Y-104127000D01*
X78627000Y-104127000D01*
X78373000Y-104127000D01*
X76723750Y-104127000D01*
X76565000Y-104285750D01*
X76561928Y-105300000D01*
X73635000Y-105300000D01*
X73635000Y-105240475D01*
X73533739Y-104731399D01*
X73335107Y-104251859D01*
X73213935Y-104070512D01*
X86559783Y-104070512D01*
X86601213Y-104350130D01*
X86696397Y-104616292D01*
X86763329Y-104741514D01*
X87007298Y-104813097D01*
X87820395Y-104000000D01*
X88179605Y-104000000D01*
X88992702Y-104813097D01*
X89236671Y-104741514D01*
X89357571Y-104486004D01*
X89426300Y-104211816D01*
X89440217Y-103929488D01*
X89398787Y-103649870D01*
X89362178Y-103547500D01*
X97361928Y-103547500D01*
X97361928Y-105452500D01*
X97374188Y-105576982D01*
X97410498Y-105696680D01*
X97469463Y-105806994D01*
X97548815Y-105903685D01*
X97645506Y-105983037D01*
X97755820Y-106042002D01*
X97875518Y-106078312D01*
X98000000Y-106090572D01*
X100000000Y-106090572D01*
X100124482Y-106078312D01*
X100244180Y-106042002D01*
X100354494Y-105983037D01*
X100451185Y-105903685D01*
X100530537Y-105806994D01*
X100589502Y-105696680D01*
X100625812Y-105576982D01*
X100638072Y-105452500D01*
X100638072Y-104070512D01*
X109059783Y-104070512D01*
X109101213Y-104350130D01*
X109196397Y-104616292D01*
X109261616Y-104738309D01*
X109248815Y-104748815D01*
X109169463Y-104845506D01*
X109110498Y-104955820D01*
X109074188Y-105075518D01*
X109061928Y-105200000D01*
X109061928Y-106800000D01*
X109074188Y-106924482D01*
X109110498Y-107044180D01*
X109169463Y-107154494D01*
X109248815Y-107251185D01*
X109345506Y-107330537D01*
X109455820Y-107389502D01*
X109575518Y-107425812D01*
X109700000Y-107438072D01*
X111300000Y-107438072D01*
X111424482Y-107425812D01*
X111544180Y-107389502D01*
X111654494Y-107330537D01*
X111751185Y-107251185D01*
X111830537Y-107154494D01*
X111889502Y-107044180D01*
X111925812Y-106924482D01*
X111938072Y-106800000D01*
X111938072Y-105200000D01*
X111925812Y-105075518D01*
X111889502Y-104955820D01*
X111830537Y-104845506D01*
X111751185Y-104748815D01*
X111738242Y-104738193D01*
X111857571Y-104486004D01*
X111926300Y-104211816D01*
X111940217Y-103929488D01*
X111898787Y-103649870D01*
X111803603Y-103383708D01*
X111736671Y-103258486D01*
X111492702Y-103186903D01*
X110679605Y-104000000D01*
X110693748Y-104014143D01*
X110514143Y-104193748D01*
X110500000Y-104179605D01*
X110485858Y-104193748D01*
X110306253Y-104014143D01*
X110320395Y-104000000D01*
X109507298Y-103186903D01*
X109263329Y-103258486D01*
X109142429Y-103513996D01*
X109073700Y-103788184D01*
X109059783Y-104070512D01*
X100638072Y-104070512D01*
X100638072Y-103547500D01*
X100625812Y-103423018D01*
X100589502Y-103303320D01*
X100530537Y-103193006D01*
X100451185Y-103096315D01*
X100354494Y-103016963D01*
X100336413Y-103007298D01*
X109686903Y-103007298D01*
X110500000Y-103820395D01*
X111313097Y-103007298D01*
X111241514Y-102763329D01*
X110986004Y-102642429D01*
X110711816Y-102573700D01*
X110429488Y-102559783D01*
X110149870Y-102601213D01*
X109883708Y-102696397D01*
X109758486Y-102763329D01*
X109686903Y-103007298D01*
X100336413Y-103007298D01*
X100262781Y-102967941D01*
X100375969Y-102826923D01*
X100519571Y-102551094D01*
X100590563Y-102332980D01*
X100470594Y-102087000D01*
X99127000Y-102087000D01*
X99127000Y-102107000D01*
X98873000Y-102107000D01*
X98873000Y-102087000D01*
X97529406Y-102087000D01*
X97409437Y-102332980D01*
X97480429Y-102551094D01*
X97624031Y-102826923D01*
X97737219Y-102967941D01*
X97645506Y-103016963D01*
X97548815Y-103096315D01*
X97469463Y-103193006D01*
X97410498Y-103303320D01*
X97374188Y-103423018D01*
X97361928Y-103547500D01*
X89362178Y-103547500D01*
X89303603Y-103383708D01*
X89236671Y-103258486D01*
X88992702Y-103186903D01*
X88179605Y-104000000D01*
X87820395Y-104000000D01*
X87007298Y-103186903D01*
X86763329Y-103258486D01*
X86642429Y-103513996D01*
X86573700Y-103788184D01*
X86559783Y-104070512D01*
X73213935Y-104070512D01*
X73046738Y-103820285D01*
X72679715Y-103453262D01*
X72248141Y-103164893D01*
X71768601Y-102966261D01*
X71259525Y-102865000D01*
X70740475Y-102865000D01*
X70231399Y-102966261D01*
X69751859Y-103164893D01*
X69320285Y-103453262D01*
X68953262Y-103820285D01*
X68664893Y-104251859D01*
X68466261Y-104731399D01*
X68365000Y-105240475D01*
X68365000Y-105759525D01*
X68466261Y-106268601D01*
X68664893Y-106748141D01*
X68953262Y-107179715D01*
X69320285Y-107546738D01*
X69721767Y-107815000D01*
X68185000Y-107815000D01*
X68185000Y-102700000D01*
X76561928Y-102700000D01*
X76565000Y-103714250D01*
X76723750Y-103873000D01*
X78373000Y-103873000D01*
X78373000Y-102223750D01*
X78627000Y-102223750D01*
X78627000Y-103873000D01*
X80276250Y-103873000D01*
X80435000Y-103714250D01*
X80437141Y-103007298D01*
X87186903Y-103007298D01*
X88000000Y-103820395D01*
X88813097Y-103007298D01*
X88741514Y-102763329D01*
X88486004Y-102642429D01*
X88211816Y-102573700D01*
X87929488Y-102559783D01*
X87649870Y-102601213D01*
X87383708Y-102696397D01*
X87258486Y-102763329D01*
X87186903Y-103007298D01*
X80437141Y-103007298D01*
X80438072Y-102700000D01*
X80425812Y-102575518D01*
X80389502Y-102455820D01*
X80330537Y-102345506D01*
X80251185Y-102248815D01*
X80154494Y-102169463D01*
X80044180Y-102110498D01*
X79924482Y-102074188D01*
X79800000Y-102061928D01*
X78785750Y-102065000D01*
X78627000Y-102223750D01*
X78373000Y-102223750D01*
X78214250Y-102065000D01*
X77200000Y-102061928D01*
X77075518Y-102074188D01*
X76955820Y-102110498D01*
X76845506Y-102169463D01*
X76748815Y-102248815D01*
X76669463Y-102345506D01*
X76610498Y-102455820D01*
X76574188Y-102575518D01*
X76561928Y-102700000D01*
X68185000Y-102700000D01*
X68185000Y-88700000D01*
X76561928Y-88700000D01*
X76561928Y-91300000D01*
X76574188Y-91424482D01*
X76610498Y-91544180D01*
X76669463Y-91654494D01*
X76748815Y-91751185D01*
X76845506Y-91830537D01*
X76955820Y-91889502D01*
X77075518Y-91925812D01*
X77200000Y-91938072D01*
X79800000Y-91938072D01*
X79924482Y-91925812D01*
X80044180Y-91889502D01*
X80154494Y-91830537D01*
X80251185Y-91751185D01*
X80330537Y-91654494D01*
X80389502Y-91544180D01*
X80425812Y-91424482D01*
X80438072Y-91300000D01*
X80438072Y-88700000D01*
X80425812Y-88575518D01*
X80389502Y-88455820D01*
X80330537Y-88345506D01*
X80251185Y-88248815D01*
X80154494Y-88169463D01*
X80044180Y-88110498D01*
X79924482Y-88074188D01*
X79800000Y-88061928D01*
X77200000Y-88061928D01*
X77075518Y-88074188D01*
X76955820Y-88110498D01*
X76845506Y-88169463D01*
X76748815Y-88248815D01*
X76669463Y-88345506D01*
X76610498Y-88455820D01*
X76574188Y-88575518D01*
X76561928Y-88700000D01*
X68185000Y-88700000D01*
X68185000Y-50500000D01*
X74485114Y-50500000D01*
X74490001Y-50549618D01*
X74490000Y-83788869D01*
X74485114Y-83838477D01*
X74501478Y-84004615D01*
X74504615Y-84036470D01*
X74562368Y-84226856D01*
X74656153Y-84402317D01*
X74782367Y-84556110D01*
X74820906Y-84587738D01*
X75912266Y-85679099D01*
X75943890Y-85717633D01*
X76097683Y-85843847D01*
X76233731Y-85916566D01*
X76273143Y-85937632D01*
X76463528Y-85995385D01*
X76661523Y-86014886D01*
X76711131Y-86010000D01*
X76847655Y-86010000D01*
X76996987Y-86233491D01*
X77266509Y-86503013D01*
X77583434Y-86714775D01*
X77935581Y-86860639D01*
X78309419Y-86935000D01*
X78690581Y-86935000D01*
X79064419Y-86860639D01*
X79416566Y-86714775D01*
X79733491Y-86503013D01*
X80003013Y-86233491D01*
X80124026Y-86052381D01*
X81490001Y-87418356D01*
X81490000Y-96420122D01*
X80059329Y-97850793D01*
X80003013Y-97766509D01*
X79733491Y-97496987D01*
X79416566Y-97285225D01*
X79064419Y-97139361D01*
X78690581Y-97065000D01*
X78309419Y-97065000D01*
X77935581Y-97139361D01*
X77583434Y-97285225D01*
X77266509Y-97496987D01*
X76996987Y-97766509D01*
X76785225Y-98083434D01*
X76639361Y-98435581D01*
X76565000Y-98809419D01*
X76565000Y-99190581D01*
X76639361Y-99564419D01*
X76785225Y-99916566D01*
X76996987Y-100233491D01*
X77266509Y-100503013D01*
X77583434Y-100714775D01*
X77935581Y-100860639D01*
X78309419Y-100935000D01*
X78690581Y-100935000D01*
X79064419Y-100860639D01*
X79416566Y-100714775D01*
X79733491Y-100503013D01*
X80003013Y-100233491D01*
X80152345Y-100010000D01*
X80288869Y-100010000D01*
X80338477Y-100014886D01*
X80388085Y-100010000D01*
X86600130Y-100010000D01*
X86610498Y-100044180D01*
X86669463Y-100154494D01*
X86748815Y-100251185D01*
X86845506Y-100330537D01*
X86955820Y-100389502D01*
X87075518Y-100425812D01*
X87200000Y-100438072D01*
X88800000Y-100438072D01*
X88924482Y-100425812D01*
X89044180Y-100389502D01*
X89154494Y-100330537D01*
X89251185Y-100251185D01*
X89330537Y-100154494D01*
X89389502Y-100044180D01*
X89425812Y-99924482D01*
X89438072Y-99800000D01*
X89438072Y-99420000D01*
X97357319Y-99420000D01*
X97387970Y-99731204D01*
X97478745Y-100030449D01*
X97626155Y-100306235D01*
X97824537Y-100547963D01*
X98003899Y-100695163D01*
X97818685Y-100850563D01*
X97624031Y-101093077D01*
X97480429Y-101368906D01*
X97409437Y-101587020D01*
X97529406Y-101833000D01*
X98873000Y-101833000D01*
X98873000Y-101813000D01*
X99127000Y-101813000D01*
X99127000Y-101833000D01*
X100470594Y-101833000D01*
X100590563Y-101587020D01*
X100519571Y-101368906D01*
X100375969Y-101093077D01*
X100295403Y-100992702D01*
X109686903Y-100992702D01*
X109758486Y-101236671D01*
X110013996Y-101357571D01*
X110288184Y-101426300D01*
X110570512Y-101440217D01*
X110850130Y-101398787D01*
X111116292Y-101303603D01*
X111241514Y-101236671D01*
X111313097Y-100992702D01*
X118186903Y-100992702D01*
X118258486Y-101236671D01*
X118513996Y-101357571D01*
X118788184Y-101426300D01*
X119070512Y-101440217D01*
X119350130Y-101398787D01*
X119616292Y-101303603D01*
X119741514Y-101236671D01*
X119813097Y-100992702D01*
X119000000Y-100179605D01*
X118186903Y-100992702D01*
X111313097Y-100992702D01*
X110500000Y-100179605D01*
X109686903Y-100992702D01*
X100295403Y-100992702D01*
X100181315Y-100850563D01*
X99996101Y-100695163D01*
X100175463Y-100547963D01*
X100373845Y-100306235D01*
X100499840Y-100070512D01*
X109059783Y-100070512D01*
X109101213Y-100350130D01*
X109196397Y-100616292D01*
X109263329Y-100741514D01*
X109507298Y-100813097D01*
X110320395Y-100000000D01*
X110679605Y-100000000D01*
X111492702Y-100813097D01*
X111736671Y-100741514D01*
X111857571Y-100486004D01*
X111926300Y-100211816D01*
X111933265Y-100070512D01*
X117559783Y-100070512D01*
X117601213Y-100350130D01*
X117696397Y-100616292D01*
X117763329Y-100741514D01*
X118007298Y-100813097D01*
X118820395Y-100000000D01*
X119179605Y-100000000D01*
X119992702Y-100813097D01*
X120236671Y-100741514D01*
X120357571Y-100486004D01*
X120426300Y-100211816D01*
X120440217Y-99929488D01*
X120398787Y-99649870D01*
X120303603Y-99383708D01*
X120236671Y-99258486D01*
X119992702Y-99186903D01*
X119179605Y-100000000D01*
X118820395Y-100000000D01*
X118007298Y-99186903D01*
X117763329Y-99258486D01*
X117642429Y-99513996D01*
X117573700Y-99788184D01*
X117559783Y-100070512D01*
X111933265Y-100070512D01*
X111940217Y-99929488D01*
X111898787Y-99649870D01*
X111803603Y-99383708D01*
X111736671Y-99258486D01*
X111492702Y-99186903D01*
X110679605Y-100000000D01*
X110320395Y-100000000D01*
X109507298Y-99186903D01*
X109263329Y-99258486D01*
X109142429Y-99513996D01*
X109073700Y-99788184D01*
X109059783Y-100070512D01*
X100499840Y-100070512D01*
X100521255Y-100030449D01*
X100612030Y-99731204D01*
X100642681Y-99420000D01*
X100612030Y-99108796D01*
X100521255Y-98809551D01*
X100373845Y-98533765D01*
X100175463Y-98292037D01*
X99933735Y-98093655D01*
X99657949Y-97946245D01*
X99358704Y-97855470D01*
X99125486Y-97832500D01*
X98874514Y-97832500D01*
X98641296Y-97855470D01*
X98342051Y-97946245D01*
X98066265Y-98093655D01*
X97824537Y-98292037D01*
X97626155Y-98533765D01*
X97478745Y-98809551D01*
X97387970Y-99108796D01*
X97357319Y-99420000D01*
X89438072Y-99420000D01*
X89438072Y-98200000D01*
X89425812Y-98075518D01*
X89389502Y-97955820D01*
X89330537Y-97845506D01*
X89251185Y-97748815D01*
X89154494Y-97669463D01*
X89044180Y-97610498D01*
X88924482Y-97574188D01*
X88800000Y-97561928D01*
X87200000Y-97561928D01*
X87075518Y-97574188D01*
X86955820Y-97610498D01*
X86845506Y-97669463D01*
X86748815Y-97748815D01*
X86669463Y-97845506D01*
X86610498Y-97955820D01*
X86600130Y-97990000D01*
X82776832Y-97990000D01*
X83179094Y-97587738D01*
X83217633Y-97556110D01*
X83343847Y-97402317D01*
X83437632Y-97226857D01*
X83495385Y-97036471D01*
X83510000Y-96888085D01*
X83510000Y-96888083D01*
X83514886Y-96838478D01*
X83510000Y-96788873D01*
X83510000Y-96700000D01*
X109061928Y-96700000D01*
X109061928Y-98300000D01*
X109074188Y-98424482D01*
X109110498Y-98544180D01*
X109169463Y-98654494D01*
X109248815Y-98751185D01*
X109345506Y-98830537D01*
X109455820Y-98889502D01*
X109575518Y-98925812D01*
X109700000Y-98938072D01*
X109707215Y-98938072D01*
X109686903Y-99007298D01*
X110500000Y-99820395D01*
X111313097Y-99007298D01*
X111292785Y-98938072D01*
X111300000Y-98938072D01*
X111424482Y-98925812D01*
X111544180Y-98889502D01*
X111654494Y-98830537D01*
X111751185Y-98751185D01*
X111830537Y-98654494D01*
X111889502Y-98544180D01*
X111925812Y-98424482D01*
X111938072Y-98300000D01*
X111938072Y-96700000D01*
X117561928Y-96700000D01*
X117561928Y-98300000D01*
X117574188Y-98424482D01*
X117610498Y-98544180D01*
X117669463Y-98654494D01*
X117748815Y-98751185D01*
X117845506Y-98830537D01*
X117955820Y-98889502D01*
X118075518Y-98925812D01*
X118200000Y-98938072D01*
X118207215Y-98938072D01*
X118186903Y-99007298D01*
X119000000Y-99820395D01*
X119813097Y-99007298D01*
X119792785Y-98938072D01*
X119800000Y-98938072D01*
X119924482Y-98925812D01*
X120044180Y-98889502D01*
X120154494Y-98830537D01*
X120251185Y-98751185D01*
X120330537Y-98654494D01*
X120389502Y-98544180D01*
X120425812Y-98424482D01*
X120438072Y-98300000D01*
X120438072Y-96700000D01*
X120425812Y-96575518D01*
X120389502Y-96455820D01*
X120330537Y-96345506D01*
X120251185Y-96248815D01*
X120154494Y-96169463D01*
X120044180Y-96110498D01*
X119924482Y-96074188D01*
X119800000Y-96061928D01*
X118200000Y-96061928D01*
X118075518Y-96074188D01*
X117955820Y-96110498D01*
X117845506Y-96169463D01*
X117748815Y-96248815D01*
X117669463Y-96345506D01*
X117610498Y-96455820D01*
X117574188Y-96575518D01*
X117561928Y-96700000D01*
X111938072Y-96700000D01*
X111925812Y-96575518D01*
X111889502Y-96455820D01*
X111830537Y-96345506D01*
X111751185Y-96248815D01*
X111654494Y-96169463D01*
X111544180Y-96110498D01*
X111424482Y-96074188D01*
X111300000Y-96061928D01*
X109700000Y-96061928D01*
X109575518Y-96074188D01*
X109455820Y-96110498D01*
X109345506Y-96169463D01*
X109248815Y-96248815D01*
X109169463Y-96345506D01*
X109110498Y-96455820D01*
X109074188Y-96575518D01*
X109061928Y-96700000D01*
X83510000Y-96700000D01*
X83510000Y-87049604D01*
X83514886Y-86999999D01*
X83508484Y-86935000D01*
X83495385Y-86802006D01*
X83437632Y-86611620D01*
X83343847Y-86436160D01*
X83217633Y-86282367D01*
X83179094Y-86250739D01*
X81249261Y-84320906D01*
X81217633Y-84282367D01*
X81063840Y-84156153D01*
X80888380Y-84062368D01*
X80697994Y-84004615D01*
X80549608Y-83990000D01*
X80500000Y-83985114D01*
X80450392Y-83990000D01*
X80152345Y-83990000D01*
X80003013Y-83766509D01*
X79733491Y-83496987D01*
X79416566Y-83285225D01*
X79064419Y-83139361D01*
X78690581Y-83065000D01*
X78309419Y-83065000D01*
X77935581Y-83139361D01*
X77583434Y-83285225D01*
X77266509Y-83496987D01*
X76996987Y-83766509D01*
X76940671Y-83850792D01*
X76510000Y-83420122D01*
X76510000Y-83000000D01*
X86873000Y-83000000D01*
X86873000Y-90000000D01*
X86875440Y-90024776D01*
X86882667Y-90048601D01*
X86894403Y-90070557D01*
X86910197Y-90089803D01*
X86929443Y-90105597D01*
X86951399Y-90117333D01*
X86975224Y-90124560D01*
X87000000Y-90127000D01*
X113000000Y-90127000D01*
X113024776Y-90124560D01*
X113048601Y-90117333D01*
X113070557Y-90105597D01*
X113089803Y-90089803D01*
X113105597Y-90070557D01*
X113117333Y-90048601D01*
X113124560Y-90024776D01*
X113127000Y-90000000D01*
X113127000Y-83000000D01*
X113124560Y-82975224D01*
X113117333Y-82951399D01*
X113105597Y-82929443D01*
X113089803Y-82910197D01*
X113070557Y-82894403D01*
X113048601Y-82882667D01*
X113024776Y-82875440D01*
X113014202Y-82874399D01*
X113030537Y-82854494D01*
X113089502Y-82744180D01*
X113125812Y-82624482D01*
X113138072Y-82500000D01*
X113135000Y-81785750D01*
X112976252Y-81627002D01*
X113115424Y-81627002D01*
X114574999Y-83086578D01*
X114575000Y-91976522D01*
X114570718Y-92020001D01*
X114587804Y-92193491D01*
X114638411Y-92360314D01*
X114720589Y-92514060D01*
X114803467Y-92615047D01*
X114803470Y-92615050D01*
X114831183Y-92648818D01*
X114864950Y-92676530D01*
X115423467Y-93235048D01*
X115451180Y-93268816D01*
X115484948Y-93296529D01*
X115484950Y-93296531D01*
X115585938Y-93379410D01*
X115739683Y-93461588D01*
X115906507Y-93512194D01*
X116036520Y-93524999D01*
X116036528Y-93524999D01*
X116079997Y-93529280D01*
X116123466Y-93524999D01*
X117856532Y-93524999D01*
X117900001Y-93529280D01*
X117943470Y-93524999D01*
X117943478Y-93524999D01*
X118073491Y-93512194D01*
X118240314Y-93461588D01*
X118394060Y-93379410D01*
X118528818Y-93268816D01*
X118556535Y-93235043D01*
X118568432Y-93223146D01*
X118829117Y-93275000D01*
X119170883Y-93275000D01*
X119506081Y-93208325D01*
X119821831Y-93077537D01*
X120105998Y-92887663D01*
X120347663Y-92645998D01*
X120537537Y-92361831D01*
X120668325Y-92046081D01*
X120735000Y-91710883D01*
X120735000Y-91369117D01*
X120668325Y-91033919D01*
X120537537Y-90718169D01*
X120470310Y-90617557D01*
X120551185Y-90551185D01*
X120630537Y-90454494D01*
X120689502Y-90344180D01*
X120725812Y-90224482D01*
X120738072Y-90100000D01*
X120735000Y-89285750D01*
X120576250Y-89127000D01*
X119127000Y-89127000D01*
X119127000Y-89147000D01*
X118873000Y-89147000D01*
X118873000Y-89127000D01*
X118853000Y-89127000D01*
X118853000Y-88873000D01*
X118873000Y-88873000D01*
X118873000Y-87423750D01*
X119127000Y-87423750D01*
X119127000Y-88873000D01*
X120576250Y-88873000D01*
X120735000Y-88714250D01*
X120738072Y-87900000D01*
X120725812Y-87775518D01*
X120689502Y-87655820D01*
X120630537Y-87545506D01*
X120551185Y-87448815D01*
X120454494Y-87369463D01*
X120344180Y-87310498D01*
X120224482Y-87274188D01*
X120100000Y-87261928D01*
X119285750Y-87265000D01*
X119127000Y-87423750D01*
X118873000Y-87423750D01*
X118714250Y-87265000D01*
X117900000Y-87261928D01*
X117775518Y-87274188D01*
X117655820Y-87310498D01*
X117545506Y-87369463D01*
X117448815Y-87448815D01*
X117369463Y-87545506D01*
X117310498Y-87655820D01*
X117274188Y-87775518D01*
X117261928Y-87900000D01*
X117262784Y-88126940D01*
X117215394Y-88079550D01*
X117021308Y-87949866D01*
X116805652Y-87860539D01*
X116576712Y-87815000D01*
X116344999Y-87815000D01*
X116344999Y-82763468D01*
X116349280Y-82719999D01*
X116344999Y-82676530D01*
X116344999Y-82676522D01*
X116332194Y-82546509D01*
X116324034Y-82519608D01*
X116281588Y-82379685D01*
X116199410Y-82225940D01*
X116116531Y-82124952D01*
X116116529Y-82124950D01*
X116088816Y-82091182D01*
X116055049Y-82063470D01*
X113124875Y-79133296D01*
X113141943Y-78960000D01*
X113114236Y-78678691D01*
X113032182Y-78408192D01*
X112898932Y-78158899D01*
X112719608Y-77940392D01*
X112501101Y-77761068D01*
X112368142Y-77690000D01*
X112501101Y-77618932D01*
X112719608Y-77439608D01*
X112898932Y-77221101D01*
X113032182Y-76971808D01*
X113114236Y-76701309D01*
X113141943Y-76420000D01*
X113114236Y-76138691D01*
X113032182Y-75868192D01*
X112898932Y-75618899D01*
X112719608Y-75400392D01*
X112501101Y-75221068D01*
X112368142Y-75150000D01*
X112501101Y-75078932D01*
X112719608Y-74899608D01*
X112898932Y-74681101D01*
X112942281Y-74600000D01*
X117261928Y-74600000D01*
X117274188Y-74724482D01*
X117310498Y-74844180D01*
X117369463Y-74954494D01*
X117448815Y-75051185D01*
X117529690Y-75117557D01*
X117462463Y-75218169D01*
X117331675Y-75533919D01*
X117265000Y-75869117D01*
X117265000Y-76210883D01*
X117331675Y-76546081D01*
X117462463Y-76861831D01*
X117652337Y-77145998D01*
X117816339Y-77310000D01*
X117652337Y-77474002D01*
X117462463Y-77758169D01*
X117331675Y-78073919D01*
X117265000Y-78409117D01*
X117265000Y-78750883D01*
X117331675Y-79086081D01*
X117462463Y-79401831D01*
X117652337Y-79685998D01*
X117816339Y-79850000D01*
X117652337Y-80014002D01*
X117462463Y-80298169D01*
X117331675Y-80613919D01*
X117265000Y-80949117D01*
X117265000Y-81290883D01*
X117331675Y-81626081D01*
X117462463Y-81941831D01*
X117652337Y-82225998D01*
X117894002Y-82467663D01*
X118178169Y-82657537D01*
X118493919Y-82788325D01*
X118829117Y-82855000D01*
X119170883Y-82855000D01*
X119506081Y-82788325D01*
X119821831Y-82657537D01*
X120105998Y-82467663D01*
X120347663Y-82225998D01*
X120537537Y-81941831D01*
X120668325Y-81626081D01*
X120735000Y-81290883D01*
X120735000Y-80949117D01*
X120668325Y-80613919D01*
X120537537Y-80298169D01*
X120347663Y-80014002D01*
X120183661Y-79850000D01*
X120347663Y-79685998D01*
X120537537Y-79401831D01*
X120668325Y-79086081D01*
X120735000Y-78750883D01*
X120735000Y-78409117D01*
X120668325Y-78073919D01*
X120537537Y-77758169D01*
X120347663Y-77474002D01*
X120183661Y-77310000D01*
X120347663Y-77145998D01*
X120537537Y-76861831D01*
X120668325Y-76546081D01*
X120735000Y-76210883D01*
X120735000Y-75869117D01*
X120668325Y-75533919D01*
X120537537Y-75218169D01*
X120470310Y-75117557D01*
X120551185Y-75051185D01*
X120630537Y-74954494D01*
X120689502Y-74844180D01*
X120725812Y-74724482D01*
X120738072Y-74600000D01*
X120735000Y-73785750D01*
X120576250Y-73627000D01*
X119127000Y-73627000D01*
X119127000Y-73647000D01*
X118873000Y-73647000D01*
X118873000Y-73627000D01*
X117423750Y-73627000D01*
X117265000Y-73785750D01*
X117261928Y-74600000D01*
X112942281Y-74600000D01*
X113032182Y-74431808D01*
X113114236Y-74161309D01*
X113141943Y-73880000D01*
X113114236Y-73598691D01*
X113032182Y-73328192D01*
X112898932Y-73078899D01*
X112719608Y-72860392D01*
X112501101Y-72681068D01*
X112368142Y-72610000D01*
X112501101Y-72538932D01*
X112670390Y-72400000D01*
X117261928Y-72400000D01*
X117265000Y-73214250D01*
X117423750Y-73373000D01*
X118873000Y-73373000D01*
X118873000Y-71923750D01*
X119127000Y-71923750D01*
X119127000Y-73373000D01*
X120576250Y-73373000D01*
X120735000Y-73214250D01*
X120738072Y-72400000D01*
X120725812Y-72275518D01*
X120689502Y-72155820D01*
X120630537Y-72045506D01*
X120551185Y-71948815D01*
X120454494Y-71869463D01*
X120344180Y-71810498D01*
X120224482Y-71774188D01*
X120100000Y-71761928D01*
X119285750Y-71765000D01*
X119127000Y-71923750D01*
X118873000Y-71923750D01*
X118714250Y-71765000D01*
X117900000Y-71761928D01*
X117775518Y-71774188D01*
X117655820Y-71810498D01*
X117545506Y-71869463D01*
X117448815Y-71948815D01*
X117369463Y-72045506D01*
X117310498Y-72155820D01*
X117274188Y-72275518D01*
X117261928Y-72400000D01*
X112670390Y-72400000D01*
X112719608Y-72359608D01*
X112898932Y-72141101D01*
X113032182Y-71891808D01*
X113114236Y-71621309D01*
X113141943Y-71340000D01*
X113114236Y-71058691D01*
X113032182Y-70788192D01*
X112898932Y-70538899D01*
X112719608Y-70320392D01*
X112501101Y-70141068D01*
X112368142Y-70070000D01*
X112501101Y-69998932D01*
X112719608Y-69819608D01*
X112898932Y-69601101D01*
X113032182Y-69351808D01*
X113114236Y-69081309D01*
X113141943Y-68800000D01*
X113114236Y-68518691D01*
X113032182Y-68248192D01*
X112898932Y-67998899D01*
X112719608Y-67780392D01*
X112501101Y-67601068D01*
X112368142Y-67530000D01*
X112501101Y-67458932D01*
X112719608Y-67279608D01*
X112898932Y-67061101D01*
X113032182Y-66811808D01*
X113114236Y-66541309D01*
X113141943Y-66260000D01*
X113114236Y-65978691D01*
X113032182Y-65708192D01*
X112898932Y-65458899D01*
X112719608Y-65240392D01*
X112501101Y-65061068D01*
X112368142Y-64990000D01*
X112501101Y-64918932D01*
X112719608Y-64739608D01*
X112898932Y-64521101D01*
X113032182Y-64271808D01*
X113114236Y-64001309D01*
X113141943Y-63720000D01*
X113114236Y-63438691D01*
X113032182Y-63168192D01*
X112898932Y-62918899D01*
X112719608Y-62700392D01*
X112501101Y-62521068D01*
X112251808Y-62387818D01*
X111981309Y-62305764D01*
X111770492Y-62285000D01*
X111229508Y-62285000D01*
X111018691Y-62305764D01*
X110748192Y-62387818D01*
X110498899Y-62521068D01*
X110280392Y-62700392D01*
X110101068Y-62918899D01*
X109967818Y-63168192D01*
X109885764Y-63438691D01*
X109858057Y-63720000D01*
X109885764Y-64001309D01*
X109967818Y-64271808D01*
X110101068Y-64521101D01*
X110280392Y-64739608D01*
X110498899Y-64918932D01*
X110631858Y-64990000D01*
X110498899Y-65061068D01*
X110280392Y-65240392D01*
X110101068Y-65458899D01*
X109967818Y-65708192D01*
X109885764Y-65978691D01*
X109858057Y-66260000D01*
X109885764Y-66541309D01*
X109967818Y-66811808D01*
X110101068Y-67061101D01*
X110280392Y-67279608D01*
X110498899Y-67458932D01*
X110631858Y-67530000D01*
X110498899Y-67601068D01*
X110280392Y-67780392D01*
X110101068Y-67998899D01*
X109967818Y-68248192D01*
X109885764Y-68518691D01*
X109858057Y-68800000D01*
X109885764Y-69081309D01*
X109967818Y-69351808D01*
X110101068Y-69601101D01*
X110280392Y-69819608D01*
X110498899Y-69998932D01*
X110631858Y-70070000D01*
X110498899Y-70141068D01*
X110280392Y-70320392D01*
X110101068Y-70538899D01*
X109967818Y-70788192D01*
X109885764Y-71058691D01*
X109858057Y-71340000D01*
X109885764Y-71621309D01*
X109967818Y-71891808D01*
X110101068Y-72141101D01*
X110280392Y-72359608D01*
X110498899Y-72538932D01*
X110631858Y-72610000D01*
X110498899Y-72681068D01*
X110280392Y-72860392D01*
X110101068Y-73078899D01*
X109967818Y-73328192D01*
X109885764Y-73598691D01*
X109858057Y-73880000D01*
X109885764Y-74161309D01*
X109967818Y-74431808D01*
X110101068Y-74681101D01*
X110280392Y-74899608D01*
X110498899Y-75078932D01*
X110631858Y-75150000D01*
X110498899Y-75221068D01*
X110280392Y-75400392D01*
X110101068Y-75618899D01*
X109967818Y-75868192D01*
X109890717Y-76122362D01*
X108510000Y-74741645D01*
X108510000Y-69889608D01*
X108514886Y-69840000D01*
X108495385Y-69642005D01*
X108437632Y-69451620D01*
X108404431Y-69389505D01*
X108343847Y-69276160D01*
X108217633Y-69122367D01*
X108179100Y-69090744D01*
X106100725Y-67012369D01*
X106101943Y-67000000D01*
X106074236Y-66718691D01*
X105992182Y-66448192D01*
X105858932Y-66198899D01*
X105679608Y-65980392D01*
X105461101Y-65801068D01*
X105211808Y-65667818D01*
X104941309Y-65585764D01*
X104730492Y-65565000D01*
X104589508Y-65565000D01*
X104378691Y-65585764D01*
X104108192Y-65667818D01*
X103858899Y-65801068D01*
X103640392Y-65980392D01*
X103461068Y-66198899D01*
X103327818Y-66448192D01*
X103245764Y-66718691D01*
X103218057Y-67000000D01*
X103245764Y-67281309D01*
X103327818Y-67551808D01*
X103461068Y-67801101D01*
X103640392Y-68019608D01*
X103858899Y-68198932D01*
X104108192Y-68332182D01*
X104378691Y-68414236D01*
X104589508Y-68435000D01*
X104666645Y-68435000D01*
X106490000Y-70258356D01*
X106490001Y-75110382D01*
X106485114Y-75160000D01*
X106504615Y-75357994D01*
X106562368Y-75548379D01*
X106562369Y-75548380D01*
X106656154Y-75723840D01*
X106782368Y-75877633D01*
X106820901Y-75909256D01*
X109859275Y-78947631D01*
X109858057Y-78960000D01*
X109885764Y-79241309D01*
X109967818Y-79511808D01*
X110101068Y-79761101D01*
X110233476Y-79922441D01*
X110145506Y-79969463D01*
X110048815Y-80048815D01*
X109969463Y-80145506D01*
X109910498Y-80255820D01*
X109874188Y-80375518D01*
X109861928Y-80500000D01*
X109865000Y-81214250D01*
X110023750Y-81373000D01*
X111373000Y-81373000D01*
X111373000Y-81353000D01*
X111627000Y-81353000D01*
X111627000Y-81373000D01*
X111647000Y-81373000D01*
X111647000Y-81627000D01*
X111627000Y-81627000D01*
X111627000Y-81647000D01*
X111373000Y-81647000D01*
X111373000Y-81627000D01*
X110023750Y-81627000D01*
X109865000Y-81785750D01*
X109861928Y-82500000D01*
X109874188Y-82624482D01*
X109910498Y-82744180D01*
X109969463Y-82854494D01*
X109984650Y-82873000D01*
X89257247Y-82873000D01*
X89391808Y-82832182D01*
X89641101Y-82698932D01*
X89859608Y-82519608D01*
X90038932Y-82301101D01*
X90172182Y-82051808D01*
X90254236Y-81781309D01*
X90281943Y-81500000D01*
X90254236Y-81218691D01*
X90172182Y-80948192D01*
X90038932Y-80698899D01*
X89859608Y-80480392D01*
X89641101Y-80301068D01*
X89508142Y-80230000D01*
X89641101Y-80158932D01*
X89859608Y-79979608D01*
X90038932Y-79761101D01*
X90172182Y-79511808D01*
X90254236Y-79241309D01*
X90281943Y-78960000D01*
X90254236Y-78678691D01*
X90172182Y-78408192D01*
X90038932Y-78158899D01*
X89859608Y-77940392D01*
X89641101Y-77761068D01*
X89508142Y-77690000D01*
X89641101Y-77618932D01*
X89859608Y-77439608D01*
X90038932Y-77221101D01*
X90172182Y-76971808D01*
X90254236Y-76701309D01*
X90281943Y-76420000D01*
X90254236Y-76138691D01*
X90172182Y-75868192D01*
X90038932Y-75618899D01*
X89859608Y-75400392D01*
X89641101Y-75221068D01*
X89508142Y-75150000D01*
X89641101Y-75078932D01*
X89859608Y-74899608D01*
X90038932Y-74681101D01*
X90172182Y-74431808D01*
X90254236Y-74161309D01*
X90281943Y-73880000D01*
X90254236Y-73598691D01*
X90172182Y-73328192D01*
X90038932Y-73078899D01*
X89859608Y-72860392D01*
X89641101Y-72681068D01*
X89508142Y-72610000D01*
X89641101Y-72538932D01*
X89859608Y-72359608D01*
X89867493Y-72350000D01*
X89971645Y-72350000D01*
X90675744Y-73054100D01*
X90707368Y-73092634D01*
X90861161Y-73218848D01*
X91036621Y-73312633D01*
X91227007Y-73370386D01*
X91375393Y-73385001D01*
X91375395Y-73385001D01*
X91425000Y-73389887D01*
X91474605Y-73385001D01*
X103235391Y-73385001D01*
X103284999Y-73389887D01*
X103482993Y-73370386D01*
X103482996Y-73370385D01*
X103673379Y-73312633D01*
X103848839Y-73218848D01*
X104002632Y-73092634D01*
X104034260Y-73054095D01*
X104653355Y-72435000D01*
X104730492Y-72435000D01*
X104941309Y-72414236D01*
X105211808Y-72332182D01*
X105461101Y-72198932D01*
X105679608Y-72019608D01*
X105858932Y-71801101D01*
X105992182Y-71551808D01*
X106074236Y-71281309D01*
X106101943Y-71000000D01*
X106074236Y-70718691D01*
X105992182Y-70448192D01*
X105858932Y-70198899D01*
X105679608Y-69980392D01*
X105461101Y-69801068D01*
X105211808Y-69667818D01*
X104941309Y-69585764D01*
X104730492Y-69565000D01*
X104589508Y-69565000D01*
X104378691Y-69585764D01*
X104108192Y-69667818D01*
X103858899Y-69801068D01*
X103640392Y-69980392D01*
X103461068Y-70198899D01*
X103327818Y-70448192D01*
X103245764Y-70718691D01*
X103218057Y-71000000D01*
X103219275Y-71012370D01*
X102866644Y-71365001D01*
X95890509Y-71365001D01*
X95935000Y-71141335D01*
X95935000Y-70858665D01*
X95897467Y-70669978D01*
X95934972Y-70624278D01*
X95934973Y-70624277D01*
X96005545Y-70492248D01*
X96049002Y-70348987D01*
X96059999Y-70237334D01*
X96059999Y-70237325D01*
X96063675Y-70200002D01*
X96059999Y-70162679D01*
X96059999Y-67837321D01*
X96063675Y-67799998D01*
X96059999Y-67762675D01*
X96059999Y-67762666D01*
X96049002Y-67651013D01*
X96005545Y-67507752D01*
X95934973Y-67375723D01*
X95897467Y-67330022D01*
X95935000Y-67141335D01*
X95935000Y-66858665D01*
X95879853Y-66581426D01*
X95771680Y-66320273D01*
X95614637Y-66085241D01*
X95414759Y-65885363D01*
X95179727Y-65728320D01*
X94918574Y-65620147D01*
X94641335Y-65565000D01*
X94358665Y-65565000D01*
X94081426Y-65620147D01*
X93820273Y-65728320D01*
X93585241Y-65885363D01*
X93385363Y-66085241D01*
X93228320Y-66320273D01*
X93120147Y-66581426D01*
X93065000Y-66858665D01*
X93065000Y-67141335D01*
X93120147Y-67418574D01*
X93228320Y-67679727D01*
X93385363Y-67914759D01*
X93585241Y-68114637D01*
X93820273Y-68271680D01*
X94081426Y-68379853D01*
X94358665Y-68435000D01*
X94540000Y-68435000D01*
X94539999Y-69565000D01*
X94358665Y-69565000D01*
X94081426Y-69620147D01*
X93820273Y-69728320D01*
X93585241Y-69885363D01*
X93385363Y-70085241D01*
X93228320Y-70320273D01*
X93120147Y-70581426D01*
X93065000Y-70858665D01*
X93065000Y-71141335D01*
X93109491Y-71365001D01*
X91843357Y-71365001D01*
X91139261Y-70660906D01*
X91107633Y-70622367D01*
X90953840Y-70496153D01*
X90778380Y-70402368D01*
X90587994Y-70344615D01*
X90439608Y-70330000D01*
X90390000Y-70325114D01*
X90340392Y-70330000D01*
X89867493Y-70330000D01*
X89859608Y-70320392D01*
X89641101Y-70141068D01*
X89508142Y-70070000D01*
X89641101Y-69998932D01*
X89859608Y-69819608D01*
X90038932Y-69601101D01*
X90172182Y-69351808D01*
X90254236Y-69081309D01*
X90281943Y-68800000D01*
X90264874Y-68626704D01*
X103993517Y-54898061D01*
X113465000Y-54898061D01*
X113465000Y-55101939D01*
X113504774Y-55301898D01*
X113582795Y-55490256D01*
X113696063Y-55659774D01*
X113840226Y-55803937D01*
X114009744Y-55917205D01*
X114198102Y-55995226D01*
X114398061Y-56035000D01*
X114601939Y-56035000D01*
X114801898Y-55995226D01*
X114990256Y-55917205D01*
X115038454Y-55885000D01*
X117036531Y-55885000D01*
X117080000Y-55889281D01*
X117123469Y-55885000D01*
X117123477Y-55885000D01*
X117253490Y-55872195D01*
X117420313Y-55821589D01*
X117574059Y-55739411D01*
X117708817Y-55628817D01*
X117736534Y-55595044D01*
X118568432Y-54763147D01*
X118829117Y-54815000D01*
X119170883Y-54815000D01*
X119506081Y-54748325D01*
X119567912Y-54722714D01*
X120240001Y-55394803D01*
X120240001Y-58778896D01*
X120224482Y-58774188D01*
X120100000Y-58761928D01*
X119285750Y-58765000D01*
X119127000Y-58923750D01*
X119127000Y-60373000D01*
X119147000Y-60373000D01*
X119147000Y-60627000D01*
X119127000Y-60627000D01*
X119127000Y-60647000D01*
X118873000Y-60647000D01*
X118873000Y-60627000D01*
X118853000Y-60627000D01*
X118853000Y-60373000D01*
X118873000Y-60373000D01*
X118873000Y-58923750D01*
X118714250Y-58765000D01*
X117900000Y-58761928D01*
X117775518Y-58774188D01*
X117655820Y-58810498D01*
X117545506Y-58869463D01*
X117448815Y-58948815D01*
X117369463Y-59045506D01*
X117310498Y-59155820D01*
X117274188Y-59275518D01*
X117261928Y-59400000D01*
X117262784Y-59626940D01*
X117215394Y-59579550D01*
X117021308Y-59449866D01*
X116805652Y-59360539D01*
X116576712Y-59315000D01*
X116343288Y-59315000D01*
X116114348Y-59360539D01*
X115898692Y-59449866D01*
X115704606Y-59579550D01*
X115539550Y-59744606D01*
X115409866Y-59938692D01*
X115320539Y-60154348D01*
X115275000Y-60383288D01*
X115275000Y-60616712D01*
X115320539Y-60845652D01*
X115409866Y-61061308D01*
X115539550Y-61255394D01*
X115704606Y-61420450D01*
X115898692Y-61550134D01*
X116114348Y-61639461D01*
X116343288Y-61685000D01*
X116576712Y-61685000D01*
X116805652Y-61639461D01*
X117021308Y-61550134D01*
X117215394Y-61420450D01*
X117262784Y-61373060D01*
X117261928Y-61600000D01*
X117274188Y-61724482D01*
X117310498Y-61844180D01*
X117369463Y-61954494D01*
X117448815Y-62051185D01*
X117529690Y-62117557D01*
X117462463Y-62218169D01*
X117414090Y-62334952D01*
X117380450Y-62284606D01*
X117215394Y-62119550D01*
X117021308Y-61989866D01*
X116805652Y-61900539D01*
X116576712Y-61855000D01*
X116343288Y-61855000D01*
X116114348Y-61900539D01*
X115898692Y-61989866D01*
X115704606Y-62119550D01*
X115539550Y-62284606D01*
X115409866Y-62478692D01*
X115320539Y-62694348D01*
X115275000Y-62923288D01*
X115275000Y-63156712D01*
X115320539Y-63385652D01*
X115409866Y-63601308D01*
X115539550Y-63795394D01*
X115704606Y-63960450D01*
X115898692Y-64090134D01*
X116114348Y-64179461D01*
X116343288Y-64225000D01*
X116576712Y-64225000D01*
X116805652Y-64179461D01*
X117021308Y-64090134D01*
X117215394Y-63960450D01*
X117380450Y-63795394D01*
X117414090Y-63745048D01*
X117462463Y-63861831D01*
X117652337Y-64145998D01*
X117816339Y-64310000D01*
X117652337Y-64474002D01*
X117462463Y-64758169D01*
X117414090Y-64874952D01*
X117380450Y-64824606D01*
X117215394Y-64659550D01*
X117021308Y-64529866D01*
X116805652Y-64440539D01*
X116576712Y-64395000D01*
X116343288Y-64395000D01*
X116114348Y-64440539D01*
X115898692Y-64529866D01*
X115704606Y-64659550D01*
X115539550Y-64824606D01*
X115409866Y-65018692D01*
X115320539Y-65234348D01*
X115275000Y-65463288D01*
X115275000Y-65696712D01*
X115320539Y-65925652D01*
X115409866Y-66141308D01*
X115539550Y-66335394D01*
X115704606Y-66500450D01*
X115898692Y-66630134D01*
X116114348Y-66719461D01*
X116343288Y-66765000D01*
X116576712Y-66765000D01*
X116805652Y-66719461D01*
X117021308Y-66630134D01*
X117215394Y-66500450D01*
X117380450Y-66335394D01*
X117414090Y-66285048D01*
X117462463Y-66401831D01*
X117652337Y-66685998D01*
X117894002Y-66927663D01*
X118178169Y-67117537D01*
X118493919Y-67248325D01*
X118829117Y-67315000D01*
X119170883Y-67315000D01*
X119506081Y-67248325D01*
X119821831Y-67117537D01*
X120105998Y-66927663D01*
X120347663Y-66685998D01*
X120537537Y-66401831D01*
X120567649Y-66329135D01*
X120568986Y-66329003D01*
X120712247Y-66285546D01*
X120844276Y-66214974D01*
X120960001Y-66120001D01*
X120983803Y-66090998D01*
X121511004Y-65563798D01*
X121540001Y-65540001D01*
X121634974Y-65424276D01*
X121705546Y-65292247D01*
X121749003Y-65148986D01*
X121760000Y-65037333D01*
X121760000Y-65037323D01*
X121763676Y-65000000D01*
X121760000Y-64962677D01*
X121760000Y-55117322D01*
X121763676Y-55079999D01*
X121760000Y-55042676D01*
X121760000Y-55042667D01*
X121749003Y-54931014D01*
X121705546Y-54787753D01*
X121657626Y-54698102D01*
X121634974Y-54655723D01*
X121563799Y-54568997D01*
X121540001Y-54539999D01*
X121511003Y-54516201D01*
X120642714Y-53647912D01*
X120668325Y-53586081D01*
X120735000Y-53250883D01*
X120735000Y-52909117D01*
X120668325Y-52573919D01*
X120537537Y-52258169D01*
X120347663Y-51974002D01*
X120183661Y-51810000D01*
X120347663Y-51645998D01*
X120537537Y-51361831D01*
X120668325Y-51046081D01*
X120735000Y-50710883D01*
X120735000Y-50369117D01*
X120668325Y-50033919D01*
X120537537Y-49718169D01*
X120470310Y-49617557D01*
X120551185Y-49551185D01*
X120630537Y-49454494D01*
X120689502Y-49344180D01*
X120725812Y-49224482D01*
X120738072Y-49100000D01*
X120735000Y-48285750D01*
X120576250Y-48127000D01*
X119127000Y-48127000D01*
X119127000Y-48147000D01*
X118873000Y-48147000D01*
X118873000Y-48127000D01*
X118853000Y-48127000D01*
X118853000Y-47873000D01*
X118873000Y-47873000D01*
X118873000Y-46423750D01*
X119127000Y-46423750D01*
X119127000Y-47873000D01*
X120576250Y-47873000D01*
X120735000Y-47714250D01*
X120738072Y-46900000D01*
X120725812Y-46775518D01*
X120689502Y-46655820D01*
X120630537Y-46545506D01*
X120551185Y-46448815D01*
X120454494Y-46369463D01*
X120344180Y-46310498D01*
X120224482Y-46274188D01*
X120100000Y-46261928D01*
X119285750Y-46265000D01*
X119127000Y-46423750D01*
X118873000Y-46423750D01*
X118714250Y-46265000D01*
X117900000Y-46261928D01*
X117775518Y-46274188D01*
X117655820Y-46310498D01*
X117545506Y-46369463D01*
X117448815Y-46448815D01*
X117369463Y-46545506D01*
X117310498Y-46655820D01*
X117274188Y-46775518D01*
X117261928Y-46900000D01*
X117262784Y-47126940D01*
X117215394Y-47079550D01*
X117021308Y-46949866D01*
X116805652Y-46860539D01*
X116576712Y-46815000D01*
X116343288Y-46815000D01*
X116114348Y-46860539D01*
X115898692Y-46949866D01*
X115704606Y-47079550D01*
X115539550Y-47244606D01*
X115409866Y-47438692D01*
X115320539Y-47654348D01*
X115275000Y-47883288D01*
X115275000Y-48116712D01*
X115320539Y-48345652D01*
X115409866Y-48561308D01*
X115539550Y-48755394D01*
X115704606Y-48920450D01*
X115898692Y-49050134D01*
X116114348Y-49139461D01*
X116343288Y-49185000D01*
X116576712Y-49185000D01*
X116805652Y-49139461D01*
X117021308Y-49050134D01*
X117215394Y-48920450D01*
X117262784Y-48873060D01*
X117261928Y-49100000D01*
X117274188Y-49224482D01*
X117310498Y-49344180D01*
X117369463Y-49454494D01*
X117448815Y-49551185D01*
X117529690Y-49617557D01*
X117462463Y-49718169D01*
X117414090Y-49834952D01*
X117380450Y-49784606D01*
X117215394Y-49619550D01*
X117021308Y-49489866D01*
X116805652Y-49400539D01*
X116576712Y-49355000D01*
X116343288Y-49355000D01*
X116114348Y-49400539D01*
X115898692Y-49489866D01*
X115704606Y-49619550D01*
X115539550Y-49784606D01*
X115409866Y-49978692D01*
X115320539Y-50194348D01*
X115275000Y-50423288D01*
X115275000Y-50656712D01*
X115320539Y-50885652D01*
X115409866Y-51101308D01*
X115539550Y-51295394D01*
X115704606Y-51460450D01*
X115898692Y-51590134D01*
X116114348Y-51679461D01*
X116343288Y-51725000D01*
X116576712Y-51725000D01*
X116805652Y-51679461D01*
X117021308Y-51590134D01*
X117215394Y-51460450D01*
X117380450Y-51295394D01*
X117414090Y-51245048D01*
X117462463Y-51361831D01*
X117652337Y-51645998D01*
X117816339Y-51810000D01*
X117652337Y-51974002D01*
X117462463Y-52258169D01*
X117414090Y-52374952D01*
X117380450Y-52324606D01*
X117215394Y-52159550D01*
X117021308Y-52029866D01*
X116805652Y-51940539D01*
X116576712Y-51895000D01*
X116343288Y-51895000D01*
X116114348Y-51940539D01*
X115898692Y-52029866D01*
X115704606Y-52159550D01*
X115539550Y-52324606D01*
X115409866Y-52518692D01*
X115320539Y-52734348D01*
X115275000Y-52963288D01*
X115275000Y-53196712D01*
X115320539Y-53425652D01*
X115409866Y-53641308D01*
X115539550Y-53835394D01*
X115704606Y-54000450D01*
X115876042Y-54115000D01*
X115038454Y-54115000D01*
X114990256Y-54082795D01*
X114801898Y-54004774D01*
X114601939Y-53965000D01*
X114398061Y-53965000D01*
X114198102Y-54004774D01*
X114009744Y-54082795D01*
X113840226Y-54196063D01*
X113696063Y-54340226D01*
X113582795Y-54509744D01*
X113504774Y-54698102D01*
X113465000Y-54898061D01*
X103993517Y-54898061D01*
X109042539Y-49849039D01*
X111768096Y-49849039D01*
X111808754Y-49983087D01*
X111928963Y-50237420D01*
X112096481Y-50463414D01*
X112304869Y-50652385D01*
X112546119Y-50797070D01*
X112810960Y-50891909D01*
X113033000Y-50770624D01*
X113033000Y-49627000D01*
X113287000Y-49627000D01*
X113287000Y-50770624D01*
X113509040Y-50891909D01*
X113773881Y-50797070D01*
X114015131Y-50652385D01*
X114223519Y-50463414D01*
X114391037Y-50237420D01*
X114511246Y-49983087D01*
X114551904Y-49849039D01*
X114429915Y-49627000D01*
X113287000Y-49627000D01*
X113033000Y-49627000D01*
X111890085Y-49627000D01*
X111768096Y-49849039D01*
X109042539Y-49849039D01*
X109740617Y-49150961D01*
X111768096Y-49150961D01*
X111890085Y-49373000D01*
X113033000Y-49373000D01*
X113033000Y-48229376D01*
X113287000Y-48229376D01*
X113287000Y-49373000D01*
X114429915Y-49373000D01*
X114551904Y-49150961D01*
X114511246Y-49016913D01*
X114391037Y-48762580D01*
X114223519Y-48536586D01*
X114015131Y-48347615D01*
X113773881Y-48202930D01*
X113509040Y-48108091D01*
X113287000Y-48229376D01*
X113033000Y-48229376D01*
X112810960Y-48108091D01*
X112546119Y-48202930D01*
X112304869Y-48347615D01*
X112096481Y-48536586D01*
X111928963Y-48762580D01*
X111808754Y-49016913D01*
X111768096Y-49150961D01*
X109740617Y-49150961D01*
X110055049Y-48836530D01*
X110088817Y-48808817D01*
X110199411Y-48674059D01*
X110246885Y-48585241D01*
X110281589Y-48520314D01*
X110332195Y-48353490D01*
X110337358Y-48301068D01*
X110345000Y-48223477D01*
X110345000Y-48223469D01*
X110349281Y-48180000D01*
X110345000Y-48136531D01*
X110345000Y-44254790D01*
X110438505Y-44192312D01*
X110504944Y-44125873D01*
X110510498Y-44144180D01*
X110569463Y-44254494D01*
X110648815Y-44351185D01*
X110745506Y-44430537D01*
X110855820Y-44489502D01*
X110975518Y-44525812D01*
X111100000Y-44538072D01*
X112900000Y-44538072D01*
X113024482Y-44525812D01*
X113144180Y-44489502D01*
X113254494Y-44430537D01*
X113351185Y-44351185D01*
X113430537Y-44254494D01*
X113489502Y-44144180D01*
X113525812Y-44024482D01*
X113538072Y-43900000D01*
X113538072Y-42100000D01*
X113525812Y-41975518D01*
X113489502Y-41855820D01*
X113430537Y-41745506D01*
X113426409Y-41740475D01*
X122365000Y-41740475D01*
X122365000Y-42259525D01*
X122466261Y-42768601D01*
X122664893Y-43248141D01*
X122953262Y-43679715D01*
X123320285Y-44046738D01*
X123751859Y-44335107D01*
X124231399Y-44533739D01*
X124740475Y-44635000D01*
X125259525Y-44635000D01*
X125768601Y-44533739D01*
X126248141Y-44335107D01*
X126679715Y-44046738D01*
X127046738Y-43679715D01*
X127335107Y-43248141D01*
X127533739Y-42768601D01*
X127635000Y-42259525D01*
X127635000Y-41740475D01*
X127533739Y-41231399D01*
X127335107Y-40751859D01*
X127046738Y-40320285D01*
X126679715Y-39953262D01*
X126248141Y-39664893D01*
X125768601Y-39466261D01*
X125259525Y-39365000D01*
X124740475Y-39365000D01*
X124231399Y-39466261D01*
X123751859Y-39664893D01*
X123320285Y-39953262D01*
X122953262Y-40320285D01*
X122664893Y-40751859D01*
X122466261Y-41231399D01*
X122365000Y-41740475D01*
X113426409Y-41740475D01*
X113351185Y-41648815D01*
X113254494Y-41569463D01*
X113144180Y-41510498D01*
X113024482Y-41474188D01*
X112900000Y-41461928D01*
X111100000Y-41461928D01*
X110975518Y-41474188D01*
X110855820Y-41510498D01*
X110745506Y-41569463D01*
X110648815Y-41648815D01*
X110569463Y-41745506D01*
X110510498Y-41855820D01*
X110504944Y-41874127D01*
X110438505Y-41807688D01*
X110187095Y-41639701D01*
X109907743Y-41523989D01*
X109611184Y-41465000D01*
X109308816Y-41465000D01*
X109012257Y-41523989D01*
X108732905Y-41639701D01*
X108481495Y-41807688D01*
X108267688Y-42021495D01*
X108099701Y-42272905D01*
X107983989Y-42552257D01*
X107925000Y-42848816D01*
X107925000Y-43151184D01*
X107983989Y-43447743D01*
X108099701Y-43727095D01*
X108267688Y-43978505D01*
X108481495Y-44192312D01*
X108575000Y-44254790D01*
X108575001Y-47813420D01*
X90255424Y-66132998D01*
X90109916Y-66132998D01*
X90231904Y-65910961D01*
X90221444Y-65853270D01*
X90115551Y-65591579D01*
X89960639Y-65355575D01*
X89762662Y-65154327D01*
X89529227Y-64995570D01*
X89511655Y-64988122D01*
X89641101Y-64918932D01*
X89859608Y-64739608D01*
X90038932Y-64521101D01*
X90172182Y-64271808D01*
X90254236Y-64001309D01*
X90281943Y-63720000D01*
X90254236Y-63438691D01*
X90172182Y-63168192D01*
X90038932Y-62918899D01*
X89859608Y-62700392D01*
X89641101Y-62521068D01*
X89391808Y-62387818D01*
X89121309Y-62305764D01*
X88910492Y-62285000D01*
X88369508Y-62285000D01*
X88158691Y-62305764D01*
X87888192Y-62387818D01*
X87638899Y-62521068D01*
X87420392Y-62700392D01*
X87241068Y-62918899D01*
X87107818Y-63168192D01*
X87025764Y-63438691D01*
X86998057Y-63720000D01*
X87025764Y-64001309D01*
X87107818Y-64271808D01*
X87241068Y-64521101D01*
X87420392Y-64739608D01*
X87638899Y-64918932D01*
X87768345Y-64988122D01*
X87750773Y-64995570D01*
X87517338Y-65154327D01*
X87319361Y-65355575D01*
X87164449Y-65591579D01*
X87058556Y-65853270D01*
X87048096Y-65910961D01*
X87170085Y-66133000D01*
X88513000Y-66133000D01*
X88513000Y-66113000D01*
X88767000Y-66113000D01*
X88767000Y-66133000D01*
X88787000Y-66133000D01*
X88787000Y-66387000D01*
X88767000Y-66387000D01*
X88767000Y-66407000D01*
X88513000Y-66407000D01*
X88513000Y-66387000D01*
X87170085Y-66387000D01*
X87048096Y-66609039D01*
X87058556Y-66666730D01*
X87164449Y-66928421D01*
X87319361Y-67164425D01*
X87517338Y-67365673D01*
X87750773Y-67524430D01*
X87768345Y-67531878D01*
X87638899Y-67601068D01*
X87420392Y-67780392D01*
X87241068Y-67998899D01*
X87107818Y-68248192D01*
X87025764Y-68518691D01*
X86998057Y-68800000D01*
X87025764Y-69081309D01*
X87107818Y-69351808D01*
X87241068Y-69601101D01*
X87420392Y-69819608D01*
X87638899Y-69998932D01*
X87771858Y-70070000D01*
X87638899Y-70141068D01*
X87420392Y-70320392D01*
X87241068Y-70538899D01*
X87107818Y-70788192D01*
X87025764Y-71058691D01*
X86998057Y-71340000D01*
X87025764Y-71621309D01*
X87107818Y-71891808D01*
X87241068Y-72141101D01*
X87420392Y-72359608D01*
X87638899Y-72538932D01*
X87771858Y-72610000D01*
X87638899Y-72681068D01*
X87420392Y-72860392D01*
X87241068Y-73078899D01*
X87107818Y-73328192D01*
X87025764Y-73598691D01*
X86998057Y-73880000D01*
X87025764Y-74161309D01*
X87107818Y-74431808D01*
X87241068Y-74681101D01*
X87420392Y-74899608D01*
X87638899Y-75078932D01*
X87771858Y-75150000D01*
X87638899Y-75221068D01*
X87420392Y-75400392D01*
X87241068Y-75618899D01*
X87107818Y-75868192D01*
X87025764Y-76138691D01*
X86998057Y-76420000D01*
X87025764Y-76701309D01*
X87107818Y-76971808D01*
X87241068Y-77221101D01*
X87420392Y-77439608D01*
X87638899Y-77618932D01*
X87771858Y-77690000D01*
X87638899Y-77761068D01*
X87420392Y-77940392D01*
X87241068Y-78158899D01*
X87107818Y-78408192D01*
X87025764Y-78678691D01*
X86998057Y-78960000D01*
X87025764Y-79241309D01*
X87107818Y-79511808D01*
X87241068Y-79761101D01*
X87420392Y-79979608D01*
X87638899Y-80158932D01*
X87771858Y-80230000D01*
X87638899Y-80301068D01*
X87420392Y-80480392D01*
X87241068Y-80698899D01*
X87107818Y-80948192D01*
X87025764Y-81218691D01*
X86998057Y-81500000D01*
X87025764Y-81781309D01*
X87107818Y-82051808D01*
X87241068Y-82301101D01*
X87420392Y-82519608D01*
X87638899Y-82698932D01*
X87888192Y-82832182D01*
X88022753Y-82873000D01*
X87000000Y-82873000D01*
X86975224Y-82875440D01*
X86951399Y-82882667D01*
X86929443Y-82894403D01*
X86910197Y-82910197D01*
X86894403Y-82929443D01*
X86882667Y-82951399D01*
X86875440Y-82975224D01*
X86873000Y-83000000D01*
X76510000Y-83000000D01*
X76510000Y-79917311D01*
X76698102Y-79995226D01*
X76898061Y-80035000D01*
X77101939Y-80035000D01*
X77301898Y-79995226D01*
X77490256Y-79917205D01*
X77659774Y-79803937D01*
X77803937Y-79659774D01*
X77917205Y-79490256D01*
X77995226Y-79301898D01*
X78035000Y-79101939D01*
X78035000Y-78898061D01*
X77995226Y-78698102D01*
X77934999Y-78552702D01*
X77934999Y-72590572D01*
X79500000Y-72590572D01*
X79624482Y-72578312D01*
X79744180Y-72542002D01*
X79854494Y-72483037D01*
X79951185Y-72403685D01*
X80030537Y-72306994D01*
X80089502Y-72196680D01*
X80125812Y-72076982D01*
X80138072Y-71952500D01*
X80138072Y-71358665D01*
X82565000Y-71358665D01*
X82565000Y-71641335D01*
X82620147Y-71918574D01*
X82728320Y-72179727D01*
X82885363Y-72414759D01*
X83085241Y-72614637D01*
X83320273Y-72771680D01*
X83581426Y-72879853D01*
X83858665Y-72935000D01*
X84141335Y-72935000D01*
X84418574Y-72879853D01*
X84679727Y-72771680D01*
X84914759Y-72614637D01*
X85114637Y-72414759D01*
X85271680Y-72179727D01*
X85379853Y-71918574D01*
X85435000Y-71641335D01*
X85435000Y-71358665D01*
X85379853Y-71081426D01*
X85271680Y-70820273D01*
X85114637Y-70585241D01*
X84914759Y-70385363D01*
X84679727Y-70228320D01*
X84418574Y-70120147D01*
X84141335Y-70065000D01*
X83858665Y-70065000D01*
X83581426Y-70120147D01*
X83320273Y-70228320D01*
X83085241Y-70385363D01*
X82885363Y-70585241D01*
X82728320Y-70820273D01*
X82620147Y-71081426D01*
X82565000Y-71358665D01*
X80138072Y-71358665D01*
X80138072Y-70047500D01*
X80125812Y-69923018D01*
X80089502Y-69803320D01*
X80030537Y-69693006D01*
X79951185Y-69596315D01*
X79854494Y-69516963D01*
X79770554Y-69472095D01*
X79873845Y-69346235D01*
X80021255Y-69070449D01*
X80112030Y-68771204D01*
X80142681Y-68460000D01*
X80112030Y-68148796D01*
X80021255Y-67849551D01*
X79873845Y-67573765D01*
X79675463Y-67332037D01*
X79496101Y-67184837D01*
X79681315Y-67029437D01*
X79875969Y-66786923D01*
X80019571Y-66511094D01*
X80090563Y-66292980D01*
X79970594Y-66047000D01*
X78627000Y-66047000D01*
X78627000Y-66067000D01*
X78373000Y-66067000D01*
X78373000Y-66047000D01*
X77029406Y-66047000D01*
X76909437Y-66292980D01*
X76980429Y-66511094D01*
X77124031Y-66786923D01*
X77318685Y-67029437D01*
X77503899Y-67184837D01*
X77324537Y-67332037D01*
X77126155Y-67573765D01*
X76978745Y-67849551D01*
X76887970Y-68148796D01*
X76882794Y-68201349D01*
X76510000Y-68574143D01*
X76510000Y-65547020D01*
X76909437Y-65547020D01*
X77029406Y-65793000D01*
X78373000Y-65793000D01*
X78373000Y-64494430D01*
X78627000Y-64494430D01*
X78627000Y-65793000D01*
X79970594Y-65793000D01*
X80090563Y-65547020D01*
X80019571Y-65328906D01*
X79875969Y-65053077D01*
X79681315Y-64810563D01*
X79443089Y-64610684D01*
X79170446Y-64461121D01*
X78873863Y-64367622D01*
X78627000Y-64494430D01*
X78373000Y-64494430D01*
X78126137Y-64367622D01*
X77829554Y-64461121D01*
X77556911Y-64610684D01*
X77318685Y-64810563D01*
X77124031Y-65053077D01*
X76980429Y-65328906D01*
X76909437Y-65547020D01*
X76510000Y-65547020D01*
X76510000Y-61689040D01*
X82608091Y-61689040D01*
X82702930Y-61953881D01*
X82847615Y-62195131D01*
X83036586Y-62403519D01*
X83262580Y-62571037D01*
X83516913Y-62691246D01*
X83650961Y-62731904D01*
X83873000Y-62609915D01*
X83873000Y-61467000D01*
X84127000Y-61467000D01*
X84127000Y-62609915D01*
X84349039Y-62731904D01*
X84483087Y-62691246D01*
X84737420Y-62571037D01*
X84963414Y-62403519D01*
X85152385Y-62195131D01*
X85297070Y-61953881D01*
X85391909Y-61689040D01*
X85270624Y-61467000D01*
X84127000Y-61467000D01*
X83873000Y-61467000D01*
X82729376Y-61467000D01*
X82608091Y-61689040D01*
X76510000Y-61689040D01*
X76510000Y-60990960D01*
X82608091Y-60990960D01*
X82729376Y-61213000D01*
X83873000Y-61213000D01*
X83873000Y-60070085D01*
X84127000Y-60070085D01*
X84127000Y-61213000D01*
X85270624Y-61213000D01*
X85391909Y-60990960D01*
X85297070Y-60726119D01*
X85152385Y-60484869D01*
X84963414Y-60276481D01*
X84737420Y-60108963D01*
X84483087Y-59988754D01*
X84349039Y-59948096D01*
X84127000Y-60070085D01*
X83873000Y-60070085D01*
X83650961Y-59948096D01*
X83516913Y-59988754D01*
X83262580Y-60108963D01*
X83036586Y-60276481D01*
X82847615Y-60484869D01*
X82702930Y-60726119D01*
X82608091Y-60990960D01*
X76510000Y-60990960D01*
X76510000Y-50935000D01*
X76641335Y-50935000D01*
X76918574Y-50879853D01*
X77179727Y-50771680D01*
X77414759Y-50614637D01*
X77614637Y-50414759D01*
X77771680Y-50179727D01*
X77879853Y-49918574D01*
X77935000Y-49641335D01*
X77935000Y-49500000D01*
X85218057Y-49500000D01*
X85245764Y-49781309D01*
X85327818Y-50051808D01*
X85461068Y-50301101D01*
X85640392Y-50519608D01*
X85858899Y-50698932D01*
X86108192Y-50832182D01*
X86378691Y-50914236D01*
X86589508Y-50935000D01*
X86730492Y-50935000D01*
X86941309Y-50914236D01*
X87211808Y-50832182D01*
X87461101Y-50698932D01*
X87679608Y-50519608D01*
X87858932Y-50301101D01*
X87992182Y-50051808D01*
X88074236Y-49781309D01*
X88101943Y-49500000D01*
X88398057Y-49500000D01*
X88425764Y-49781309D01*
X88507818Y-50051808D01*
X88641068Y-50301101D01*
X88820392Y-50519608D01*
X89038899Y-50698932D01*
X89288192Y-50832182D01*
X89558691Y-50914236D01*
X89769508Y-50935000D01*
X89910492Y-50935000D01*
X90121309Y-50914236D01*
X90391808Y-50832182D01*
X90641101Y-50698932D01*
X90859608Y-50519608D01*
X91038932Y-50301101D01*
X91172182Y-50051808D01*
X91254236Y-49781309D01*
X91281943Y-49500000D01*
X91268023Y-49358665D01*
X98565000Y-49358665D01*
X98565000Y-49641335D01*
X98620147Y-49918574D01*
X98728320Y-50179727D01*
X98885363Y-50414759D01*
X99085241Y-50614637D01*
X99320273Y-50771680D01*
X99581426Y-50879853D01*
X99858665Y-50935000D01*
X100141335Y-50935000D01*
X100418574Y-50879853D01*
X100679727Y-50771680D01*
X100914759Y-50614637D01*
X101114637Y-50414759D01*
X101271680Y-50179727D01*
X101379853Y-49918574D01*
X101435000Y-49641335D01*
X101435000Y-49358665D01*
X101565000Y-49358665D01*
X101565000Y-49641335D01*
X101620147Y-49918574D01*
X101728320Y-50179727D01*
X101885363Y-50414759D01*
X102085241Y-50614637D01*
X102320273Y-50771680D01*
X102581426Y-50879853D01*
X102858665Y-50935000D01*
X103141335Y-50935000D01*
X103418574Y-50879853D01*
X103679727Y-50771680D01*
X103914759Y-50614637D01*
X104114637Y-50414759D01*
X104271680Y-50179727D01*
X104379853Y-49918574D01*
X104435000Y-49641335D01*
X104435000Y-49358665D01*
X104379853Y-49081426D01*
X104271680Y-48820273D01*
X104114637Y-48585241D01*
X103914759Y-48385363D01*
X103679727Y-48228320D01*
X103418574Y-48120147D01*
X103141335Y-48065000D01*
X102858665Y-48065000D01*
X102581426Y-48120147D01*
X102320273Y-48228320D01*
X102085241Y-48385363D01*
X101885363Y-48585241D01*
X101728320Y-48820273D01*
X101620147Y-49081426D01*
X101565000Y-49358665D01*
X101435000Y-49358665D01*
X101379853Y-49081426D01*
X101271680Y-48820273D01*
X101114637Y-48585241D01*
X100914759Y-48385363D01*
X100679727Y-48228320D01*
X100418574Y-48120147D01*
X100141335Y-48065000D01*
X99858665Y-48065000D01*
X99581426Y-48120147D01*
X99320273Y-48228320D01*
X99085241Y-48385363D01*
X98885363Y-48585241D01*
X98728320Y-48820273D01*
X98620147Y-49081426D01*
X98565000Y-49358665D01*
X91268023Y-49358665D01*
X91254236Y-49218691D01*
X91172182Y-48948192D01*
X91038932Y-48698899D01*
X90859608Y-48480392D01*
X90641101Y-48301068D01*
X90391808Y-48167818D01*
X90121309Y-48085764D01*
X89910492Y-48065000D01*
X89769508Y-48065000D01*
X89558691Y-48085764D01*
X89288192Y-48167818D01*
X89038899Y-48301068D01*
X88820392Y-48480392D01*
X88641068Y-48698899D01*
X88507818Y-48948192D01*
X88425764Y-49218691D01*
X88398057Y-49500000D01*
X88101943Y-49500000D01*
X88074236Y-49218691D01*
X87992182Y-48948192D01*
X87858932Y-48698899D01*
X87679608Y-48480392D01*
X87461101Y-48301068D01*
X87211808Y-48167818D01*
X86941309Y-48085764D01*
X86730492Y-48065000D01*
X86589508Y-48065000D01*
X86378691Y-48085764D01*
X86108192Y-48167818D01*
X85858899Y-48301068D01*
X85640392Y-48480392D01*
X85461068Y-48698899D01*
X85327818Y-48948192D01*
X85245764Y-49218691D01*
X85218057Y-49500000D01*
X77935000Y-49500000D01*
X77935000Y-49358665D01*
X77879853Y-49081426D01*
X77771680Y-48820273D01*
X77614637Y-48585241D01*
X77414759Y-48385363D01*
X77179727Y-48228320D01*
X76918574Y-48120147D01*
X76641335Y-48065000D01*
X76358665Y-48065000D01*
X76081426Y-48120147D01*
X75820273Y-48228320D01*
X75585241Y-48385363D01*
X75385363Y-48585241D01*
X75228320Y-48820273D01*
X75120147Y-49081426D01*
X75065000Y-49358665D01*
X75065000Y-49506645D01*
X74820901Y-49750744D01*
X74782368Y-49782367D01*
X74750745Y-49820900D01*
X74750744Y-49820901D01*
X74656154Y-49936160D01*
X74562368Y-50111621D01*
X74504615Y-50302006D01*
X74485114Y-50500000D01*
X68185000Y-50500000D01*
X68185000Y-41740475D01*
X68365000Y-41740475D01*
X68365000Y-42259525D01*
X68466261Y-42768601D01*
X68664893Y-43248141D01*
X68953262Y-43679715D01*
X69320285Y-44046738D01*
X69751859Y-44335107D01*
X70231399Y-44533739D01*
X70740475Y-44635000D01*
X71259525Y-44635000D01*
X71768601Y-44533739D01*
X72248141Y-44335107D01*
X72679715Y-44046738D01*
X73046738Y-43679715D01*
X73335107Y-43248141D01*
X73533739Y-42768601D01*
X73573928Y-42566553D01*
X78419009Y-42566553D01*
X78461603Y-42865907D01*
X78561778Y-43151199D01*
X78641739Y-43300792D01*
X78895920Y-43384475D01*
X79780395Y-42500000D01*
X78895920Y-41615525D01*
X78641739Y-41699208D01*
X78510842Y-41971775D01*
X78435635Y-42264642D01*
X78419009Y-42566553D01*
X73573928Y-42566553D01*
X73635000Y-42259525D01*
X73635000Y-41740475D01*
X73574421Y-41435920D01*
X79075525Y-41435920D01*
X79960000Y-42320395D01*
X79974143Y-42306253D01*
X80153748Y-42485858D01*
X80139605Y-42500000D01*
X80153748Y-42514143D01*
X79974143Y-42693748D01*
X79960000Y-42679605D01*
X79075525Y-43564080D01*
X79159208Y-43818261D01*
X79431775Y-43949158D01*
X79724642Y-44024365D01*
X80026553Y-44040991D01*
X80325907Y-43998397D01*
X80611199Y-43898222D01*
X80760792Y-43818261D01*
X80844474Y-43564082D01*
X80960422Y-43680030D01*
X81007187Y-43633265D01*
X81010498Y-43644180D01*
X81069463Y-43754494D01*
X81148815Y-43851185D01*
X81245506Y-43930537D01*
X81355820Y-43989502D01*
X81475518Y-44025812D01*
X81600000Y-44038072D01*
X83400000Y-44038072D01*
X83524482Y-44025812D01*
X83644180Y-43989502D01*
X83754494Y-43930537D01*
X83851185Y-43851185D01*
X83930537Y-43754494D01*
X83989502Y-43644180D01*
X84025812Y-43524482D01*
X84038072Y-43400000D01*
X84038072Y-42566553D01*
X87919009Y-42566553D01*
X87961603Y-42865907D01*
X88061778Y-43151199D01*
X88141739Y-43300792D01*
X88395920Y-43384475D01*
X89280395Y-42500000D01*
X88395920Y-41615525D01*
X88141739Y-41699208D01*
X88010842Y-41971775D01*
X87935635Y-42264642D01*
X87919009Y-42566553D01*
X84038072Y-42566553D01*
X84038072Y-41600000D01*
X84025812Y-41475518D01*
X84013801Y-41435920D01*
X88575525Y-41435920D01*
X89460000Y-42320395D01*
X89474143Y-42306253D01*
X89653748Y-42485858D01*
X89639605Y-42500000D01*
X89653748Y-42514143D01*
X89474143Y-42693748D01*
X89460000Y-42679605D01*
X88575525Y-43564080D01*
X88659208Y-43818261D01*
X88931775Y-43949158D01*
X89224642Y-44024365D01*
X89526553Y-44040991D01*
X89825907Y-43998397D01*
X90111199Y-43898222D01*
X90260792Y-43818261D01*
X90344474Y-43564082D01*
X90460422Y-43680030D01*
X90507187Y-43633265D01*
X90510498Y-43644180D01*
X90569463Y-43754494D01*
X90648815Y-43851185D01*
X90745506Y-43930537D01*
X90855820Y-43989502D01*
X90975518Y-44025812D01*
X91100000Y-44038072D01*
X92900000Y-44038072D01*
X93024482Y-44025812D01*
X93144180Y-43989502D01*
X93254494Y-43930537D01*
X93351185Y-43851185D01*
X93430537Y-43754494D01*
X93489502Y-43644180D01*
X93525812Y-43524482D01*
X93538072Y-43400000D01*
X93538072Y-41600000D01*
X93525812Y-41475518D01*
X93489502Y-41355820D01*
X93430537Y-41245506D01*
X93351185Y-41148815D01*
X93254494Y-41069463D01*
X93144180Y-41010498D01*
X93024482Y-40974188D01*
X92900000Y-40961928D01*
X91100000Y-40961928D01*
X90975518Y-40974188D01*
X90855820Y-41010498D01*
X90745506Y-41069463D01*
X90648815Y-41148815D01*
X90569463Y-41245506D01*
X90510498Y-41355820D01*
X90507187Y-41366735D01*
X90460422Y-41319970D01*
X90344474Y-41435918D01*
X90260792Y-41181739D01*
X89988225Y-41050842D01*
X89695358Y-40975635D01*
X89393447Y-40959009D01*
X89094093Y-41001603D01*
X88808801Y-41101778D01*
X88659208Y-41181739D01*
X88575525Y-41435920D01*
X84013801Y-41435920D01*
X83989502Y-41355820D01*
X83930537Y-41245506D01*
X83851185Y-41148815D01*
X83754494Y-41069463D01*
X83644180Y-41010498D01*
X83524482Y-40974188D01*
X83400000Y-40961928D01*
X81600000Y-40961928D01*
X81475518Y-40974188D01*
X81355820Y-41010498D01*
X81245506Y-41069463D01*
X81148815Y-41148815D01*
X81069463Y-41245506D01*
X81010498Y-41355820D01*
X81007187Y-41366735D01*
X80960422Y-41319970D01*
X80844474Y-41435918D01*
X80760792Y-41181739D01*
X80488225Y-41050842D01*
X80195358Y-40975635D01*
X79893447Y-40959009D01*
X79594093Y-41001603D01*
X79308801Y-41101778D01*
X79159208Y-41181739D01*
X79075525Y-41435920D01*
X73574421Y-41435920D01*
X73533739Y-41231399D01*
X73335107Y-40751859D01*
X73046738Y-40320285D01*
X72679715Y-39953262D01*
X72248141Y-39664893D01*
X71768601Y-39466261D01*
X71259525Y-39365000D01*
X70740475Y-39365000D01*
X70231399Y-39466261D01*
X69751859Y-39664893D01*
X69320285Y-39953262D01*
X68953262Y-40320285D01*
X68664893Y-40751859D01*
X68466261Y-41231399D01*
X68365000Y-41740475D01*
X68185000Y-41740475D01*
X68185000Y-39185000D01*
X127810090Y-39185000D01*
X127345154Y-104276114D01*
M02*
