G04 #@! TF.GenerationSoftware,KiCad,Pcbnew,(5.1.4)-1*
G04 #@! TF.CreationDate,2019-09-16T08:25:28+02:00*
G04 #@! TF.ProjectId,virtual_clues,76697274-7561-46c5-9f63-6c7565732e6b,rev?*
G04 #@! TF.SameCoordinates,Original*
G04 #@! TF.FileFunction,Soldermask,Top*
G04 #@! TF.FilePolarity,Negative*
%FSLAX46Y46*%
G04 Gerber Fmt 4.6, Leading zero omitted, Abs format (unit mm)*
G04 Created by KiCad (PCBNEW (5.1.4)-1) date 2019-09-16 08:25:28*
%MOMM*%
%LPD*%
G04 APERTURE LIST*
%ADD10O,2.000000X1.600000*%
%ADD11R,2.000000X2.000000*%
%ADD12C,5.600000*%
%ADD13C,1.600000*%
%ADD14R,1.600000X1.600000*%
%ADD15R,1.800000X1.800000*%
%ADD16C,1.800000*%
%ADD17C,2.600000*%
%ADD18R,2.600000X2.600000*%
%ADD19C,1.100000*%
%ADD20C,2.200000*%
%ADD21R,2.200000X2.200000*%
%ADD22O,1.600000X1.600000*%
%ADD23R,2.000000X1.905000*%
%ADD24O,2.000000X1.905000*%
G04 APERTURE END LIST*
D10*
X111500000Y-78960000D03*
D11*
X111500000Y-81500000D03*
D10*
X111500000Y-76420000D03*
X111500000Y-73880000D03*
X111500000Y-71340000D03*
X111500000Y-68800000D03*
X111500000Y-66260000D03*
X111500000Y-63720000D03*
X88640000Y-63720000D03*
X88640000Y-66260000D03*
X88640000Y-68800000D03*
X88640000Y-71340000D03*
X88640000Y-73880000D03*
X88640000Y-76420000D03*
X88640000Y-78960000D03*
X88640000Y-81500000D03*
D12*
X88000000Y-103000000D03*
X76500000Y-43000000D03*
X120500000Y-103000000D03*
X120500000Y-43000000D03*
D13*
X88000000Y-97500000D03*
D14*
X88000000Y-92500000D03*
D13*
X115000000Y-101000000D03*
D14*
X115000000Y-98500000D03*
D13*
X110000000Y-102000000D03*
D14*
X110000000Y-104000000D03*
D13*
X110000000Y-98000000D03*
D14*
X110000000Y-95500000D03*
D15*
X84000000Y-42500000D03*
D16*
X81460000Y-42500000D03*
D17*
X78500000Y-96500000D03*
D18*
X78500000Y-101500000D03*
D16*
X87960000Y-42500000D03*
D15*
X90500000Y-42500000D03*
D18*
X78500000Y-90500000D03*
D17*
X78500000Y-85500000D03*
D19*
X116460000Y-74580000D03*
D20*
X119000000Y-74580000D03*
D19*
X116460000Y-72040000D03*
D20*
X119000000Y-72040000D03*
D19*
X116460000Y-69500000D03*
D21*
X119000000Y-69500000D03*
X119000000Y-79000000D03*
D20*
X119000000Y-81540000D03*
X119000000Y-84080000D03*
X119000000Y-86620000D03*
D21*
X119000000Y-60000000D03*
D19*
X116460000Y-60000000D03*
D20*
X119000000Y-62540000D03*
D19*
X116460000Y-62540000D03*
D20*
X119000000Y-65080000D03*
D19*
X116460000Y-65080000D03*
D13*
X89500000Y-57500000D03*
D22*
X89500000Y-47340000D03*
X104500000Y-47340000D03*
D13*
X104500000Y-57500000D03*
D22*
X96500000Y-47340000D03*
D13*
X96500000Y-57500000D03*
D21*
X119000000Y-91000000D03*
D19*
X116460000Y-91000000D03*
D20*
X119000000Y-93540000D03*
D19*
X116460000Y-93540000D03*
D23*
X78500000Y-55000000D03*
D24*
X78500000Y-52460000D03*
X78500000Y-49920000D03*
D13*
X94500000Y-67000000D03*
D22*
X104660000Y-67000000D03*
D24*
X98500000Y-97420000D03*
X98500000Y-99960000D03*
D23*
X98500000Y-102500000D03*
D15*
X108500000Y-43000000D03*
D16*
X105960000Y-43000000D03*
D13*
X84000000Y-57500000D03*
D22*
X84000000Y-47340000D03*
D13*
X94500000Y-71000000D03*
D22*
X104660000Y-71000000D03*
D21*
X119000000Y-50500000D03*
D19*
X116460000Y-50500000D03*
D20*
X119000000Y-53040000D03*
D19*
X116460000Y-53040000D03*
D20*
X119000000Y-55580000D03*
D19*
X116460000Y-55580000D03*
D13*
X84000000Y-70000000D03*
D22*
X84000000Y-59840000D03*
D18*
X78500000Y-79500000D03*
D17*
X78500000Y-74500000D03*
D22*
X110500000Y-47340000D03*
D13*
X110500000Y-57500000D03*
D23*
X78500000Y-67500000D03*
D24*
X78500000Y-64960000D03*
X78500000Y-62420000D03*
D15*
X115000000Y-43000000D03*
D16*
X112460000Y-43000000D03*
M02*
