M48
; DRILL file {KiCad (5.1.4)-1} date 9/16/2019 8:25:30 AM
; FORMAT={-:-/ absolute / inch / decimal}
; #@! TF.CreationDate,2019-09-16T08:25:30+02:00
; #@! TF.GenerationSoftware,Kicad,Pcbnew,(5.1.4)-1
; #@! TF.FileFunction,Plated,1,2,PTH
FMAT,2
INCH
T1C0.0315
T2C0.0354
T3C0.0394
T4C0.0433
T5C0.0512
T6C0.1260
%
G90
G05
T1
X4.1142Y-1.8638
X3.3071Y-1.8638
X3.5236Y-1.8638
X3.5236Y-2.2638
X3.7992Y-1.8638
X3.7992Y-2.2638
X3.7205Y-2.7953
X4.1205Y-2.7953
X4.3307Y-3.7598
X4.3307Y-3.8583
X3.7205Y-2.6378
X4.1205Y-2.6378
X4.3307Y-4.0157
X4.3307Y-4.0945
X4.5276Y-3.878
X4.5276Y-3.9764
X3.3071Y-2.3559
X3.3071Y-2.7559
X4.1142Y-2.2638
X4.3504Y-1.8638
X4.3504Y-2.2638
X3.4646Y-3.6417
X3.4646Y-3.8386
X3.3071Y-2.2638
T2
X4.4276Y-1.6929
X4.5276Y-1.6929
X4.1717Y-1.6929
X4.2717Y-1.6929
X3.463Y-1.6732
X3.563Y-1.6732
X3.2071Y-1.6732
X3.3071Y-1.6732
T3
X3.4898Y-2.5087
X3.4898Y-2.6087
X3.4898Y-2.7087
X3.4898Y-2.8087
X3.4898Y-2.9087
X3.4898Y-3.0087
X3.4898Y-3.1087
X3.4898Y-3.2087
X4.3898Y-2.5087
X4.3898Y-2.6087
X4.3898Y-2.7087
X4.3898Y-2.8087
X4.3898Y-2.9087
X4.3898Y-3.0087
X4.3898Y-3.1087
X4.3898Y-3.2087
T4
X3.0906Y-2.4575
X3.0906Y-2.5575
X3.0906Y-2.6575
X4.685Y-3.5827
X4.685Y-3.6827
X4.685Y-1.9882
X4.685Y-2.0882
X4.685Y-2.1882
X4.685Y-3.1102
X4.685Y-3.2102
X4.685Y-3.3102
X4.685Y-3.4102
X4.685Y-2.7362
X4.685Y-2.8362
X4.685Y-2.9362
X4.685Y-2.3622
X4.685Y-2.4622
X4.685Y-2.5622
X3.878Y-3.8354
X3.878Y-3.9354
X3.878Y-4.0354
X3.0906Y-1.9654
X3.0906Y-2.0654
X3.0906Y-2.1654
T5
X3.0906Y-3.3661
X3.0906Y-3.563
X3.0906Y-2.9331
X3.0906Y-3.1299
X3.0906Y-3.7992
X3.0906Y-3.9961
T6
X4.7441Y-1.6929
X3.4646Y-4.0551
X4.7441Y-4.0551
X3.0118Y-1.6929
T0
M30
