G04 #@! TF.GenerationSoftware,KiCad,Pcbnew,(5.1.4)-1*
G04 #@! TF.CreationDate,2019-09-15T10:33:09+02:00*
G04 #@! TF.ProjectId,virtual_clues,76697274-7561-46c5-9f63-6c7565732e6b,rev?*
G04 #@! TF.SameCoordinates,Original*
G04 #@! TF.FileFunction,Copper,L1,Top*
G04 #@! TF.FilePolarity,Positive*
%FSLAX46Y46*%
G04 Gerber Fmt 4.6, Leading zero omitted, Abs format (unit mm)*
G04 Created by KiCad (PCBNEW (5.1.4)-1) date 2019-09-15 10:33:09*
%MOMM*%
%LPD*%
G04 APERTURE LIST*
%ADD10O,2.000000X1.600000*%
%ADD11R,2.000000X2.000000*%
%ADD12C,5.600000*%
%ADD13C,1.600000*%
%ADD14R,1.600000X1.600000*%
%ADD15R,1.800000X1.800000*%
%ADD16C,1.800000*%
%ADD17C,2.600000*%
%ADD18R,2.600000X2.600000*%
%ADD19C,2.200000*%
%ADD20R,2.200000X2.200000*%
%ADD21O,1.600000X1.600000*%
%ADD22R,2.000000X1.905000*%
%ADD23O,2.000000X1.905000*%
%ADD24C,0.500000*%
%ADD25C,1.000000*%
%ADD26C,0.750000*%
%ADD27C,0.250000*%
%ADD28C,0.254000*%
G04 APERTURE END LIST*
D10*
X111500000Y-78960000D03*
D11*
X111500000Y-81500000D03*
D10*
X111500000Y-76420000D03*
X111500000Y-73880000D03*
X111500000Y-71340000D03*
X111500000Y-68800000D03*
X111500000Y-66260000D03*
X111500000Y-63720000D03*
X88640000Y-63720000D03*
X88640000Y-66260000D03*
X88640000Y-68800000D03*
X88640000Y-71340000D03*
X88640000Y-73880000D03*
X88640000Y-76420000D03*
X88640000Y-78960000D03*
X88640000Y-81500000D03*
D12*
X88000000Y-103000000D03*
X76500000Y-43000000D03*
X120500000Y-103000000D03*
X120500000Y-43000000D03*
D13*
X88000000Y-97500000D03*
D14*
X88000000Y-92500000D03*
D13*
X115000000Y-101000000D03*
D14*
X115000000Y-98500000D03*
D13*
X110000000Y-102000000D03*
D14*
X110000000Y-104000000D03*
D13*
X110000000Y-98000000D03*
D14*
X110000000Y-95500000D03*
D15*
X84000000Y-42500000D03*
D16*
X81460000Y-42500000D03*
D17*
X78500000Y-96500000D03*
D18*
X78500000Y-101500000D03*
D16*
X87960000Y-42500000D03*
D15*
X90500000Y-42500000D03*
D18*
X78500000Y-90500000D03*
D17*
X78500000Y-85500000D03*
D19*
X119000000Y-74580000D03*
X119000000Y-72040000D03*
D20*
X119000000Y-69500000D03*
X119000000Y-79000000D03*
D19*
X119000000Y-81540000D03*
X119000000Y-84080000D03*
X119000000Y-86620000D03*
D20*
X119000000Y-60000000D03*
D19*
X119000000Y-62540000D03*
X119000000Y-65080000D03*
D13*
X89500000Y-57500000D03*
D21*
X89500000Y-47340000D03*
X104500000Y-47340000D03*
D13*
X104500000Y-57500000D03*
D21*
X96500000Y-47340000D03*
D13*
X96500000Y-57500000D03*
D20*
X119000000Y-91000000D03*
D19*
X119000000Y-93540000D03*
D22*
X78500000Y-55000000D03*
D23*
X78500000Y-52460000D03*
X78500000Y-49920000D03*
D13*
X94500000Y-67000000D03*
D21*
X104660000Y-67000000D03*
D23*
X98500000Y-97420000D03*
X98500000Y-99960000D03*
D22*
X98500000Y-102500000D03*
D15*
X108500000Y-43000000D03*
D16*
X105960000Y-43000000D03*
D13*
X84000000Y-57500000D03*
D21*
X84000000Y-47340000D03*
D13*
X94500000Y-71000000D03*
D21*
X104660000Y-71000000D03*
D20*
X119000000Y-50500000D03*
D19*
X119000000Y-53040000D03*
X119000000Y-55580000D03*
D13*
X84000000Y-70000000D03*
D21*
X84000000Y-59840000D03*
D18*
X78500000Y-79500000D03*
D17*
X78500000Y-74500000D03*
D21*
X110500000Y-47340000D03*
D13*
X110500000Y-57500000D03*
D22*
X78500000Y-67500000D03*
D23*
X78500000Y-64960000D03*
X78500000Y-62420000D03*
D15*
X115000000Y-43000000D03*
D16*
X112460000Y-43000000D03*
D24*
X84000000Y-43900000D02*
X85100000Y-45000000D01*
X84000000Y-42500000D02*
X84000000Y-43900000D01*
X87160000Y-45000000D02*
X89500000Y-47340000D01*
X85100000Y-45000000D02*
X87160000Y-45000000D01*
D25*
X84000000Y-101500000D02*
X88000000Y-97500000D01*
X78500000Y-101500000D02*
X84000000Y-101500000D01*
X76499999Y-99499999D02*
X78500000Y-101500000D01*
X76499999Y-64575499D02*
X76499999Y-99499999D01*
X78500000Y-62575498D02*
X76499999Y-64575499D01*
X78500000Y-62420000D02*
X78500000Y-62575498D01*
X76499999Y-51872501D02*
X76499999Y-64575499D01*
X78452500Y-49920000D02*
X76499999Y-51872501D01*
X78500000Y-49920000D02*
X78452500Y-49920000D01*
X82500000Y-92500000D02*
X88000000Y-92500000D01*
X78500000Y-96500000D02*
X82500000Y-92500000D01*
X82500000Y-89500000D02*
X82500000Y-92500000D01*
X78500000Y-85500000D02*
X82500000Y-89500000D01*
X82500000Y-78500000D02*
X82500000Y-89500000D01*
X78500000Y-74500000D02*
X82500000Y-78500000D01*
X96500000Y-102500000D02*
X98500000Y-102500000D01*
X96200000Y-102500000D02*
X96500000Y-102500000D01*
X88000000Y-94300000D02*
X96200000Y-102500000D01*
X88000000Y-92500000D02*
X88000000Y-94300000D01*
D24*
X79799999Y-73200001D02*
X83799999Y-73200001D01*
X78500000Y-74500000D02*
X79799999Y-73200001D01*
X83799999Y-73200001D02*
X86000000Y-71000000D01*
X86000000Y-61000000D02*
X89500000Y-57500000D01*
X86000000Y-71000000D02*
X86000000Y-61000000D01*
X95368630Y-47340000D02*
X96500000Y-47340000D01*
X93940000Y-47340000D02*
X95368630Y-47340000D01*
X90500000Y-43900000D02*
X93940000Y-47340000D01*
X90500000Y-42500000D02*
X90500000Y-43900000D01*
X120099999Y-73480001D02*
X119000000Y-74580000D01*
X120550001Y-73029999D02*
X120099999Y-73480001D01*
X120550001Y-66630001D02*
X120550001Y-73029999D01*
X119000000Y-65080000D02*
X120550001Y-66630001D01*
X120099999Y-63980001D02*
X119000000Y-65080000D01*
X120550001Y-63529999D02*
X120099999Y-63980001D01*
X120550001Y-57130001D02*
X120550001Y-63529999D01*
X119000000Y-55580000D02*
X120550001Y-57130001D01*
X94500000Y-67000000D02*
X94500000Y-71000000D01*
D26*
X103860001Y-71799999D02*
X104660000Y-71000000D01*
X103284999Y-72375001D02*
X103860001Y-71799999D01*
X91425001Y-72375001D02*
X103284999Y-72375001D01*
X90390000Y-71340000D02*
X91425001Y-72375001D01*
X88640000Y-71340000D02*
X90390000Y-71340000D01*
D24*
X82868630Y-57500000D02*
X84000000Y-57500000D01*
X79547500Y-57500000D02*
X82868630Y-57500000D01*
X78500000Y-56452500D02*
X79547500Y-57500000D01*
X78500000Y-55000000D02*
X78500000Y-56452500D01*
X105960000Y-43000000D02*
X99460000Y-49500000D01*
X92000000Y-49500000D02*
X84000000Y-57500000D01*
X99460000Y-49500000D02*
X92000000Y-49500000D01*
D27*
X88440000Y-73880000D02*
X88640000Y-73880000D01*
X86678973Y-90775019D02*
X86224980Y-90321026D01*
X86224980Y-76095020D02*
X88440000Y-73880000D01*
X86224980Y-90321026D02*
X86224980Y-76095020D01*
X114361390Y-90775020D02*
X86678973Y-90775019D01*
X118229002Y-89500000D02*
X115636410Y-89500000D01*
X120425001Y-87304001D02*
X118229002Y-89500000D01*
X115636410Y-89500000D02*
X114361390Y-90775020D01*
X120425001Y-82965001D02*
X120425001Y-87304001D01*
X119000000Y-81540000D02*
X120425001Y-82965001D01*
X88440000Y-76420000D02*
X88640000Y-76420000D01*
X86674990Y-78185010D02*
X88440000Y-76420000D01*
X86674990Y-90134626D02*
X86674990Y-78185010D01*
X86865374Y-90325010D02*
X86674990Y-90134626D01*
X114174990Y-90325010D02*
X86865374Y-90325010D01*
X117574999Y-86925001D02*
X114174990Y-90325010D01*
X117574999Y-85505001D02*
X117574999Y-86925001D01*
X119000000Y-84080000D02*
X117574999Y-85505001D01*
D24*
X111300000Y-78960000D02*
X111500000Y-78960000D01*
X105910001Y-73570001D02*
X111300000Y-78960000D01*
X105910001Y-68250001D02*
X105910001Y-73570001D01*
X104660000Y-67000000D02*
X105910001Y-68250001D01*
X108500000Y-53500000D02*
X104500000Y-57500000D01*
X108500000Y-43000000D02*
X108500000Y-53500000D01*
X81500000Y-67500000D02*
X84000000Y-70000000D01*
X78500000Y-67500000D02*
X81500000Y-67500000D01*
X112460000Y-43000000D02*
X112460000Y-59040000D01*
X112460000Y-59040000D02*
X109000000Y-62500000D01*
X111300000Y-73880000D02*
X111500000Y-73880000D01*
X109000000Y-71580000D02*
X111300000Y-73880000D01*
X109000000Y-62500000D02*
X109000000Y-71580000D01*
X111750001Y-56249999D02*
X111299999Y-56700001D01*
X111750001Y-45250001D02*
X111750001Y-56249999D01*
X111109999Y-44609999D02*
X111750001Y-45250001D01*
X111109999Y-42351999D02*
X111109999Y-44609999D01*
X111811999Y-41649999D02*
X111109999Y-42351999D01*
X113108001Y-41649999D02*
X111811999Y-41649999D01*
X111299999Y-56700001D02*
X110500000Y-57500000D01*
X114458002Y-43000000D02*
X113108001Y-41649999D01*
X115000000Y-43000000D02*
X114458002Y-43000000D01*
D28*
G36*
X74310315Y-40331862D02*
G01*
X73831862Y-40810315D01*
X73455943Y-41372918D01*
X73197006Y-41998048D01*
X73065000Y-42661682D01*
X73065000Y-43338318D01*
X73197006Y-44001952D01*
X73455943Y-44627082D01*
X73831862Y-45189685D01*
X74310315Y-45668138D01*
X74872918Y-46044057D01*
X75498048Y-46302994D01*
X76161682Y-46435000D01*
X76838318Y-46435000D01*
X77501952Y-46302994D01*
X78127082Y-46044057D01*
X78689685Y-45668138D01*
X79168138Y-45189685D01*
X79544057Y-44627082D01*
X79802994Y-44001952D01*
X79935000Y-43338318D01*
X79935000Y-42678939D01*
X79961603Y-42865907D01*
X80061778Y-43151199D01*
X80141739Y-43300792D01*
X80395920Y-43384475D01*
X81280395Y-42500000D01*
X80395920Y-41615525D01*
X80141739Y-41699208D01*
X80010842Y-41971775D01*
X79935635Y-42264642D01*
X79919009Y-42566553D01*
X79926375Y-42618321D01*
X79802994Y-41998048D01*
X79570154Y-41435920D01*
X80575525Y-41435920D01*
X81460000Y-42320395D01*
X81474143Y-42306253D01*
X81653748Y-42485858D01*
X81639605Y-42500000D01*
X81653748Y-42514143D01*
X81474143Y-42693748D01*
X81460000Y-42679605D01*
X80575525Y-43564080D01*
X80659208Y-43818261D01*
X80931775Y-43949158D01*
X81224642Y-44024365D01*
X81526553Y-44040991D01*
X81825907Y-43998397D01*
X82111199Y-43898222D01*
X82260792Y-43818261D01*
X82344474Y-43564082D01*
X82460422Y-43680030D01*
X82507187Y-43633265D01*
X82510498Y-43644180D01*
X82569463Y-43754494D01*
X82648815Y-43851185D01*
X82745506Y-43930537D01*
X82855820Y-43989502D01*
X82975518Y-44025812D01*
X83100000Y-44038072D01*
X83124317Y-44038072D01*
X83127805Y-44073490D01*
X83178412Y-44240313D01*
X83260590Y-44394059D01*
X83343468Y-44495046D01*
X83343471Y-44495049D01*
X83371184Y-44528817D01*
X83404951Y-44556529D01*
X84443470Y-45595049D01*
X84471183Y-45628817D01*
X84504951Y-45656530D01*
X84504953Y-45656532D01*
X84519095Y-45668138D01*
X84605941Y-45739411D01*
X84759687Y-45821589D01*
X84875903Y-45856843D01*
X84926509Y-45872195D01*
X84941306Y-45873652D01*
X85056523Y-45885000D01*
X85056531Y-45885000D01*
X85100000Y-45889281D01*
X85143469Y-45885000D01*
X86793422Y-45885000D01*
X88075125Y-47166704D01*
X88058057Y-47340000D01*
X88085764Y-47621309D01*
X88167818Y-47891808D01*
X88301068Y-48141101D01*
X88480392Y-48359608D01*
X88698899Y-48538932D01*
X88948192Y-48672182D01*
X89218691Y-48754236D01*
X89429508Y-48775000D01*
X89570492Y-48775000D01*
X89781309Y-48754236D01*
X90051808Y-48672182D01*
X90301101Y-48538932D01*
X90519608Y-48359608D01*
X90698932Y-48141101D01*
X90832182Y-47891808D01*
X90914236Y-47621309D01*
X90941943Y-47340000D01*
X90914236Y-47058691D01*
X90832182Y-46788192D01*
X90698932Y-46538899D01*
X90519608Y-46320392D01*
X90301101Y-46141068D01*
X90051808Y-46007818D01*
X89781309Y-45925764D01*
X89570492Y-45905000D01*
X89429508Y-45905000D01*
X89326704Y-45915125D01*
X87816534Y-44404956D01*
X87788817Y-44371183D01*
X87654059Y-44260589D01*
X87500313Y-44178411D01*
X87333490Y-44127805D01*
X87203477Y-44115000D01*
X87203469Y-44115000D01*
X87160000Y-44110719D01*
X87116531Y-44115000D01*
X85466579Y-44115000D01*
X85269665Y-43918086D01*
X85351185Y-43851185D01*
X85430537Y-43754494D01*
X85489502Y-43644180D01*
X85525812Y-43524482D01*
X85538072Y-43400000D01*
X85538072Y-42566553D01*
X86419009Y-42566553D01*
X86461603Y-42865907D01*
X86561778Y-43151199D01*
X86641739Y-43300792D01*
X86895920Y-43384475D01*
X87780395Y-42500000D01*
X86895920Y-41615525D01*
X86641739Y-41699208D01*
X86510842Y-41971775D01*
X86435635Y-42264642D01*
X86419009Y-42566553D01*
X85538072Y-42566553D01*
X85538072Y-41600000D01*
X85525812Y-41475518D01*
X85489502Y-41355820D01*
X85430537Y-41245506D01*
X85351185Y-41148815D01*
X85254494Y-41069463D01*
X85144180Y-41010498D01*
X85024482Y-40974188D01*
X84900000Y-40961928D01*
X83100000Y-40961928D01*
X82975518Y-40974188D01*
X82855820Y-41010498D01*
X82745506Y-41069463D01*
X82648815Y-41148815D01*
X82569463Y-41245506D01*
X82510498Y-41355820D01*
X82507187Y-41366735D01*
X82460422Y-41319970D01*
X82344474Y-41435918D01*
X82260792Y-41181739D01*
X81988225Y-41050842D01*
X81695358Y-40975635D01*
X81393447Y-40959009D01*
X81094093Y-41001603D01*
X80808801Y-41101778D01*
X80659208Y-41181739D01*
X80575525Y-41435920D01*
X79570154Y-41435920D01*
X79544057Y-41372918D01*
X79168138Y-40810315D01*
X78689685Y-40331862D01*
X78469890Y-40185000D01*
X118530110Y-40185000D01*
X118310315Y-40331862D01*
X117831862Y-40810315D01*
X117455943Y-41372918D01*
X117197006Y-41998048D01*
X117065000Y-42661682D01*
X117065000Y-43338318D01*
X117197006Y-44001952D01*
X117455943Y-44627082D01*
X117831862Y-45189685D01*
X118310315Y-45668138D01*
X118872918Y-46044057D01*
X119498048Y-46302994D01*
X120161682Y-46435000D01*
X120838318Y-46435000D01*
X121501952Y-46302994D01*
X122127082Y-46044057D01*
X122689685Y-45668138D01*
X123168138Y-45189685D01*
X123544057Y-44627082D01*
X123802994Y-44001952D01*
X123935000Y-43338318D01*
X123935000Y-42661682D01*
X123802994Y-41998048D01*
X123544057Y-41372918D01*
X123168138Y-40810315D01*
X122689685Y-40331862D01*
X122469890Y-40185000D01*
X124815000Y-40185000D01*
X124815001Y-106315000D01*
X121441594Y-106315000D01*
X121501952Y-106302994D01*
X122127082Y-106044057D01*
X122689685Y-105668138D01*
X123168138Y-105189685D01*
X123544057Y-104627082D01*
X123802994Y-104001952D01*
X123935000Y-103338318D01*
X123935000Y-102661682D01*
X123802994Y-101998048D01*
X123544057Y-101372918D01*
X123168138Y-100810315D01*
X122689685Y-100331862D01*
X122127082Y-99955943D01*
X121501952Y-99697006D01*
X120838318Y-99565000D01*
X120161682Y-99565000D01*
X119498048Y-99697006D01*
X118872918Y-99955943D01*
X118310315Y-100331862D01*
X117831862Y-100810315D01*
X117455943Y-101372918D01*
X117197006Y-101998048D01*
X117065000Y-102661682D01*
X117065000Y-103338318D01*
X117197006Y-104001952D01*
X117455943Y-104627082D01*
X117831862Y-105189685D01*
X118310315Y-105668138D01*
X118872918Y-106044057D01*
X119498048Y-106302994D01*
X119558406Y-106315000D01*
X88941594Y-106315000D01*
X89001952Y-106302994D01*
X89627082Y-106044057D01*
X90189685Y-105668138D01*
X90668138Y-105189685D01*
X91044057Y-104627082D01*
X91302994Y-104001952D01*
X91435000Y-103338318D01*
X91435000Y-102661682D01*
X91302994Y-101998048D01*
X91044057Y-101372918D01*
X90668138Y-100810315D01*
X90189685Y-100331862D01*
X89627082Y-99955943D01*
X89001952Y-99697006D01*
X88338318Y-99565000D01*
X87661682Y-99565000D01*
X86998048Y-99697006D01*
X86372918Y-99955943D01*
X85810315Y-100331862D01*
X85331862Y-100810315D01*
X84955943Y-101372918D01*
X84697006Y-101998048D01*
X84565000Y-102661682D01*
X84565000Y-103338318D01*
X84697006Y-104001952D01*
X84955943Y-104627082D01*
X85331862Y-105189685D01*
X85810315Y-105668138D01*
X86372918Y-106044057D01*
X86998048Y-106302994D01*
X87058406Y-106315000D01*
X72685000Y-106315000D01*
X72685000Y-102800000D01*
X76561928Y-102800000D01*
X76574188Y-102924482D01*
X76610498Y-103044180D01*
X76669463Y-103154494D01*
X76748815Y-103251185D01*
X76845506Y-103330537D01*
X76955820Y-103389502D01*
X77075518Y-103425812D01*
X77200000Y-103438072D01*
X78214250Y-103435000D01*
X78373000Y-103276250D01*
X78373000Y-101627000D01*
X78627000Y-101627000D01*
X78627000Y-103276250D01*
X78785750Y-103435000D01*
X79800000Y-103438072D01*
X79924482Y-103425812D01*
X80044180Y-103389502D01*
X80154494Y-103330537D01*
X80251185Y-103251185D01*
X80330537Y-103154494D01*
X80389502Y-103044180D01*
X80425812Y-102924482D01*
X80438072Y-102800000D01*
X80435000Y-101785750D01*
X80276250Y-101627000D01*
X78627000Y-101627000D01*
X78373000Y-101627000D01*
X76723750Y-101627000D01*
X76565000Y-101785750D01*
X76561928Y-102800000D01*
X72685000Y-102800000D01*
X72685000Y-100200000D01*
X76561928Y-100200000D01*
X76565000Y-101214250D01*
X76723750Y-101373000D01*
X78373000Y-101373000D01*
X78373000Y-99723750D01*
X78627000Y-99723750D01*
X78627000Y-101373000D01*
X80276250Y-101373000D01*
X80435000Y-101214250D01*
X80438072Y-100200000D01*
X80425812Y-100075518D01*
X80389502Y-99955820D01*
X80330537Y-99845506D01*
X80251185Y-99748815D01*
X80154494Y-99669463D01*
X80044180Y-99610498D01*
X79924482Y-99574188D01*
X79800000Y-99561928D01*
X78785750Y-99565000D01*
X78627000Y-99723750D01*
X78373000Y-99723750D01*
X78214250Y-99565000D01*
X77200000Y-99561928D01*
X77075518Y-99574188D01*
X76955820Y-99610498D01*
X76845506Y-99669463D01*
X76748815Y-99748815D01*
X76669463Y-99845506D01*
X76610498Y-99955820D01*
X76574188Y-100075518D01*
X76561928Y-100200000D01*
X72685000Y-100200000D01*
X72685000Y-98492702D01*
X87186903Y-98492702D01*
X87258486Y-98736671D01*
X87513996Y-98857571D01*
X87788184Y-98926300D01*
X88070512Y-98940217D01*
X88350130Y-98898787D01*
X88616292Y-98803603D01*
X88741514Y-98736671D01*
X88813097Y-98492702D01*
X88000000Y-97679605D01*
X87186903Y-98492702D01*
X72685000Y-98492702D01*
X72685000Y-78200000D01*
X76561928Y-78200000D01*
X76561928Y-80800000D01*
X76574188Y-80924482D01*
X76610498Y-81044180D01*
X76669463Y-81154494D01*
X76748815Y-81251185D01*
X76845506Y-81330537D01*
X76955820Y-81389502D01*
X77075518Y-81425812D01*
X77200000Y-81438072D01*
X79800000Y-81438072D01*
X79924482Y-81425812D01*
X80044180Y-81389502D01*
X80154494Y-81330537D01*
X80251185Y-81251185D01*
X80330537Y-81154494D01*
X80389502Y-81044180D01*
X80425812Y-80924482D01*
X80438072Y-80800000D01*
X80438072Y-78200000D01*
X80425812Y-78075518D01*
X80406403Y-78011534D01*
X81365000Y-78970132D01*
X81365001Y-86759869D01*
X80411891Y-85806759D01*
X80435000Y-85690581D01*
X80435000Y-85309419D01*
X80360639Y-84935581D01*
X80214775Y-84583434D01*
X80003013Y-84266509D01*
X79733491Y-83996987D01*
X79416566Y-83785225D01*
X79064419Y-83639361D01*
X78690581Y-83565000D01*
X78309419Y-83565000D01*
X77935581Y-83639361D01*
X77583434Y-83785225D01*
X77266509Y-83996987D01*
X76996987Y-84266509D01*
X76785225Y-84583434D01*
X76639361Y-84935581D01*
X76565000Y-85309419D01*
X76565000Y-85690581D01*
X76639361Y-86064419D01*
X76785225Y-86416566D01*
X76996987Y-86733491D01*
X77266509Y-87003013D01*
X77583434Y-87214775D01*
X77935581Y-87360639D01*
X78309419Y-87435000D01*
X78690581Y-87435000D01*
X78806759Y-87411891D01*
X79988466Y-88593597D01*
X79924482Y-88574188D01*
X79800000Y-88561928D01*
X77200000Y-88561928D01*
X77075518Y-88574188D01*
X76955820Y-88610498D01*
X76845506Y-88669463D01*
X76748815Y-88748815D01*
X76669463Y-88845506D01*
X76610498Y-88955820D01*
X76574188Y-89075518D01*
X76561928Y-89200000D01*
X76561928Y-91800000D01*
X76574188Y-91924482D01*
X76610498Y-92044180D01*
X76669463Y-92154494D01*
X76748815Y-92251185D01*
X76845506Y-92330537D01*
X76955820Y-92389502D01*
X77075518Y-92425812D01*
X77200000Y-92438072D01*
X79800000Y-92438072D01*
X79924482Y-92425812D01*
X80044180Y-92389502D01*
X80154494Y-92330537D01*
X80251185Y-92251185D01*
X80330537Y-92154494D01*
X80389502Y-92044180D01*
X80425812Y-91924482D01*
X80438072Y-91800000D01*
X80438072Y-89200000D01*
X80425812Y-89075518D01*
X80406403Y-89011534D01*
X81365000Y-89970132D01*
X81365001Y-92029867D01*
X78806759Y-94588109D01*
X78690581Y-94565000D01*
X78309419Y-94565000D01*
X77935581Y-94639361D01*
X77583434Y-94785225D01*
X77266509Y-94996987D01*
X76996987Y-95266509D01*
X76785225Y-95583434D01*
X76639361Y-95935581D01*
X76565000Y-96309419D01*
X76565000Y-96690581D01*
X76639361Y-97064419D01*
X76785225Y-97416566D01*
X76996987Y-97733491D01*
X77266509Y-98003013D01*
X77583434Y-98214775D01*
X77935581Y-98360639D01*
X78309419Y-98435000D01*
X78690581Y-98435000D01*
X79064419Y-98360639D01*
X79416566Y-98214775D01*
X79733491Y-98003013D01*
X80003013Y-97733491D01*
X80111911Y-97570512D01*
X86559783Y-97570512D01*
X86601213Y-97850130D01*
X86696397Y-98116292D01*
X86763329Y-98241514D01*
X87007298Y-98313097D01*
X87820395Y-97500000D01*
X87007298Y-96686903D01*
X86763329Y-96758486D01*
X86642429Y-97013996D01*
X86573700Y-97288184D01*
X86559783Y-97570512D01*
X80111911Y-97570512D01*
X80214775Y-97416566D01*
X80360639Y-97064419D01*
X80435000Y-96690581D01*
X80435000Y-96309419D01*
X80411891Y-96193241D01*
X82970132Y-93635000D01*
X86659043Y-93635000D01*
X86669463Y-93654494D01*
X86748815Y-93751185D01*
X86845506Y-93830537D01*
X86865000Y-93840957D01*
X86865000Y-94244249D01*
X86859509Y-94300000D01*
X86881423Y-94522498D01*
X86946324Y-94736446D01*
X86946325Y-94736447D01*
X87051717Y-94933623D01*
X87193552Y-95106449D01*
X87236860Y-95141991D01*
X88166327Y-96071458D01*
X87929488Y-96059783D01*
X87649870Y-96101213D01*
X87383708Y-96196397D01*
X87258486Y-96263329D01*
X87186903Y-96507298D01*
X88000000Y-97320395D01*
X88014143Y-97306253D01*
X88193748Y-97485858D01*
X88179605Y-97500000D01*
X88992702Y-98313097D01*
X89236671Y-98241514D01*
X89357571Y-97986004D01*
X89426300Y-97711816D01*
X89440217Y-97429488D01*
X89425582Y-97330713D01*
X95358009Y-103263141D01*
X95393551Y-103306449D01*
X95566377Y-103448284D01*
X95763553Y-103553676D01*
X95927705Y-103603471D01*
X95977500Y-103618577D01*
X95998493Y-103620644D01*
X96144248Y-103635000D01*
X96144255Y-103635000D01*
X96199999Y-103640490D01*
X96255743Y-103635000D01*
X96891788Y-103635000D01*
X96910498Y-103696680D01*
X96969463Y-103806994D01*
X97048815Y-103903685D01*
X97145506Y-103983037D01*
X97255820Y-104042002D01*
X97375518Y-104078312D01*
X97500000Y-104090572D01*
X99500000Y-104090572D01*
X99624482Y-104078312D01*
X99744180Y-104042002D01*
X99854494Y-103983037D01*
X99951185Y-103903685D01*
X100030537Y-103806994D01*
X100089502Y-103696680D01*
X100125812Y-103576982D01*
X100138072Y-103452500D01*
X100138072Y-102070512D01*
X108559783Y-102070512D01*
X108601213Y-102350130D01*
X108696397Y-102616292D01*
X108761616Y-102738309D01*
X108748815Y-102748815D01*
X108669463Y-102845506D01*
X108610498Y-102955820D01*
X108574188Y-103075518D01*
X108561928Y-103200000D01*
X108561928Y-104800000D01*
X108574188Y-104924482D01*
X108610498Y-105044180D01*
X108669463Y-105154494D01*
X108748815Y-105251185D01*
X108845506Y-105330537D01*
X108955820Y-105389502D01*
X109075518Y-105425812D01*
X109200000Y-105438072D01*
X110800000Y-105438072D01*
X110924482Y-105425812D01*
X111044180Y-105389502D01*
X111154494Y-105330537D01*
X111251185Y-105251185D01*
X111330537Y-105154494D01*
X111389502Y-105044180D01*
X111425812Y-104924482D01*
X111438072Y-104800000D01*
X111438072Y-103200000D01*
X111425812Y-103075518D01*
X111389502Y-102955820D01*
X111330537Y-102845506D01*
X111251185Y-102748815D01*
X111238242Y-102738193D01*
X111357571Y-102486004D01*
X111426300Y-102211816D01*
X111437100Y-101992702D01*
X114186903Y-101992702D01*
X114258486Y-102236671D01*
X114513996Y-102357571D01*
X114788184Y-102426300D01*
X115070512Y-102440217D01*
X115350130Y-102398787D01*
X115616292Y-102303603D01*
X115741514Y-102236671D01*
X115813097Y-101992702D01*
X115000000Y-101179605D01*
X114186903Y-101992702D01*
X111437100Y-101992702D01*
X111440217Y-101929488D01*
X111398787Y-101649870D01*
X111303603Y-101383708D01*
X111236671Y-101258486D01*
X110992702Y-101186903D01*
X110179605Y-102000000D01*
X110193748Y-102014143D01*
X110014143Y-102193748D01*
X110000000Y-102179605D01*
X109985858Y-102193748D01*
X109806253Y-102014143D01*
X109820395Y-102000000D01*
X109007298Y-101186903D01*
X108763329Y-101258486D01*
X108642429Y-101513996D01*
X108573700Y-101788184D01*
X108559783Y-102070512D01*
X100138072Y-102070512D01*
X100138072Y-101547500D01*
X100125812Y-101423018D01*
X100089502Y-101303320D01*
X100030537Y-101193006D01*
X99951185Y-101096315D01*
X99854494Y-101016963D01*
X99836413Y-101007298D01*
X109186903Y-101007298D01*
X110000000Y-101820395D01*
X110749883Y-101070512D01*
X113559783Y-101070512D01*
X113601213Y-101350130D01*
X113696397Y-101616292D01*
X113763329Y-101741514D01*
X114007298Y-101813097D01*
X114820395Y-101000000D01*
X115179605Y-101000000D01*
X115992702Y-101813097D01*
X116236671Y-101741514D01*
X116357571Y-101486004D01*
X116426300Y-101211816D01*
X116440217Y-100929488D01*
X116398787Y-100649870D01*
X116303603Y-100383708D01*
X116236671Y-100258486D01*
X115992702Y-100186903D01*
X115179605Y-101000000D01*
X114820395Y-101000000D01*
X114007298Y-100186903D01*
X113763329Y-100258486D01*
X113642429Y-100513996D01*
X113573700Y-100788184D01*
X113559783Y-101070512D01*
X110749883Y-101070512D01*
X110813097Y-101007298D01*
X110741514Y-100763329D01*
X110486004Y-100642429D01*
X110211816Y-100573700D01*
X109929488Y-100559783D01*
X109649870Y-100601213D01*
X109383708Y-100696397D01*
X109258486Y-100763329D01*
X109186903Y-101007298D01*
X99836413Y-101007298D01*
X99762781Y-100967941D01*
X99875969Y-100826923D01*
X100019571Y-100551094D01*
X100090563Y-100332980D01*
X99970594Y-100087000D01*
X98627000Y-100087000D01*
X98627000Y-100107000D01*
X98373000Y-100107000D01*
X98373000Y-100087000D01*
X97029406Y-100087000D01*
X96909437Y-100332980D01*
X96980429Y-100551094D01*
X97124031Y-100826923D01*
X97237219Y-100967941D01*
X97145506Y-101016963D01*
X97048815Y-101096315D01*
X96969463Y-101193006D01*
X96910498Y-101303320D01*
X96891788Y-101365000D01*
X96670132Y-101365000D01*
X92725132Y-97420000D01*
X96857319Y-97420000D01*
X96887970Y-97731204D01*
X96978745Y-98030449D01*
X97126155Y-98306235D01*
X97324537Y-98547963D01*
X97503899Y-98695163D01*
X97318685Y-98850563D01*
X97124031Y-99093077D01*
X96980429Y-99368906D01*
X96909437Y-99587020D01*
X97029406Y-99833000D01*
X98373000Y-99833000D01*
X98373000Y-99813000D01*
X98627000Y-99813000D01*
X98627000Y-99833000D01*
X99970594Y-99833000D01*
X100090563Y-99587020D01*
X100019571Y-99368906D01*
X99875969Y-99093077D01*
X99795403Y-98992702D01*
X109186903Y-98992702D01*
X109258486Y-99236671D01*
X109513996Y-99357571D01*
X109788184Y-99426300D01*
X110070512Y-99440217D01*
X110350130Y-99398787D01*
X110616292Y-99303603D01*
X110741514Y-99236671D01*
X110813097Y-98992702D01*
X110000000Y-98179605D01*
X109186903Y-98992702D01*
X99795403Y-98992702D01*
X99681315Y-98850563D01*
X99496101Y-98695163D01*
X99675463Y-98547963D01*
X99873845Y-98306235D01*
X99999840Y-98070512D01*
X108559783Y-98070512D01*
X108601213Y-98350130D01*
X108696397Y-98616292D01*
X108763329Y-98741514D01*
X109007298Y-98813097D01*
X109820395Y-98000000D01*
X110179605Y-98000000D01*
X110992702Y-98813097D01*
X111236671Y-98741514D01*
X111357571Y-98486004D01*
X111426300Y-98211816D01*
X111440217Y-97929488D01*
X111406215Y-97700000D01*
X113561928Y-97700000D01*
X113561928Y-99300000D01*
X113574188Y-99424482D01*
X113610498Y-99544180D01*
X113669463Y-99654494D01*
X113748815Y-99751185D01*
X113845506Y-99830537D01*
X113955820Y-99889502D01*
X114075518Y-99925812D01*
X114200000Y-99938072D01*
X114207215Y-99938072D01*
X114186903Y-100007298D01*
X115000000Y-100820395D01*
X115813097Y-100007298D01*
X115792785Y-99938072D01*
X115800000Y-99938072D01*
X115924482Y-99925812D01*
X116044180Y-99889502D01*
X116154494Y-99830537D01*
X116251185Y-99751185D01*
X116330537Y-99654494D01*
X116389502Y-99544180D01*
X116425812Y-99424482D01*
X116438072Y-99300000D01*
X116438072Y-97700000D01*
X116425812Y-97575518D01*
X116389502Y-97455820D01*
X116330537Y-97345506D01*
X116251185Y-97248815D01*
X116154494Y-97169463D01*
X116044180Y-97110498D01*
X115924482Y-97074188D01*
X115800000Y-97061928D01*
X114200000Y-97061928D01*
X114075518Y-97074188D01*
X113955820Y-97110498D01*
X113845506Y-97169463D01*
X113748815Y-97248815D01*
X113669463Y-97345506D01*
X113610498Y-97455820D01*
X113574188Y-97575518D01*
X113561928Y-97700000D01*
X111406215Y-97700000D01*
X111398787Y-97649870D01*
X111303603Y-97383708D01*
X111236671Y-97258486D01*
X110992702Y-97186903D01*
X110179605Y-98000000D01*
X109820395Y-98000000D01*
X109007298Y-97186903D01*
X108763329Y-97258486D01*
X108642429Y-97513996D01*
X108573700Y-97788184D01*
X108559783Y-98070512D01*
X99999840Y-98070512D01*
X100021255Y-98030449D01*
X100112030Y-97731204D01*
X100142681Y-97420000D01*
X100112030Y-97108796D01*
X100021255Y-96809551D01*
X99873845Y-96533765D01*
X99675463Y-96292037D01*
X99433735Y-96093655D01*
X99157949Y-95946245D01*
X98858704Y-95855470D01*
X98625486Y-95832500D01*
X98374514Y-95832500D01*
X98141296Y-95855470D01*
X97842051Y-95946245D01*
X97566265Y-96093655D01*
X97324537Y-96292037D01*
X97126155Y-96533765D01*
X96978745Y-96809551D01*
X96887970Y-97108796D01*
X96857319Y-97420000D01*
X92725132Y-97420000D01*
X90005132Y-94700000D01*
X108561928Y-94700000D01*
X108561928Y-96300000D01*
X108574188Y-96424482D01*
X108610498Y-96544180D01*
X108669463Y-96654494D01*
X108748815Y-96751185D01*
X108845506Y-96830537D01*
X108955820Y-96889502D01*
X109075518Y-96925812D01*
X109200000Y-96938072D01*
X109207215Y-96938072D01*
X109186903Y-97007298D01*
X110000000Y-97820395D01*
X110813097Y-97007298D01*
X110792785Y-96938072D01*
X110800000Y-96938072D01*
X110924482Y-96925812D01*
X111044180Y-96889502D01*
X111154494Y-96830537D01*
X111251185Y-96751185D01*
X111330537Y-96654494D01*
X111389502Y-96544180D01*
X111425812Y-96424482D01*
X111438072Y-96300000D01*
X111438072Y-94700000D01*
X111425812Y-94575518D01*
X111389502Y-94455820D01*
X111330537Y-94345506D01*
X111251185Y-94248815D01*
X111154494Y-94169463D01*
X111044180Y-94110498D01*
X110924482Y-94074188D01*
X110800000Y-94061928D01*
X109200000Y-94061928D01*
X109075518Y-94074188D01*
X108955820Y-94110498D01*
X108845506Y-94169463D01*
X108748815Y-94248815D01*
X108669463Y-94345506D01*
X108610498Y-94455820D01*
X108574188Y-94575518D01*
X108561928Y-94700000D01*
X90005132Y-94700000D01*
X89142226Y-93837095D01*
X89154494Y-93830537D01*
X89251185Y-93751185D01*
X89330537Y-93654494D01*
X89389502Y-93544180D01*
X89425812Y-93424482D01*
X89438072Y-93300000D01*
X89438072Y-91700000D01*
X89425812Y-91575518D01*
X89413527Y-91535018D01*
X114324068Y-91535020D01*
X114361390Y-91538696D01*
X114398712Y-91535020D01*
X114398722Y-91535020D01*
X114510375Y-91524023D01*
X114653636Y-91480566D01*
X114699932Y-91455820D01*
X114785666Y-91409994D01*
X114872392Y-91338819D01*
X114872393Y-91338818D01*
X114901390Y-91315021D01*
X114925188Y-91286023D01*
X115275000Y-90936211D01*
X115275000Y-91116712D01*
X115320539Y-91345652D01*
X115409866Y-91561308D01*
X115539550Y-91755394D01*
X115704606Y-91920450D01*
X115898692Y-92050134D01*
X116114348Y-92139461D01*
X116343288Y-92185000D01*
X116576712Y-92185000D01*
X116805652Y-92139461D01*
X117021308Y-92050134D01*
X117215394Y-91920450D01*
X117262784Y-91873060D01*
X117261928Y-92100000D01*
X117274188Y-92224482D01*
X117310498Y-92344180D01*
X117369463Y-92454494D01*
X117448815Y-92551185D01*
X117529690Y-92617557D01*
X117462463Y-92718169D01*
X117414090Y-92834952D01*
X117380450Y-92784606D01*
X117215394Y-92619550D01*
X117021308Y-92489866D01*
X116805652Y-92400539D01*
X116576712Y-92355000D01*
X116343288Y-92355000D01*
X116114348Y-92400539D01*
X115898692Y-92489866D01*
X115704606Y-92619550D01*
X115539550Y-92784606D01*
X115409866Y-92978692D01*
X115320539Y-93194348D01*
X115275000Y-93423288D01*
X115275000Y-93656712D01*
X115320539Y-93885652D01*
X115409866Y-94101308D01*
X115539550Y-94295394D01*
X115704606Y-94460450D01*
X115898692Y-94590134D01*
X116114348Y-94679461D01*
X116343288Y-94725000D01*
X116576712Y-94725000D01*
X116805652Y-94679461D01*
X117021308Y-94590134D01*
X117215394Y-94460450D01*
X117380450Y-94295394D01*
X117414090Y-94245048D01*
X117462463Y-94361831D01*
X117652337Y-94645998D01*
X117894002Y-94887663D01*
X118178169Y-95077537D01*
X118493919Y-95208325D01*
X118829117Y-95275000D01*
X119170883Y-95275000D01*
X119506081Y-95208325D01*
X119821831Y-95077537D01*
X120105998Y-94887663D01*
X120347663Y-94645998D01*
X120537537Y-94361831D01*
X120668325Y-94046081D01*
X120735000Y-93710883D01*
X120735000Y-93369117D01*
X120668325Y-93033919D01*
X120537537Y-92718169D01*
X120470310Y-92617557D01*
X120551185Y-92551185D01*
X120630537Y-92454494D01*
X120689502Y-92344180D01*
X120725812Y-92224482D01*
X120738072Y-92100000D01*
X120735000Y-91285750D01*
X120576250Y-91127000D01*
X119127000Y-91127000D01*
X119127000Y-91147000D01*
X118873000Y-91147000D01*
X118873000Y-91127000D01*
X118853000Y-91127000D01*
X118853000Y-90873000D01*
X118873000Y-90873000D01*
X118873000Y-90853000D01*
X119127000Y-90853000D01*
X119127000Y-90873000D01*
X120576250Y-90873000D01*
X120735000Y-90714250D01*
X120738072Y-89900000D01*
X120725812Y-89775518D01*
X120689502Y-89655820D01*
X120630537Y-89545506D01*
X120551185Y-89448815D01*
X120454494Y-89369463D01*
X120344180Y-89310498D01*
X120224482Y-89274188D01*
X120100000Y-89261928D01*
X119539762Y-89264042D01*
X120936004Y-87867800D01*
X120965002Y-87844002D01*
X121059975Y-87728277D01*
X121130547Y-87596248D01*
X121174004Y-87452987D01*
X121185001Y-87341334D01*
X121188678Y-87304001D01*
X121185001Y-87266668D01*
X121185001Y-83002326D01*
X121188677Y-82965001D01*
X121185001Y-82927676D01*
X121185001Y-82927668D01*
X121174004Y-82816015D01*
X121130547Y-82672754D01*
X121059975Y-82540725D01*
X120965002Y-82425000D01*
X120936005Y-82401203D01*
X120642714Y-82107912D01*
X120668325Y-82046081D01*
X120735000Y-81710883D01*
X120735000Y-81369117D01*
X120668325Y-81033919D01*
X120537537Y-80718169D01*
X120470310Y-80617557D01*
X120551185Y-80551185D01*
X120630537Y-80454494D01*
X120689502Y-80344180D01*
X120725812Y-80224482D01*
X120738072Y-80100000D01*
X120735000Y-79285750D01*
X120576250Y-79127000D01*
X119127000Y-79127000D01*
X119127000Y-79147000D01*
X118873000Y-79147000D01*
X118873000Y-79127000D01*
X117423750Y-79127000D01*
X117265000Y-79285750D01*
X117261928Y-80100000D01*
X117274188Y-80224482D01*
X117310498Y-80344180D01*
X117369463Y-80454494D01*
X117448815Y-80551185D01*
X117529690Y-80617557D01*
X117462463Y-80718169D01*
X117331675Y-81033919D01*
X117265000Y-81369117D01*
X117265000Y-81710883D01*
X117331675Y-82046081D01*
X117462463Y-82361831D01*
X117652337Y-82645998D01*
X117816339Y-82810000D01*
X117652337Y-82974002D01*
X117462463Y-83258169D01*
X117331675Y-83573919D01*
X117265000Y-83909117D01*
X117265000Y-84250883D01*
X117331675Y-84586081D01*
X117357286Y-84647912D01*
X117064002Y-84941197D01*
X117034998Y-84965000D01*
X116979870Y-85032175D01*
X116940025Y-85080725D01*
X116883755Y-85185998D01*
X116869453Y-85212755D01*
X116825996Y-85356016D01*
X116814999Y-85467669D01*
X116814999Y-85467679D01*
X116811323Y-85505001D01*
X116814999Y-85542324D01*
X116815000Y-86610198D01*
X113860189Y-89565010D01*
X113127000Y-89565010D01*
X113127000Y-83000000D01*
X113124560Y-82975224D01*
X113117333Y-82951399D01*
X113105597Y-82929443D01*
X113089803Y-82910197D01*
X113070557Y-82894403D01*
X113048601Y-82882667D01*
X113024776Y-82875440D01*
X113014202Y-82874399D01*
X113030537Y-82854494D01*
X113089502Y-82744180D01*
X113125812Y-82624482D01*
X113138072Y-82500000D01*
X113135000Y-81785750D01*
X112976250Y-81627000D01*
X111627000Y-81627000D01*
X111627000Y-81647000D01*
X111373000Y-81647000D01*
X111373000Y-81627000D01*
X110023750Y-81627000D01*
X109865000Y-81785750D01*
X109861928Y-82500000D01*
X109874188Y-82624482D01*
X109910498Y-82744180D01*
X109969463Y-82854494D01*
X109984650Y-82873000D01*
X89257247Y-82873000D01*
X89391808Y-82832182D01*
X89641101Y-82698932D01*
X89859608Y-82519608D01*
X90038932Y-82301101D01*
X90172182Y-82051808D01*
X90254236Y-81781309D01*
X90281943Y-81500000D01*
X90254236Y-81218691D01*
X90172182Y-80948192D01*
X90038932Y-80698899D01*
X89859608Y-80480392D01*
X89641101Y-80301068D01*
X89508142Y-80230000D01*
X89641101Y-80158932D01*
X89859608Y-79979608D01*
X90038932Y-79761101D01*
X90172182Y-79511808D01*
X90254236Y-79241309D01*
X90281943Y-78960000D01*
X90254236Y-78678691D01*
X90172182Y-78408192D01*
X90038932Y-78158899D01*
X89859608Y-77940392D01*
X89641101Y-77761068D01*
X89508142Y-77690000D01*
X89641101Y-77618932D01*
X89859608Y-77439608D01*
X90038932Y-77221101D01*
X90172182Y-76971808D01*
X90254236Y-76701309D01*
X90281943Y-76420000D01*
X90254236Y-76138691D01*
X90172182Y-75868192D01*
X90038932Y-75618899D01*
X89859608Y-75400392D01*
X89641101Y-75221068D01*
X89508142Y-75150000D01*
X89641101Y-75078932D01*
X89859608Y-74899608D01*
X90038932Y-74681101D01*
X90172182Y-74431808D01*
X90254236Y-74161309D01*
X90281943Y-73880000D01*
X90254236Y-73598691D01*
X90172182Y-73328192D01*
X90038932Y-73078899D01*
X89859608Y-72860392D01*
X89641101Y-72681068D01*
X89508142Y-72610000D01*
X89641101Y-72538932D01*
X89859608Y-72359608D01*
X89867493Y-72350000D01*
X89971645Y-72350000D01*
X90675744Y-73054100D01*
X90707368Y-73092634D01*
X90861161Y-73218848D01*
X91036621Y-73312633D01*
X91227007Y-73370386D01*
X91375393Y-73385001D01*
X91375395Y-73385001D01*
X91425000Y-73389887D01*
X91474605Y-73385001D01*
X103235391Y-73385001D01*
X103284999Y-73389887D01*
X103482993Y-73370386D01*
X103483237Y-73370312D01*
X103673379Y-73312633D01*
X103848839Y-73218848D01*
X104002632Y-73092634D01*
X104034260Y-73054095D01*
X104653355Y-72435000D01*
X104730492Y-72435000D01*
X104941309Y-72414236D01*
X105025002Y-72388848D01*
X105025002Y-73526522D01*
X105020720Y-73570001D01*
X105037806Y-73743491D01*
X105088413Y-73910314D01*
X105170591Y-74064060D01*
X105253469Y-74165047D01*
X105253472Y-74165050D01*
X105281185Y-74198818D01*
X105314953Y-74226531D01*
X109875125Y-78786704D01*
X109858057Y-78960000D01*
X109885764Y-79241309D01*
X109967818Y-79511808D01*
X110101068Y-79761101D01*
X110233476Y-79922441D01*
X110145506Y-79969463D01*
X110048815Y-80048815D01*
X109969463Y-80145506D01*
X109910498Y-80255820D01*
X109874188Y-80375518D01*
X109861928Y-80500000D01*
X109865000Y-81214250D01*
X110023750Y-81373000D01*
X111373000Y-81373000D01*
X111373000Y-81353000D01*
X111627000Y-81353000D01*
X111627000Y-81373000D01*
X112976250Y-81373000D01*
X113135000Y-81214250D01*
X113138072Y-80500000D01*
X113125812Y-80375518D01*
X113089502Y-80255820D01*
X113030537Y-80145506D01*
X112951185Y-80048815D01*
X112854494Y-79969463D01*
X112766524Y-79922441D01*
X112898932Y-79761101D01*
X113032182Y-79511808D01*
X113114236Y-79241309D01*
X113141943Y-78960000D01*
X113114236Y-78678691D01*
X113032182Y-78408192D01*
X112898932Y-78158899D01*
X112719608Y-77940392D01*
X112670391Y-77900000D01*
X117261928Y-77900000D01*
X117265000Y-78714250D01*
X117423750Y-78873000D01*
X118873000Y-78873000D01*
X118873000Y-77423750D01*
X119127000Y-77423750D01*
X119127000Y-78873000D01*
X120576250Y-78873000D01*
X120735000Y-78714250D01*
X120738072Y-77900000D01*
X120725812Y-77775518D01*
X120689502Y-77655820D01*
X120630537Y-77545506D01*
X120551185Y-77448815D01*
X120454494Y-77369463D01*
X120344180Y-77310498D01*
X120224482Y-77274188D01*
X120100000Y-77261928D01*
X119285750Y-77265000D01*
X119127000Y-77423750D01*
X118873000Y-77423750D01*
X118714250Y-77265000D01*
X117900000Y-77261928D01*
X117775518Y-77274188D01*
X117655820Y-77310498D01*
X117545506Y-77369463D01*
X117448815Y-77448815D01*
X117369463Y-77545506D01*
X117310498Y-77655820D01*
X117274188Y-77775518D01*
X117261928Y-77900000D01*
X112670391Y-77900000D01*
X112501101Y-77761068D01*
X112368142Y-77690000D01*
X112501101Y-77618932D01*
X112719608Y-77439608D01*
X112898932Y-77221101D01*
X113032182Y-76971808D01*
X113114236Y-76701309D01*
X113141943Y-76420000D01*
X113114236Y-76138691D01*
X113032182Y-75868192D01*
X112898932Y-75618899D01*
X112719608Y-75400392D01*
X112501101Y-75221068D01*
X112368142Y-75150000D01*
X112501101Y-75078932D01*
X112719608Y-74899608D01*
X112898932Y-74681101D01*
X113032182Y-74431808D01*
X113114236Y-74161309D01*
X113141943Y-73880000D01*
X113114236Y-73598691D01*
X113032182Y-73328192D01*
X112898932Y-73078899D01*
X112719608Y-72860392D01*
X112501101Y-72681068D01*
X112368142Y-72610000D01*
X112501101Y-72538932D01*
X112719608Y-72359608D01*
X112898932Y-72141101D01*
X113032182Y-71891808D01*
X113114236Y-71621309D01*
X113141943Y-71340000D01*
X113114236Y-71058691D01*
X113032182Y-70788192D01*
X112898932Y-70538899D01*
X112719608Y-70320392D01*
X112501101Y-70141068D01*
X112368142Y-70070000D01*
X112501101Y-69998932D01*
X112719608Y-69819608D01*
X112898932Y-69601101D01*
X113032182Y-69351808D01*
X113114236Y-69081309D01*
X113141943Y-68800000D01*
X113114236Y-68518691D01*
X113032182Y-68248192D01*
X112898932Y-67998899D01*
X112719608Y-67780392D01*
X112501101Y-67601068D01*
X112368142Y-67530000D01*
X112501101Y-67458932D01*
X112719608Y-67279608D01*
X112898932Y-67061101D01*
X113032182Y-66811808D01*
X113114236Y-66541309D01*
X113141943Y-66260000D01*
X113114236Y-65978691D01*
X113032182Y-65708192D01*
X112898932Y-65458899D01*
X112719608Y-65240392D01*
X112501101Y-65061068D01*
X112368142Y-64990000D01*
X112501101Y-64918932D01*
X112719608Y-64739608D01*
X112898932Y-64521101D01*
X113032182Y-64271808D01*
X113114236Y-64001309D01*
X113141943Y-63720000D01*
X113114236Y-63438691D01*
X113032182Y-63168192D01*
X112898932Y-62918899D01*
X112719608Y-62700392D01*
X112501101Y-62521068D01*
X112251808Y-62387818D01*
X111981309Y-62305764D01*
X111770492Y-62285000D01*
X111229508Y-62285000D01*
X111018691Y-62305764D01*
X110748192Y-62387818D01*
X110498899Y-62521068D01*
X110280392Y-62700392D01*
X110101068Y-62918899D01*
X109967818Y-63168192D01*
X109885764Y-63438691D01*
X109885000Y-63446448D01*
X109885000Y-62866578D01*
X113055049Y-59696530D01*
X113088817Y-59668817D01*
X113199411Y-59534059D01*
X113281589Y-59380313D01*
X113332195Y-59213490D01*
X113345000Y-59083477D01*
X113345000Y-59083469D01*
X113349281Y-59040000D01*
X113345000Y-58996531D01*
X113345000Y-50383288D01*
X115275000Y-50383288D01*
X115275000Y-50616712D01*
X115320539Y-50845652D01*
X115409866Y-51061308D01*
X115539550Y-51255394D01*
X115704606Y-51420450D01*
X115898692Y-51550134D01*
X116114348Y-51639461D01*
X116343288Y-51685000D01*
X116576712Y-51685000D01*
X116805652Y-51639461D01*
X117021308Y-51550134D01*
X117215394Y-51420450D01*
X117262784Y-51373060D01*
X117261928Y-51600000D01*
X117274188Y-51724482D01*
X117310498Y-51844180D01*
X117369463Y-51954494D01*
X117448815Y-52051185D01*
X117529690Y-52117557D01*
X117462463Y-52218169D01*
X117414090Y-52334952D01*
X117380450Y-52284606D01*
X117215394Y-52119550D01*
X117021308Y-51989866D01*
X116805652Y-51900539D01*
X116576712Y-51855000D01*
X116343288Y-51855000D01*
X116114348Y-51900539D01*
X115898692Y-51989866D01*
X115704606Y-52119550D01*
X115539550Y-52284606D01*
X115409866Y-52478692D01*
X115320539Y-52694348D01*
X115275000Y-52923288D01*
X115275000Y-53156712D01*
X115320539Y-53385652D01*
X115409866Y-53601308D01*
X115539550Y-53795394D01*
X115704606Y-53960450D01*
X115898692Y-54090134D01*
X116114348Y-54179461D01*
X116343288Y-54225000D01*
X116576712Y-54225000D01*
X116805652Y-54179461D01*
X117021308Y-54090134D01*
X117215394Y-53960450D01*
X117380450Y-53795394D01*
X117414090Y-53745048D01*
X117462463Y-53861831D01*
X117652337Y-54145998D01*
X117816339Y-54310000D01*
X117652337Y-54474002D01*
X117462463Y-54758169D01*
X117414090Y-54874952D01*
X117380450Y-54824606D01*
X117215394Y-54659550D01*
X117021308Y-54529866D01*
X116805652Y-54440539D01*
X116576712Y-54395000D01*
X116343288Y-54395000D01*
X116114348Y-54440539D01*
X115898692Y-54529866D01*
X115704606Y-54659550D01*
X115539550Y-54824606D01*
X115409866Y-55018692D01*
X115320539Y-55234348D01*
X115275000Y-55463288D01*
X115275000Y-55696712D01*
X115320539Y-55925652D01*
X115409866Y-56141308D01*
X115539550Y-56335394D01*
X115704606Y-56500450D01*
X115898692Y-56630134D01*
X116114348Y-56719461D01*
X116343288Y-56765000D01*
X116576712Y-56765000D01*
X116805652Y-56719461D01*
X117021308Y-56630134D01*
X117215394Y-56500450D01*
X117380450Y-56335394D01*
X117414090Y-56285048D01*
X117462463Y-56401831D01*
X117652337Y-56685998D01*
X117894002Y-56927663D01*
X118178169Y-57117537D01*
X118493919Y-57248325D01*
X118829117Y-57315000D01*
X119170883Y-57315000D01*
X119431568Y-57263147D01*
X119665001Y-57496580D01*
X119665001Y-58263569D01*
X119285750Y-58265000D01*
X119127000Y-58423750D01*
X119127000Y-59873000D01*
X119147000Y-59873000D01*
X119147000Y-60127000D01*
X119127000Y-60127000D01*
X119127000Y-60147000D01*
X118873000Y-60147000D01*
X118873000Y-60127000D01*
X118853000Y-60127000D01*
X118853000Y-59873000D01*
X118873000Y-59873000D01*
X118873000Y-58423750D01*
X118714250Y-58265000D01*
X117900000Y-58261928D01*
X117775518Y-58274188D01*
X117655820Y-58310498D01*
X117545506Y-58369463D01*
X117448815Y-58448815D01*
X117369463Y-58545506D01*
X117310498Y-58655820D01*
X117274188Y-58775518D01*
X117261928Y-58900000D01*
X117262784Y-59126940D01*
X117215394Y-59079550D01*
X117021308Y-58949866D01*
X116805652Y-58860539D01*
X116576712Y-58815000D01*
X116343288Y-58815000D01*
X116114348Y-58860539D01*
X115898692Y-58949866D01*
X115704606Y-59079550D01*
X115539550Y-59244606D01*
X115409866Y-59438692D01*
X115320539Y-59654348D01*
X115275000Y-59883288D01*
X115275000Y-60116712D01*
X115320539Y-60345652D01*
X115409866Y-60561308D01*
X115539550Y-60755394D01*
X115704606Y-60920450D01*
X115898692Y-61050134D01*
X116114348Y-61139461D01*
X116343288Y-61185000D01*
X116576712Y-61185000D01*
X116805652Y-61139461D01*
X117021308Y-61050134D01*
X117215394Y-60920450D01*
X117262784Y-60873060D01*
X117261928Y-61100000D01*
X117274188Y-61224482D01*
X117310498Y-61344180D01*
X117369463Y-61454494D01*
X117448815Y-61551185D01*
X117529690Y-61617557D01*
X117462463Y-61718169D01*
X117414090Y-61834952D01*
X117380450Y-61784606D01*
X117215394Y-61619550D01*
X117021308Y-61489866D01*
X116805652Y-61400539D01*
X116576712Y-61355000D01*
X116343288Y-61355000D01*
X116114348Y-61400539D01*
X115898692Y-61489866D01*
X115704606Y-61619550D01*
X115539550Y-61784606D01*
X115409866Y-61978692D01*
X115320539Y-62194348D01*
X115275000Y-62423288D01*
X115275000Y-62656712D01*
X115320539Y-62885652D01*
X115409866Y-63101308D01*
X115539550Y-63295394D01*
X115704606Y-63460450D01*
X115898692Y-63590134D01*
X116114348Y-63679461D01*
X116343288Y-63725000D01*
X116576712Y-63725000D01*
X116805652Y-63679461D01*
X117021308Y-63590134D01*
X117215394Y-63460450D01*
X117380450Y-63295394D01*
X117414090Y-63245048D01*
X117462463Y-63361831D01*
X117652337Y-63645998D01*
X117816339Y-63810000D01*
X117652337Y-63974002D01*
X117462463Y-64258169D01*
X117414090Y-64374952D01*
X117380450Y-64324606D01*
X117215394Y-64159550D01*
X117021308Y-64029866D01*
X116805652Y-63940539D01*
X116576712Y-63895000D01*
X116343288Y-63895000D01*
X116114348Y-63940539D01*
X115898692Y-64029866D01*
X115704606Y-64159550D01*
X115539550Y-64324606D01*
X115409866Y-64518692D01*
X115320539Y-64734348D01*
X115275000Y-64963288D01*
X115275000Y-65196712D01*
X115320539Y-65425652D01*
X115409866Y-65641308D01*
X115539550Y-65835394D01*
X115704606Y-66000450D01*
X115898692Y-66130134D01*
X116114348Y-66219461D01*
X116343288Y-66265000D01*
X116576712Y-66265000D01*
X116805652Y-66219461D01*
X117021308Y-66130134D01*
X117215394Y-66000450D01*
X117380450Y-65835394D01*
X117414090Y-65785048D01*
X117462463Y-65901831D01*
X117652337Y-66185998D01*
X117894002Y-66427663D01*
X118178169Y-66617537D01*
X118493919Y-66748325D01*
X118829117Y-66815000D01*
X119170883Y-66815000D01*
X119431568Y-66763147D01*
X119665001Y-66996580D01*
X119665001Y-67763569D01*
X119285750Y-67765000D01*
X119127000Y-67923750D01*
X119127000Y-69373000D01*
X119147000Y-69373000D01*
X119147000Y-69627000D01*
X119127000Y-69627000D01*
X119127000Y-69647000D01*
X118873000Y-69647000D01*
X118873000Y-69627000D01*
X118853000Y-69627000D01*
X118853000Y-69373000D01*
X118873000Y-69373000D01*
X118873000Y-67923750D01*
X118714250Y-67765000D01*
X117900000Y-67761928D01*
X117775518Y-67774188D01*
X117655820Y-67810498D01*
X117545506Y-67869463D01*
X117448815Y-67948815D01*
X117369463Y-68045506D01*
X117310498Y-68155820D01*
X117274188Y-68275518D01*
X117261928Y-68400000D01*
X117262784Y-68626940D01*
X117215394Y-68579550D01*
X117021308Y-68449866D01*
X116805652Y-68360539D01*
X116576712Y-68315000D01*
X116343288Y-68315000D01*
X116114348Y-68360539D01*
X115898692Y-68449866D01*
X115704606Y-68579550D01*
X115539550Y-68744606D01*
X115409866Y-68938692D01*
X115320539Y-69154348D01*
X115275000Y-69383288D01*
X115275000Y-69616712D01*
X115320539Y-69845652D01*
X115409866Y-70061308D01*
X115539550Y-70255394D01*
X115704606Y-70420450D01*
X115898692Y-70550134D01*
X116114348Y-70639461D01*
X116343288Y-70685000D01*
X116576712Y-70685000D01*
X116805652Y-70639461D01*
X117021308Y-70550134D01*
X117215394Y-70420450D01*
X117262784Y-70373060D01*
X117261928Y-70600000D01*
X117274188Y-70724482D01*
X117310498Y-70844180D01*
X117369463Y-70954494D01*
X117448815Y-71051185D01*
X117529690Y-71117557D01*
X117462463Y-71218169D01*
X117414090Y-71334952D01*
X117380450Y-71284606D01*
X117215394Y-71119550D01*
X117021308Y-70989866D01*
X116805652Y-70900539D01*
X116576712Y-70855000D01*
X116343288Y-70855000D01*
X116114348Y-70900539D01*
X115898692Y-70989866D01*
X115704606Y-71119550D01*
X115539550Y-71284606D01*
X115409866Y-71478692D01*
X115320539Y-71694348D01*
X115275000Y-71923288D01*
X115275000Y-72156712D01*
X115320539Y-72385652D01*
X115409866Y-72601308D01*
X115539550Y-72795394D01*
X115704606Y-72960450D01*
X115898692Y-73090134D01*
X116114348Y-73179461D01*
X116343288Y-73225000D01*
X116576712Y-73225000D01*
X116805652Y-73179461D01*
X117021308Y-73090134D01*
X117215394Y-72960450D01*
X117380450Y-72795394D01*
X117414090Y-72745048D01*
X117462463Y-72861831D01*
X117652337Y-73145998D01*
X117816339Y-73310000D01*
X117652337Y-73474002D01*
X117462463Y-73758169D01*
X117414090Y-73874952D01*
X117380450Y-73824606D01*
X117215394Y-73659550D01*
X117021308Y-73529866D01*
X116805652Y-73440539D01*
X116576712Y-73395000D01*
X116343288Y-73395000D01*
X116114348Y-73440539D01*
X115898692Y-73529866D01*
X115704606Y-73659550D01*
X115539550Y-73824606D01*
X115409866Y-74018692D01*
X115320539Y-74234348D01*
X115275000Y-74463288D01*
X115275000Y-74696712D01*
X115320539Y-74925652D01*
X115409866Y-75141308D01*
X115539550Y-75335394D01*
X115704606Y-75500450D01*
X115898692Y-75630134D01*
X116114348Y-75719461D01*
X116343288Y-75765000D01*
X116576712Y-75765000D01*
X116805652Y-75719461D01*
X117021308Y-75630134D01*
X117215394Y-75500450D01*
X117380450Y-75335394D01*
X117414090Y-75285048D01*
X117462463Y-75401831D01*
X117652337Y-75685998D01*
X117894002Y-75927663D01*
X118178169Y-76117537D01*
X118493919Y-76248325D01*
X118829117Y-76315000D01*
X119170883Y-76315000D01*
X119506081Y-76248325D01*
X119821831Y-76117537D01*
X120105998Y-75927663D01*
X120347663Y-75685998D01*
X120537537Y-75401831D01*
X120668325Y-75086081D01*
X120735000Y-74750883D01*
X120735000Y-74409117D01*
X120683147Y-74148432D01*
X120756531Y-74075048D01*
X120756536Y-74075042D01*
X121145045Y-73686533D01*
X121178818Y-73658816D01*
X121289412Y-73524058D01*
X121371590Y-73370312D01*
X121413445Y-73232337D01*
X121422196Y-73203490D01*
X121423653Y-73188693D01*
X121435001Y-73073476D01*
X121435001Y-73073468D01*
X121439282Y-73029999D01*
X121435001Y-72986530D01*
X121435001Y-66673466D01*
X121439282Y-66630000D01*
X121435001Y-66586534D01*
X121435001Y-66586524D01*
X121422196Y-66456511D01*
X121371590Y-66289688D01*
X121289412Y-66135942D01*
X121250036Y-66087963D01*
X121206533Y-66034954D01*
X121206531Y-66034952D01*
X121178818Y-66001184D01*
X121145051Y-65973472D01*
X120683147Y-65511568D01*
X120735000Y-65250883D01*
X120735000Y-64909117D01*
X120683147Y-64648432D01*
X120756531Y-64575048D01*
X120756536Y-64575042D01*
X121145045Y-64186533D01*
X121178818Y-64158816D01*
X121289412Y-64024058D01*
X121371590Y-63870312D01*
X121415671Y-63725000D01*
X121422196Y-63703490D01*
X121423653Y-63688693D01*
X121435001Y-63573476D01*
X121435001Y-63573468D01*
X121439282Y-63529999D01*
X121435001Y-63486530D01*
X121435001Y-57173466D01*
X121439282Y-57130000D01*
X121435001Y-57086534D01*
X121435001Y-57086524D01*
X121422196Y-56956511D01*
X121371590Y-56789688D01*
X121289412Y-56635942D01*
X121265211Y-56606453D01*
X121206533Y-56534954D01*
X121206531Y-56534952D01*
X121178818Y-56501184D01*
X121145051Y-56473472D01*
X120683147Y-56011568D01*
X120735000Y-55750883D01*
X120735000Y-55409117D01*
X120668325Y-55073919D01*
X120537537Y-54758169D01*
X120347663Y-54474002D01*
X120183661Y-54310000D01*
X120347663Y-54145998D01*
X120537537Y-53861831D01*
X120668325Y-53546081D01*
X120735000Y-53210883D01*
X120735000Y-52869117D01*
X120668325Y-52533919D01*
X120537537Y-52218169D01*
X120470310Y-52117557D01*
X120551185Y-52051185D01*
X120630537Y-51954494D01*
X120689502Y-51844180D01*
X120725812Y-51724482D01*
X120738072Y-51600000D01*
X120735000Y-50785750D01*
X120576250Y-50627000D01*
X119127000Y-50627000D01*
X119127000Y-50647000D01*
X118873000Y-50647000D01*
X118873000Y-50627000D01*
X118853000Y-50627000D01*
X118853000Y-50373000D01*
X118873000Y-50373000D01*
X118873000Y-48923750D01*
X119127000Y-48923750D01*
X119127000Y-50373000D01*
X120576250Y-50373000D01*
X120735000Y-50214250D01*
X120738072Y-49400000D01*
X120725812Y-49275518D01*
X120689502Y-49155820D01*
X120630537Y-49045506D01*
X120551185Y-48948815D01*
X120454494Y-48869463D01*
X120344180Y-48810498D01*
X120224482Y-48774188D01*
X120100000Y-48761928D01*
X119285750Y-48765000D01*
X119127000Y-48923750D01*
X118873000Y-48923750D01*
X118714250Y-48765000D01*
X117900000Y-48761928D01*
X117775518Y-48774188D01*
X117655820Y-48810498D01*
X117545506Y-48869463D01*
X117448815Y-48948815D01*
X117369463Y-49045506D01*
X117310498Y-49155820D01*
X117274188Y-49275518D01*
X117261928Y-49400000D01*
X117262784Y-49626940D01*
X117215394Y-49579550D01*
X117021308Y-49449866D01*
X116805652Y-49360539D01*
X116576712Y-49315000D01*
X116343288Y-49315000D01*
X116114348Y-49360539D01*
X115898692Y-49449866D01*
X115704606Y-49579550D01*
X115539550Y-49744606D01*
X115409866Y-49938692D01*
X115320539Y-50154348D01*
X115275000Y-50383288D01*
X113345000Y-50383288D01*
X113345000Y-44254790D01*
X113438505Y-44192312D01*
X113504944Y-44125873D01*
X113510498Y-44144180D01*
X113569463Y-44254494D01*
X113648815Y-44351185D01*
X113745506Y-44430537D01*
X113855820Y-44489502D01*
X113975518Y-44525812D01*
X114100000Y-44538072D01*
X115900000Y-44538072D01*
X116024482Y-44525812D01*
X116144180Y-44489502D01*
X116254494Y-44430537D01*
X116351185Y-44351185D01*
X116430537Y-44254494D01*
X116489502Y-44144180D01*
X116525812Y-44024482D01*
X116538072Y-43900000D01*
X116538072Y-42100000D01*
X116525812Y-41975518D01*
X116489502Y-41855820D01*
X116430537Y-41745506D01*
X116351185Y-41648815D01*
X116254494Y-41569463D01*
X116144180Y-41510498D01*
X116024482Y-41474188D01*
X115900000Y-41461928D01*
X114171508Y-41461928D01*
X113764535Y-41054955D01*
X113736818Y-41021182D01*
X113602060Y-40910588D01*
X113448314Y-40828410D01*
X113281491Y-40777804D01*
X113151478Y-40764999D01*
X113151470Y-40764999D01*
X113108001Y-40760718D01*
X113064532Y-40764999D01*
X111855468Y-40764999D01*
X111811999Y-40760718D01*
X111768530Y-40764999D01*
X111768522Y-40764999D01*
X111653305Y-40776347D01*
X111638508Y-40777804D01*
X111587902Y-40793156D01*
X111471686Y-40828410D01*
X111317940Y-40910588D01*
X111216952Y-40993467D01*
X111216950Y-40993469D01*
X111183182Y-41021182D01*
X111155469Y-41054950D01*
X110514955Y-41695465D01*
X110481182Y-41723182D01*
X110370588Y-41857941D01*
X110288410Y-42011687D01*
X110257070Y-42115000D01*
X110237834Y-42178412D01*
X110237804Y-42178510D01*
X110224999Y-42308523D01*
X110224999Y-42308530D01*
X110220718Y-42351999D01*
X110224999Y-42395468D01*
X110225000Y-44566520D01*
X110220718Y-44609999D01*
X110237804Y-44783489D01*
X110288411Y-44950312D01*
X110370589Y-45104058D01*
X110453467Y-45205045D01*
X110453470Y-45205048D01*
X110481183Y-45238816D01*
X110514950Y-45266528D01*
X110865001Y-45616580D01*
X110865001Y-45952937D01*
X110849039Y-45948096D01*
X110627000Y-46070085D01*
X110627000Y-47213000D01*
X110647000Y-47213000D01*
X110647000Y-47467000D01*
X110627000Y-47467000D01*
X110627000Y-48609915D01*
X110849039Y-48731904D01*
X110865001Y-48727062D01*
X110865002Y-55883420D01*
X110704958Y-56043464D01*
X110704952Y-56043469D01*
X110676438Y-56071983D01*
X110641335Y-56065000D01*
X110358665Y-56065000D01*
X110081426Y-56120147D01*
X109820273Y-56228320D01*
X109585241Y-56385363D01*
X109385363Y-56585241D01*
X109228320Y-56820273D01*
X109120147Y-57081426D01*
X109065000Y-57358665D01*
X109065000Y-57641335D01*
X109120147Y-57918574D01*
X109228320Y-58179727D01*
X109385363Y-58414759D01*
X109585241Y-58614637D01*
X109820273Y-58771680D01*
X110081426Y-58879853D01*
X110358665Y-58935000D01*
X110641335Y-58935000D01*
X110918574Y-58879853D01*
X111179727Y-58771680D01*
X111414759Y-58614637D01*
X111575001Y-58454395D01*
X111575001Y-58673420D01*
X108404956Y-61843466D01*
X108371183Y-61871183D01*
X108260589Y-62005942D01*
X108178411Y-62159688D01*
X108167897Y-62194348D01*
X108134099Y-62305764D01*
X108127805Y-62326511D01*
X108115000Y-62456524D01*
X108115000Y-62456531D01*
X108110719Y-62500000D01*
X108115000Y-62543469D01*
X108115001Y-71536521D01*
X108110719Y-71580000D01*
X108127805Y-71753490D01*
X108178412Y-71920313D01*
X108260590Y-72074059D01*
X108343468Y-72175046D01*
X108343471Y-72175049D01*
X108371184Y-72208817D01*
X108404951Y-72236529D01*
X109875125Y-73706704D01*
X109858057Y-73880000D01*
X109885764Y-74161309D01*
X109967818Y-74431808D01*
X110101068Y-74681101D01*
X110280392Y-74899608D01*
X110498899Y-75078932D01*
X110631858Y-75150000D01*
X110498899Y-75221068D01*
X110280392Y-75400392D01*
X110101068Y-75618899D01*
X109967818Y-75868192D01*
X109885764Y-76138691D01*
X109871822Y-76280243D01*
X106795001Y-73203423D01*
X106795001Y-68293466D01*
X106799282Y-68250000D01*
X106795001Y-68206534D01*
X106795001Y-68206524D01*
X106782196Y-68076511D01*
X106731590Y-67909688D01*
X106649412Y-67755942D01*
X106596884Y-67691937D01*
X106566533Y-67654954D01*
X106566531Y-67654952D01*
X106538818Y-67621184D01*
X106505051Y-67593472D01*
X106084875Y-67173296D01*
X106101943Y-67000000D01*
X106074236Y-66718691D01*
X105992182Y-66448192D01*
X105858932Y-66198899D01*
X105679608Y-65980392D01*
X105461101Y-65801068D01*
X105211808Y-65667818D01*
X104941309Y-65585764D01*
X104730492Y-65565000D01*
X104589508Y-65565000D01*
X104378691Y-65585764D01*
X104108192Y-65667818D01*
X103858899Y-65801068D01*
X103640392Y-65980392D01*
X103461068Y-66198899D01*
X103327818Y-66448192D01*
X103245764Y-66718691D01*
X103218057Y-67000000D01*
X103245764Y-67281309D01*
X103327818Y-67551808D01*
X103461068Y-67801101D01*
X103640392Y-68019608D01*
X103858899Y-68198932D01*
X104108192Y-68332182D01*
X104378691Y-68414236D01*
X104589508Y-68435000D01*
X104730492Y-68435000D01*
X104833296Y-68424875D01*
X105025001Y-68616580D01*
X105025001Y-69611151D01*
X104941309Y-69585764D01*
X104730492Y-69565000D01*
X104589508Y-69565000D01*
X104378691Y-69585764D01*
X104108192Y-69667818D01*
X103858899Y-69801068D01*
X103640392Y-69980392D01*
X103461068Y-70198899D01*
X103327818Y-70448192D01*
X103245764Y-70718691D01*
X103218057Y-71000000D01*
X103219275Y-71012370D01*
X102866644Y-71365001D01*
X95890509Y-71365001D01*
X95935000Y-71141335D01*
X95935000Y-70858665D01*
X95879853Y-70581426D01*
X95771680Y-70320273D01*
X95614637Y-70085241D01*
X95414759Y-69885363D01*
X95385000Y-69865479D01*
X95385000Y-68134521D01*
X95414759Y-68114637D01*
X95614637Y-67914759D01*
X95771680Y-67679727D01*
X95879853Y-67418574D01*
X95935000Y-67141335D01*
X95935000Y-66858665D01*
X95879853Y-66581426D01*
X95771680Y-66320273D01*
X95614637Y-66085241D01*
X95414759Y-65885363D01*
X95179727Y-65728320D01*
X94918574Y-65620147D01*
X94641335Y-65565000D01*
X94358665Y-65565000D01*
X94081426Y-65620147D01*
X93820273Y-65728320D01*
X93585241Y-65885363D01*
X93385363Y-66085241D01*
X93228320Y-66320273D01*
X93120147Y-66581426D01*
X93065000Y-66858665D01*
X93065000Y-67141335D01*
X93120147Y-67418574D01*
X93228320Y-67679727D01*
X93385363Y-67914759D01*
X93585241Y-68114637D01*
X93615000Y-68134521D01*
X93615001Y-69865478D01*
X93585241Y-69885363D01*
X93385363Y-70085241D01*
X93228320Y-70320273D01*
X93120147Y-70581426D01*
X93065000Y-70858665D01*
X93065000Y-71141335D01*
X93109491Y-71365001D01*
X91843357Y-71365001D01*
X91139261Y-70660906D01*
X91107633Y-70622367D01*
X90953840Y-70496153D01*
X90778380Y-70402368D01*
X90587994Y-70344615D01*
X90439608Y-70330000D01*
X90390000Y-70325114D01*
X90340392Y-70330000D01*
X89867493Y-70330000D01*
X89859608Y-70320392D01*
X89641101Y-70141068D01*
X89508142Y-70070000D01*
X89641101Y-69998932D01*
X89859608Y-69819608D01*
X90038932Y-69601101D01*
X90172182Y-69351808D01*
X90254236Y-69081309D01*
X90281943Y-68800000D01*
X90254236Y-68518691D01*
X90172182Y-68248192D01*
X90038932Y-67998899D01*
X89859608Y-67780392D01*
X89641101Y-67601068D01*
X89511655Y-67531878D01*
X89529227Y-67524430D01*
X89762662Y-67365673D01*
X89960639Y-67164425D01*
X90115551Y-66928421D01*
X90221444Y-66666730D01*
X90231904Y-66609039D01*
X90109915Y-66387000D01*
X88767000Y-66387000D01*
X88767000Y-66407000D01*
X88513000Y-66407000D01*
X88513000Y-66387000D01*
X87170085Y-66387000D01*
X87048096Y-66609039D01*
X87058556Y-66666730D01*
X87164449Y-66928421D01*
X87319361Y-67164425D01*
X87517338Y-67365673D01*
X87750773Y-67524430D01*
X87768345Y-67531878D01*
X87638899Y-67601068D01*
X87420392Y-67780392D01*
X87241068Y-67998899D01*
X87107818Y-68248192D01*
X87025764Y-68518691D01*
X86998057Y-68800000D01*
X87025764Y-69081309D01*
X87107818Y-69351808D01*
X87241068Y-69601101D01*
X87420392Y-69819608D01*
X87638899Y-69998932D01*
X87771858Y-70070000D01*
X87638899Y-70141068D01*
X87420392Y-70320392D01*
X87241068Y-70538899D01*
X87107818Y-70788192D01*
X87025764Y-71058691D01*
X86998057Y-71340000D01*
X87025764Y-71621309D01*
X87107818Y-71891808D01*
X87241068Y-72141101D01*
X87420392Y-72359608D01*
X87638899Y-72538932D01*
X87771858Y-72610000D01*
X87638899Y-72681068D01*
X87420392Y-72860392D01*
X87241068Y-73078899D01*
X87107818Y-73328192D01*
X87025764Y-73598691D01*
X86998057Y-73880000D01*
X87025764Y-74161309D01*
X87039292Y-74205906D01*
X85713978Y-75531221D01*
X85684980Y-75555019D01*
X85661182Y-75584017D01*
X85661181Y-75584018D01*
X85590006Y-75670744D01*
X85519434Y-75802774D01*
X85475978Y-75946035D01*
X85461304Y-76095020D01*
X85464981Y-76132352D01*
X85464980Y-90283704D01*
X85461304Y-90321026D01*
X85464980Y-90358348D01*
X85464980Y-90358358D01*
X85475977Y-90470011D01*
X85519434Y-90613272D01*
X85590006Y-90745302D01*
X85629851Y-90793852D01*
X85684979Y-90861027D01*
X85713983Y-90884830D01*
X86115174Y-91286021D01*
X86138972Y-91315019D01*
X86167970Y-91338817D01*
X86167971Y-91338818D01*
X86199873Y-91365000D01*
X83635000Y-91365000D01*
X83635000Y-89555741D01*
X83640490Y-89499999D01*
X83635000Y-89444257D01*
X83635000Y-78555741D01*
X83640490Y-78499999D01*
X83635000Y-78444257D01*
X83635000Y-78444248D01*
X83618577Y-78277501D01*
X83553676Y-78063553D01*
X83448284Y-77866377D01*
X83306449Y-77693551D01*
X83263141Y-77658009D01*
X80411891Y-74806759D01*
X80435000Y-74690581D01*
X80435000Y-74309419D01*
X80390360Y-74085001D01*
X83756530Y-74085001D01*
X83799999Y-74089282D01*
X83843468Y-74085001D01*
X83843476Y-74085001D01*
X83973489Y-74072196D01*
X84140312Y-74021590D01*
X84294058Y-73939412D01*
X84428816Y-73828818D01*
X84456533Y-73795045D01*
X86595050Y-71656529D01*
X86628817Y-71628817D01*
X86668881Y-71580000D01*
X86739410Y-71494060D01*
X86739411Y-71494059D01*
X86821589Y-71340313D01*
X86872195Y-71173490D01*
X86885000Y-71043477D01*
X86885000Y-71043467D01*
X86889281Y-71000001D01*
X86885000Y-70956535D01*
X86885000Y-63720000D01*
X86998057Y-63720000D01*
X87025764Y-64001309D01*
X87107818Y-64271808D01*
X87241068Y-64521101D01*
X87420392Y-64739608D01*
X87638899Y-64918932D01*
X87768345Y-64988122D01*
X87750773Y-64995570D01*
X87517338Y-65154327D01*
X87319361Y-65355575D01*
X87164449Y-65591579D01*
X87058556Y-65853270D01*
X87048096Y-65910961D01*
X87170085Y-66133000D01*
X88513000Y-66133000D01*
X88513000Y-66113000D01*
X88767000Y-66113000D01*
X88767000Y-66133000D01*
X90109915Y-66133000D01*
X90231904Y-65910961D01*
X90221444Y-65853270D01*
X90115551Y-65591579D01*
X89960639Y-65355575D01*
X89762662Y-65154327D01*
X89529227Y-64995570D01*
X89511655Y-64988122D01*
X89641101Y-64918932D01*
X89859608Y-64739608D01*
X90038932Y-64521101D01*
X90172182Y-64271808D01*
X90254236Y-64001309D01*
X90281943Y-63720000D01*
X90254236Y-63438691D01*
X90172182Y-63168192D01*
X90038932Y-62918899D01*
X89859608Y-62700392D01*
X89641101Y-62521068D01*
X89391808Y-62387818D01*
X89121309Y-62305764D01*
X88910492Y-62285000D01*
X88369508Y-62285000D01*
X88158691Y-62305764D01*
X87888192Y-62387818D01*
X87638899Y-62521068D01*
X87420392Y-62700392D01*
X87241068Y-62918899D01*
X87107818Y-63168192D01*
X87025764Y-63438691D01*
X86998057Y-63720000D01*
X86885000Y-63720000D01*
X86885000Y-61366578D01*
X89323561Y-58928017D01*
X89358665Y-58935000D01*
X89641335Y-58935000D01*
X89918574Y-58879853D01*
X90179727Y-58771680D01*
X90414759Y-58614637D01*
X90614637Y-58414759D01*
X90771680Y-58179727D01*
X90879853Y-57918574D01*
X90935000Y-57641335D01*
X90935000Y-57358665D01*
X95065000Y-57358665D01*
X95065000Y-57641335D01*
X95120147Y-57918574D01*
X95228320Y-58179727D01*
X95385363Y-58414759D01*
X95585241Y-58614637D01*
X95820273Y-58771680D01*
X96081426Y-58879853D01*
X96358665Y-58935000D01*
X96641335Y-58935000D01*
X96918574Y-58879853D01*
X97179727Y-58771680D01*
X97414759Y-58614637D01*
X97614637Y-58414759D01*
X97771680Y-58179727D01*
X97879853Y-57918574D01*
X97935000Y-57641335D01*
X97935000Y-57358665D01*
X97879853Y-57081426D01*
X97771680Y-56820273D01*
X97614637Y-56585241D01*
X97414759Y-56385363D01*
X97179727Y-56228320D01*
X96918574Y-56120147D01*
X96641335Y-56065000D01*
X96358665Y-56065000D01*
X96081426Y-56120147D01*
X95820273Y-56228320D01*
X95585241Y-56385363D01*
X95385363Y-56585241D01*
X95228320Y-56820273D01*
X95120147Y-57081426D01*
X95065000Y-57358665D01*
X90935000Y-57358665D01*
X90879853Y-57081426D01*
X90771680Y-56820273D01*
X90614637Y-56585241D01*
X90414759Y-56385363D01*
X90179727Y-56228320D01*
X89918574Y-56120147D01*
X89641335Y-56065000D01*
X89358665Y-56065000D01*
X89081426Y-56120147D01*
X88820273Y-56228320D01*
X88585241Y-56385363D01*
X88385363Y-56585241D01*
X88228320Y-56820273D01*
X88120147Y-57081426D01*
X88065000Y-57358665D01*
X88065000Y-57641335D01*
X88071983Y-57676439D01*
X85404951Y-60343471D01*
X85371184Y-60371183D01*
X85343471Y-60404951D01*
X85343468Y-60404954D01*
X85280120Y-60482144D01*
X85297070Y-60453881D01*
X85391909Y-60189040D01*
X85270624Y-59967000D01*
X84127000Y-59967000D01*
X84127000Y-61109915D01*
X84349039Y-61231904D01*
X84483087Y-61191246D01*
X84737420Y-61071037D01*
X84963414Y-60903519D01*
X85152385Y-60695131D01*
X85217502Y-60586554D01*
X85178412Y-60659687D01*
X85127805Y-60826510D01*
X85110719Y-61000000D01*
X85115001Y-61043479D01*
X85115000Y-69085785D01*
X85114637Y-69085241D01*
X84914759Y-68885363D01*
X84679727Y-68728320D01*
X84418574Y-68620147D01*
X84141335Y-68565000D01*
X83858665Y-68565000D01*
X83823561Y-68571983D01*
X82156534Y-66904956D01*
X82128817Y-66871183D01*
X81994059Y-66760589D01*
X81840313Y-66678411D01*
X81673490Y-66627805D01*
X81543477Y-66615000D01*
X81543469Y-66615000D01*
X81500000Y-66610719D01*
X81456531Y-66615000D01*
X80138072Y-66615000D01*
X80138072Y-66547500D01*
X80125812Y-66423018D01*
X80089502Y-66303320D01*
X80030537Y-66193006D01*
X79951185Y-66096315D01*
X79854494Y-66016963D01*
X79770554Y-65972095D01*
X79873845Y-65846235D01*
X80021255Y-65570449D01*
X80112030Y-65271204D01*
X80142681Y-64960000D01*
X80112030Y-64648796D01*
X80021255Y-64349551D01*
X79873845Y-64073765D01*
X79675463Y-63832037D01*
X79496101Y-63684837D01*
X79681315Y-63529437D01*
X79875969Y-63286923D01*
X80019571Y-63011094D01*
X80090563Y-62792980D01*
X79970594Y-62547000D01*
X78627000Y-62547000D01*
X78627000Y-62567000D01*
X78373000Y-62567000D01*
X78373000Y-62547000D01*
X77029406Y-62547000D01*
X76909437Y-62792980D01*
X76980429Y-63011094D01*
X77124031Y-63286923D01*
X77318685Y-63529437D01*
X77503899Y-63684837D01*
X77324537Y-63832037D01*
X77126155Y-64073765D01*
X76978745Y-64349551D01*
X76887970Y-64648796D01*
X76857319Y-64960000D01*
X76887970Y-65271204D01*
X76978745Y-65570449D01*
X77126155Y-65846235D01*
X77229446Y-65972095D01*
X77145506Y-66016963D01*
X77048815Y-66096315D01*
X76969463Y-66193006D01*
X76910498Y-66303320D01*
X76874188Y-66423018D01*
X76861928Y-66547500D01*
X76861928Y-68452500D01*
X76874188Y-68576982D01*
X76910498Y-68696680D01*
X76969463Y-68806994D01*
X77048815Y-68903685D01*
X77145506Y-68983037D01*
X77255820Y-69042002D01*
X77375518Y-69078312D01*
X77500000Y-69090572D01*
X79500000Y-69090572D01*
X79624482Y-69078312D01*
X79744180Y-69042002D01*
X79854494Y-68983037D01*
X79951185Y-68903685D01*
X80030537Y-68806994D01*
X80089502Y-68696680D01*
X80125812Y-68576982D01*
X80138072Y-68452500D01*
X80138072Y-68385000D01*
X81133422Y-68385000D01*
X82571983Y-69823561D01*
X82565000Y-69858665D01*
X82565000Y-70141335D01*
X82620147Y-70418574D01*
X82728320Y-70679727D01*
X82885363Y-70914759D01*
X83085241Y-71114637D01*
X83320273Y-71271680D01*
X83581426Y-71379853D01*
X83858665Y-71435000D01*
X84141335Y-71435000D01*
X84356152Y-71392270D01*
X83433421Y-72315001D01*
X79843464Y-72315001D01*
X79799998Y-72310720D01*
X79756532Y-72315001D01*
X79756522Y-72315001D01*
X79626509Y-72327806D01*
X79459686Y-72378412D01*
X79305940Y-72460590D01*
X79305938Y-72460591D01*
X79305939Y-72460591D01*
X79204952Y-72543469D01*
X79204950Y-72543471D01*
X79171182Y-72571184D01*
X79143469Y-72604952D01*
X79095985Y-72652436D01*
X79064419Y-72639361D01*
X78690581Y-72565000D01*
X78309419Y-72565000D01*
X77935581Y-72639361D01*
X77583434Y-72785225D01*
X77266509Y-72996987D01*
X76996987Y-73266509D01*
X76785225Y-73583434D01*
X76639361Y-73935581D01*
X76565000Y-74309419D01*
X76565000Y-74690581D01*
X76639361Y-75064419D01*
X76785225Y-75416566D01*
X76996987Y-75733491D01*
X77266509Y-76003013D01*
X77583434Y-76214775D01*
X77935581Y-76360639D01*
X78309419Y-76435000D01*
X78690581Y-76435000D01*
X78806759Y-76411891D01*
X79988466Y-77593597D01*
X79924482Y-77574188D01*
X79800000Y-77561928D01*
X77200000Y-77561928D01*
X77075518Y-77574188D01*
X76955820Y-77610498D01*
X76845506Y-77669463D01*
X76748815Y-77748815D01*
X76669463Y-77845506D01*
X76610498Y-77955820D01*
X76574188Y-78075518D01*
X76561928Y-78200000D01*
X72685000Y-78200000D01*
X72685000Y-62047020D01*
X76909437Y-62047020D01*
X77029406Y-62293000D01*
X78373000Y-62293000D01*
X78373000Y-60994430D01*
X78627000Y-60994430D01*
X78627000Y-62293000D01*
X79970594Y-62293000D01*
X80090563Y-62047020D01*
X80019571Y-61828906D01*
X79875969Y-61553077D01*
X79681315Y-61310563D01*
X79443089Y-61110684D01*
X79170446Y-60961121D01*
X78873863Y-60867622D01*
X78627000Y-60994430D01*
X78373000Y-60994430D01*
X78126137Y-60867622D01*
X77829554Y-60961121D01*
X77556911Y-61110684D01*
X77318685Y-61310563D01*
X77124031Y-61553077D01*
X76980429Y-61828906D01*
X76909437Y-62047020D01*
X72685000Y-62047020D01*
X72685000Y-60189040D01*
X82608091Y-60189040D01*
X82702930Y-60453881D01*
X82847615Y-60695131D01*
X83036586Y-60903519D01*
X83262580Y-61071037D01*
X83516913Y-61191246D01*
X83650961Y-61231904D01*
X83873000Y-61109915D01*
X83873000Y-59967000D01*
X82729376Y-59967000D01*
X82608091Y-60189040D01*
X72685000Y-60189040D01*
X72685000Y-52460000D01*
X76857319Y-52460000D01*
X76887970Y-52771204D01*
X76978745Y-53070449D01*
X77126155Y-53346235D01*
X77229446Y-53472095D01*
X77145506Y-53516963D01*
X77048815Y-53596315D01*
X76969463Y-53693006D01*
X76910498Y-53803320D01*
X76874188Y-53923018D01*
X76861928Y-54047500D01*
X76861928Y-55952500D01*
X76874188Y-56076982D01*
X76910498Y-56196680D01*
X76969463Y-56306994D01*
X77048815Y-56403685D01*
X77145506Y-56483037D01*
X77255820Y-56542002D01*
X77375518Y-56578312D01*
X77500000Y-56590572D01*
X77624317Y-56590572D01*
X77627805Y-56625990D01*
X77678412Y-56792813D01*
X77760590Y-56946559D01*
X77843468Y-57047546D01*
X77843471Y-57047549D01*
X77871184Y-57081317D01*
X77904951Y-57109029D01*
X78890968Y-58095047D01*
X78918683Y-58128817D01*
X78952451Y-58156530D01*
X78952453Y-58156532D01*
X78980716Y-58179727D01*
X79053441Y-58239411D01*
X79207187Y-58321589D01*
X79374010Y-58372195D01*
X79504023Y-58385000D01*
X79504031Y-58385000D01*
X79547500Y-58389281D01*
X79590969Y-58385000D01*
X82865479Y-58385000D01*
X82885363Y-58414759D01*
X83085241Y-58614637D01*
X83174482Y-58674266D01*
X83036586Y-58776481D01*
X82847615Y-58984869D01*
X82702930Y-59226119D01*
X82608091Y-59490960D01*
X82729376Y-59713000D01*
X83873000Y-59713000D01*
X83873000Y-59693000D01*
X84127000Y-59693000D01*
X84127000Y-59713000D01*
X85270624Y-59713000D01*
X85391909Y-59490960D01*
X85297070Y-59226119D01*
X85152385Y-58984869D01*
X84963414Y-58776481D01*
X84825518Y-58674266D01*
X84914759Y-58614637D01*
X85114637Y-58414759D01*
X85271680Y-58179727D01*
X85379853Y-57918574D01*
X85435000Y-57641335D01*
X85435000Y-57358665D01*
X85428017Y-57323561D01*
X92366579Y-50385000D01*
X99416531Y-50385000D01*
X99460000Y-50389281D01*
X99503469Y-50385000D01*
X99503477Y-50385000D01*
X99633490Y-50372195D01*
X99800313Y-50321589D01*
X99954059Y-50239411D01*
X100088817Y-50128817D01*
X100116534Y-50095044D01*
X102522538Y-47689040D01*
X103108091Y-47689040D01*
X103202930Y-47953881D01*
X103347615Y-48195131D01*
X103536586Y-48403519D01*
X103762580Y-48571037D01*
X104016913Y-48691246D01*
X104150961Y-48731904D01*
X104373000Y-48609915D01*
X104373000Y-47467000D01*
X104627000Y-47467000D01*
X104627000Y-48609915D01*
X104849039Y-48731904D01*
X104983087Y-48691246D01*
X105237420Y-48571037D01*
X105463414Y-48403519D01*
X105652385Y-48195131D01*
X105797070Y-47953881D01*
X105891909Y-47689040D01*
X105770624Y-47467000D01*
X104627000Y-47467000D01*
X104373000Y-47467000D01*
X103229376Y-47467000D01*
X103108091Y-47689040D01*
X102522538Y-47689040D01*
X103147843Y-47063735D01*
X103229376Y-47213000D01*
X104373000Y-47213000D01*
X104373000Y-46070085D01*
X104627000Y-46070085D01*
X104627000Y-47213000D01*
X105770624Y-47213000D01*
X105891909Y-46990960D01*
X105797070Y-46726119D01*
X105652385Y-46484869D01*
X105463414Y-46276481D01*
X105237420Y-46108963D01*
X104983087Y-45988754D01*
X104849039Y-45948096D01*
X104627000Y-46070085D01*
X104373000Y-46070085D01*
X104223584Y-45987995D01*
X105698518Y-44513061D01*
X105808816Y-44535000D01*
X106111184Y-44535000D01*
X106407743Y-44476011D01*
X106687095Y-44360299D01*
X106938505Y-44192312D01*
X107004944Y-44125873D01*
X107010498Y-44144180D01*
X107069463Y-44254494D01*
X107148815Y-44351185D01*
X107245506Y-44430537D01*
X107355820Y-44489502D01*
X107475518Y-44525812D01*
X107600000Y-44538072D01*
X107615000Y-44538072D01*
X107615001Y-53133420D01*
X104676439Y-56071983D01*
X104641335Y-56065000D01*
X104358665Y-56065000D01*
X104081426Y-56120147D01*
X103820273Y-56228320D01*
X103585241Y-56385363D01*
X103385363Y-56585241D01*
X103228320Y-56820273D01*
X103120147Y-57081426D01*
X103065000Y-57358665D01*
X103065000Y-57641335D01*
X103120147Y-57918574D01*
X103228320Y-58179727D01*
X103385363Y-58414759D01*
X103585241Y-58614637D01*
X103820273Y-58771680D01*
X104081426Y-58879853D01*
X104358665Y-58935000D01*
X104641335Y-58935000D01*
X104918574Y-58879853D01*
X105179727Y-58771680D01*
X105414759Y-58614637D01*
X105614637Y-58414759D01*
X105771680Y-58179727D01*
X105879853Y-57918574D01*
X105935000Y-57641335D01*
X105935000Y-57358665D01*
X105928017Y-57323561D01*
X109095049Y-54156530D01*
X109128817Y-54128817D01*
X109239411Y-53994059D01*
X109321589Y-53840313D01*
X109372195Y-53673490D01*
X109385000Y-53543477D01*
X109385000Y-53543467D01*
X109389281Y-53500001D01*
X109385000Y-53456535D01*
X109385000Y-48236357D01*
X109536586Y-48403519D01*
X109762580Y-48571037D01*
X110016913Y-48691246D01*
X110150961Y-48731904D01*
X110373000Y-48609915D01*
X110373000Y-47467000D01*
X110353000Y-47467000D01*
X110353000Y-47213000D01*
X110373000Y-47213000D01*
X110373000Y-46070085D01*
X110150961Y-45948096D01*
X110016913Y-45988754D01*
X109762580Y-46108963D01*
X109536586Y-46276481D01*
X109385000Y-46443643D01*
X109385000Y-44538072D01*
X109400000Y-44538072D01*
X109524482Y-44525812D01*
X109644180Y-44489502D01*
X109754494Y-44430537D01*
X109851185Y-44351185D01*
X109930537Y-44254494D01*
X109989502Y-44144180D01*
X110025812Y-44024482D01*
X110038072Y-43900000D01*
X110038072Y-42100000D01*
X110025812Y-41975518D01*
X109989502Y-41855820D01*
X109930537Y-41745506D01*
X109851185Y-41648815D01*
X109754494Y-41569463D01*
X109644180Y-41510498D01*
X109524482Y-41474188D01*
X109400000Y-41461928D01*
X107600000Y-41461928D01*
X107475518Y-41474188D01*
X107355820Y-41510498D01*
X107245506Y-41569463D01*
X107148815Y-41648815D01*
X107069463Y-41745506D01*
X107010498Y-41855820D01*
X107004944Y-41874127D01*
X106938505Y-41807688D01*
X106687095Y-41639701D01*
X106407743Y-41523989D01*
X106111184Y-41465000D01*
X105808816Y-41465000D01*
X105512257Y-41523989D01*
X105232905Y-41639701D01*
X104981495Y-41807688D01*
X104767688Y-42021495D01*
X104599701Y-42272905D01*
X104483989Y-42552257D01*
X104425000Y-42848816D01*
X104425000Y-43151184D01*
X104446939Y-43261482D01*
X99093422Y-48615000D01*
X97158788Y-48615000D01*
X97301101Y-48538932D01*
X97519608Y-48359608D01*
X97698932Y-48141101D01*
X97832182Y-47891808D01*
X97914236Y-47621309D01*
X97941943Y-47340000D01*
X97914236Y-47058691D01*
X97832182Y-46788192D01*
X97698932Y-46538899D01*
X97519608Y-46320392D01*
X97301101Y-46141068D01*
X97051808Y-46007818D01*
X96781309Y-45925764D01*
X96570492Y-45905000D01*
X96429508Y-45905000D01*
X96218691Y-45925764D01*
X95948192Y-46007818D01*
X95698899Y-46141068D01*
X95480392Y-46320392D01*
X95369922Y-46455000D01*
X94306579Y-46455000D01*
X91769665Y-43918087D01*
X91851185Y-43851185D01*
X91930537Y-43754494D01*
X91989502Y-43644180D01*
X92025812Y-43524482D01*
X92038072Y-43400000D01*
X92038072Y-41600000D01*
X92025812Y-41475518D01*
X91989502Y-41355820D01*
X91930537Y-41245506D01*
X91851185Y-41148815D01*
X91754494Y-41069463D01*
X91644180Y-41010498D01*
X91524482Y-40974188D01*
X91400000Y-40961928D01*
X89600000Y-40961928D01*
X89475518Y-40974188D01*
X89355820Y-41010498D01*
X89245506Y-41069463D01*
X89148815Y-41148815D01*
X89069463Y-41245506D01*
X89010498Y-41355820D01*
X89007187Y-41366735D01*
X88960422Y-41319970D01*
X88844474Y-41435918D01*
X88760792Y-41181739D01*
X88488225Y-41050842D01*
X88195358Y-40975635D01*
X87893447Y-40959009D01*
X87594093Y-41001603D01*
X87308801Y-41101778D01*
X87159208Y-41181739D01*
X87075525Y-41435920D01*
X87960000Y-42320395D01*
X87974143Y-42306253D01*
X88153748Y-42485858D01*
X88139605Y-42500000D01*
X88153748Y-42514143D01*
X87974143Y-42693748D01*
X87960000Y-42679605D01*
X87075525Y-43564080D01*
X87159208Y-43818261D01*
X87431775Y-43949158D01*
X87724642Y-44024365D01*
X88026553Y-44040991D01*
X88325907Y-43998397D01*
X88611199Y-43898222D01*
X88760792Y-43818261D01*
X88844474Y-43564082D01*
X88960422Y-43680030D01*
X89007187Y-43633265D01*
X89010498Y-43644180D01*
X89069463Y-43754494D01*
X89148815Y-43851185D01*
X89245506Y-43930537D01*
X89355820Y-43989502D01*
X89475518Y-44025812D01*
X89600000Y-44038072D01*
X89624317Y-44038072D01*
X89627805Y-44073490D01*
X89678412Y-44240313D01*
X89760590Y-44394059D01*
X89843468Y-44495046D01*
X89843471Y-44495049D01*
X89871184Y-44528817D01*
X89904951Y-44556529D01*
X93283470Y-47935049D01*
X93311183Y-47968817D01*
X93344951Y-47996530D01*
X93344953Y-47996532D01*
X93445941Y-48079411D01*
X93599686Y-48161589D01*
X93710258Y-48195131D01*
X93766510Y-48212195D01*
X93896523Y-48225000D01*
X93896531Y-48225000D01*
X93940000Y-48229281D01*
X93983469Y-48225000D01*
X95369922Y-48225000D01*
X95480392Y-48359608D01*
X95698899Y-48538932D01*
X95841212Y-48615000D01*
X92043465Y-48615000D01*
X91999999Y-48610719D01*
X91956533Y-48615000D01*
X91956523Y-48615000D01*
X91826510Y-48627805D01*
X91659687Y-48678411D01*
X91505941Y-48760589D01*
X91500566Y-48765000D01*
X91404953Y-48843468D01*
X91404951Y-48843470D01*
X91371183Y-48871183D01*
X91343470Y-48904951D01*
X84176439Y-56071983D01*
X84141335Y-56065000D01*
X83858665Y-56065000D01*
X83581426Y-56120147D01*
X83320273Y-56228320D01*
X83085241Y-56385363D01*
X82885363Y-56585241D01*
X82865479Y-56615000D01*
X79914079Y-56615000D01*
X79807327Y-56508249D01*
X79854494Y-56483037D01*
X79951185Y-56403685D01*
X80030537Y-56306994D01*
X80089502Y-56196680D01*
X80125812Y-56076982D01*
X80138072Y-55952500D01*
X80138072Y-54047500D01*
X80125812Y-53923018D01*
X80089502Y-53803320D01*
X80030537Y-53693006D01*
X79951185Y-53596315D01*
X79854494Y-53516963D01*
X79770554Y-53472095D01*
X79873845Y-53346235D01*
X80021255Y-53070449D01*
X80112030Y-52771204D01*
X80142681Y-52460000D01*
X80112030Y-52148796D01*
X80021255Y-51849551D01*
X79873845Y-51573765D01*
X79675463Y-51332037D01*
X79496101Y-51184837D01*
X79681315Y-51029437D01*
X79875969Y-50786923D01*
X80019571Y-50511094D01*
X80090563Y-50292980D01*
X79970594Y-50047000D01*
X78627000Y-50047000D01*
X78627000Y-50067000D01*
X78373000Y-50067000D01*
X78373000Y-50047000D01*
X77029406Y-50047000D01*
X76909437Y-50292980D01*
X76980429Y-50511094D01*
X77124031Y-50786923D01*
X77318685Y-51029437D01*
X77503899Y-51184837D01*
X77324537Y-51332037D01*
X77126155Y-51573765D01*
X76978745Y-51849551D01*
X76887970Y-52148796D01*
X76857319Y-52460000D01*
X72685000Y-52460000D01*
X72685000Y-49547020D01*
X76909437Y-49547020D01*
X77029406Y-49793000D01*
X78373000Y-49793000D01*
X78373000Y-48494430D01*
X78627000Y-48494430D01*
X78627000Y-49793000D01*
X79970594Y-49793000D01*
X80090563Y-49547020D01*
X80019571Y-49328906D01*
X79875969Y-49053077D01*
X79681315Y-48810563D01*
X79443089Y-48610684D01*
X79170446Y-48461121D01*
X78873863Y-48367622D01*
X78627000Y-48494430D01*
X78373000Y-48494430D01*
X78126137Y-48367622D01*
X77829554Y-48461121D01*
X77556911Y-48610684D01*
X77318685Y-48810563D01*
X77124031Y-49053077D01*
X76980429Y-49328906D01*
X76909437Y-49547020D01*
X72685000Y-49547020D01*
X72685000Y-47689040D01*
X82608091Y-47689040D01*
X82702930Y-47953881D01*
X82847615Y-48195131D01*
X83036586Y-48403519D01*
X83262580Y-48571037D01*
X83516913Y-48691246D01*
X83650961Y-48731904D01*
X83873000Y-48609915D01*
X83873000Y-47467000D01*
X84127000Y-47467000D01*
X84127000Y-48609915D01*
X84349039Y-48731904D01*
X84483087Y-48691246D01*
X84737420Y-48571037D01*
X84963414Y-48403519D01*
X85152385Y-48195131D01*
X85297070Y-47953881D01*
X85391909Y-47689040D01*
X85270624Y-47467000D01*
X84127000Y-47467000D01*
X83873000Y-47467000D01*
X82729376Y-47467000D01*
X82608091Y-47689040D01*
X72685000Y-47689040D01*
X72685000Y-46990960D01*
X82608091Y-46990960D01*
X82729376Y-47213000D01*
X83873000Y-47213000D01*
X83873000Y-46070085D01*
X84127000Y-46070085D01*
X84127000Y-47213000D01*
X85270624Y-47213000D01*
X85391909Y-46990960D01*
X85297070Y-46726119D01*
X85152385Y-46484869D01*
X84963414Y-46276481D01*
X84737420Y-46108963D01*
X84483087Y-45988754D01*
X84349039Y-45948096D01*
X84127000Y-46070085D01*
X83873000Y-46070085D01*
X83650961Y-45948096D01*
X83516913Y-45988754D01*
X83262580Y-46108963D01*
X83036586Y-46276481D01*
X82847615Y-46484869D01*
X82702930Y-46726119D01*
X82608091Y-46990960D01*
X72685000Y-46990960D01*
X72685000Y-40185000D01*
X74530110Y-40185000D01*
X74310315Y-40331862D01*
X74310315Y-40331862D01*
G37*
X74310315Y-40331862D02*
X73831862Y-40810315D01*
X73455943Y-41372918D01*
X73197006Y-41998048D01*
X73065000Y-42661682D01*
X73065000Y-43338318D01*
X73197006Y-44001952D01*
X73455943Y-44627082D01*
X73831862Y-45189685D01*
X74310315Y-45668138D01*
X74872918Y-46044057D01*
X75498048Y-46302994D01*
X76161682Y-46435000D01*
X76838318Y-46435000D01*
X77501952Y-46302994D01*
X78127082Y-46044057D01*
X78689685Y-45668138D01*
X79168138Y-45189685D01*
X79544057Y-44627082D01*
X79802994Y-44001952D01*
X79935000Y-43338318D01*
X79935000Y-42678939D01*
X79961603Y-42865907D01*
X80061778Y-43151199D01*
X80141739Y-43300792D01*
X80395920Y-43384475D01*
X81280395Y-42500000D01*
X80395920Y-41615525D01*
X80141739Y-41699208D01*
X80010842Y-41971775D01*
X79935635Y-42264642D01*
X79919009Y-42566553D01*
X79926375Y-42618321D01*
X79802994Y-41998048D01*
X79570154Y-41435920D01*
X80575525Y-41435920D01*
X81460000Y-42320395D01*
X81474143Y-42306253D01*
X81653748Y-42485858D01*
X81639605Y-42500000D01*
X81653748Y-42514143D01*
X81474143Y-42693748D01*
X81460000Y-42679605D01*
X80575525Y-43564080D01*
X80659208Y-43818261D01*
X80931775Y-43949158D01*
X81224642Y-44024365D01*
X81526553Y-44040991D01*
X81825907Y-43998397D01*
X82111199Y-43898222D01*
X82260792Y-43818261D01*
X82344474Y-43564082D01*
X82460422Y-43680030D01*
X82507187Y-43633265D01*
X82510498Y-43644180D01*
X82569463Y-43754494D01*
X82648815Y-43851185D01*
X82745506Y-43930537D01*
X82855820Y-43989502D01*
X82975518Y-44025812D01*
X83100000Y-44038072D01*
X83124317Y-44038072D01*
X83127805Y-44073490D01*
X83178412Y-44240313D01*
X83260590Y-44394059D01*
X83343468Y-44495046D01*
X83343471Y-44495049D01*
X83371184Y-44528817D01*
X83404951Y-44556529D01*
X84443470Y-45595049D01*
X84471183Y-45628817D01*
X84504951Y-45656530D01*
X84504953Y-45656532D01*
X84519095Y-45668138D01*
X84605941Y-45739411D01*
X84759687Y-45821589D01*
X84875903Y-45856843D01*
X84926509Y-45872195D01*
X84941306Y-45873652D01*
X85056523Y-45885000D01*
X85056531Y-45885000D01*
X85100000Y-45889281D01*
X85143469Y-45885000D01*
X86793422Y-45885000D01*
X88075125Y-47166704D01*
X88058057Y-47340000D01*
X88085764Y-47621309D01*
X88167818Y-47891808D01*
X88301068Y-48141101D01*
X88480392Y-48359608D01*
X88698899Y-48538932D01*
X88948192Y-48672182D01*
X89218691Y-48754236D01*
X89429508Y-48775000D01*
X89570492Y-48775000D01*
X89781309Y-48754236D01*
X90051808Y-48672182D01*
X90301101Y-48538932D01*
X90519608Y-48359608D01*
X90698932Y-48141101D01*
X90832182Y-47891808D01*
X90914236Y-47621309D01*
X90941943Y-47340000D01*
X90914236Y-47058691D01*
X90832182Y-46788192D01*
X90698932Y-46538899D01*
X90519608Y-46320392D01*
X90301101Y-46141068D01*
X90051808Y-46007818D01*
X89781309Y-45925764D01*
X89570492Y-45905000D01*
X89429508Y-45905000D01*
X89326704Y-45915125D01*
X87816534Y-44404956D01*
X87788817Y-44371183D01*
X87654059Y-44260589D01*
X87500313Y-44178411D01*
X87333490Y-44127805D01*
X87203477Y-44115000D01*
X87203469Y-44115000D01*
X87160000Y-44110719D01*
X87116531Y-44115000D01*
X85466579Y-44115000D01*
X85269665Y-43918086D01*
X85351185Y-43851185D01*
X85430537Y-43754494D01*
X85489502Y-43644180D01*
X85525812Y-43524482D01*
X85538072Y-43400000D01*
X85538072Y-42566553D01*
X86419009Y-42566553D01*
X86461603Y-42865907D01*
X86561778Y-43151199D01*
X86641739Y-43300792D01*
X86895920Y-43384475D01*
X87780395Y-42500000D01*
X86895920Y-41615525D01*
X86641739Y-41699208D01*
X86510842Y-41971775D01*
X86435635Y-42264642D01*
X86419009Y-42566553D01*
X85538072Y-42566553D01*
X85538072Y-41600000D01*
X85525812Y-41475518D01*
X85489502Y-41355820D01*
X85430537Y-41245506D01*
X85351185Y-41148815D01*
X85254494Y-41069463D01*
X85144180Y-41010498D01*
X85024482Y-40974188D01*
X84900000Y-40961928D01*
X83100000Y-40961928D01*
X82975518Y-40974188D01*
X82855820Y-41010498D01*
X82745506Y-41069463D01*
X82648815Y-41148815D01*
X82569463Y-41245506D01*
X82510498Y-41355820D01*
X82507187Y-41366735D01*
X82460422Y-41319970D01*
X82344474Y-41435918D01*
X82260792Y-41181739D01*
X81988225Y-41050842D01*
X81695358Y-40975635D01*
X81393447Y-40959009D01*
X81094093Y-41001603D01*
X80808801Y-41101778D01*
X80659208Y-41181739D01*
X80575525Y-41435920D01*
X79570154Y-41435920D01*
X79544057Y-41372918D01*
X79168138Y-40810315D01*
X78689685Y-40331862D01*
X78469890Y-40185000D01*
X118530110Y-40185000D01*
X118310315Y-40331862D01*
X117831862Y-40810315D01*
X117455943Y-41372918D01*
X117197006Y-41998048D01*
X117065000Y-42661682D01*
X117065000Y-43338318D01*
X117197006Y-44001952D01*
X117455943Y-44627082D01*
X117831862Y-45189685D01*
X118310315Y-45668138D01*
X118872918Y-46044057D01*
X119498048Y-46302994D01*
X120161682Y-46435000D01*
X120838318Y-46435000D01*
X121501952Y-46302994D01*
X122127082Y-46044057D01*
X122689685Y-45668138D01*
X123168138Y-45189685D01*
X123544057Y-44627082D01*
X123802994Y-44001952D01*
X123935000Y-43338318D01*
X123935000Y-42661682D01*
X123802994Y-41998048D01*
X123544057Y-41372918D01*
X123168138Y-40810315D01*
X122689685Y-40331862D01*
X122469890Y-40185000D01*
X124815000Y-40185000D01*
X124815001Y-106315000D01*
X121441594Y-106315000D01*
X121501952Y-106302994D01*
X122127082Y-106044057D01*
X122689685Y-105668138D01*
X123168138Y-105189685D01*
X123544057Y-104627082D01*
X123802994Y-104001952D01*
X123935000Y-103338318D01*
X123935000Y-102661682D01*
X123802994Y-101998048D01*
X123544057Y-101372918D01*
X123168138Y-100810315D01*
X122689685Y-100331862D01*
X122127082Y-99955943D01*
X121501952Y-99697006D01*
X120838318Y-99565000D01*
X120161682Y-99565000D01*
X119498048Y-99697006D01*
X118872918Y-99955943D01*
X118310315Y-100331862D01*
X117831862Y-100810315D01*
X117455943Y-101372918D01*
X117197006Y-101998048D01*
X117065000Y-102661682D01*
X117065000Y-103338318D01*
X117197006Y-104001952D01*
X117455943Y-104627082D01*
X117831862Y-105189685D01*
X118310315Y-105668138D01*
X118872918Y-106044057D01*
X119498048Y-106302994D01*
X119558406Y-106315000D01*
X88941594Y-106315000D01*
X89001952Y-106302994D01*
X89627082Y-106044057D01*
X90189685Y-105668138D01*
X90668138Y-105189685D01*
X91044057Y-104627082D01*
X91302994Y-104001952D01*
X91435000Y-103338318D01*
X91435000Y-102661682D01*
X91302994Y-101998048D01*
X91044057Y-101372918D01*
X90668138Y-100810315D01*
X90189685Y-100331862D01*
X89627082Y-99955943D01*
X89001952Y-99697006D01*
X88338318Y-99565000D01*
X87661682Y-99565000D01*
X86998048Y-99697006D01*
X86372918Y-99955943D01*
X85810315Y-100331862D01*
X85331862Y-100810315D01*
X84955943Y-101372918D01*
X84697006Y-101998048D01*
X84565000Y-102661682D01*
X84565000Y-103338318D01*
X84697006Y-104001952D01*
X84955943Y-104627082D01*
X85331862Y-105189685D01*
X85810315Y-105668138D01*
X86372918Y-106044057D01*
X86998048Y-106302994D01*
X87058406Y-106315000D01*
X72685000Y-106315000D01*
X72685000Y-102800000D01*
X76561928Y-102800000D01*
X76574188Y-102924482D01*
X76610498Y-103044180D01*
X76669463Y-103154494D01*
X76748815Y-103251185D01*
X76845506Y-103330537D01*
X76955820Y-103389502D01*
X77075518Y-103425812D01*
X77200000Y-103438072D01*
X78214250Y-103435000D01*
X78373000Y-103276250D01*
X78373000Y-101627000D01*
X78627000Y-101627000D01*
X78627000Y-103276250D01*
X78785750Y-103435000D01*
X79800000Y-103438072D01*
X79924482Y-103425812D01*
X80044180Y-103389502D01*
X80154494Y-103330537D01*
X80251185Y-103251185D01*
X80330537Y-103154494D01*
X80389502Y-103044180D01*
X80425812Y-102924482D01*
X80438072Y-102800000D01*
X80435000Y-101785750D01*
X80276250Y-101627000D01*
X78627000Y-101627000D01*
X78373000Y-101627000D01*
X76723750Y-101627000D01*
X76565000Y-101785750D01*
X76561928Y-102800000D01*
X72685000Y-102800000D01*
X72685000Y-100200000D01*
X76561928Y-100200000D01*
X76565000Y-101214250D01*
X76723750Y-101373000D01*
X78373000Y-101373000D01*
X78373000Y-99723750D01*
X78627000Y-99723750D01*
X78627000Y-101373000D01*
X80276250Y-101373000D01*
X80435000Y-101214250D01*
X80438072Y-100200000D01*
X80425812Y-100075518D01*
X80389502Y-99955820D01*
X80330537Y-99845506D01*
X80251185Y-99748815D01*
X80154494Y-99669463D01*
X80044180Y-99610498D01*
X79924482Y-99574188D01*
X79800000Y-99561928D01*
X78785750Y-99565000D01*
X78627000Y-99723750D01*
X78373000Y-99723750D01*
X78214250Y-99565000D01*
X77200000Y-99561928D01*
X77075518Y-99574188D01*
X76955820Y-99610498D01*
X76845506Y-99669463D01*
X76748815Y-99748815D01*
X76669463Y-99845506D01*
X76610498Y-99955820D01*
X76574188Y-100075518D01*
X76561928Y-100200000D01*
X72685000Y-100200000D01*
X72685000Y-98492702D01*
X87186903Y-98492702D01*
X87258486Y-98736671D01*
X87513996Y-98857571D01*
X87788184Y-98926300D01*
X88070512Y-98940217D01*
X88350130Y-98898787D01*
X88616292Y-98803603D01*
X88741514Y-98736671D01*
X88813097Y-98492702D01*
X88000000Y-97679605D01*
X87186903Y-98492702D01*
X72685000Y-98492702D01*
X72685000Y-78200000D01*
X76561928Y-78200000D01*
X76561928Y-80800000D01*
X76574188Y-80924482D01*
X76610498Y-81044180D01*
X76669463Y-81154494D01*
X76748815Y-81251185D01*
X76845506Y-81330537D01*
X76955820Y-81389502D01*
X77075518Y-81425812D01*
X77200000Y-81438072D01*
X79800000Y-81438072D01*
X79924482Y-81425812D01*
X80044180Y-81389502D01*
X80154494Y-81330537D01*
X80251185Y-81251185D01*
X80330537Y-81154494D01*
X80389502Y-81044180D01*
X80425812Y-80924482D01*
X80438072Y-80800000D01*
X80438072Y-78200000D01*
X80425812Y-78075518D01*
X80406403Y-78011534D01*
X81365000Y-78970132D01*
X81365001Y-86759869D01*
X80411891Y-85806759D01*
X80435000Y-85690581D01*
X80435000Y-85309419D01*
X80360639Y-84935581D01*
X80214775Y-84583434D01*
X80003013Y-84266509D01*
X79733491Y-83996987D01*
X79416566Y-83785225D01*
X79064419Y-83639361D01*
X78690581Y-83565000D01*
X78309419Y-83565000D01*
X77935581Y-83639361D01*
X77583434Y-83785225D01*
X77266509Y-83996987D01*
X76996987Y-84266509D01*
X76785225Y-84583434D01*
X76639361Y-84935581D01*
X76565000Y-85309419D01*
X76565000Y-85690581D01*
X76639361Y-86064419D01*
X76785225Y-86416566D01*
X76996987Y-86733491D01*
X77266509Y-87003013D01*
X77583434Y-87214775D01*
X77935581Y-87360639D01*
X78309419Y-87435000D01*
X78690581Y-87435000D01*
X78806759Y-87411891D01*
X79988466Y-88593597D01*
X79924482Y-88574188D01*
X79800000Y-88561928D01*
X77200000Y-88561928D01*
X77075518Y-88574188D01*
X76955820Y-88610498D01*
X76845506Y-88669463D01*
X76748815Y-88748815D01*
X76669463Y-88845506D01*
X76610498Y-88955820D01*
X76574188Y-89075518D01*
X76561928Y-89200000D01*
X76561928Y-91800000D01*
X76574188Y-91924482D01*
X76610498Y-92044180D01*
X76669463Y-92154494D01*
X76748815Y-92251185D01*
X76845506Y-92330537D01*
X76955820Y-92389502D01*
X77075518Y-92425812D01*
X77200000Y-92438072D01*
X79800000Y-92438072D01*
X79924482Y-92425812D01*
X80044180Y-92389502D01*
X80154494Y-92330537D01*
X80251185Y-92251185D01*
X80330537Y-92154494D01*
X80389502Y-92044180D01*
X80425812Y-91924482D01*
X80438072Y-91800000D01*
X80438072Y-89200000D01*
X80425812Y-89075518D01*
X80406403Y-89011534D01*
X81365000Y-89970132D01*
X81365001Y-92029867D01*
X78806759Y-94588109D01*
X78690581Y-94565000D01*
X78309419Y-94565000D01*
X77935581Y-94639361D01*
X77583434Y-94785225D01*
X77266509Y-94996987D01*
X76996987Y-95266509D01*
X76785225Y-95583434D01*
X76639361Y-95935581D01*
X76565000Y-96309419D01*
X76565000Y-96690581D01*
X76639361Y-97064419D01*
X76785225Y-97416566D01*
X76996987Y-97733491D01*
X77266509Y-98003013D01*
X77583434Y-98214775D01*
X77935581Y-98360639D01*
X78309419Y-98435000D01*
X78690581Y-98435000D01*
X79064419Y-98360639D01*
X79416566Y-98214775D01*
X79733491Y-98003013D01*
X80003013Y-97733491D01*
X80111911Y-97570512D01*
X86559783Y-97570512D01*
X86601213Y-97850130D01*
X86696397Y-98116292D01*
X86763329Y-98241514D01*
X87007298Y-98313097D01*
X87820395Y-97500000D01*
X87007298Y-96686903D01*
X86763329Y-96758486D01*
X86642429Y-97013996D01*
X86573700Y-97288184D01*
X86559783Y-97570512D01*
X80111911Y-97570512D01*
X80214775Y-97416566D01*
X80360639Y-97064419D01*
X80435000Y-96690581D01*
X80435000Y-96309419D01*
X80411891Y-96193241D01*
X82970132Y-93635000D01*
X86659043Y-93635000D01*
X86669463Y-93654494D01*
X86748815Y-93751185D01*
X86845506Y-93830537D01*
X86865000Y-93840957D01*
X86865000Y-94244249D01*
X86859509Y-94300000D01*
X86881423Y-94522498D01*
X86946324Y-94736446D01*
X86946325Y-94736447D01*
X87051717Y-94933623D01*
X87193552Y-95106449D01*
X87236860Y-95141991D01*
X88166327Y-96071458D01*
X87929488Y-96059783D01*
X87649870Y-96101213D01*
X87383708Y-96196397D01*
X87258486Y-96263329D01*
X87186903Y-96507298D01*
X88000000Y-97320395D01*
X88014143Y-97306253D01*
X88193748Y-97485858D01*
X88179605Y-97500000D01*
X88992702Y-98313097D01*
X89236671Y-98241514D01*
X89357571Y-97986004D01*
X89426300Y-97711816D01*
X89440217Y-97429488D01*
X89425582Y-97330713D01*
X95358009Y-103263141D01*
X95393551Y-103306449D01*
X95566377Y-103448284D01*
X95763553Y-103553676D01*
X95927705Y-103603471D01*
X95977500Y-103618577D01*
X95998493Y-103620644D01*
X96144248Y-103635000D01*
X96144255Y-103635000D01*
X96199999Y-103640490D01*
X96255743Y-103635000D01*
X96891788Y-103635000D01*
X96910498Y-103696680D01*
X96969463Y-103806994D01*
X97048815Y-103903685D01*
X97145506Y-103983037D01*
X97255820Y-104042002D01*
X97375518Y-104078312D01*
X97500000Y-104090572D01*
X99500000Y-104090572D01*
X99624482Y-104078312D01*
X99744180Y-104042002D01*
X99854494Y-103983037D01*
X99951185Y-103903685D01*
X100030537Y-103806994D01*
X100089502Y-103696680D01*
X100125812Y-103576982D01*
X100138072Y-103452500D01*
X100138072Y-102070512D01*
X108559783Y-102070512D01*
X108601213Y-102350130D01*
X108696397Y-102616292D01*
X108761616Y-102738309D01*
X108748815Y-102748815D01*
X108669463Y-102845506D01*
X108610498Y-102955820D01*
X108574188Y-103075518D01*
X108561928Y-103200000D01*
X108561928Y-104800000D01*
X108574188Y-104924482D01*
X108610498Y-105044180D01*
X108669463Y-105154494D01*
X108748815Y-105251185D01*
X108845506Y-105330537D01*
X108955820Y-105389502D01*
X109075518Y-105425812D01*
X109200000Y-105438072D01*
X110800000Y-105438072D01*
X110924482Y-105425812D01*
X111044180Y-105389502D01*
X111154494Y-105330537D01*
X111251185Y-105251185D01*
X111330537Y-105154494D01*
X111389502Y-105044180D01*
X111425812Y-104924482D01*
X111438072Y-104800000D01*
X111438072Y-103200000D01*
X111425812Y-103075518D01*
X111389502Y-102955820D01*
X111330537Y-102845506D01*
X111251185Y-102748815D01*
X111238242Y-102738193D01*
X111357571Y-102486004D01*
X111426300Y-102211816D01*
X111437100Y-101992702D01*
X114186903Y-101992702D01*
X114258486Y-102236671D01*
X114513996Y-102357571D01*
X114788184Y-102426300D01*
X115070512Y-102440217D01*
X115350130Y-102398787D01*
X115616292Y-102303603D01*
X115741514Y-102236671D01*
X115813097Y-101992702D01*
X115000000Y-101179605D01*
X114186903Y-101992702D01*
X111437100Y-101992702D01*
X111440217Y-101929488D01*
X111398787Y-101649870D01*
X111303603Y-101383708D01*
X111236671Y-101258486D01*
X110992702Y-101186903D01*
X110179605Y-102000000D01*
X110193748Y-102014143D01*
X110014143Y-102193748D01*
X110000000Y-102179605D01*
X109985858Y-102193748D01*
X109806253Y-102014143D01*
X109820395Y-102000000D01*
X109007298Y-101186903D01*
X108763329Y-101258486D01*
X108642429Y-101513996D01*
X108573700Y-101788184D01*
X108559783Y-102070512D01*
X100138072Y-102070512D01*
X100138072Y-101547500D01*
X100125812Y-101423018D01*
X100089502Y-101303320D01*
X100030537Y-101193006D01*
X99951185Y-101096315D01*
X99854494Y-101016963D01*
X99836413Y-101007298D01*
X109186903Y-101007298D01*
X110000000Y-101820395D01*
X110749883Y-101070512D01*
X113559783Y-101070512D01*
X113601213Y-101350130D01*
X113696397Y-101616292D01*
X113763329Y-101741514D01*
X114007298Y-101813097D01*
X114820395Y-101000000D01*
X115179605Y-101000000D01*
X115992702Y-101813097D01*
X116236671Y-101741514D01*
X116357571Y-101486004D01*
X116426300Y-101211816D01*
X116440217Y-100929488D01*
X116398787Y-100649870D01*
X116303603Y-100383708D01*
X116236671Y-100258486D01*
X115992702Y-100186903D01*
X115179605Y-101000000D01*
X114820395Y-101000000D01*
X114007298Y-100186903D01*
X113763329Y-100258486D01*
X113642429Y-100513996D01*
X113573700Y-100788184D01*
X113559783Y-101070512D01*
X110749883Y-101070512D01*
X110813097Y-101007298D01*
X110741514Y-100763329D01*
X110486004Y-100642429D01*
X110211816Y-100573700D01*
X109929488Y-100559783D01*
X109649870Y-100601213D01*
X109383708Y-100696397D01*
X109258486Y-100763329D01*
X109186903Y-101007298D01*
X99836413Y-101007298D01*
X99762781Y-100967941D01*
X99875969Y-100826923D01*
X100019571Y-100551094D01*
X100090563Y-100332980D01*
X99970594Y-100087000D01*
X98627000Y-100087000D01*
X98627000Y-100107000D01*
X98373000Y-100107000D01*
X98373000Y-100087000D01*
X97029406Y-100087000D01*
X96909437Y-100332980D01*
X96980429Y-100551094D01*
X97124031Y-100826923D01*
X97237219Y-100967941D01*
X97145506Y-101016963D01*
X97048815Y-101096315D01*
X96969463Y-101193006D01*
X96910498Y-101303320D01*
X96891788Y-101365000D01*
X96670132Y-101365000D01*
X92725132Y-97420000D01*
X96857319Y-97420000D01*
X96887970Y-97731204D01*
X96978745Y-98030449D01*
X97126155Y-98306235D01*
X97324537Y-98547963D01*
X97503899Y-98695163D01*
X97318685Y-98850563D01*
X97124031Y-99093077D01*
X96980429Y-99368906D01*
X96909437Y-99587020D01*
X97029406Y-99833000D01*
X98373000Y-99833000D01*
X98373000Y-99813000D01*
X98627000Y-99813000D01*
X98627000Y-99833000D01*
X99970594Y-99833000D01*
X100090563Y-99587020D01*
X100019571Y-99368906D01*
X99875969Y-99093077D01*
X99795403Y-98992702D01*
X109186903Y-98992702D01*
X109258486Y-99236671D01*
X109513996Y-99357571D01*
X109788184Y-99426300D01*
X110070512Y-99440217D01*
X110350130Y-99398787D01*
X110616292Y-99303603D01*
X110741514Y-99236671D01*
X110813097Y-98992702D01*
X110000000Y-98179605D01*
X109186903Y-98992702D01*
X99795403Y-98992702D01*
X99681315Y-98850563D01*
X99496101Y-98695163D01*
X99675463Y-98547963D01*
X99873845Y-98306235D01*
X99999840Y-98070512D01*
X108559783Y-98070512D01*
X108601213Y-98350130D01*
X108696397Y-98616292D01*
X108763329Y-98741514D01*
X109007298Y-98813097D01*
X109820395Y-98000000D01*
X110179605Y-98000000D01*
X110992702Y-98813097D01*
X111236671Y-98741514D01*
X111357571Y-98486004D01*
X111426300Y-98211816D01*
X111440217Y-97929488D01*
X111406215Y-97700000D01*
X113561928Y-97700000D01*
X113561928Y-99300000D01*
X113574188Y-99424482D01*
X113610498Y-99544180D01*
X113669463Y-99654494D01*
X113748815Y-99751185D01*
X113845506Y-99830537D01*
X113955820Y-99889502D01*
X114075518Y-99925812D01*
X114200000Y-99938072D01*
X114207215Y-99938072D01*
X114186903Y-100007298D01*
X115000000Y-100820395D01*
X115813097Y-100007298D01*
X115792785Y-99938072D01*
X115800000Y-99938072D01*
X115924482Y-99925812D01*
X116044180Y-99889502D01*
X116154494Y-99830537D01*
X116251185Y-99751185D01*
X116330537Y-99654494D01*
X116389502Y-99544180D01*
X116425812Y-99424482D01*
X116438072Y-99300000D01*
X116438072Y-97700000D01*
X116425812Y-97575518D01*
X116389502Y-97455820D01*
X116330537Y-97345506D01*
X116251185Y-97248815D01*
X116154494Y-97169463D01*
X116044180Y-97110498D01*
X115924482Y-97074188D01*
X115800000Y-97061928D01*
X114200000Y-97061928D01*
X114075518Y-97074188D01*
X113955820Y-97110498D01*
X113845506Y-97169463D01*
X113748815Y-97248815D01*
X113669463Y-97345506D01*
X113610498Y-97455820D01*
X113574188Y-97575518D01*
X113561928Y-97700000D01*
X111406215Y-97700000D01*
X111398787Y-97649870D01*
X111303603Y-97383708D01*
X111236671Y-97258486D01*
X110992702Y-97186903D01*
X110179605Y-98000000D01*
X109820395Y-98000000D01*
X109007298Y-97186903D01*
X108763329Y-97258486D01*
X108642429Y-97513996D01*
X108573700Y-97788184D01*
X108559783Y-98070512D01*
X99999840Y-98070512D01*
X100021255Y-98030449D01*
X100112030Y-97731204D01*
X100142681Y-97420000D01*
X100112030Y-97108796D01*
X100021255Y-96809551D01*
X99873845Y-96533765D01*
X99675463Y-96292037D01*
X99433735Y-96093655D01*
X99157949Y-95946245D01*
X98858704Y-95855470D01*
X98625486Y-95832500D01*
X98374514Y-95832500D01*
X98141296Y-95855470D01*
X97842051Y-95946245D01*
X97566265Y-96093655D01*
X97324537Y-96292037D01*
X97126155Y-96533765D01*
X96978745Y-96809551D01*
X96887970Y-97108796D01*
X96857319Y-97420000D01*
X92725132Y-97420000D01*
X90005132Y-94700000D01*
X108561928Y-94700000D01*
X108561928Y-96300000D01*
X108574188Y-96424482D01*
X108610498Y-96544180D01*
X108669463Y-96654494D01*
X108748815Y-96751185D01*
X108845506Y-96830537D01*
X108955820Y-96889502D01*
X109075518Y-96925812D01*
X109200000Y-96938072D01*
X109207215Y-96938072D01*
X109186903Y-97007298D01*
X110000000Y-97820395D01*
X110813097Y-97007298D01*
X110792785Y-96938072D01*
X110800000Y-96938072D01*
X110924482Y-96925812D01*
X111044180Y-96889502D01*
X111154494Y-96830537D01*
X111251185Y-96751185D01*
X111330537Y-96654494D01*
X111389502Y-96544180D01*
X111425812Y-96424482D01*
X111438072Y-96300000D01*
X111438072Y-94700000D01*
X111425812Y-94575518D01*
X111389502Y-94455820D01*
X111330537Y-94345506D01*
X111251185Y-94248815D01*
X111154494Y-94169463D01*
X111044180Y-94110498D01*
X110924482Y-94074188D01*
X110800000Y-94061928D01*
X109200000Y-94061928D01*
X109075518Y-94074188D01*
X108955820Y-94110498D01*
X108845506Y-94169463D01*
X108748815Y-94248815D01*
X108669463Y-94345506D01*
X108610498Y-94455820D01*
X108574188Y-94575518D01*
X108561928Y-94700000D01*
X90005132Y-94700000D01*
X89142226Y-93837095D01*
X89154494Y-93830537D01*
X89251185Y-93751185D01*
X89330537Y-93654494D01*
X89389502Y-93544180D01*
X89425812Y-93424482D01*
X89438072Y-93300000D01*
X89438072Y-91700000D01*
X89425812Y-91575518D01*
X89413527Y-91535018D01*
X114324068Y-91535020D01*
X114361390Y-91538696D01*
X114398712Y-91535020D01*
X114398722Y-91535020D01*
X114510375Y-91524023D01*
X114653636Y-91480566D01*
X114699932Y-91455820D01*
X114785666Y-91409994D01*
X114872392Y-91338819D01*
X114872393Y-91338818D01*
X114901390Y-91315021D01*
X114925188Y-91286023D01*
X115275000Y-90936211D01*
X115275000Y-91116712D01*
X115320539Y-91345652D01*
X115409866Y-91561308D01*
X115539550Y-91755394D01*
X115704606Y-91920450D01*
X115898692Y-92050134D01*
X116114348Y-92139461D01*
X116343288Y-92185000D01*
X116576712Y-92185000D01*
X116805652Y-92139461D01*
X117021308Y-92050134D01*
X117215394Y-91920450D01*
X117262784Y-91873060D01*
X117261928Y-92100000D01*
X117274188Y-92224482D01*
X117310498Y-92344180D01*
X117369463Y-92454494D01*
X117448815Y-92551185D01*
X117529690Y-92617557D01*
X117462463Y-92718169D01*
X117414090Y-92834952D01*
X117380450Y-92784606D01*
X117215394Y-92619550D01*
X117021308Y-92489866D01*
X116805652Y-92400539D01*
X116576712Y-92355000D01*
X116343288Y-92355000D01*
X116114348Y-92400539D01*
X115898692Y-92489866D01*
X115704606Y-92619550D01*
X115539550Y-92784606D01*
X115409866Y-92978692D01*
X115320539Y-93194348D01*
X115275000Y-93423288D01*
X115275000Y-93656712D01*
X115320539Y-93885652D01*
X115409866Y-94101308D01*
X115539550Y-94295394D01*
X115704606Y-94460450D01*
X115898692Y-94590134D01*
X116114348Y-94679461D01*
X116343288Y-94725000D01*
X116576712Y-94725000D01*
X116805652Y-94679461D01*
X117021308Y-94590134D01*
X117215394Y-94460450D01*
X117380450Y-94295394D01*
X117414090Y-94245048D01*
X117462463Y-94361831D01*
X117652337Y-94645998D01*
X117894002Y-94887663D01*
X118178169Y-95077537D01*
X118493919Y-95208325D01*
X118829117Y-95275000D01*
X119170883Y-95275000D01*
X119506081Y-95208325D01*
X119821831Y-95077537D01*
X120105998Y-94887663D01*
X120347663Y-94645998D01*
X120537537Y-94361831D01*
X120668325Y-94046081D01*
X120735000Y-93710883D01*
X120735000Y-93369117D01*
X120668325Y-93033919D01*
X120537537Y-92718169D01*
X120470310Y-92617557D01*
X120551185Y-92551185D01*
X120630537Y-92454494D01*
X120689502Y-92344180D01*
X120725812Y-92224482D01*
X120738072Y-92100000D01*
X120735000Y-91285750D01*
X120576250Y-91127000D01*
X119127000Y-91127000D01*
X119127000Y-91147000D01*
X118873000Y-91147000D01*
X118873000Y-91127000D01*
X118853000Y-91127000D01*
X118853000Y-90873000D01*
X118873000Y-90873000D01*
X118873000Y-90853000D01*
X119127000Y-90853000D01*
X119127000Y-90873000D01*
X120576250Y-90873000D01*
X120735000Y-90714250D01*
X120738072Y-89900000D01*
X120725812Y-89775518D01*
X120689502Y-89655820D01*
X120630537Y-89545506D01*
X120551185Y-89448815D01*
X120454494Y-89369463D01*
X120344180Y-89310498D01*
X120224482Y-89274188D01*
X120100000Y-89261928D01*
X119539762Y-89264042D01*
X120936004Y-87867800D01*
X120965002Y-87844002D01*
X121059975Y-87728277D01*
X121130547Y-87596248D01*
X121174004Y-87452987D01*
X121185001Y-87341334D01*
X121188678Y-87304001D01*
X121185001Y-87266668D01*
X121185001Y-83002326D01*
X121188677Y-82965001D01*
X121185001Y-82927676D01*
X121185001Y-82927668D01*
X121174004Y-82816015D01*
X121130547Y-82672754D01*
X121059975Y-82540725D01*
X120965002Y-82425000D01*
X120936005Y-82401203D01*
X120642714Y-82107912D01*
X120668325Y-82046081D01*
X120735000Y-81710883D01*
X120735000Y-81369117D01*
X120668325Y-81033919D01*
X120537537Y-80718169D01*
X120470310Y-80617557D01*
X120551185Y-80551185D01*
X120630537Y-80454494D01*
X120689502Y-80344180D01*
X120725812Y-80224482D01*
X120738072Y-80100000D01*
X120735000Y-79285750D01*
X120576250Y-79127000D01*
X119127000Y-79127000D01*
X119127000Y-79147000D01*
X118873000Y-79147000D01*
X118873000Y-79127000D01*
X117423750Y-79127000D01*
X117265000Y-79285750D01*
X117261928Y-80100000D01*
X117274188Y-80224482D01*
X117310498Y-80344180D01*
X117369463Y-80454494D01*
X117448815Y-80551185D01*
X117529690Y-80617557D01*
X117462463Y-80718169D01*
X117331675Y-81033919D01*
X117265000Y-81369117D01*
X117265000Y-81710883D01*
X117331675Y-82046081D01*
X117462463Y-82361831D01*
X117652337Y-82645998D01*
X117816339Y-82810000D01*
X117652337Y-82974002D01*
X117462463Y-83258169D01*
X117331675Y-83573919D01*
X117265000Y-83909117D01*
X117265000Y-84250883D01*
X117331675Y-84586081D01*
X117357286Y-84647912D01*
X117064002Y-84941197D01*
X117034998Y-84965000D01*
X116979870Y-85032175D01*
X116940025Y-85080725D01*
X116883755Y-85185998D01*
X116869453Y-85212755D01*
X116825996Y-85356016D01*
X116814999Y-85467669D01*
X116814999Y-85467679D01*
X116811323Y-85505001D01*
X116814999Y-85542324D01*
X116815000Y-86610198D01*
X113860189Y-89565010D01*
X113127000Y-89565010D01*
X113127000Y-83000000D01*
X113124560Y-82975224D01*
X113117333Y-82951399D01*
X113105597Y-82929443D01*
X113089803Y-82910197D01*
X113070557Y-82894403D01*
X113048601Y-82882667D01*
X113024776Y-82875440D01*
X113014202Y-82874399D01*
X113030537Y-82854494D01*
X113089502Y-82744180D01*
X113125812Y-82624482D01*
X113138072Y-82500000D01*
X113135000Y-81785750D01*
X112976250Y-81627000D01*
X111627000Y-81627000D01*
X111627000Y-81647000D01*
X111373000Y-81647000D01*
X111373000Y-81627000D01*
X110023750Y-81627000D01*
X109865000Y-81785750D01*
X109861928Y-82500000D01*
X109874188Y-82624482D01*
X109910498Y-82744180D01*
X109969463Y-82854494D01*
X109984650Y-82873000D01*
X89257247Y-82873000D01*
X89391808Y-82832182D01*
X89641101Y-82698932D01*
X89859608Y-82519608D01*
X90038932Y-82301101D01*
X90172182Y-82051808D01*
X90254236Y-81781309D01*
X90281943Y-81500000D01*
X90254236Y-81218691D01*
X90172182Y-80948192D01*
X90038932Y-80698899D01*
X89859608Y-80480392D01*
X89641101Y-80301068D01*
X89508142Y-80230000D01*
X89641101Y-80158932D01*
X89859608Y-79979608D01*
X90038932Y-79761101D01*
X90172182Y-79511808D01*
X90254236Y-79241309D01*
X90281943Y-78960000D01*
X90254236Y-78678691D01*
X90172182Y-78408192D01*
X90038932Y-78158899D01*
X89859608Y-77940392D01*
X89641101Y-77761068D01*
X89508142Y-77690000D01*
X89641101Y-77618932D01*
X89859608Y-77439608D01*
X90038932Y-77221101D01*
X90172182Y-76971808D01*
X90254236Y-76701309D01*
X90281943Y-76420000D01*
X90254236Y-76138691D01*
X90172182Y-75868192D01*
X90038932Y-75618899D01*
X89859608Y-75400392D01*
X89641101Y-75221068D01*
X89508142Y-75150000D01*
X89641101Y-75078932D01*
X89859608Y-74899608D01*
X90038932Y-74681101D01*
X90172182Y-74431808D01*
X90254236Y-74161309D01*
X90281943Y-73880000D01*
X90254236Y-73598691D01*
X90172182Y-73328192D01*
X90038932Y-73078899D01*
X89859608Y-72860392D01*
X89641101Y-72681068D01*
X89508142Y-72610000D01*
X89641101Y-72538932D01*
X89859608Y-72359608D01*
X89867493Y-72350000D01*
X89971645Y-72350000D01*
X90675744Y-73054100D01*
X90707368Y-73092634D01*
X90861161Y-73218848D01*
X91036621Y-73312633D01*
X91227007Y-73370386D01*
X91375393Y-73385001D01*
X91375395Y-73385001D01*
X91425000Y-73389887D01*
X91474605Y-73385001D01*
X103235391Y-73385001D01*
X103284999Y-73389887D01*
X103482993Y-73370386D01*
X103483237Y-73370312D01*
X103673379Y-73312633D01*
X103848839Y-73218848D01*
X104002632Y-73092634D01*
X104034260Y-73054095D01*
X104653355Y-72435000D01*
X104730492Y-72435000D01*
X104941309Y-72414236D01*
X105025002Y-72388848D01*
X105025002Y-73526522D01*
X105020720Y-73570001D01*
X105037806Y-73743491D01*
X105088413Y-73910314D01*
X105170591Y-74064060D01*
X105253469Y-74165047D01*
X105253472Y-74165050D01*
X105281185Y-74198818D01*
X105314953Y-74226531D01*
X109875125Y-78786704D01*
X109858057Y-78960000D01*
X109885764Y-79241309D01*
X109967818Y-79511808D01*
X110101068Y-79761101D01*
X110233476Y-79922441D01*
X110145506Y-79969463D01*
X110048815Y-80048815D01*
X109969463Y-80145506D01*
X109910498Y-80255820D01*
X109874188Y-80375518D01*
X109861928Y-80500000D01*
X109865000Y-81214250D01*
X110023750Y-81373000D01*
X111373000Y-81373000D01*
X111373000Y-81353000D01*
X111627000Y-81353000D01*
X111627000Y-81373000D01*
X112976250Y-81373000D01*
X113135000Y-81214250D01*
X113138072Y-80500000D01*
X113125812Y-80375518D01*
X113089502Y-80255820D01*
X113030537Y-80145506D01*
X112951185Y-80048815D01*
X112854494Y-79969463D01*
X112766524Y-79922441D01*
X112898932Y-79761101D01*
X113032182Y-79511808D01*
X113114236Y-79241309D01*
X113141943Y-78960000D01*
X113114236Y-78678691D01*
X113032182Y-78408192D01*
X112898932Y-78158899D01*
X112719608Y-77940392D01*
X112670391Y-77900000D01*
X117261928Y-77900000D01*
X117265000Y-78714250D01*
X117423750Y-78873000D01*
X118873000Y-78873000D01*
X118873000Y-77423750D01*
X119127000Y-77423750D01*
X119127000Y-78873000D01*
X120576250Y-78873000D01*
X120735000Y-78714250D01*
X120738072Y-77900000D01*
X120725812Y-77775518D01*
X120689502Y-77655820D01*
X120630537Y-77545506D01*
X120551185Y-77448815D01*
X120454494Y-77369463D01*
X120344180Y-77310498D01*
X120224482Y-77274188D01*
X120100000Y-77261928D01*
X119285750Y-77265000D01*
X119127000Y-77423750D01*
X118873000Y-77423750D01*
X118714250Y-77265000D01*
X117900000Y-77261928D01*
X117775518Y-77274188D01*
X117655820Y-77310498D01*
X117545506Y-77369463D01*
X117448815Y-77448815D01*
X117369463Y-77545506D01*
X117310498Y-77655820D01*
X117274188Y-77775518D01*
X117261928Y-77900000D01*
X112670391Y-77900000D01*
X112501101Y-77761068D01*
X112368142Y-77690000D01*
X112501101Y-77618932D01*
X112719608Y-77439608D01*
X112898932Y-77221101D01*
X113032182Y-76971808D01*
X113114236Y-76701309D01*
X113141943Y-76420000D01*
X113114236Y-76138691D01*
X113032182Y-75868192D01*
X112898932Y-75618899D01*
X112719608Y-75400392D01*
X112501101Y-75221068D01*
X112368142Y-75150000D01*
X112501101Y-75078932D01*
X112719608Y-74899608D01*
X112898932Y-74681101D01*
X113032182Y-74431808D01*
X113114236Y-74161309D01*
X113141943Y-73880000D01*
X113114236Y-73598691D01*
X113032182Y-73328192D01*
X112898932Y-73078899D01*
X112719608Y-72860392D01*
X112501101Y-72681068D01*
X112368142Y-72610000D01*
X112501101Y-72538932D01*
X112719608Y-72359608D01*
X112898932Y-72141101D01*
X113032182Y-71891808D01*
X113114236Y-71621309D01*
X113141943Y-71340000D01*
X113114236Y-71058691D01*
X113032182Y-70788192D01*
X112898932Y-70538899D01*
X112719608Y-70320392D01*
X112501101Y-70141068D01*
X112368142Y-70070000D01*
X112501101Y-69998932D01*
X112719608Y-69819608D01*
X112898932Y-69601101D01*
X113032182Y-69351808D01*
X113114236Y-69081309D01*
X113141943Y-68800000D01*
X113114236Y-68518691D01*
X113032182Y-68248192D01*
X112898932Y-67998899D01*
X112719608Y-67780392D01*
X112501101Y-67601068D01*
X112368142Y-67530000D01*
X112501101Y-67458932D01*
X112719608Y-67279608D01*
X112898932Y-67061101D01*
X113032182Y-66811808D01*
X113114236Y-66541309D01*
X113141943Y-66260000D01*
X113114236Y-65978691D01*
X113032182Y-65708192D01*
X112898932Y-65458899D01*
X112719608Y-65240392D01*
X112501101Y-65061068D01*
X112368142Y-64990000D01*
X112501101Y-64918932D01*
X112719608Y-64739608D01*
X112898932Y-64521101D01*
X113032182Y-64271808D01*
X113114236Y-64001309D01*
X113141943Y-63720000D01*
X113114236Y-63438691D01*
X113032182Y-63168192D01*
X112898932Y-62918899D01*
X112719608Y-62700392D01*
X112501101Y-62521068D01*
X112251808Y-62387818D01*
X111981309Y-62305764D01*
X111770492Y-62285000D01*
X111229508Y-62285000D01*
X111018691Y-62305764D01*
X110748192Y-62387818D01*
X110498899Y-62521068D01*
X110280392Y-62700392D01*
X110101068Y-62918899D01*
X109967818Y-63168192D01*
X109885764Y-63438691D01*
X109885000Y-63446448D01*
X109885000Y-62866578D01*
X113055049Y-59696530D01*
X113088817Y-59668817D01*
X113199411Y-59534059D01*
X113281589Y-59380313D01*
X113332195Y-59213490D01*
X113345000Y-59083477D01*
X113345000Y-59083469D01*
X113349281Y-59040000D01*
X113345000Y-58996531D01*
X113345000Y-50383288D01*
X115275000Y-50383288D01*
X115275000Y-50616712D01*
X115320539Y-50845652D01*
X115409866Y-51061308D01*
X115539550Y-51255394D01*
X115704606Y-51420450D01*
X115898692Y-51550134D01*
X116114348Y-51639461D01*
X116343288Y-51685000D01*
X116576712Y-51685000D01*
X116805652Y-51639461D01*
X117021308Y-51550134D01*
X117215394Y-51420450D01*
X117262784Y-51373060D01*
X117261928Y-51600000D01*
X117274188Y-51724482D01*
X117310498Y-51844180D01*
X117369463Y-51954494D01*
X117448815Y-52051185D01*
X117529690Y-52117557D01*
X117462463Y-52218169D01*
X117414090Y-52334952D01*
X117380450Y-52284606D01*
X117215394Y-52119550D01*
X117021308Y-51989866D01*
X116805652Y-51900539D01*
X116576712Y-51855000D01*
X116343288Y-51855000D01*
X116114348Y-51900539D01*
X115898692Y-51989866D01*
X115704606Y-52119550D01*
X115539550Y-52284606D01*
X115409866Y-52478692D01*
X115320539Y-52694348D01*
X115275000Y-52923288D01*
X115275000Y-53156712D01*
X115320539Y-53385652D01*
X115409866Y-53601308D01*
X115539550Y-53795394D01*
X115704606Y-53960450D01*
X115898692Y-54090134D01*
X116114348Y-54179461D01*
X116343288Y-54225000D01*
X116576712Y-54225000D01*
X116805652Y-54179461D01*
X117021308Y-54090134D01*
X117215394Y-53960450D01*
X117380450Y-53795394D01*
X117414090Y-53745048D01*
X117462463Y-53861831D01*
X117652337Y-54145998D01*
X117816339Y-54310000D01*
X117652337Y-54474002D01*
X117462463Y-54758169D01*
X117414090Y-54874952D01*
X117380450Y-54824606D01*
X117215394Y-54659550D01*
X117021308Y-54529866D01*
X116805652Y-54440539D01*
X116576712Y-54395000D01*
X116343288Y-54395000D01*
X116114348Y-54440539D01*
X115898692Y-54529866D01*
X115704606Y-54659550D01*
X115539550Y-54824606D01*
X115409866Y-55018692D01*
X115320539Y-55234348D01*
X115275000Y-55463288D01*
X115275000Y-55696712D01*
X115320539Y-55925652D01*
X115409866Y-56141308D01*
X115539550Y-56335394D01*
X115704606Y-56500450D01*
X115898692Y-56630134D01*
X116114348Y-56719461D01*
X116343288Y-56765000D01*
X116576712Y-56765000D01*
X116805652Y-56719461D01*
X117021308Y-56630134D01*
X117215394Y-56500450D01*
X117380450Y-56335394D01*
X117414090Y-56285048D01*
X117462463Y-56401831D01*
X117652337Y-56685998D01*
X117894002Y-56927663D01*
X118178169Y-57117537D01*
X118493919Y-57248325D01*
X118829117Y-57315000D01*
X119170883Y-57315000D01*
X119431568Y-57263147D01*
X119665001Y-57496580D01*
X119665001Y-58263569D01*
X119285750Y-58265000D01*
X119127000Y-58423750D01*
X119127000Y-59873000D01*
X119147000Y-59873000D01*
X119147000Y-60127000D01*
X119127000Y-60127000D01*
X119127000Y-60147000D01*
X118873000Y-60147000D01*
X118873000Y-60127000D01*
X118853000Y-60127000D01*
X118853000Y-59873000D01*
X118873000Y-59873000D01*
X118873000Y-58423750D01*
X118714250Y-58265000D01*
X117900000Y-58261928D01*
X117775518Y-58274188D01*
X117655820Y-58310498D01*
X117545506Y-58369463D01*
X117448815Y-58448815D01*
X117369463Y-58545506D01*
X117310498Y-58655820D01*
X117274188Y-58775518D01*
X117261928Y-58900000D01*
X117262784Y-59126940D01*
X117215394Y-59079550D01*
X117021308Y-58949866D01*
X116805652Y-58860539D01*
X116576712Y-58815000D01*
X116343288Y-58815000D01*
X116114348Y-58860539D01*
X115898692Y-58949866D01*
X115704606Y-59079550D01*
X115539550Y-59244606D01*
X115409866Y-59438692D01*
X115320539Y-59654348D01*
X115275000Y-59883288D01*
X115275000Y-60116712D01*
X115320539Y-60345652D01*
X115409866Y-60561308D01*
X115539550Y-60755394D01*
X115704606Y-60920450D01*
X115898692Y-61050134D01*
X116114348Y-61139461D01*
X116343288Y-61185000D01*
X116576712Y-61185000D01*
X116805652Y-61139461D01*
X117021308Y-61050134D01*
X117215394Y-60920450D01*
X117262784Y-60873060D01*
X117261928Y-61100000D01*
X117274188Y-61224482D01*
X117310498Y-61344180D01*
X117369463Y-61454494D01*
X117448815Y-61551185D01*
X117529690Y-61617557D01*
X117462463Y-61718169D01*
X117414090Y-61834952D01*
X117380450Y-61784606D01*
X117215394Y-61619550D01*
X117021308Y-61489866D01*
X116805652Y-61400539D01*
X116576712Y-61355000D01*
X116343288Y-61355000D01*
X116114348Y-61400539D01*
X115898692Y-61489866D01*
X115704606Y-61619550D01*
X115539550Y-61784606D01*
X115409866Y-61978692D01*
X115320539Y-62194348D01*
X115275000Y-62423288D01*
X115275000Y-62656712D01*
X115320539Y-62885652D01*
X115409866Y-63101308D01*
X115539550Y-63295394D01*
X115704606Y-63460450D01*
X115898692Y-63590134D01*
X116114348Y-63679461D01*
X116343288Y-63725000D01*
X116576712Y-63725000D01*
X116805652Y-63679461D01*
X117021308Y-63590134D01*
X117215394Y-63460450D01*
X117380450Y-63295394D01*
X117414090Y-63245048D01*
X117462463Y-63361831D01*
X117652337Y-63645998D01*
X117816339Y-63810000D01*
X117652337Y-63974002D01*
X117462463Y-64258169D01*
X117414090Y-64374952D01*
X117380450Y-64324606D01*
X117215394Y-64159550D01*
X117021308Y-64029866D01*
X116805652Y-63940539D01*
X116576712Y-63895000D01*
X116343288Y-63895000D01*
X116114348Y-63940539D01*
X115898692Y-64029866D01*
X115704606Y-64159550D01*
X115539550Y-64324606D01*
X115409866Y-64518692D01*
X115320539Y-64734348D01*
X115275000Y-64963288D01*
X115275000Y-65196712D01*
X115320539Y-65425652D01*
X115409866Y-65641308D01*
X115539550Y-65835394D01*
X115704606Y-66000450D01*
X115898692Y-66130134D01*
X116114348Y-66219461D01*
X116343288Y-66265000D01*
X116576712Y-66265000D01*
X116805652Y-66219461D01*
X117021308Y-66130134D01*
X117215394Y-66000450D01*
X117380450Y-65835394D01*
X117414090Y-65785048D01*
X117462463Y-65901831D01*
X117652337Y-66185998D01*
X117894002Y-66427663D01*
X118178169Y-66617537D01*
X118493919Y-66748325D01*
X118829117Y-66815000D01*
X119170883Y-66815000D01*
X119431568Y-66763147D01*
X119665001Y-66996580D01*
X119665001Y-67763569D01*
X119285750Y-67765000D01*
X119127000Y-67923750D01*
X119127000Y-69373000D01*
X119147000Y-69373000D01*
X119147000Y-69627000D01*
X119127000Y-69627000D01*
X119127000Y-69647000D01*
X118873000Y-69647000D01*
X118873000Y-69627000D01*
X118853000Y-69627000D01*
X118853000Y-69373000D01*
X118873000Y-69373000D01*
X118873000Y-67923750D01*
X118714250Y-67765000D01*
X117900000Y-67761928D01*
X117775518Y-67774188D01*
X117655820Y-67810498D01*
X117545506Y-67869463D01*
X117448815Y-67948815D01*
X117369463Y-68045506D01*
X117310498Y-68155820D01*
X117274188Y-68275518D01*
X117261928Y-68400000D01*
X117262784Y-68626940D01*
X117215394Y-68579550D01*
X117021308Y-68449866D01*
X116805652Y-68360539D01*
X116576712Y-68315000D01*
X116343288Y-68315000D01*
X116114348Y-68360539D01*
X115898692Y-68449866D01*
X115704606Y-68579550D01*
X115539550Y-68744606D01*
X115409866Y-68938692D01*
X115320539Y-69154348D01*
X115275000Y-69383288D01*
X115275000Y-69616712D01*
X115320539Y-69845652D01*
X115409866Y-70061308D01*
X115539550Y-70255394D01*
X115704606Y-70420450D01*
X115898692Y-70550134D01*
X116114348Y-70639461D01*
X116343288Y-70685000D01*
X116576712Y-70685000D01*
X116805652Y-70639461D01*
X117021308Y-70550134D01*
X117215394Y-70420450D01*
X117262784Y-70373060D01*
X117261928Y-70600000D01*
X117274188Y-70724482D01*
X117310498Y-70844180D01*
X117369463Y-70954494D01*
X117448815Y-71051185D01*
X117529690Y-71117557D01*
X117462463Y-71218169D01*
X117414090Y-71334952D01*
X117380450Y-71284606D01*
X117215394Y-71119550D01*
X117021308Y-70989866D01*
X116805652Y-70900539D01*
X116576712Y-70855000D01*
X116343288Y-70855000D01*
X116114348Y-70900539D01*
X115898692Y-70989866D01*
X115704606Y-71119550D01*
X115539550Y-71284606D01*
X115409866Y-71478692D01*
X115320539Y-71694348D01*
X115275000Y-71923288D01*
X115275000Y-72156712D01*
X115320539Y-72385652D01*
X115409866Y-72601308D01*
X115539550Y-72795394D01*
X115704606Y-72960450D01*
X115898692Y-73090134D01*
X116114348Y-73179461D01*
X116343288Y-73225000D01*
X116576712Y-73225000D01*
X116805652Y-73179461D01*
X117021308Y-73090134D01*
X117215394Y-72960450D01*
X117380450Y-72795394D01*
X117414090Y-72745048D01*
X117462463Y-72861831D01*
X117652337Y-73145998D01*
X117816339Y-73310000D01*
X117652337Y-73474002D01*
X117462463Y-73758169D01*
X117414090Y-73874952D01*
X117380450Y-73824606D01*
X117215394Y-73659550D01*
X117021308Y-73529866D01*
X116805652Y-73440539D01*
X116576712Y-73395000D01*
X116343288Y-73395000D01*
X116114348Y-73440539D01*
X115898692Y-73529866D01*
X115704606Y-73659550D01*
X115539550Y-73824606D01*
X115409866Y-74018692D01*
X115320539Y-74234348D01*
X115275000Y-74463288D01*
X115275000Y-74696712D01*
X115320539Y-74925652D01*
X115409866Y-75141308D01*
X115539550Y-75335394D01*
X115704606Y-75500450D01*
X115898692Y-75630134D01*
X116114348Y-75719461D01*
X116343288Y-75765000D01*
X116576712Y-75765000D01*
X116805652Y-75719461D01*
X117021308Y-75630134D01*
X117215394Y-75500450D01*
X117380450Y-75335394D01*
X117414090Y-75285048D01*
X117462463Y-75401831D01*
X117652337Y-75685998D01*
X117894002Y-75927663D01*
X118178169Y-76117537D01*
X118493919Y-76248325D01*
X118829117Y-76315000D01*
X119170883Y-76315000D01*
X119506081Y-76248325D01*
X119821831Y-76117537D01*
X120105998Y-75927663D01*
X120347663Y-75685998D01*
X120537537Y-75401831D01*
X120668325Y-75086081D01*
X120735000Y-74750883D01*
X120735000Y-74409117D01*
X120683147Y-74148432D01*
X120756531Y-74075048D01*
X120756536Y-74075042D01*
X121145045Y-73686533D01*
X121178818Y-73658816D01*
X121289412Y-73524058D01*
X121371590Y-73370312D01*
X121413445Y-73232337D01*
X121422196Y-73203490D01*
X121423653Y-73188693D01*
X121435001Y-73073476D01*
X121435001Y-73073468D01*
X121439282Y-73029999D01*
X121435001Y-72986530D01*
X121435001Y-66673466D01*
X121439282Y-66630000D01*
X121435001Y-66586534D01*
X121435001Y-66586524D01*
X121422196Y-66456511D01*
X121371590Y-66289688D01*
X121289412Y-66135942D01*
X121250036Y-66087963D01*
X121206533Y-66034954D01*
X121206531Y-66034952D01*
X121178818Y-66001184D01*
X121145051Y-65973472D01*
X120683147Y-65511568D01*
X120735000Y-65250883D01*
X120735000Y-64909117D01*
X120683147Y-64648432D01*
X120756531Y-64575048D01*
X120756536Y-64575042D01*
X121145045Y-64186533D01*
X121178818Y-64158816D01*
X121289412Y-64024058D01*
X121371590Y-63870312D01*
X121415671Y-63725000D01*
X121422196Y-63703490D01*
X121423653Y-63688693D01*
X121435001Y-63573476D01*
X121435001Y-63573468D01*
X121439282Y-63529999D01*
X121435001Y-63486530D01*
X121435001Y-57173466D01*
X121439282Y-57130000D01*
X121435001Y-57086534D01*
X121435001Y-57086524D01*
X121422196Y-56956511D01*
X121371590Y-56789688D01*
X121289412Y-56635942D01*
X121265211Y-56606453D01*
X121206533Y-56534954D01*
X121206531Y-56534952D01*
X121178818Y-56501184D01*
X121145051Y-56473472D01*
X120683147Y-56011568D01*
X120735000Y-55750883D01*
X120735000Y-55409117D01*
X120668325Y-55073919D01*
X120537537Y-54758169D01*
X120347663Y-54474002D01*
X120183661Y-54310000D01*
X120347663Y-54145998D01*
X120537537Y-53861831D01*
X120668325Y-53546081D01*
X120735000Y-53210883D01*
X120735000Y-52869117D01*
X120668325Y-52533919D01*
X120537537Y-52218169D01*
X120470310Y-52117557D01*
X120551185Y-52051185D01*
X120630537Y-51954494D01*
X120689502Y-51844180D01*
X120725812Y-51724482D01*
X120738072Y-51600000D01*
X120735000Y-50785750D01*
X120576250Y-50627000D01*
X119127000Y-50627000D01*
X119127000Y-50647000D01*
X118873000Y-50647000D01*
X118873000Y-50627000D01*
X118853000Y-50627000D01*
X118853000Y-50373000D01*
X118873000Y-50373000D01*
X118873000Y-48923750D01*
X119127000Y-48923750D01*
X119127000Y-50373000D01*
X120576250Y-50373000D01*
X120735000Y-50214250D01*
X120738072Y-49400000D01*
X120725812Y-49275518D01*
X120689502Y-49155820D01*
X120630537Y-49045506D01*
X120551185Y-48948815D01*
X120454494Y-48869463D01*
X120344180Y-48810498D01*
X120224482Y-48774188D01*
X120100000Y-48761928D01*
X119285750Y-48765000D01*
X119127000Y-48923750D01*
X118873000Y-48923750D01*
X118714250Y-48765000D01*
X117900000Y-48761928D01*
X117775518Y-48774188D01*
X117655820Y-48810498D01*
X117545506Y-48869463D01*
X117448815Y-48948815D01*
X117369463Y-49045506D01*
X117310498Y-49155820D01*
X117274188Y-49275518D01*
X117261928Y-49400000D01*
X117262784Y-49626940D01*
X117215394Y-49579550D01*
X117021308Y-49449866D01*
X116805652Y-49360539D01*
X116576712Y-49315000D01*
X116343288Y-49315000D01*
X116114348Y-49360539D01*
X115898692Y-49449866D01*
X115704606Y-49579550D01*
X115539550Y-49744606D01*
X115409866Y-49938692D01*
X115320539Y-50154348D01*
X115275000Y-50383288D01*
X113345000Y-50383288D01*
X113345000Y-44254790D01*
X113438505Y-44192312D01*
X113504944Y-44125873D01*
X113510498Y-44144180D01*
X113569463Y-44254494D01*
X113648815Y-44351185D01*
X113745506Y-44430537D01*
X113855820Y-44489502D01*
X113975518Y-44525812D01*
X114100000Y-44538072D01*
X115900000Y-44538072D01*
X116024482Y-44525812D01*
X116144180Y-44489502D01*
X116254494Y-44430537D01*
X116351185Y-44351185D01*
X116430537Y-44254494D01*
X116489502Y-44144180D01*
X116525812Y-44024482D01*
X116538072Y-43900000D01*
X116538072Y-42100000D01*
X116525812Y-41975518D01*
X116489502Y-41855820D01*
X116430537Y-41745506D01*
X116351185Y-41648815D01*
X116254494Y-41569463D01*
X116144180Y-41510498D01*
X116024482Y-41474188D01*
X115900000Y-41461928D01*
X114171508Y-41461928D01*
X113764535Y-41054955D01*
X113736818Y-41021182D01*
X113602060Y-40910588D01*
X113448314Y-40828410D01*
X113281491Y-40777804D01*
X113151478Y-40764999D01*
X113151470Y-40764999D01*
X113108001Y-40760718D01*
X113064532Y-40764999D01*
X111855468Y-40764999D01*
X111811999Y-40760718D01*
X111768530Y-40764999D01*
X111768522Y-40764999D01*
X111653305Y-40776347D01*
X111638508Y-40777804D01*
X111587902Y-40793156D01*
X111471686Y-40828410D01*
X111317940Y-40910588D01*
X111216952Y-40993467D01*
X111216950Y-40993469D01*
X111183182Y-41021182D01*
X111155469Y-41054950D01*
X110514955Y-41695465D01*
X110481182Y-41723182D01*
X110370588Y-41857941D01*
X110288410Y-42011687D01*
X110257070Y-42115000D01*
X110237834Y-42178412D01*
X110237804Y-42178510D01*
X110224999Y-42308523D01*
X110224999Y-42308530D01*
X110220718Y-42351999D01*
X110224999Y-42395468D01*
X110225000Y-44566520D01*
X110220718Y-44609999D01*
X110237804Y-44783489D01*
X110288411Y-44950312D01*
X110370589Y-45104058D01*
X110453467Y-45205045D01*
X110453470Y-45205048D01*
X110481183Y-45238816D01*
X110514950Y-45266528D01*
X110865001Y-45616580D01*
X110865001Y-45952937D01*
X110849039Y-45948096D01*
X110627000Y-46070085D01*
X110627000Y-47213000D01*
X110647000Y-47213000D01*
X110647000Y-47467000D01*
X110627000Y-47467000D01*
X110627000Y-48609915D01*
X110849039Y-48731904D01*
X110865001Y-48727062D01*
X110865002Y-55883420D01*
X110704958Y-56043464D01*
X110704952Y-56043469D01*
X110676438Y-56071983D01*
X110641335Y-56065000D01*
X110358665Y-56065000D01*
X110081426Y-56120147D01*
X109820273Y-56228320D01*
X109585241Y-56385363D01*
X109385363Y-56585241D01*
X109228320Y-56820273D01*
X109120147Y-57081426D01*
X109065000Y-57358665D01*
X109065000Y-57641335D01*
X109120147Y-57918574D01*
X109228320Y-58179727D01*
X109385363Y-58414759D01*
X109585241Y-58614637D01*
X109820273Y-58771680D01*
X110081426Y-58879853D01*
X110358665Y-58935000D01*
X110641335Y-58935000D01*
X110918574Y-58879853D01*
X111179727Y-58771680D01*
X111414759Y-58614637D01*
X111575001Y-58454395D01*
X111575001Y-58673420D01*
X108404956Y-61843466D01*
X108371183Y-61871183D01*
X108260589Y-62005942D01*
X108178411Y-62159688D01*
X108167897Y-62194348D01*
X108134099Y-62305764D01*
X108127805Y-62326511D01*
X108115000Y-62456524D01*
X108115000Y-62456531D01*
X108110719Y-62500000D01*
X108115000Y-62543469D01*
X108115001Y-71536521D01*
X108110719Y-71580000D01*
X108127805Y-71753490D01*
X108178412Y-71920313D01*
X108260590Y-72074059D01*
X108343468Y-72175046D01*
X108343471Y-72175049D01*
X108371184Y-72208817D01*
X108404951Y-72236529D01*
X109875125Y-73706704D01*
X109858057Y-73880000D01*
X109885764Y-74161309D01*
X109967818Y-74431808D01*
X110101068Y-74681101D01*
X110280392Y-74899608D01*
X110498899Y-75078932D01*
X110631858Y-75150000D01*
X110498899Y-75221068D01*
X110280392Y-75400392D01*
X110101068Y-75618899D01*
X109967818Y-75868192D01*
X109885764Y-76138691D01*
X109871822Y-76280243D01*
X106795001Y-73203423D01*
X106795001Y-68293466D01*
X106799282Y-68250000D01*
X106795001Y-68206534D01*
X106795001Y-68206524D01*
X106782196Y-68076511D01*
X106731590Y-67909688D01*
X106649412Y-67755942D01*
X106596884Y-67691937D01*
X106566533Y-67654954D01*
X106566531Y-67654952D01*
X106538818Y-67621184D01*
X106505051Y-67593472D01*
X106084875Y-67173296D01*
X106101943Y-67000000D01*
X106074236Y-66718691D01*
X105992182Y-66448192D01*
X105858932Y-66198899D01*
X105679608Y-65980392D01*
X105461101Y-65801068D01*
X105211808Y-65667818D01*
X104941309Y-65585764D01*
X104730492Y-65565000D01*
X104589508Y-65565000D01*
X104378691Y-65585764D01*
X104108192Y-65667818D01*
X103858899Y-65801068D01*
X103640392Y-65980392D01*
X103461068Y-66198899D01*
X103327818Y-66448192D01*
X103245764Y-66718691D01*
X103218057Y-67000000D01*
X103245764Y-67281309D01*
X103327818Y-67551808D01*
X103461068Y-67801101D01*
X103640392Y-68019608D01*
X103858899Y-68198932D01*
X104108192Y-68332182D01*
X104378691Y-68414236D01*
X104589508Y-68435000D01*
X104730492Y-68435000D01*
X104833296Y-68424875D01*
X105025001Y-68616580D01*
X105025001Y-69611151D01*
X104941309Y-69585764D01*
X104730492Y-69565000D01*
X104589508Y-69565000D01*
X104378691Y-69585764D01*
X104108192Y-69667818D01*
X103858899Y-69801068D01*
X103640392Y-69980392D01*
X103461068Y-70198899D01*
X103327818Y-70448192D01*
X103245764Y-70718691D01*
X103218057Y-71000000D01*
X103219275Y-71012370D01*
X102866644Y-71365001D01*
X95890509Y-71365001D01*
X95935000Y-71141335D01*
X95935000Y-70858665D01*
X95879853Y-70581426D01*
X95771680Y-70320273D01*
X95614637Y-70085241D01*
X95414759Y-69885363D01*
X95385000Y-69865479D01*
X95385000Y-68134521D01*
X95414759Y-68114637D01*
X95614637Y-67914759D01*
X95771680Y-67679727D01*
X95879853Y-67418574D01*
X95935000Y-67141335D01*
X95935000Y-66858665D01*
X95879853Y-66581426D01*
X95771680Y-66320273D01*
X95614637Y-66085241D01*
X95414759Y-65885363D01*
X95179727Y-65728320D01*
X94918574Y-65620147D01*
X94641335Y-65565000D01*
X94358665Y-65565000D01*
X94081426Y-65620147D01*
X93820273Y-65728320D01*
X93585241Y-65885363D01*
X93385363Y-66085241D01*
X93228320Y-66320273D01*
X93120147Y-66581426D01*
X93065000Y-66858665D01*
X93065000Y-67141335D01*
X93120147Y-67418574D01*
X93228320Y-67679727D01*
X93385363Y-67914759D01*
X93585241Y-68114637D01*
X93615000Y-68134521D01*
X93615001Y-69865478D01*
X93585241Y-69885363D01*
X93385363Y-70085241D01*
X93228320Y-70320273D01*
X93120147Y-70581426D01*
X93065000Y-70858665D01*
X93065000Y-71141335D01*
X93109491Y-71365001D01*
X91843357Y-71365001D01*
X91139261Y-70660906D01*
X91107633Y-70622367D01*
X90953840Y-70496153D01*
X90778380Y-70402368D01*
X90587994Y-70344615D01*
X90439608Y-70330000D01*
X90390000Y-70325114D01*
X90340392Y-70330000D01*
X89867493Y-70330000D01*
X89859608Y-70320392D01*
X89641101Y-70141068D01*
X89508142Y-70070000D01*
X89641101Y-69998932D01*
X89859608Y-69819608D01*
X90038932Y-69601101D01*
X90172182Y-69351808D01*
X90254236Y-69081309D01*
X90281943Y-68800000D01*
X90254236Y-68518691D01*
X90172182Y-68248192D01*
X90038932Y-67998899D01*
X89859608Y-67780392D01*
X89641101Y-67601068D01*
X89511655Y-67531878D01*
X89529227Y-67524430D01*
X89762662Y-67365673D01*
X89960639Y-67164425D01*
X90115551Y-66928421D01*
X90221444Y-66666730D01*
X90231904Y-66609039D01*
X90109915Y-66387000D01*
X88767000Y-66387000D01*
X88767000Y-66407000D01*
X88513000Y-66407000D01*
X88513000Y-66387000D01*
X87170085Y-66387000D01*
X87048096Y-66609039D01*
X87058556Y-66666730D01*
X87164449Y-66928421D01*
X87319361Y-67164425D01*
X87517338Y-67365673D01*
X87750773Y-67524430D01*
X87768345Y-67531878D01*
X87638899Y-67601068D01*
X87420392Y-67780392D01*
X87241068Y-67998899D01*
X87107818Y-68248192D01*
X87025764Y-68518691D01*
X86998057Y-68800000D01*
X87025764Y-69081309D01*
X87107818Y-69351808D01*
X87241068Y-69601101D01*
X87420392Y-69819608D01*
X87638899Y-69998932D01*
X87771858Y-70070000D01*
X87638899Y-70141068D01*
X87420392Y-70320392D01*
X87241068Y-70538899D01*
X87107818Y-70788192D01*
X87025764Y-71058691D01*
X86998057Y-71340000D01*
X87025764Y-71621309D01*
X87107818Y-71891808D01*
X87241068Y-72141101D01*
X87420392Y-72359608D01*
X87638899Y-72538932D01*
X87771858Y-72610000D01*
X87638899Y-72681068D01*
X87420392Y-72860392D01*
X87241068Y-73078899D01*
X87107818Y-73328192D01*
X87025764Y-73598691D01*
X86998057Y-73880000D01*
X87025764Y-74161309D01*
X87039292Y-74205906D01*
X85713978Y-75531221D01*
X85684980Y-75555019D01*
X85661182Y-75584017D01*
X85661181Y-75584018D01*
X85590006Y-75670744D01*
X85519434Y-75802774D01*
X85475978Y-75946035D01*
X85461304Y-76095020D01*
X85464981Y-76132352D01*
X85464980Y-90283704D01*
X85461304Y-90321026D01*
X85464980Y-90358348D01*
X85464980Y-90358358D01*
X85475977Y-90470011D01*
X85519434Y-90613272D01*
X85590006Y-90745302D01*
X85629851Y-90793852D01*
X85684979Y-90861027D01*
X85713983Y-90884830D01*
X86115174Y-91286021D01*
X86138972Y-91315019D01*
X86167970Y-91338817D01*
X86167971Y-91338818D01*
X86199873Y-91365000D01*
X83635000Y-91365000D01*
X83635000Y-89555741D01*
X83640490Y-89499999D01*
X83635000Y-89444257D01*
X83635000Y-78555741D01*
X83640490Y-78499999D01*
X83635000Y-78444257D01*
X83635000Y-78444248D01*
X83618577Y-78277501D01*
X83553676Y-78063553D01*
X83448284Y-77866377D01*
X83306449Y-77693551D01*
X83263141Y-77658009D01*
X80411891Y-74806759D01*
X80435000Y-74690581D01*
X80435000Y-74309419D01*
X80390360Y-74085001D01*
X83756530Y-74085001D01*
X83799999Y-74089282D01*
X83843468Y-74085001D01*
X83843476Y-74085001D01*
X83973489Y-74072196D01*
X84140312Y-74021590D01*
X84294058Y-73939412D01*
X84428816Y-73828818D01*
X84456533Y-73795045D01*
X86595050Y-71656529D01*
X86628817Y-71628817D01*
X86668881Y-71580000D01*
X86739410Y-71494060D01*
X86739411Y-71494059D01*
X86821589Y-71340313D01*
X86872195Y-71173490D01*
X86885000Y-71043477D01*
X86885000Y-71043467D01*
X86889281Y-71000001D01*
X86885000Y-70956535D01*
X86885000Y-63720000D01*
X86998057Y-63720000D01*
X87025764Y-64001309D01*
X87107818Y-64271808D01*
X87241068Y-64521101D01*
X87420392Y-64739608D01*
X87638899Y-64918932D01*
X87768345Y-64988122D01*
X87750773Y-64995570D01*
X87517338Y-65154327D01*
X87319361Y-65355575D01*
X87164449Y-65591579D01*
X87058556Y-65853270D01*
X87048096Y-65910961D01*
X87170085Y-66133000D01*
X88513000Y-66133000D01*
X88513000Y-66113000D01*
X88767000Y-66113000D01*
X88767000Y-66133000D01*
X90109915Y-66133000D01*
X90231904Y-65910961D01*
X90221444Y-65853270D01*
X90115551Y-65591579D01*
X89960639Y-65355575D01*
X89762662Y-65154327D01*
X89529227Y-64995570D01*
X89511655Y-64988122D01*
X89641101Y-64918932D01*
X89859608Y-64739608D01*
X90038932Y-64521101D01*
X90172182Y-64271808D01*
X90254236Y-64001309D01*
X90281943Y-63720000D01*
X90254236Y-63438691D01*
X90172182Y-63168192D01*
X90038932Y-62918899D01*
X89859608Y-62700392D01*
X89641101Y-62521068D01*
X89391808Y-62387818D01*
X89121309Y-62305764D01*
X88910492Y-62285000D01*
X88369508Y-62285000D01*
X88158691Y-62305764D01*
X87888192Y-62387818D01*
X87638899Y-62521068D01*
X87420392Y-62700392D01*
X87241068Y-62918899D01*
X87107818Y-63168192D01*
X87025764Y-63438691D01*
X86998057Y-63720000D01*
X86885000Y-63720000D01*
X86885000Y-61366578D01*
X89323561Y-58928017D01*
X89358665Y-58935000D01*
X89641335Y-58935000D01*
X89918574Y-58879853D01*
X90179727Y-58771680D01*
X90414759Y-58614637D01*
X90614637Y-58414759D01*
X90771680Y-58179727D01*
X90879853Y-57918574D01*
X90935000Y-57641335D01*
X90935000Y-57358665D01*
X95065000Y-57358665D01*
X95065000Y-57641335D01*
X95120147Y-57918574D01*
X95228320Y-58179727D01*
X95385363Y-58414759D01*
X95585241Y-58614637D01*
X95820273Y-58771680D01*
X96081426Y-58879853D01*
X96358665Y-58935000D01*
X96641335Y-58935000D01*
X96918574Y-58879853D01*
X97179727Y-58771680D01*
X97414759Y-58614637D01*
X97614637Y-58414759D01*
X97771680Y-58179727D01*
X97879853Y-57918574D01*
X97935000Y-57641335D01*
X97935000Y-57358665D01*
X97879853Y-57081426D01*
X97771680Y-56820273D01*
X97614637Y-56585241D01*
X97414759Y-56385363D01*
X97179727Y-56228320D01*
X96918574Y-56120147D01*
X96641335Y-56065000D01*
X96358665Y-56065000D01*
X96081426Y-56120147D01*
X95820273Y-56228320D01*
X95585241Y-56385363D01*
X95385363Y-56585241D01*
X95228320Y-56820273D01*
X95120147Y-57081426D01*
X95065000Y-57358665D01*
X90935000Y-57358665D01*
X90879853Y-57081426D01*
X90771680Y-56820273D01*
X90614637Y-56585241D01*
X90414759Y-56385363D01*
X90179727Y-56228320D01*
X89918574Y-56120147D01*
X89641335Y-56065000D01*
X89358665Y-56065000D01*
X89081426Y-56120147D01*
X88820273Y-56228320D01*
X88585241Y-56385363D01*
X88385363Y-56585241D01*
X88228320Y-56820273D01*
X88120147Y-57081426D01*
X88065000Y-57358665D01*
X88065000Y-57641335D01*
X88071983Y-57676439D01*
X85404951Y-60343471D01*
X85371184Y-60371183D01*
X85343471Y-60404951D01*
X85343468Y-60404954D01*
X85280120Y-60482144D01*
X85297070Y-60453881D01*
X85391909Y-60189040D01*
X85270624Y-59967000D01*
X84127000Y-59967000D01*
X84127000Y-61109915D01*
X84349039Y-61231904D01*
X84483087Y-61191246D01*
X84737420Y-61071037D01*
X84963414Y-60903519D01*
X85152385Y-60695131D01*
X85217502Y-60586554D01*
X85178412Y-60659687D01*
X85127805Y-60826510D01*
X85110719Y-61000000D01*
X85115001Y-61043479D01*
X85115000Y-69085785D01*
X85114637Y-69085241D01*
X84914759Y-68885363D01*
X84679727Y-68728320D01*
X84418574Y-68620147D01*
X84141335Y-68565000D01*
X83858665Y-68565000D01*
X83823561Y-68571983D01*
X82156534Y-66904956D01*
X82128817Y-66871183D01*
X81994059Y-66760589D01*
X81840313Y-66678411D01*
X81673490Y-66627805D01*
X81543477Y-66615000D01*
X81543469Y-66615000D01*
X81500000Y-66610719D01*
X81456531Y-66615000D01*
X80138072Y-66615000D01*
X80138072Y-66547500D01*
X80125812Y-66423018D01*
X80089502Y-66303320D01*
X80030537Y-66193006D01*
X79951185Y-66096315D01*
X79854494Y-66016963D01*
X79770554Y-65972095D01*
X79873845Y-65846235D01*
X80021255Y-65570449D01*
X80112030Y-65271204D01*
X80142681Y-64960000D01*
X80112030Y-64648796D01*
X80021255Y-64349551D01*
X79873845Y-64073765D01*
X79675463Y-63832037D01*
X79496101Y-63684837D01*
X79681315Y-63529437D01*
X79875969Y-63286923D01*
X80019571Y-63011094D01*
X80090563Y-62792980D01*
X79970594Y-62547000D01*
X78627000Y-62547000D01*
X78627000Y-62567000D01*
X78373000Y-62567000D01*
X78373000Y-62547000D01*
X77029406Y-62547000D01*
X76909437Y-62792980D01*
X76980429Y-63011094D01*
X77124031Y-63286923D01*
X77318685Y-63529437D01*
X77503899Y-63684837D01*
X77324537Y-63832037D01*
X77126155Y-64073765D01*
X76978745Y-64349551D01*
X76887970Y-64648796D01*
X76857319Y-64960000D01*
X76887970Y-65271204D01*
X76978745Y-65570449D01*
X77126155Y-65846235D01*
X77229446Y-65972095D01*
X77145506Y-66016963D01*
X77048815Y-66096315D01*
X76969463Y-66193006D01*
X76910498Y-66303320D01*
X76874188Y-66423018D01*
X76861928Y-66547500D01*
X76861928Y-68452500D01*
X76874188Y-68576982D01*
X76910498Y-68696680D01*
X76969463Y-68806994D01*
X77048815Y-68903685D01*
X77145506Y-68983037D01*
X77255820Y-69042002D01*
X77375518Y-69078312D01*
X77500000Y-69090572D01*
X79500000Y-69090572D01*
X79624482Y-69078312D01*
X79744180Y-69042002D01*
X79854494Y-68983037D01*
X79951185Y-68903685D01*
X80030537Y-68806994D01*
X80089502Y-68696680D01*
X80125812Y-68576982D01*
X80138072Y-68452500D01*
X80138072Y-68385000D01*
X81133422Y-68385000D01*
X82571983Y-69823561D01*
X82565000Y-69858665D01*
X82565000Y-70141335D01*
X82620147Y-70418574D01*
X82728320Y-70679727D01*
X82885363Y-70914759D01*
X83085241Y-71114637D01*
X83320273Y-71271680D01*
X83581426Y-71379853D01*
X83858665Y-71435000D01*
X84141335Y-71435000D01*
X84356152Y-71392270D01*
X83433421Y-72315001D01*
X79843464Y-72315001D01*
X79799998Y-72310720D01*
X79756532Y-72315001D01*
X79756522Y-72315001D01*
X79626509Y-72327806D01*
X79459686Y-72378412D01*
X79305940Y-72460590D01*
X79305938Y-72460591D01*
X79305939Y-72460591D01*
X79204952Y-72543469D01*
X79204950Y-72543471D01*
X79171182Y-72571184D01*
X79143469Y-72604952D01*
X79095985Y-72652436D01*
X79064419Y-72639361D01*
X78690581Y-72565000D01*
X78309419Y-72565000D01*
X77935581Y-72639361D01*
X77583434Y-72785225D01*
X77266509Y-72996987D01*
X76996987Y-73266509D01*
X76785225Y-73583434D01*
X76639361Y-73935581D01*
X76565000Y-74309419D01*
X76565000Y-74690581D01*
X76639361Y-75064419D01*
X76785225Y-75416566D01*
X76996987Y-75733491D01*
X77266509Y-76003013D01*
X77583434Y-76214775D01*
X77935581Y-76360639D01*
X78309419Y-76435000D01*
X78690581Y-76435000D01*
X78806759Y-76411891D01*
X79988466Y-77593597D01*
X79924482Y-77574188D01*
X79800000Y-77561928D01*
X77200000Y-77561928D01*
X77075518Y-77574188D01*
X76955820Y-77610498D01*
X76845506Y-77669463D01*
X76748815Y-77748815D01*
X76669463Y-77845506D01*
X76610498Y-77955820D01*
X76574188Y-78075518D01*
X76561928Y-78200000D01*
X72685000Y-78200000D01*
X72685000Y-62047020D01*
X76909437Y-62047020D01*
X77029406Y-62293000D01*
X78373000Y-62293000D01*
X78373000Y-60994430D01*
X78627000Y-60994430D01*
X78627000Y-62293000D01*
X79970594Y-62293000D01*
X80090563Y-62047020D01*
X80019571Y-61828906D01*
X79875969Y-61553077D01*
X79681315Y-61310563D01*
X79443089Y-61110684D01*
X79170446Y-60961121D01*
X78873863Y-60867622D01*
X78627000Y-60994430D01*
X78373000Y-60994430D01*
X78126137Y-60867622D01*
X77829554Y-60961121D01*
X77556911Y-61110684D01*
X77318685Y-61310563D01*
X77124031Y-61553077D01*
X76980429Y-61828906D01*
X76909437Y-62047020D01*
X72685000Y-62047020D01*
X72685000Y-60189040D01*
X82608091Y-60189040D01*
X82702930Y-60453881D01*
X82847615Y-60695131D01*
X83036586Y-60903519D01*
X83262580Y-61071037D01*
X83516913Y-61191246D01*
X83650961Y-61231904D01*
X83873000Y-61109915D01*
X83873000Y-59967000D01*
X82729376Y-59967000D01*
X82608091Y-60189040D01*
X72685000Y-60189040D01*
X72685000Y-52460000D01*
X76857319Y-52460000D01*
X76887970Y-52771204D01*
X76978745Y-53070449D01*
X77126155Y-53346235D01*
X77229446Y-53472095D01*
X77145506Y-53516963D01*
X77048815Y-53596315D01*
X76969463Y-53693006D01*
X76910498Y-53803320D01*
X76874188Y-53923018D01*
X76861928Y-54047500D01*
X76861928Y-55952500D01*
X76874188Y-56076982D01*
X76910498Y-56196680D01*
X76969463Y-56306994D01*
X77048815Y-56403685D01*
X77145506Y-56483037D01*
X77255820Y-56542002D01*
X77375518Y-56578312D01*
X77500000Y-56590572D01*
X77624317Y-56590572D01*
X77627805Y-56625990D01*
X77678412Y-56792813D01*
X77760590Y-56946559D01*
X77843468Y-57047546D01*
X77843471Y-57047549D01*
X77871184Y-57081317D01*
X77904951Y-57109029D01*
X78890968Y-58095047D01*
X78918683Y-58128817D01*
X78952451Y-58156530D01*
X78952453Y-58156532D01*
X78980716Y-58179727D01*
X79053441Y-58239411D01*
X79207187Y-58321589D01*
X79374010Y-58372195D01*
X79504023Y-58385000D01*
X79504031Y-58385000D01*
X79547500Y-58389281D01*
X79590969Y-58385000D01*
X82865479Y-58385000D01*
X82885363Y-58414759D01*
X83085241Y-58614637D01*
X83174482Y-58674266D01*
X83036586Y-58776481D01*
X82847615Y-58984869D01*
X82702930Y-59226119D01*
X82608091Y-59490960D01*
X82729376Y-59713000D01*
X83873000Y-59713000D01*
X83873000Y-59693000D01*
X84127000Y-59693000D01*
X84127000Y-59713000D01*
X85270624Y-59713000D01*
X85391909Y-59490960D01*
X85297070Y-59226119D01*
X85152385Y-58984869D01*
X84963414Y-58776481D01*
X84825518Y-58674266D01*
X84914759Y-58614637D01*
X85114637Y-58414759D01*
X85271680Y-58179727D01*
X85379853Y-57918574D01*
X85435000Y-57641335D01*
X85435000Y-57358665D01*
X85428017Y-57323561D01*
X92366579Y-50385000D01*
X99416531Y-50385000D01*
X99460000Y-50389281D01*
X99503469Y-50385000D01*
X99503477Y-50385000D01*
X99633490Y-50372195D01*
X99800313Y-50321589D01*
X99954059Y-50239411D01*
X100088817Y-50128817D01*
X100116534Y-50095044D01*
X102522538Y-47689040D01*
X103108091Y-47689040D01*
X103202930Y-47953881D01*
X103347615Y-48195131D01*
X103536586Y-48403519D01*
X103762580Y-48571037D01*
X104016913Y-48691246D01*
X104150961Y-48731904D01*
X104373000Y-48609915D01*
X104373000Y-47467000D01*
X104627000Y-47467000D01*
X104627000Y-48609915D01*
X104849039Y-48731904D01*
X104983087Y-48691246D01*
X105237420Y-48571037D01*
X105463414Y-48403519D01*
X105652385Y-48195131D01*
X105797070Y-47953881D01*
X105891909Y-47689040D01*
X105770624Y-47467000D01*
X104627000Y-47467000D01*
X104373000Y-47467000D01*
X103229376Y-47467000D01*
X103108091Y-47689040D01*
X102522538Y-47689040D01*
X103147843Y-47063735D01*
X103229376Y-47213000D01*
X104373000Y-47213000D01*
X104373000Y-46070085D01*
X104627000Y-46070085D01*
X104627000Y-47213000D01*
X105770624Y-47213000D01*
X105891909Y-46990960D01*
X105797070Y-46726119D01*
X105652385Y-46484869D01*
X105463414Y-46276481D01*
X105237420Y-46108963D01*
X104983087Y-45988754D01*
X104849039Y-45948096D01*
X104627000Y-46070085D01*
X104373000Y-46070085D01*
X104223584Y-45987995D01*
X105698518Y-44513061D01*
X105808816Y-44535000D01*
X106111184Y-44535000D01*
X106407743Y-44476011D01*
X106687095Y-44360299D01*
X106938505Y-44192312D01*
X107004944Y-44125873D01*
X107010498Y-44144180D01*
X107069463Y-44254494D01*
X107148815Y-44351185D01*
X107245506Y-44430537D01*
X107355820Y-44489502D01*
X107475518Y-44525812D01*
X107600000Y-44538072D01*
X107615000Y-44538072D01*
X107615001Y-53133420D01*
X104676439Y-56071983D01*
X104641335Y-56065000D01*
X104358665Y-56065000D01*
X104081426Y-56120147D01*
X103820273Y-56228320D01*
X103585241Y-56385363D01*
X103385363Y-56585241D01*
X103228320Y-56820273D01*
X103120147Y-57081426D01*
X103065000Y-57358665D01*
X103065000Y-57641335D01*
X103120147Y-57918574D01*
X103228320Y-58179727D01*
X103385363Y-58414759D01*
X103585241Y-58614637D01*
X103820273Y-58771680D01*
X104081426Y-58879853D01*
X104358665Y-58935000D01*
X104641335Y-58935000D01*
X104918574Y-58879853D01*
X105179727Y-58771680D01*
X105414759Y-58614637D01*
X105614637Y-58414759D01*
X105771680Y-58179727D01*
X105879853Y-57918574D01*
X105935000Y-57641335D01*
X105935000Y-57358665D01*
X105928017Y-57323561D01*
X109095049Y-54156530D01*
X109128817Y-54128817D01*
X109239411Y-53994059D01*
X109321589Y-53840313D01*
X109372195Y-53673490D01*
X109385000Y-53543477D01*
X109385000Y-53543467D01*
X109389281Y-53500001D01*
X109385000Y-53456535D01*
X109385000Y-48236357D01*
X109536586Y-48403519D01*
X109762580Y-48571037D01*
X110016913Y-48691246D01*
X110150961Y-48731904D01*
X110373000Y-48609915D01*
X110373000Y-47467000D01*
X110353000Y-47467000D01*
X110353000Y-47213000D01*
X110373000Y-47213000D01*
X110373000Y-46070085D01*
X110150961Y-45948096D01*
X110016913Y-45988754D01*
X109762580Y-46108963D01*
X109536586Y-46276481D01*
X109385000Y-46443643D01*
X109385000Y-44538072D01*
X109400000Y-44538072D01*
X109524482Y-44525812D01*
X109644180Y-44489502D01*
X109754494Y-44430537D01*
X109851185Y-44351185D01*
X109930537Y-44254494D01*
X109989502Y-44144180D01*
X110025812Y-44024482D01*
X110038072Y-43900000D01*
X110038072Y-42100000D01*
X110025812Y-41975518D01*
X109989502Y-41855820D01*
X109930537Y-41745506D01*
X109851185Y-41648815D01*
X109754494Y-41569463D01*
X109644180Y-41510498D01*
X109524482Y-41474188D01*
X109400000Y-41461928D01*
X107600000Y-41461928D01*
X107475518Y-41474188D01*
X107355820Y-41510498D01*
X107245506Y-41569463D01*
X107148815Y-41648815D01*
X107069463Y-41745506D01*
X107010498Y-41855820D01*
X107004944Y-41874127D01*
X106938505Y-41807688D01*
X106687095Y-41639701D01*
X106407743Y-41523989D01*
X106111184Y-41465000D01*
X105808816Y-41465000D01*
X105512257Y-41523989D01*
X105232905Y-41639701D01*
X104981495Y-41807688D01*
X104767688Y-42021495D01*
X104599701Y-42272905D01*
X104483989Y-42552257D01*
X104425000Y-42848816D01*
X104425000Y-43151184D01*
X104446939Y-43261482D01*
X99093422Y-48615000D01*
X97158788Y-48615000D01*
X97301101Y-48538932D01*
X97519608Y-48359608D01*
X97698932Y-48141101D01*
X97832182Y-47891808D01*
X97914236Y-47621309D01*
X97941943Y-47340000D01*
X97914236Y-47058691D01*
X97832182Y-46788192D01*
X97698932Y-46538899D01*
X97519608Y-46320392D01*
X97301101Y-46141068D01*
X97051808Y-46007818D01*
X96781309Y-45925764D01*
X96570492Y-45905000D01*
X96429508Y-45905000D01*
X96218691Y-45925764D01*
X95948192Y-46007818D01*
X95698899Y-46141068D01*
X95480392Y-46320392D01*
X95369922Y-46455000D01*
X94306579Y-46455000D01*
X91769665Y-43918087D01*
X91851185Y-43851185D01*
X91930537Y-43754494D01*
X91989502Y-43644180D01*
X92025812Y-43524482D01*
X92038072Y-43400000D01*
X92038072Y-41600000D01*
X92025812Y-41475518D01*
X91989502Y-41355820D01*
X91930537Y-41245506D01*
X91851185Y-41148815D01*
X91754494Y-41069463D01*
X91644180Y-41010498D01*
X91524482Y-40974188D01*
X91400000Y-40961928D01*
X89600000Y-40961928D01*
X89475518Y-40974188D01*
X89355820Y-41010498D01*
X89245506Y-41069463D01*
X89148815Y-41148815D01*
X89069463Y-41245506D01*
X89010498Y-41355820D01*
X89007187Y-41366735D01*
X88960422Y-41319970D01*
X88844474Y-41435918D01*
X88760792Y-41181739D01*
X88488225Y-41050842D01*
X88195358Y-40975635D01*
X87893447Y-40959009D01*
X87594093Y-41001603D01*
X87308801Y-41101778D01*
X87159208Y-41181739D01*
X87075525Y-41435920D01*
X87960000Y-42320395D01*
X87974143Y-42306253D01*
X88153748Y-42485858D01*
X88139605Y-42500000D01*
X88153748Y-42514143D01*
X87974143Y-42693748D01*
X87960000Y-42679605D01*
X87075525Y-43564080D01*
X87159208Y-43818261D01*
X87431775Y-43949158D01*
X87724642Y-44024365D01*
X88026553Y-44040991D01*
X88325907Y-43998397D01*
X88611199Y-43898222D01*
X88760792Y-43818261D01*
X88844474Y-43564082D01*
X88960422Y-43680030D01*
X89007187Y-43633265D01*
X89010498Y-43644180D01*
X89069463Y-43754494D01*
X89148815Y-43851185D01*
X89245506Y-43930537D01*
X89355820Y-43989502D01*
X89475518Y-44025812D01*
X89600000Y-44038072D01*
X89624317Y-44038072D01*
X89627805Y-44073490D01*
X89678412Y-44240313D01*
X89760590Y-44394059D01*
X89843468Y-44495046D01*
X89843471Y-44495049D01*
X89871184Y-44528817D01*
X89904951Y-44556529D01*
X93283470Y-47935049D01*
X93311183Y-47968817D01*
X93344951Y-47996530D01*
X93344953Y-47996532D01*
X93445941Y-48079411D01*
X93599686Y-48161589D01*
X93710258Y-48195131D01*
X93766510Y-48212195D01*
X93896523Y-48225000D01*
X93896531Y-48225000D01*
X93940000Y-48229281D01*
X93983469Y-48225000D01*
X95369922Y-48225000D01*
X95480392Y-48359608D01*
X95698899Y-48538932D01*
X95841212Y-48615000D01*
X92043465Y-48615000D01*
X91999999Y-48610719D01*
X91956533Y-48615000D01*
X91956523Y-48615000D01*
X91826510Y-48627805D01*
X91659687Y-48678411D01*
X91505941Y-48760589D01*
X91500566Y-48765000D01*
X91404953Y-48843468D01*
X91404951Y-48843470D01*
X91371183Y-48871183D01*
X91343470Y-48904951D01*
X84176439Y-56071983D01*
X84141335Y-56065000D01*
X83858665Y-56065000D01*
X83581426Y-56120147D01*
X83320273Y-56228320D01*
X83085241Y-56385363D01*
X82885363Y-56585241D01*
X82865479Y-56615000D01*
X79914079Y-56615000D01*
X79807327Y-56508249D01*
X79854494Y-56483037D01*
X79951185Y-56403685D01*
X80030537Y-56306994D01*
X80089502Y-56196680D01*
X80125812Y-56076982D01*
X80138072Y-55952500D01*
X80138072Y-54047500D01*
X80125812Y-53923018D01*
X80089502Y-53803320D01*
X80030537Y-53693006D01*
X79951185Y-53596315D01*
X79854494Y-53516963D01*
X79770554Y-53472095D01*
X79873845Y-53346235D01*
X80021255Y-53070449D01*
X80112030Y-52771204D01*
X80142681Y-52460000D01*
X80112030Y-52148796D01*
X80021255Y-51849551D01*
X79873845Y-51573765D01*
X79675463Y-51332037D01*
X79496101Y-51184837D01*
X79681315Y-51029437D01*
X79875969Y-50786923D01*
X80019571Y-50511094D01*
X80090563Y-50292980D01*
X79970594Y-50047000D01*
X78627000Y-50047000D01*
X78627000Y-50067000D01*
X78373000Y-50067000D01*
X78373000Y-50047000D01*
X77029406Y-50047000D01*
X76909437Y-50292980D01*
X76980429Y-50511094D01*
X77124031Y-50786923D01*
X77318685Y-51029437D01*
X77503899Y-51184837D01*
X77324537Y-51332037D01*
X77126155Y-51573765D01*
X76978745Y-51849551D01*
X76887970Y-52148796D01*
X76857319Y-52460000D01*
X72685000Y-52460000D01*
X72685000Y-49547020D01*
X76909437Y-49547020D01*
X77029406Y-49793000D01*
X78373000Y-49793000D01*
X78373000Y-48494430D01*
X78627000Y-48494430D01*
X78627000Y-49793000D01*
X79970594Y-49793000D01*
X80090563Y-49547020D01*
X80019571Y-49328906D01*
X79875969Y-49053077D01*
X79681315Y-48810563D01*
X79443089Y-48610684D01*
X79170446Y-48461121D01*
X78873863Y-48367622D01*
X78627000Y-48494430D01*
X78373000Y-48494430D01*
X78126137Y-48367622D01*
X77829554Y-48461121D01*
X77556911Y-48610684D01*
X77318685Y-48810563D01*
X77124031Y-49053077D01*
X76980429Y-49328906D01*
X76909437Y-49547020D01*
X72685000Y-49547020D01*
X72685000Y-47689040D01*
X82608091Y-47689040D01*
X82702930Y-47953881D01*
X82847615Y-48195131D01*
X83036586Y-48403519D01*
X83262580Y-48571037D01*
X83516913Y-48691246D01*
X83650961Y-48731904D01*
X83873000Y-48609915D01*
X83873000Y-47467000D01*
X84127000Y-47467000D01*
X84127000Y-48609915D01*
X84349039Y-48731904D01*
X84483087Y-48691246D01*
X84737420Y-48571037D01*
X84963414Y-48403519D01*
X85152385Y-48195131D01*
X85297070Y-47953881D01*
X85391909Y-47689040D01*
X85270624Y-47467000D01*
X84127000Y-47467000D01*
X83873000Y-47467000D01*
X82729376Y-47467000D01*
X82608091Y-47689040D01*
X72685000Y-47689040D01*
X72685000Y-46990960D01*
X82608091Y-46990960D01*
X82729376Y-47213000D01*
X83873000Y-47213000D01*
X83873000Y-46070085D01*
X84127000Y-46070085D01*
X84127000Y-47213000D01*
X85270624Y-47213000D01*
X85391909Y-46990960D01*
X85297070Y-46726119D01*
X85152385Y-46484869D01*
X84963414Y-46276481D01*
X84737420Y-46108963D01*
X84483087Y-45988754D01*
X84349039Y-45948096D01*
X84127000Y-46070085D01*
X83873000Y-46070085D01*
X83650961Y-45948096D01*
X83516913Y-45988754D01*
X83262580Y-46108963D01*
X83036586Y-46276481D01*
X82847615Y-46484869D01*
X82702930Y-46726119D01*
X82608091Y-46990960D01*
X72685000Y-46990960D01*
X72685000Y-40185000D01*
X74530110Y-40185000D01*
X74310315Y-40331862D01*
M02*
